<svg version="1.1" xmlns="http://www.w3.org/2000/svg" xmlns:xlink="http://www.w3.org/1999/xlink" width="996" height="756"><defs></defs><g><g transform="translate(2,2) scale(1,1)"><path fill="none" stroke="#000000" d="M 8 8 L 984 8 L 984 744 L 8 744 L 8 8" stroke-miterlimit="10"></path></g><g transform="translate(2,2) scale(1,1)"><path fill="#6dceff" stroke="none" d="M 8 8 L 8 30 L 141 30 L 152 19 L 152 8 L 8 8"></path></g><g transform="translate(2,2) scale(1,1)"><path fill="none" stroke="#000000" d="M 8 8 L 8 30 L 141 30 L 152 19 L 152 8 L 8 8 L 8 8" stroke-miterlimit="10"></path></g><g transform="translate(2,2) scale(1,1)"><g><path fill="none" stroke="none"></path><text fill="#000000" stroke="none" font-family="Arial" font-size="13px" font-style="normal" font-weight="normal" text-decoration="none" x="72" y="25.5">Use Cases</text></g></g><g transform="translate(2,2) scale(1,1)"><g><path fill="none" stroke="none"></path><text fill="#000000" stroke="none" font-family="Arial" font-size="13px" font-style="normal" font-weight="bold" text-decoration="none" x="13" y="25.5">use case</text></g></g><g transform="translate(2,2) scale(1,1)"><path fill="#00ffd4" stroke="none" d="M 105.32072727272727 385.68 C 105.32072727272727 380.886167936 109.20656959767273 377 114 377 C 118.79343040232727 377 122.67927272727273 380.886167936 122.67927272727273 385.68 C 122.67927272727273 390.473832064 118.79343040232727 394.36 114 394.36 C 109.20656959767273 394.36 105.32072727272727 390.473832064 105.32072727272727 385.68 Z"></path></g><g transform="translate(2,2) scale(1,1)"><path fill="none" stroke="#000000" d="M 105.32072727272727 385.68 C 105.32072727272727 380.886167936 109.20656959767273 377 114 377 C 118.79343040232727 377 122.67927272727273 380.886167936 122.67927272727273 385.68 C 122.67927272727273 390.473832064 118.79343040232727 394.36 114 394.36 C 109.20656959767273 394.36 105.32072727272727 390.473832064 105.32072727272727 385.68 Z" stroke-miterlimit="10"></path></g><g transform="translate(2,2) scale(1,1)"><path fill="none" stroke="#000000" d="M 114 394.36 L 114 411.64" stroke-miterlimit="10"></path></g><g transform="translate(2,2) scale(1,1)"><path fill="none" stroke="#000000" d="M 104.81018181818182 400.84 L 123.18981818181818 400.84" stroke-miterlimit="10"></path></g><g transform="translate(2,2) scale(1,1)"><path fill="none" stroke="#000000" d="M 114 411.64 L 101.23636363636363 429" stroke-miterlimit="10"></path></g><g transform="translate(2,2) scale(1,1)"><path fill="none" stroke="#000000" d="M 114 411.64 L 126.76363636363637 429" stroke-miterlimit="10"></path></g><g transform="translate(2,2) scale(1,1)"><g><path fill="none" stroke="none"></path><text fill="#000000" stroke="none" font-family="Arial" font-size="13px" font-style="normal" font-weight="bold" text-decoration="none" x="83" y="449.5">Field_User</text></g></g><g transform="translate(2,2) scale(1,1)"><path fill="#ff00ff" stroke="none" d="M 606.3207272727273 673.6800000000001 C 606.3207272727273 668.8861679360001 610.2065695976727 665 615 665 C 619.7934304023273 665 623.6792727272727 668.8861679360001 623.6792727272727 673.6800000000001 C 623.6792727272727 678.473832064 619.7934304023273 682.36 615 682.36 C 610.2065695976727 682.36 606.3207272727273 678.473832064 606.3207272727273 673.6800000000001 Z"></path></g><g transform="translate(2,2) scale(1,1)"><path fill="none" stroke="#000000" d="M 606.3207272727273 673.6800000000001 C 606.3207272727273 668.8861679360001 610.2065695976727 665 615 665 C 619.7934304023273 665 623.6792727272727 668.8861679360001 623.6792727272727 673.6800000000001 C 623.6792727272727 678.473832064 619.7934304023273 682.36 615 682.36 C 610.2065695976727 682.36 606.3207272727273 678.473832064 606.3207272727273 673.6800000000001 Z" stroke-miterlimit="10"></path></g><g transform="translate(2,2) scale(1,1)"><path fill="none" stroke="#000000" d="M 615 682.36 L 615 699.64" stroke-miterlimit="10"></path></g><g transform="translate(2,2) scale(1,1)"><path fill="none" stroke="#000000" d="M 605.8101818181818 688.84 L 624.1898181818182 688.84" stroke-miterlimit="10"></path></g><g transform="translate(2,2) scale(1,1)"><path fill="none" stroke="#000000" d="M 615 699.64 L 602.2363636363636 717" stroke-miterlimit="10"></path></g><g transform="translate(2,2) scale(1,1)"><path fill="none" stroke="#000000" d="M 615 699.64 L 627.7636363636364 717" stroke-miterlimit="10"></path></g><g transform="translate(2,2) scale(1,1)"><g><path fill="none" stroke="none"></path><text fill="#000000" stroke="none" font-family="Arial" font-size="13px" font-style="normal" font-weight="bold" text-decoration="none" x="576.5" y="737.5">Monitor_User</text></g></g><g transform="translate(2,2) scale(1,1)"><path fill="#ffff00" stroke="none" d="M 907.3207272727273 249.68 C 907.3207272727273 244.886167936 911.2065695976727 241 916 241 C 920.7934304023273 241 924.6792727272727 244.886167936 924.6792727272727 249.68 C 924.6792727272727 254.47383206400002 920.7934304023273 258.36 916 258.36 C 911.2065695976727 258.36 907.3207272727273 254.47383206400002 907.3207272727273 249.68 Z"></path></g><g transform="translate(2,2) scale(1,1)"><path fill="none" stroke="#000000" d="M 907.3207272727273 249.68 C 907.3207272727273 244.886167936 911.2065695976727 241 916 241 C 920.7934304023273 241 924.6792727272727 244.886167936 924.6792727272727 249.68 C 924.6792727272727 254.47383206400002 920.7934304023273 258.36 916 258.36 C 911.2065695976727 258.36 907.3207272727273 254.47383206400002 907.3207272727273 249.68 Z" stroke-miterlimit="10"></path></g><g transform="translate(2,2) scale(1,1)"><path fill="none" stroke="#000000" d="M 916 258.36 L 916 275.64" stroke-miterlimit="10"></path></g><g transform="translate(2,2) scale(1,1)"><path fill="none" stroke="#000000" d="M 906.8101818181818 264.84 L 925.1898181818182 264.84" stroke-miterlimit="10"></path></g><g transform="translate(2,2) scale(1,1)"><path fill="none" stroke="#000000" d="M 916 275.64 L 903.2363636363636 293" stroke-miterlimit="10"></path></g><g transform="translate(2,2) scale(1,1)"><path fill="none" stroke="#000000" d="M 916 275.64 L 928.7636363636364 293" stroke-miterlimit="10"></path></g><g transform="translate(2,2) scale(1,1)"><g><path fill="none" stroke="none"></path><text fill="#000000" stroke="none" font-family="Arial" font-size="13px" font-style="normal" font-weight="bold" text-decoration="none" x="878" y="313.5">Event_Admin</text></g></g><g transform="translate(2,2) scale(1,1)"><path fill="#568eff" stroke="none" d="M 907.8207272727273 33.68 C 907.8207272727273 28.886167936 911.7065695976727 25 916.5 25 C 921.2934304023273 25 925.1792727272727 28.886167936 925.1792727272727 33.68 C 925.1792727272727 38.473832064 921.2934304023273 42.36 916.5 42.36 C 911.7065695976727 42.36 907.8207272727273 38.473832064 907.8207272727273 33.68 Z"></path></g><g transform="translate(2,2) scale(1,1)"><path fill="none" stroke="#000000" d="M 907.8207272727273 33.68 C 907.8207272727273 28.886167936 911.7065695976727 25 916.5 25 C 921.2934304023273 25 925.1792727272727 28.886167936 925.1792727272727 33.68 C 925.1792727272727 38.473832064 921.2934304023273 42.36 916.5 42.36 C 911.7065695976727 42.36 907.8207272727273 38.473832064 907.8207272727273 33.68 Z" stroke-miterlimit="10"></path></g><g transform="translate(2,2) scale(1,1)"><path fill="none" stroke="#000000" d="M 916.5 42.36 L 916.5 59.64" stroke-miterlimit="10"></path></g><g transform="translate(2,2) scale(1,1)"><path fill="none" stroke="#000000" d="M 907.3101818181818 48.84 L 925.6898181818182 48.84" stroke-miterlimit="10"></path></g><g transform="translate(2,2) scale(1,1)"><path fill="none" stroke="#000000" d="M 916.5 59.64 L 903.7363636363636 77" stroke-miterlimit="10"></path></g><g transform="translate(2,2) scale(1,1)"><path fill="none" stroke="#000000" d="M 916.5 59.64 L 929.2636363636364 77" stroke-miterlimit="10"></path></g><g transform="translate(2,2) scale(1,1)"><g><path fill="none" stroke="none"></path><text fill="#000000" stroke="none" font-family="Arial" font-size="13px" font-style="normal" font-weight="bold" text-decoration="none" x="874" y="97.5">Course_Admin</text></g></g><g transform="translate(2,2) scale(1,1)"><path fill="#C0C0C0" stroke="none" d="M 525 72 C 525 62.6111584 568.4283743999999 55 622 55 C 675.5716256000001 55 719 62.6111584 719 72 C 719 81.3888416 675.5716256000001 89 622 89 C 568.4283743999999 89 525 81.3888416 525 72 Z" opacity="0.2"></path></g><g transform="translate(2,2) scale(1,1)"><path fill="#38bcff" stroke="none" d="M 518 65 C 518 55.6111584 561.4283743999999 48 615 48 C 668.5716256000001 48 712 55.6111584 712 65 C 712 74.3888416 668.5716256000001 82 615 82 C 561.4283743999999 82 518 74.3888416 518 65 Z"></path></g><g transform="translate(2,2) scale(1,1)"><path fill="none" stroke="#000000" d="M 518 65 C 518 55.6111584 561.4283743999999 48 615 48 C 668.5716256000001 48 712 55.6111584 712 65 C 712 74.3888416 668.5716256000001 82 615 82 C 561.4283743999999 82 518 74.3888416 518 65 Z" stroke-miterlimit="10"></path></g><g transform="translate(2,2) scale(1,1)"><g><path fill="none" stroke="none"></path><text fill="#000000" stroke="none" font-family="Arial" font-size="13px" font-style="normal" font-weight="bold" text-decoration="none" x="556.5" y="72">Set Marker Location</text></g></g><g transform="translate(2,2) scale(1,1)"><path fill="#C0C0C0" stroke="none" d="M 553 160 C 553 150.6111584 584.1162064 143 622.5 143 C 660.8837936 143 692 150.6111584 692 160 C 692 169.3888416 660.8837936 177 622.5 177 C 584.1162064 177 553 169.3888416 553 160 Z" opacity="0.2"></path></g><g transform="translate(2,2) scale(1,1)"><path fill="#38bcff" stroke="none" d="M 546 153 C 546 143.6111584 577.1162064 136 615.5 136 C 653.8837936 136 685 143.6111584 685 153 C 685 162.3888416 653.8837936 170 615.5 170 C 577.1162064 170 546 162.3888416 546 153 Z"></path></g><g transform="translate(2,2) scale(1,1)"><path fill="none" stroke="#000000" d="M 546 153 C 546 143.6111584 577.1162064 136 615.5 136 C 653.8837936 136 685 143.6111584 685 153 C 685 162.3888416 653.8837936 170 615.5 170 C 577.1162064 170 546 162.3888416 546 153 Z" stroke-miterlimit="10"></path></g><g transform="translate(2,2) scale(1,1)"><g><path fill="none" stroke="none"></path><text fill="#000000" stroke="none" font-family="Arial" font-size="13px" font-style="normal" font-weight="bold" text-decoration="none" x="575" y="160">Define Course</text></g></g><g transform="translate(2,2) scale(1,1)"><path fill="none" stroke="#000000" d="M 615 83 L 615 135" stroke-miterlimit="10" stroke-dasharray="3"></path></g><g transform="translate(2,2) scale(1,1)"><path fill="none" stroke="#000000" d="M 610.790482243984 124.83732514237585 L 615 135 L 619.209517756016 124.83732514237585" stroke-miterlimit="10"></path></g><g transform="translate(2,2) scale(1,1)"><g><path fill="none" stroke="none"></path><text fill="#000000" stroke="none" font-family="Arial" font-size="13px" font-style="normal" font-weight="normal" text-decoration="none" x="619.5" y="121.5">+add Marker</text></g></g><g transform="translate(2,2) scale(1,1)"><path fill="none" stroke="#000000" d="M 865 63 L 713 64" stroke-miterlimit="10"></path></g><g transform="translate(2,2) scale(1,1)"><path fill="none" stroke="#000000" d="M 865 78 L 675 135" stroke-miterlimit="10"></path></g><g transform="translate(2,2) scale(1,1)"><path fill="#C0C0C0" stroke="none" d="M 573 286 C 573 276.6111584 595.1619024 269 622.5 269 C 649.8380976 269 672 276.6111584 672 286 C 672 295.3888416 649.8380976 303 622.5 303 C 595.1619024 303 573 295.3888416 573 286 Z" opacity="0.2"></path></g><g transform="translate(2,2) scale(1,1)"><path fill="#7fff00" stroke="none" d="M 566 279 C 566 269.6111584 588.1619024 262 615.5 262 C 642.8380976 262 665 269.6111584 665 279 C 665 288.3888416 642.8380976 296 615.5 296 C 588.1619024 296 566 288.3888416 566 279 Z"></path></g><g transform="translate(2,2) scale(1,1)"><path fill="none" stroke="#000000" d="M 566 279 C 566 269.6111584 588.1619024 262 615.5 262 C 642.8380976 262 665 269.6111584 665 279 C 665 288.3888416 642.8380976 296 615.5 296 C 588.1619024 296 566 288.3888416 566 279 Z" stroke-miterlimit="10"></path></g><g transform="translate(2,2) scale(1,1)"><g><path fill="none" stroke="none"></path><text fill="#000000" stroke="none" font-family="Arial" font-size="13px" font-style="normal" font-weight="bold" text-decoration="none" x="598" y="286">Log In</text></g></g><g transform="translate(2,2) scale(1,1)"><path fill="none" stroke="#000000" d="M 865 100 L 640 261" stroke-miterlimit="10"></path></g><g transform="translate(2,2) scale(1,1)"><path fill="none" stroke="#000000" d="M 153 404 L 565 293" stroke-miterlimit="10"></path></g><g transform="translate(2,2) scale(1,1)"><path fill="none" stroke="#000000" d="M 869 279 L 666 279" stroke-miterlimit="10"></path></g><g transform="translate(2,2) scale(1,1)"><path fill="none" stroke="#000000" d="M 615 663 L 615 297" stroke-miterlimit="10"></path></g><g transform="translate(2,2) scale(1,1)"><path fill="#C0C0C0" stroke="none" d="M 687 416 C 687 406.6111584 721.697928 399 764.5 399 C 807.302072 399 842 406.6111584 842 416 C 842 425.3888416 807.302072 433 764.5 433 C 721.697928 433 687 425.3888416 687 416 Z" opacity="0.2"></path></g><g transform="translate(2,2) scale(1,1)"><path fill="#ffff49" stroke="none" d="M 680 409 C 680 399.6111584 714.697928 392 757.5 392 C 800.302072 392 835 399.6111584 835 409 C 835 418.3888416 800.302072 426 757.5 426 C 714.697928 426 680 418.3888416 680 409 Z"></path></g><g transform="translate(2,2) scale(1,1)"><path fill="none" stroke="#000000" d="M 680 409 C 680 399.6111584 714.697928 392 757.5 392 C 800.302072 392 835 399.6111584 835 409 C 835 418.3888416 800.302072 426 757.5 426 C 714.697928 426 680 418.3888416 680 409 Z" stroke-miterlimit="10"></path></g><g transform="translate(2,2) scale(1,1)"><g><path fill="none" stroke="none"></path><text fill="#000000" stroke="none" font-family="Arial" font-size="13px" font-style="normal" font-weight="bold" text-decoration="none" x="710.5" y="416">Register Entrant</text></g></g><g transform="translate(2,2) scale(1,1)"><path fill="none" stroke="#000000" d="M 869 317 L 779 391" stroke-miterlimit="10"></path></g><g transform="translate(2,2) scale(1,1)"><path fill="none" stroke="#000000" d="M 153 415 L 679 410" stroke-miterlimit="10" stroke-dasharray="3"></path></g><g transform="translate(2,2) scale(1,1)"><path fill="none" stroke="#000000" d="M 668.8777968724115 414.3059265952681 L 679 410 L 668.797771633129 405.88727142274007" stroke-miterlimit="10"></path></g><g transform="translate(2,2) scale(1,1)"><g><path fill="none" stroke="none"></path><text fill="#000000" stroke="none" font-family="Arial" font-size="13px" font-style="normal" font-weight="normal" text-decoration="none" x="368.5" y="432.5">+is Registered</text></g></g><g transform="translate(2,2) scale(1,1)"><path fill="#C0C0C0" stroke="none" d="M 871 480 C 871 470.6111584 894.505048 463 923.5 463 C 952.494952 463 976 470.6111584 976 480 C 976 489.3888416 952.494952 497 923.5 497 C 894.505048 497 871 489.3888416 871 480 Z" opacity="0.2"></path></g><g transform="translate(2,2) scale(1,1)"><path fill="#ffff00" stroke="none" d="M 864 473 C 864 463.6111584 887.505048 456 916.5 456 C 945.494952 456 969 463.6111584 969 473 C 969 482.3888416 945.494952 490 916.5 490 C 887.505048 490 864 482.3888416 864 473 Z"></path></g><g transform="translate(2,2) scale(1,1)"><path fill="none" stroke="#000000" d="M 864 473 C 864 463.6111584 887.505048 456 916.5 456 C 945.494952 456 969 463.6111584 969 473 C 969 482.3888416 945.494952 490 916.5 490 C 887.505048 490 864 482.3888416 864 473 Z" stroke-miterlimit="10"></path></g><g transform="translate(2,2) scale(1,1)"><g><path fill="none" stroke="none"></path><text fill="#000000" stroke="none" font-family="Arial" font-size="13px" font-style="normal" font-weight="bold" text-decoration="none" x="885.5" y="480">Result List</text></g></g><g transform="translate(2,2) scale(1,1)"><path fill="#C0C0C0" stroke="none" d="M 671 560 C 671 550.6111584 722.2633904 543 785.5 543 C 848.7366096 543 900 550.6111584 900 560 C 900 569.3888416 848.7366096 577 785.5 577 C 722.2633904 577 671 569.3888416 671 560 Z" opacity="0.2"></path></g><g transform="translate(2,2) scale(1,1)"><path fill="#ffff00" stroke="none" d="M 664 553 C 664 543.6111584 715.2633904 536 778.5 536 C 841.7366096 536 893 543.6111584 893 553 C 893 562.3888416 841.7366096 570 778.5 570 C 715.2633904 570 664 562.3888416 664 553 Z"></path></g><g transform="translate(2,2) scale(1,1)"><path fill="none" stroke="#000000" d="M 664 553 C 664 543.6111584 715.2633904 536 778.5 536 C 841.7366096 536 893 543.6111584 893 553 C 893 562.3888416 841.7366096 570 778.5 570 C 715.2633904 570 664 562.3888416 664 553 Z" stroke-miterlimit="10"></path></g><g transform="translate(2,2) scale(1,1)"><g><path fill="none" stroke="none"></path><text fill="#000000" stroke="none" font-family="Arial" font-size="13px" font-style="normal" font-weight="bold" text-decoration="none" x="709" y="560">Log NonField User Time</text></g></g><g transform="translate(2,2) scale(1,1)"><path fill="none" stroke="#000000" d="M 895 320 L 787 535" stroke-miterlimit="10"></path></g><g transform="translate(2,2) scale(1,1)"><path fill="none" stroke="#000000" d="M 916 320 L 916 455" stroke-miterlimit="10"></path></g><g transform="translate(2,2) scale(1,1)"><path fill="#C0C0C0" stroke="none" d="M 231 616 C 231 606.6111584 284.5019664 599 350.5 599 C 416.4980336 599 470 606.6111584 470 616 C 470 625.3888416 416.4980336 633 350.5 633 C 284.5019664 633 231 625.3888416 231 616 Z" opacity="0.2"></path></g><g transform="translate(2,2) scale(1,1)"><path fill="#ff00ff" stroke="none" d="M 224 609 C 224 599.6111584 277.5019664 592 343.5 592 C 409.4980336 592 463 599.6111584 463 609 C 463 618.3888416 409.4980336 626 343.5 626 C 277.5019664 626 224 618.3888416 224 609 Z"></path></g><g transform="translate(2,2) scale(1,1)"><path fill="none" stroke="#000000" d="M 224 609 C 224 599.6111584 277.5019664 592 343.5 592 C 409.4980336 592 463 599.6111584 463 609 C 463 618.3888416 409.4980336 626 343.5 626 C 277.5019664 626 224 618.3888416 224 609 Z" stroke-miterlimit="10"></path></g><g transform="translate(2,2) scale(1,1)"><g><path fill="none" stroke="none"></path><text fill="#000000" stroke="none" font-family="Arial" font-size="13px" font-style="normal" font-weight="bold" text-decoration="none" x="268.5" y="616">Send Field User Message</text></g></g><g transform="translate(2,2) scale(1,1)"><path fill="none" stroke="#000000" d="M 568 687 L 395 627" stroke-miterlimit="10"></path></g><g transform="translate(2,2) scale(1,1)"><path fill="none" stroke="#000000" d="M 322 591 L 153 448" stroke-miterlimit="10" stroke-dasharray="3"></path></g><g transform="translate(2,2) scale(1,1)"><path fill="none" stroke="#000000" d="M 163.4771519437884 451.3510128538653 L 153 448 L 158.03894127416316 457.77798909978605" stroke-miterlimit="10"></path></g><g transform="translate(2,2) scale(1,1)"><path fill="#C0C0C0" stroke="none" d="M 39 710 C 39 700.6111584 75.936504 693 121.5 693 C 167.063496 693 204 700.6111584 204 710 C 204 719.3888416 167.063496 727 121.5 727 C 75.936504 727 39 719.3888416 39 710 Z" opacity="0.2"></path></g><g transform="translate(2,2) scale(1,1)"><path fill="#ff38ff" stroke="none" d="M 32 703 C 32 693.6111584 68.936504 686 114.5 686 C 160.063496 686 197 693.6111584 197 703 C 197 712.3888416 160.063496 720 114.5 720 C 68.936504 720 32 712.3888416 32 703 Z"></path></g><g transform="translate(2,2) scale(1,1)"><path fill="none" stroke="#000000" d="M 32 703 C 32 693.6111584 68.936504 686 114.5 686 C 160.063496 686 197 693.6111584 197 703 C 197 712.3888416 160.063496 720 114.5 720 C 68.936504 720 32 712.3888416 32 703 Z" stroke-miterlimit="10"></path></g><g transform="translate(2,2) scale(1,1)"><g><path fill="none" stroke="none"></path><text fill="#000000" stroke="none" font-family="Arial" font-size="13px" font-style="normal" font-weight="bold" text-decoration="none" x="64.5" y="710">Select Field User</text></g></g><g transform="translate(2,2) scale(1,1)"><path fill="none" stroke="#000000" d="M 568 703 L 198 703" stroke-miterlimit="10"></path></g><g transform="translate(2,2) scale(1,1)"><path fill="none" stroke="#000000" d="M 114 685 L 114 456" stroke-miterlimit="10" stroke-dasharray="3"></path></g><g transform="translate(2,2) scale(1,1)"><path fill="none" stroke="#000000" d="M 118.20951775601598 466.16267485762415 L 114 456 L 109.79048224398402 466.16267485762415" stroke-miterlimit="10"></path></g><g transform="translate(2,2) scale(1,1)"><path fill="#C0C0C0" stroke="none" d="M 402 288 C 402 278.6111584 427.0720512 271 458 271 C 488.9279488 271 514 278.6111584 514 288 C 514 297.3888416 488.9279488 305 458 305 C 427.0720512 305 402 297.3888416 402 288 Z" opacity="0.2"></path></g><g transform="translate(2,2) scale(1,1)"><path fill="#00ffd4" stroke="none" d="M 395 281 C 395 271.6111584 420.0720512 264 451 264 C 481.9279488 264 507 271.6111584 507 281 C 507 290.3888416 481.9279488 298 451 298 C 420.0720512 298 395 290.3888416 395 281 Z"></path></g><g transform="translate(2,2) scale(1,1)"><path fill="none" stroke="#000000" d="M 395 281 C 395 271.6111584 420.0720512 264 451 264 C 481.9279488 264 507 271.6111584 507 281 C 507 290.3888416 481.9279488 298 451 298 C 420.0720512 298 395 290.3888416 395 281 Z" stroke-miterlimit="10"></path></g><g transform="translate(2,2) scale(1,1)"><g><path fill="none" stroke="none"></path><text fill="#000000" stroke="none" font-family="Arial" font-size="13px" font-style="normal" font-weight="bold" text-decoration="none" x="418" y="288">Get Course</text></g></g><g transform="translate(2,2) scale(1,1)"><path fill="none" stroke="#000000" d="M 153 399 L 406 299" stroke-miterlimit="10"></path></g><g transform="translate(2,2) scale(1,1)"><path fill="none" stroke="#000000" d="M 474 263 L 592 171" stroke-miterlimit="10" stroke-dasharray="3"></path></g><g transform="translate(2,2) scale(1,1)"><path fill="none" stroke="#000000" d="M 586.5736776401076 180.56843903918144 L 592 171 L 581.3971025324406 173.9289187923912" stroke-miterlimit="10"></path></g><g transform="translate(2,2) scale(1,1)"><path fill="#C0C0C0" stroke="none" d="M 397 176 C 397 166.6111584 424.5344848 159 458.5 159 C 492.4655152 159 520 166.6111584 520 176 C 520 185.3888416 492.4655152 193 458.5 193 C 424.5344848 193 397 185.3888416 397 176 Z" opacity="0.2"></path></g><g transform="translate(2,2) scale(1,1)"><path fill="#00ffd4" stroke="none" d="M 390 169 C 390 159.6111584 417.5344848 152 451.5 152 C 485.4655152 152 513 159.6111584 513 169 C 513 178.3888416 485.4655152 186 451.5 186 C 417.5344848 186 390 178.3888416 390 169 Z"></path></g><g transform="translate(2,2) scale(1,1)"><path fill="none" stroke="#000000" d="M 390 169 C 390 159.6111584 417.5344848 152 451.5 152 C 485.4655152 152 513 159.6111584 513 169 C 513 178.3888416 485.4655152 186 451.5 186 C 417.5344848 186 390 178.3888416 390 169 Z" stroke-miterlimit="10"></path></g><g transform="translate(2,2) scale(1,1)"><g><path fill="none" stroke="none"></path><text fill="#000000" stroke="none" font-family="Arial" font-size="13px" font-style="normal" font-weight="bold" text-decoration="none" x="415" y="176">Start Course</text></g></g><g transform="translate(2,2) scale(1,1)"><path fill="none" stroke="#000000" d="M 451 263 L 451 187" stroke-miterlimit="10" stroke-dasharray="3"></path></g><g transform="translate(2,2) scale(1,1)"><path fill="none" stroke="#000000" d="M 455.209517756016 197.16267485762415 L 451 187 L 446.790482243984 197.16267485762415" stroke-miterlimit="10"></path></g><g transform="translate(2,2) scale(1,1)"><g><path fill="none" stroke="none"></path><text fill="#000000" stroke="none" font-family="Arial" font-size="13px" font-style="normal" font-weight="normal" text-decoration="none" x="394.5" y="230.5">«extend»</text></g></g><g transform="translate(2,2) scale(1,1)"><path fill="#C0C0C0" stroke="none" d="M 279 139 C 279 129.6111584 311.0116368 122 350.5 122 C 389.9883632 122 422 129.6111584 422 139 C 422 148.3888416 389.9883632 156 350.5 156 C 311.0116368 156 279 148.3888416 279 139 Z" opacity="0.2"></path></g><g transform="translate(2,2) scale(1,1)"><path fill="#00ffd4" stroke="none" d="M 272 132 C 272 122.6111584 304.0116368 115 343.5 115 C 382.9883632 115 415 122.6111584 415 132 C 415 141.3888416 382.9883632 149 343.5 149 C 304.0116368 149 272 141.3888416 272 132 Z"></path></g><g transform="translate(2,2) scale(1,1)"><path fill="none" stroke="#000000" d="M 272 132 C 272 122.6111584 304.0116368 115 343.5 115 C 382.9883632 115 415 122.6111584 415 132 C 415 141.3888416 382.9883632 149 343.5 149 C 304.0116368 149 272 141.3888416 272 132 Z" stroke-miterlimit="10"></path></g><g transform="translate(2,2) scale(1,1)"><g><path fill="none" stroke="none"></path><text fill="#000000" stroke="none" font-family="Arial" font-size="13px" font-style="normal" font-weight="bold" text-decoration="none" x="303" y="139">Identify Target</text></g></g><g transform="translate(2,2) scale(1,1)"><path fill="#C0C0C0" stroke="none" d="M 284 56 C 284 46.6111584 313.7730608 39 350.5 39 C 387.2269392 39 417 46.6111584 417 56 C 417 65.3888416 387.2269392 73 350.5 73 C 313.7730608 73 284 65.3888416 284 56 Z" opacity="0.2"></path></g><g transform="translate(2,2) scale(1,1)"><path fill="#00ffd4" stroke="none" d="M 277 49 C 277 39.6111584 306.7730608 32 343.5 32 C 380.2269392 32 410 39.6111584 410 49 C 410 58.3888416 380.2269392 66 343.5 66 C 306.7730608 66 277 58.3888416 277 49 Z"></path></g><g transform="translate(2,2) scale(1,1)"><path fill="none" stroke="#000000" d="M 277 49 C 277 39.6111584 306.7730608 32 343.5 32 C 380.2269392 32 410 39.6111584 410 49 C 410 58.3888416 380.2269392 66 343.5 66 C 306.7730608 66 277 58.3888416 277 49 Z" stroke-miterlimit="10"></path></g><g transform="translate(2,2) scale(1,1)"><g><path fill="none" stroke="none"></path><text fill="#000000" stroke="none" font-family="Arial" font-size="13px" font-style="normal" font-weight="bold" text-decoration="none" x="305" y="56">Reach Target</text></g></g><g transform="translate(2,2) scale(1,1)"><path fill="none" stroke="#000000" d="M 146 375 L 328 150" stroke-miterlimit="10"></path></g><g transform="translate(2,2) scale(1,1)"><path fill="none" stroke="#000000" d="M 343 114 L 343 67" stroke-miterlimit="10" stroke-dasharray="3"></path></g><g transform="translate(2,2) scale(1,1)"><path fill="none" stroke="#000000" d="M 347.209517756016 77.16267485762415 L 343 67 L 338.790482243984 77.16267485762415" stroke-miterlimit="10"></path></g><g transform="translate(2,2) scale(1,1)"><g><path fill="none" stroke="none"></path><text fill="#000000" stroke="none" font-family="Arial" font-size="13px" font-style="normal" font-weight="normal" text-decoration="none" x="286.5" y="95.5">«extend»</text></g></g><g transform="translate(2,2) scale(1,1)"><path fill="none" stroke="#000000" d="M 416 114 L 542 83" stroke-miterlimit="10" stroke-dasharray="3"></path></g><g transform="translate(2,2) scale(1,1)"><path fill="none" stroke="#000000" d="M 533.137296245946 89.51555693458943 L 542 83 L 531.1259275842057 81.34031656751613" stroke-miterlimit="10"></path></g><g transform="translate(2,2) scale(1,1)"><path fill="#C0C0C0" stroke="none" d="M 283 264 C 283 254.6111584 312.9969184 247 350 247 C 387.0030816 247 417 254.6111584 417 264 C 417 273.3888416 387.0030816 281 350 281 C 312.9969184 281 283 273.3888416 283 264 Z" opacity="0.2"></path></g><g transform="translate(2,2) scale(1,1)"><path fill="#00ffd4" stroke="none" d="M 276 257 C 276 247.6111584 305.9969184 240 343 240 C 380.0030816 240 410 247.6111584 410 257 C 410 266.3888416 380.0030816 274 343 274 C 305.9969184 274 276 266.3888416 276 257 Z"></path></g><g transform="translate(2,2) scale(1,1)"><path fill="none" stroke="#000000" d="M 276 257 C 276 247.6111584 305.9969184 240 343 240 C 380.0030816 240 410 247.6111584 410 257 C 410 266.3888416 380.0030816 274 343 274 C 305.9969184 274 276 266.3888416 276 257 Z" stroke-miterlimit="10"></path></g><g transform="translate(2,2) scale(1,1)"><g><path fill="none" stroke="none"></path><text fill="#000000" stroke="none" font-family="Arial" font-size="13px" font-style="normal" font-weight="bold" text-decoration="none" x="303" y="264">Finish Course</text></g></g><g transform="translate(2,2) scale(1,1)"><path fill="none" stroke="#000000" d="M 153 388 L 317 275" stroke-miterlimit="10"></path></g><g transform="translate(2,2) scale(1,1)"><path fill="#C0C0C0" stroke="none" d="M 55 139 C 55 129.6111584 86.340064 122 125 122 C 163.65993600000002 122 195 129.6111584 195 139 C 195 148.3888416 163.65993600000002 156 125 156 C 86.340064 156 55 148.3888416 55 139 Z" opacity="0.2"></path></g><g transform="translate(2,2) scale(1,1)"><path fill="#00ffd4" stroke="none" d="M 48 132 C 48 122.6111584 79.340064 115 118 115 C 156.65993600000002 115 188 122.6111584 188 132 C 188 141.3888416 156.65993600000002 149 118 149 C 79.340064 149 48 141.3888416 48 132 Z"></path></g><g transform="translate(2,2) scale(1,1)"><path fill="none" stroke="#000000" d="M 48 132 C 48 122.6111584 79.340064 115 118 115 C 156.65993600000002 115 188 122.6111584 188 132 C 188 141.3888416 156.65993600000002 149 118 149 C 79.340064 149 48 141.3888416 48 132 Z" stroke-miterlimit="10"></path></g><g transform="translate(2,2) scale(1,1)"><g><path fill="none" stroke="none"></path><text fill="#000000" stroke="none" font-family="Arial" font-size="13px" font-style="normal" font-weight="bold" text-decoration="none" x="77.5" y="139">Direction Help</text></g></g><g transform="translate(2,2) scale(1,1)"><path fill="none" stroke="#000000" d="M 115 375 L 118 150" stroke-miterlimit="10"></path></g><g transform="translate(2,2) scale(1,1)"><path fill="#C0C0C0" stroke="none" d="M 395 496 C 395 486.6111584 423.4299152 479 458.5 479 C 493.5700848 479 522 486.6111584 522 496 C 522 505.3888416 493.5700848 513 458.5 513 C 423.4299152 513 395 505.3888416 395 496 Z" opacity="0.2"></path></g><g transform="translate(2,2) scale(1,1)"><path fill="#00ffd4" stroke="none" d="M 388 489 C 388 479.6111584 416.4299152 472 451.5 472 C 486.5700848 472 515 479.6111584 515 489 C 515 498.3888416 486.5700848 506 451.5 506 C 416.4299152 506 388 498.3888416 388 489 Z"></path></g><g transform="translate(2,2) scale(1,1)"><path fill="none" stroke="#000000" d="M 388 489 C 388 479.6111584 416.4299152 472 451.5 472 C 486.5700848 472 515 479.6111584 515 489 C 515 498.3888416 486.5700848 506 451.5 506 C 416.4299152 506 388 498.3888416 388 489 Z" stroke-miterlimit="10"></path></g><g transform="translate(2,2) scale(1,1)"><g><path fill="none" stroke="none"></path><text fill="#000000" stroke="none" font-family="Arial" font-size="13px" font-style="normal" font-weight="bold" text-decoration="none" x="415" y="496">Monitor Help</text></g></g><g transform="translate(2,2) scale(1,1)"><path fill="none" stroke="#000000" d="M 153 424 L 387 475" stroke-miterlimit="10"></path></g><g transform="translate(2,2) scale(1,1)"><path fill="none" stroke="#000000" d="M 465 507 L 584 663" stroke-miterlimit="10" stroke-dasharray="3"></path></g><g transform="translate(2,2) scale(1,1)"><path fill="none" stroke="#000000" d="M 574.489393311642 657.4729428789491 L 584 663 L 581.1832050877643 652.3667659471635" stroke-miterlimit="10"></path></g><g transform="translate(2,2) scale(1,1)"><path fill="none" stroke="#000000" d="M 189 132 L 271 132" stroke-miterlimit="10" stroke-dasharray="3"></path></g><g transform="translate(2,2) scale(1,1)"><path fill="none" stroke="#000000" d="M 260.83732514237585 136.209517756016 L 271 132 L 260.83732514237585 127.79048224398402" stroke-miterlimit="10"></path></g></g></svg>