<svg version="1.1" xmlns="http://www.w3.org/2000/svg" xmlns:xlink="http://www.w3.org/1999/xlink" width="996" height="756"><defs></defs><g><g transform="translate(2,2) scale(1,1)"><path fill="none" stroke="#000000" d="M 8 8 L 984 8 L 984 744 L 8 744 L 8 8" stroke-miterlimit="10"></path></g><g transform="translate(2,2) scale(1,1)"><path fill="#6dceff" stroke="none" d="M 8 8 L 8 30 L 141 30 L 152 19 L 152 8 L 8 8"></path></g><g transform="translate(2,2) scale(1,1)"><path fill="none" stroke="#000000" d="M 8 8 L 8 30 L 141 30 L 152 19 L 152 8 L 8 8 L 8 8" stroke-miterlimit="10"></path></g><g transform="translate(2,2) scale(1,1)"><g><path fill="none" stroke="none"></path><text fill="#000000" stroke="none" font-family="Arial" font-size="13px" font-style="normal" font-weight="normal" text-decoration="none" x="72" y="25.5">Use Cases</text></g></g><g transform="translate(2,2) scale(1,1)"><g><path fill="none" stroke="none"></path><text fill="#000000" stroke="none" font-family="Arial" font-size="13px" font-style="normal" font-weight="bold" text-decoration="none" x="13" y="25.5">use case</text></g></g><g transform="translate(2,2) scale(1,1)"><path fill="#00ffd4" stroke="none" d="M 113.32072727272728 385.68 C 113.32072727272728 380.886167936 117.20656959767274 377 122 377 C 126.79343040232726 377 130.67927272727272 380.886167936 130.67927272727272 385.68 C 130.67927272727272 390.473832064 126.79343040232726 394.36 122 394.36 C 117.20656959767274 394.36 113.32072727272728 390.473832064 113.32072727272728 385.68 Z"></path></g><g transform="translate(2,2) scale(1,1)"><path fill="none" stroke="#000000" d="M 113.32072727272728 385.68 C 113.32072727272728 380.886167936 117.20656959767274 377 122 377 C 126.79343040232726 377 130.67927272727272 380.886167936 130.67927272727272 385.68 C 130.67927272727272 390.473832064 126.79343040232726 394.36 122 394.36 C 117.20656959767274 394.36 113.32072727272728 390.473832064 113.32072727272728 385.68 Z" stroke-miterlimit="10"></path></g><g transform="translate(2,2) scale(1,1)"><path fill="none" stroke="#000000" d="M 122 394.36 L 122 411.64" stroke-miterlimit="10"></path></g><g transform="translate(2,2) scale(1,1)"><path fill="none" stroke="#000000" d="M 112.81018181818183 400.84 L 131.18981818181817 400.84" stroke-miterlimit="10"></path></g><g transform="translate(2,2) scale(1,1)"><path fill="none" stroke="#000000" d="M 122 411.64 L 109.23636363636365 429" stroke-miterlimit="10"></path></g><g transform="translate(2,2) scale(1,1)"><path fill="none" stroke="#000000" d="M 122 411.64 L 134.76363636363635 429" stroke-miterlimit="10"></path></g><g transform="translate(2,2) scale(1,1)"><g><path fill="none" stroke="none"></path><text fill="#000000" stroke="none" font-family="Arial" font-size="13px" font-style="normal" font-weight="bold" text-decoration="none" x="91" y="449.5">Field_User</text></g></g><g transform="translate(2,2) scale(1,1)"><path fill="#ff00ff" stroke="none" d="M 637.3207272727273 673.6800000000001 C 637.3207272727273 668.8861679360001 641.2065695976727 665 646 665 C 650.7934304023273 665 654.6792727272727 668.8861679360001 654.6792727272727 673.6800000000001 C 654.6792727272727 678.473832064 650.7934304023273 682.36 646 682.36 C 641.2065695976727 682.36 637.3207272727273 678.473832064 637.3207272727273 673.6800000000001 Z"></path></g><g transform="translate(2,2) scale(1,1)"><path fill="none" stroke="#000000" d="M 637.3207272727273 673.6800000000001 C 637.3207272727273 668.8861679360001 641.2065695976727 665 646 665 C 650.7934304023273 665 654.6792727272727 668.8861679360001 654.6792727272727 673.6800000000001 C 654.6792727272727 678.473832064 650.7934304023273 682.36 646 682.36 C 641.2065695976727 682.36 637.3207272727273 678.473832064 637.3207272727273 673.6800000000001 Z" stroke-miterlimit="10"></path></g><g transform="translate(2,2) scale(1,1)"><path fill="none" stroke="#000000" d="M 646 682.36 L 646 699.64" stroke-miterlimit="10"></path></g><g transform="translate(2,2) scale(1,1)"><path fill="none" stroke="#000000" d="M 636.8101818181818 688.84 L 655.1898181818182 688.84" stroke-miterlimit="10"></path></g><g transform="translate(2,2) scale(1,1)"><path fill="none" stroke="#000000" d="M 646 699.64 L 633.2363636363636 717" stroke-miterlimit="10"></path></g><g transform="translate(2,2) scale(1,1)"><path fill="none" stroke="#000000" d="M 646 699.64 L 658.7636363636364 717" stroke-miterlimit="10"></path></g><g transform="translate(2,2) scale(1,1)"><g><path fill="none" stroke="none"></path><text fill="#000000" stroke="none" font-family="Arial" font-size="13px" font-style="normal" font-weight="bold" text-decoration="none" x="607.5" y="737.5">Monitor_User</text></g></g><g transform="translate(2,2) scale(1,1)"><path fill="#568eff" stroke="none" d="M 869.8207272727273 249.68 C 869.8207272727273 244.886167936 873.7065695976727 241 878.5 241 C 883.2934304023273 241 887.1792727272727 244.886167936 887.1792727272727 249.68 C 887.1792727272727 254.47383206400002 883.2934304023273 258.36 878.5 258.36 C 873.7065695976727 258.36 869.8207272727273 254.47383206400002 869.8207272727273 249.68 Z"></path></g><g transform="translate(2,2) scale(1,1)"><path fill="none" stroke="#000000" d="M 869.8207272727273 249.68 C 869.8207272727273 244.886167936 873.7065695976727 241 878.5 241 C 883.2934304023273 241 887.1792727272727 244.886167936 887.1792727272727 249.68 C 887.1792727272727 254.47383206400002 883.2934304023273 258.36 878.5 258.36 C 873.7065695976727 258.36 869.8207272727273 254.47383206400002 869.8207272727273 249.68 Z" stroke-miterlimit="10"></path></g><g transform="translate(2,2) scale(1,1)"><path fill="none" stroke="#000000" d="M 878.5 258.36 L 878.5 275.64" stroke-miterlimit="10"></path></g><g transform="translate(2,2) scale(1,1)"><path fill="none" stroke="#000000" d="M 869.3101818181818 264.84 L 887.6898181818182 264.84" stroke-miterlimit="10"></path></g><g transform="translate(2,2) scale(1,1)"><path fill="none" stroke="#000000" d="M 878.5 275.64 L 865.7363636363636 293" stroke-miterlimit="10"></path></g><g transform="translate(2,2) scale(1,1)"><path fill="none" stroke="#000000" d="M 878.5 275.64 L 891.2636363636364 293" stroke-miterlimit="10"></path></g><g transform="translate(2,2) scale(1,1)"><g><path fill="none" stroke="none"></path><text fill="#000000" stroke="none" font-family="Arial" font-size="13px" font-style="normal" font-weight="bold" text-decoration="none" x="836" y="313.5">Course_Admin</text></g></g><g transform="translate(2,2) scale(1,1)"><path fill="#C0C0C0" stroke="none" d="M 788 112 C 788 102.6111584 831.4283743999999 95 885 95 C 938.5716256000001 95 982 102.6111584 982 112 C 982 121.3888416 938.5716256000001 129 885 129 C 831.4283743999999 129 788 121.3888416 788 112 Z" opacity="0.2"></path></g><g transform="translate(2,2) scale(1,1)"><path fill="#38bcff" stroke="none" d="M 781 105 C 781 95.6111584 824.4283743999999 88 878 88 C 931.5716256000001 88 975 95.6111584 975 105 C 975 114.3888416 931.5716256000001 122 878 122 C 824.4283743999999 122 781 114.3888416 781 105 Z"></path></g><g transform="translate(2,2) scale(1,1)"><path fill="none" stroke="#000000" d="M 781 105 C 781 95.6111584 824.4283743999999 88 878 88 C 931.5716256000001 88 975 95.6111584 975 105 C 975 114.3888416 931.5716256000001 122 878 122 C 824.4283743999999 122 781 114.3888416 781 105 Z" stroke-miterlimit="10"></path></g><g transform="translate(2,2) scale(1,1)"><g><path fill="none" stroke="none"></path><text fill="#000000" stroke="none" font-family="Arial" font-size="13px" font-style="normal" font-weight="bold" text-decoration="none" x="819.5" y="112">Set Marker Location</text></g></g><g transform="translate(2,2) scale(1,1)"><path fill="#C0C0C0" stroke="none" d="M 584 200 C 584 190.6111584 615.1162064 183 653.5 183 C 691.8837936 183 723 190.6111584 723 200 C 723 209.3888416 691.8837936 217 653.5 217 C 615.1162064 217 584 209.3888416 584 200 Z" opacity="0.2"></path></g><g transform="translate(2,2) scale(1,1)"><path fill="#38bcff" stroke="none" d="M 577 193 C 577 183.6111584 608.1162064 176 646.5 176 C 684.8837936 176 716 183.6111584 716 193 C 716 202.3888416 684.8837936 210 646.5 210 C 608.1162064 210 577 202.3888416 577 193 Z"></path></g><g transform="translate(2,2) scale(1,1)"><path fill="none" stroke="#000000" d="M 577 193 C 577 183.6111584 608.1162064 176 646.5 176 C 684.8837936 176 716 183.6111584 716 193 C 716 202.3888416 684.8837936 210 646.5 210 C 608.1162064 210 577 202.3888416 577 193 Z" stroke-miterlimit="10"></path></g><g transform="translate(2,2) scale(1,1)"><g><path fill="none" stroke="none"></path><text fill="#000000" stroke="none" font-family="Arial" font-size="13px" font-style="normal" font-weight="bold" text-decoration="none" x="606" y="200">Define Course</text></g></g><g transform="translate(2,2) scale(1,1)"><path fill="none" stroke="#000000" d="M 831 123 L 693 175" stroke-miterlimit="10" stroke-dasharray="3"></path></g><g transform="translate(2,2) scale(1,1)"><path fill="none" stroke="#000000" d="M 701.025618125922 167.4774037927806 L 693 175 L 703.9942477903062 175.3556902098001" stroke-miterlimit="10"></path></g><g transform="translate(2,2) scale(1,1)"><g><path fill="none" stroke="none"></path><text fill="#000000" stroke="none" font-family="Arial" font-size="13px" font-style="normal" font-weight="normal" text-decoration="none" x="733.5" y="196.5">+add Marker</text></g></g><g transform="translate(2,2) scale(1,1)"><path fill="none" stroke="#000000" d="M 878 239 L 878 123" stroke-miterlimit="10"></path></g><g transform="translate(2,2) scale(1,1)"><g><path fill="none" stroke="none"></path><text fill="#000000" stroke="none" font-family="Arial" font-size="13px" font-style="normal" font-weight="normal" text-decoration="none" x="843.5" y="186.5">+Move</text></g></g><g transform="translate(2,2) scale(1,1)"><path fill="none" stroke="#000000" d="M 827 260 L 695 211" stroke-miterlimit="10"></path></g><g transform="translate(2,2) scale(1,1)"><g><path fill="none" stroke="none"></path><text fill="#000000" stroke="none" font-family="Arial" font-size="13px" font-style="normal" font-weight="normal" text-decoration="none" x="732.5" y="255.5">+Define</text></g></g><g transform="translate(2,2) scale(1,1)"><path fill="#C0C0C0" stroke="none" d="M 598 286 C 598 276.6111584 622.624336 269 653 269 C 683.375664 269 708 276.6111584 708 286 C 708 295.3888416 683.375664 303 653 303 C 622.624336 303 598 295.3888416 598 286 Z" opacity="0.2"></path></g><g transform="translate(2,2) scale(1,1)"><path fill="#7fff00" stroke="none" d="M 591 279 C 591 269.6111584 615.624336 262 646 262 C 676.375664 262 701 269.6111584 701 279 C 701 288.3888416 676.375664 296 646 296 C 615.624336 296 591 288.3888416 591 279 Z"></path></g><g transform="translate(2,2) scale(1,1)"><path fill="none" stroke="#000000" d="M 591 279 C 591 269.6111584 615.624336 262 646 262 C 676.375664 262 701 269.6111584 701 279 C 701 288.3888416 676.375664 296 646 296 C 615.624336 296 591 288.3888416 591 279 Z" stroke-miterlimit="10"></path></g><g transform="translate(2,2) scale(1,1)"><g><path fill="none" stroke="none"></path><text fill="#000000" stroke="none" font-family="Arial" font-size="13px" font-style="normal" font-weight="bold" text-decoration="none" x="614.5" y="286">Log In_Out</text></g></g><g transform="translate(2,2) scale(1,1)"><path fill="none" stroke="#000000" d="M 827 279 L 702 279" stroke-miterlimit="10"></path></g><g transform="translate(2,2) scale(1,1)"><g><path fill="none" stroke="none"></path><text fill="#000000" stroke="none" font-family="Arial" font-size="13px" font-style="normal" font-weight="normal" text-decoration="none" x="727.5" y="300.5">+Log In_Out</text></g></g><g transform="translate(2,2) scale(1,1)"><path fill="none" stroke="#000000" d="M 161 415 L 552 416 L 634 297" stroke-miterlimit="10"></path></g><g transform="translate(2,2) scale(1,1)"><g><path fill="none" stroke="none"></path><text fill="#000000" stroke="none" font-family="Arial" font-size="13px" font-style="normal" font-weight="normal" text-decoration="none" x="502.5" y="412.5">+Log In_Out</text></g></g><g transform="translate(2,2) scale(1,1)"><path fill="none" stroke="#000000" d="M 646 663 L 646 297" stroke-miterlimit="10"></path></g><g transform="translate(2,2) scale(1,1)"><g><path fill="none" stroke="none"></path><text fill="#000000" stroke="none" font-family="Arial" font-size="13px" font-style="normal" font-weight="normal" text-decoration="none" x="595.5" y="485.5">+Log In_Out</text></g></g><g transform="translate(2,2) scale(1,1)"><path fill="#C0C0C0" stroke="none" d="M 231 616 C 231 606.6111584 284.5019664 599 350.5 599 C 416.4980336 599 470 606.6111584 470 616 C 470 625.3888416 416.4980336 633 350.5 633 C 284.5019664 633 231 625.3888416 231 616 Z" opacity="0.2"></path></g><g transform="translate(2,2) scale(1,1)"><path fill="#ff00ff" stroke="none" d="M 224 609 C 224 599.6111584 277.5019664 592 343.5 592 C 409.4980336 592 463 599.6111584 463 609 C 463 618.3888416 409.4980336 626 343.5 626 C 277.5019664 626 224 618.3888416 224 609 Z"></path></g><g transform="translate(2,2) scale(1,1)"><path fill="none" stroke="#000000" d="M 224 609 C 224 599.6111584 277.5019664 592 343.5 592 C 409.4980336 592 463 599.6111584 463 609 C 463 618.3888416 409.4980336 626 343.5 626 C 277.5019664 626 224 618.3888416 224 609 Z" stroke-miterlimit="10"></path></g><g transform="translate(2,2) scale(1,1)"><g><path fill="none" stroke="none"></path><text fill="#000000" stroke="none" font-family="Arial" font-size="13px" font-style="normal" font-weight="bold" text-decoration="none" x="268.5" y="616">Send Field User Message</text></g></g><g transform="translate(2,2) scale(1,1)"><path fill="none" stroke="#000000" d="M 599 688 L 401 627" stroke-miterlimit="10"></path></g><g transform="translate(2,2) scale(1,1)"><g><path fill="none" stroke="none"></path><text fill="#000000" stroke="none" font-family="Arial" font-size="13px" font-style="normal" font-weight="normal" text-decoration="none" x="464.5" y="677.5">+message</text></g></g><g transform="translate(2,2) scale(1,1)"><path fill="none" stroke="#000000" d="M 322 591 L 161 449" stroke-miterlimit="10" stroke-dasharray="3"></path></g><g transform="translate(2,2) scale(1,1)"><path fill="none" stroke="#000000" d="M 171.4061991045406 452.565251771847 L 161 449 L 165.83728024868768 458.8793076577084" stroke-miterlimit="10"></path></g><g transform="translate(2,2) scale(1,1)"><g><path fill="none" stroke="none"></path><text fill="#000000" stroke="none" font-family="Arial" font-size="13px" font-style="normal" font-weight="normal" text-decoration="none" x="206.5" y="537.5">+receive</text></g></g><g transform="translate(2,2) scale(1,1)"><path fill="#C0C0C0" stroke="none" d="M 47 710 C 47 700.6111584 83.936504 693 129.5 693 C 175.063496 693 212 700.6111584 212 710 C 212 719.3888416 175.063496 727 129.5 727 C 83.936504 727 47 719.3888416 47 710 Z" opacity="0.2"></path></g><g transform="translate(2,2) scale(1,1)"><path fill="#ff38ff" stroke="none" d="M 40 703 C 40 693.6111584 76.936504 686 122.5 686 C 168.063496 686 205 693.6111584 205 703 C 205 712.3888416 168.063496 720 122.5 720 C 76.936504 720 40 712.3888416 40 703 Z"></path></g><g transform="translate(2,2) scale(1,1)"><path fill="none" stroke="#000000" d="M 40 703 C 40 693.6111584 76.936504 686 122.5 686 C 168.063496 686 205 693.6111584 205 703 C 205 712.3888416 168.063496 720 122.5 720 C 76.936504 720 40 712.3888416 40 703 Z" stroke-miterlimit="10"></path></g><g transform="translate(2,2) scale(1,1)"><g><path fill="none" stroke="none"></path><text fill="#000000" stroke="none" font-family="Arial" font-size="13px" font-style="normal" font-weight="bold" text-decoration="none" x="72.5" y="710">Select Field User</text></g></g><g transform="translate(2,2) scale(1,1)"><path fill="none" stroke="#000000" d="M 599 703 L 206 703" stroke-miterlimit="10"></path></g><g transform="translate(2,2) scale(1,1)"><g><path fill="none" stroke="none"></path><text fill="#000000" stroke="none" font-family="Arial" font-size="13px" font-style="normal" font-weight="normal" text-decoration="none" x="363.5" y="724.5">+select User</text></g></g><g transform="translate(2,2) scale(1,1)"><path fill="none" stroke="#000000" d="M 122 685 L 122 456" stroke-miterlimit="10" stroke-dasharray="3"></path></g><g transform="translate(2,2) scale(1,1)"><path fill="none" stroke="#000000" d="M 126.20951775601598 466.16267485762415 L 122 456 L 117.79048224398402 466.16267485762415" stroke-miterlimit="10"></path></g><g transform="translate(2,2) scale(1,1)"><path fill="#C0C0C0" stroke="none" d="M 279 139 C 279 129.6111584 311.0116368 122 350.5 122 C 389.9883632 122 422 129.6111584 422 139 C 422 148.3888416 389.9883632 156 350.5 156 C 311.0116368 156 279 148.3888416 279 139 Z" opacity="0.2"></path></g><g transform="translate(2,2) scale(1,1)"><path fill="#00ffd4" stroke="none" d="M 272 132 C 272 122.6111584 304.0116368 115 343.5 115 C 382.9883632 115 415 122.6111584 415 132 C 415 141.3888416 382.9883632 149 343.5 149 C 304.0116368 149 272 141.3888416 272 132 Z"></path></g><g transform="translate(2,2) scale(1,1)"><path fill="none" stroke="#000000" d="M 272 132 C 272 122.6111584 304.0116368 115 343.5 115 C 382.9883632 115 415 122.6111584 415 132 C 415 141.3888416 382.9883632 149 343.5 149 C 304.0116368 149 272 141.3888416 272 132 Z" stroke-miterlimit="10"></path></g><g transform="translate(2,2) scale(1,1)"><g><path fill="none" stroke="none"></path><text fill="#000000" stroke="none" font-family="Arial" font-size="13px" font-style="normal" font-weight="bold" text-decoration="none" x="303" y="139">Identify Target</text></g></g><g transform="translate(2,2) scale(1,1)"><path fill="#C0C0C0" stroke="none" d="M 284 56 C 284 46.6111584 313.7730608 39 350.5 39 C 387.2269392 39 417 46.6111584 417 56 C 417 65.3888416 387.2269392 73 350.5 73 C 313.7730608 73 284 65.3888416 284 56 Z" opacity="0.2"></path></g><g transform="translate(2,2) scale(1,1)"><path fill="#00ffd4" stroke="none" d="M 277 49 C 277 39.6111584 306.7730608 32 343.5 32 C 380.2269392 32 410 39.6111584 410 49 C 410 58.3888416 380.2269392 66 343.5 66 C 306.7730608 66 277 58.3888416 277 49 Z"></path></g><g transform="translate(2,2) scale(1,1)"><path fill="none" stroke="#000000" d="M 277 49 C 277 39.6111584 306.7730608 32 343.5 32 C 380.2269392 32 410 39.6111584 410 49 C 410 58.3888416 380.2269392 66 343.5 66 C 306.7730608 66 277 58.3888416 277 49 Z" stroke-miterlimit="10"></path></g><g transform="translate(2,2) scale(1,1)"><g><path fill="none" stroke="none"></path><text fill="#000000" stroke="none" font-family="Arial" font-size="13px" font-style="normal" font-weight="bold" text-decoration="none" x="305" y="56">Reach Target</text></g></g><g transform="translate(2,2) scale(1,1)"><path fill="none" stroke="#000000" d="M 153 375 L 329 150" stroke-miterlimit="10"></path></g><g transform="translate(2,2) scale(1,1)"><g><path fill="none" stroke="none"></path><text fill="#000000" stroke="none" font-family="Arial" font-size="13px" font-style="normal" font-weight="normal" text-decoration="none" x="206.5" y="258.5">+Target</text></g></g><g transform="translate(2,2) scale(1,1)"><path fill="#C0C0C0" stroke="none" d="M 283 264 C 283 254.6111584 312.9969184 247 350 247 C 387.0030816 247 417 254.6111584 417 264 C 417 273.3888416 387.0030816 281 350 281 C 312.9969184 281 283 273.3888416 283 264 Z" opacity="0.2"></path></g><g transform="translate(2,2) scale(1,1)"><path fill="#00ffd4" stroke="none" d="M 276 257 C 276 247.6111584 305.9969184 240 343 240 C 380.0030816 240 410 247.6111584 410 257 C 410 266.3888416 380.0030816 274 343 274 C 305.9969184 274 276 266.3888416 276 257 Z"></path></g><g transform="translate(2,2) scale(1,1)"><path fill="none" stroke="#000000" d="M 276 257 C 276 247.6111584 305.9969184 240 343 240 C 380.0030816 240 410 247.6111584 410 257 C 410 266.3888416 380.0030816 274 343 274 C 305.9969184 274 276 266.3888416 276 257 Z" stroke-miterlimit="10"></path></g><g transform="translate(2,2) scale(1,1)"><g><path fill="none" stroke="none"></path><text fill="#000000" stroke="none" font-family="Arial" font-size="13px" font-style="normal" font-weight="bold" text-decoration="none" x="303" y="264">Finish Course</text></g></g><g transform="translate(2,2) scale(1,1)"><path fill="none" stroke="#000000" d="M 161 387 L 318 275" stroke-miterlimit="10"></path></g><g transform="translate(2,2) scale(1,1)"><g><path fill="none" stroke="none"></path><text fill="#000000" stroke="none" font-family="Arial" font-size="13px" font-style="normal" font-weight="normal" text-decoration="none" x="208.5" y="324.5">+Finish</text></g></g><g transform="translate(2,2) scale(1,1)"><path fill="#C0C0C0" stroke="none" d="M 59 139 C 59 129.6111584 90.340064 122 129 122 C 167.65993600000002 122 199 129.6111584 199 139 C 199 148.3888416 167.65993600000002 156 129 156 C 90.340064 156 59 148.3888416 59 139 Z" opacity="0.2"></path></g><g transform="translate(2,2) scale(1,1)"><path fill="#00ffd4" stroke="none" d="M 52 132 C 52 122.6111584 83.340064 115 122 115 C 160.65993600000002 115 192 122.6111584 192 132 C 192 141.3888416 160.65993600000002 149 122 149 C 83.340064 149 52 141.3888416 52 132 Z"></path></g><g transform="translate(2,2) scale(1,1)"><path fill="none" stroke="#000000" d="M 52 132 C 52 122.6111584 83.340064 115 122 115 C 160.65993600000002 115 192 122.6111584 192 132 C 192 141.3888416 160.65993600000002 149 122 149 C 83.340064 149 52 141.3888416 52 132 Z" stroke-miterlimit="10"></path></g><g transform="translate(2,2) scale(1,1)"><g><path fill="none" stroke="none"></path><text fill="#000000" stroke="none" font-family="Arial" font-size="13px" font-style="normal" font-weight="bold" text-decoration="none" x="81.5" y="139">Direction Help</text></g></g><g transform="translate(2,2) scale(1,1)"><path fill="#C0C0C0" stroke="none" d="M 419 496 C 419 486.6111584 447.4299152 479 482.5 479 C 517.5700848 479 546 486.6111584 546 496 C 546 505.3888416 517.5700848 513 482.5 513 C 447.4299152 513 419 505.3888416 419 496 Z" opacity="0.2"></path></g><g transform="translate(2,2) scale(1,1)"><path fill="#00ffd4" stroke="none" d="M 412 489 C 412 479.6111584 440.4299152 472 475.5 472 C 510.5700848 472 539 479.6111584 539 489 C 539 498.3888416 510.5700848 506 475.5 506 C 440.4299152 506 412 498.3888416 412 489 Z"></path></g><g transform="translate(2,2) scale(1,1)"><path fill="none" stroke="#000000" d="M 412 489 C 412 479.6111584 440.4299152 472 475.5 472 C 510.5700848 472 539 479.6111584 539 489 C 539 498.3888416 510.5700848 506 475.5 506 C 440.4299152 506 412 498.3888416 412 489 Z" stroke-miterlimit="10"></path></g><g transform="translate(2,2) scale(1,1)"><g><path fill="none" stroke="none"></path><text fill="#000000" stroke="none" font-family="Arial" font-size="13px" font-style="normal" font-weight="bold" text-decoration="none" x="439" y="496">Monitor Help</text></g></g><g transform="translate(2,2) scale(1,1)"><path fill="none" stroke="#000000" d="M 489 507 L 614 663" stroke-miterlimit="10" stroke-dasharray="3"></path></g><g transform="translate(2,2) scale(1,1)"><path fill="none" stroke="#000000" d="M 604.3602038176159 657.7014785494355 L 614 663 L 610.9302551981365 652.4370143022235" stroke-miterlimit="10"></path></g><g transform="translate(2,2) scale(1,1)"><g><path fill="none" stroke="none"></path><text fill="#000000" stroke="none" font-family="Arial" font-size="13px" font-style="normal" font-weight="normal" text-decoration="none" x="537.5" y="581.5">+receive</text></g></g><g transform="translate(2,2) scale(1,1)"><path fill="none" stroke="#000000" d="M 193 132 L 271 132" stroke-miterlimit="10" stroke-dasharray="3"></path></g><g transform="translate(2,2) scale(1,1)"><path fill="none" stroke="#000000" d="M 260.83732514237585 136.209517756016 L 271 132 L 260.83732514237585 127.79048224398402" stroke-miterlimit="10"></path></g><g transform="translate(2,2) scale(1,1)"><g><path fill="none" stroke="none"></path><text fill="#000000" stroke="none" font-family="Arial" font-size="13px" font-style="normal" font-weight="normal" text-decoration="none" x="198.5" y="123.5">+get Target</text></g></g><g transform="translate(2,2) scale(1,1)"><path fill="#C0C0C0" stroke="none" d="M 426 201 C 426 191.6111584 451.0720512 184 482 184 C 512.9279488 184 538 191.6111584 538 201 C 538 210.3888416 512.9279488 218 482 218 C 451.0720512 218 426 210.3888416 426 201 Z" opacity="0.2"></path></g><g transform="translate(2,2) scale(1,1)"><path fill="#00ffd4" stroke="none" d="M 419 194 C 419 184.6111584 444.0720512 177 475 177 C 505.9279488 177 531 184.6111584 531 194 C 531 203.3888416 505.9279488 211 475 211 C 444.0720512 211 419 203.3888416 419 194 Z"></path></g><g transform="translate(2,2) scale(1,1)"><path fill="none" stroke="#000000" d="M 419 194 C 419 184.6111584 444.0720512 177 475 177 C 505.9279488 177 531 184.6111584 531 194 C 531 203.3888416 505.9279488 211 475 211 C 444.0720512 211 419 203.3888416 419 194 Z" stroke-miterlimit="10"></path></g><g transform="translate(2,2) scale(1,1)"><g><path fill="none" stroke="none"></path><text fill="#000000" stroke="none" font-family="Arial" font-size="13px" font-style="normal" font-weight="bold" text-decoration="none" x="442" y="201">Get Course</text></g></g><g transform="translate(2,2) scale(1,1)"><path fill="none" stroke="#000000" d="M 532 194 L 576 193" stroke-miterlimit="10" stroke-dasharray="3"></path></g><g transform="translate(2,2) scale(1,1)"><path fill="none" stroke="#000000" d="M 565.9355949430687 197.43934126307227 L 576 193 L 565.7443026245161 189.02247924675535" stroke-miterlimit="10"></path></g><g transform="translate(2,2) scale(1,1)"><path fill="#C0C0C0" stroke="none" d="M 421 300 C 421 290.6111584 448.5344848 283 482.5 283 C 516.4655152 283 544 290.6111584 544 300 C 544 309.3888416 516.4655152 317 482.5 317 C 448.5344848 317 421 309.3888416 421 300 Z" opacity="0.2"></path></g><g transform="translate(2,2) scale(1,1)"><path fill="#00ffd4" stroke="none" d="M 414 293 C 414 283.6111584 441.5344848 276 475.5 276 C 509.4655152 276 537 283.6111584 537 293 C 537 302.3888416 509.4655152 310 475.5 310 C 441.5344848 310 414 302.3888416 414 293 Z"></path></g><g transform="translate(2,2) scale(1,1)"><path fill="none" stroke="#000000" d="M 414 293 C 414 283.6111584 441.5344848 276 475.5 276 C 509.4655152 276 537 283.6111584 537 293 C 537 302.3888416 509.4655152 310 475.5 310 C 441.5344848 310 414 302.3888416 414 293 Z" stroke-miterlimit="10"></path></g><g transform="translate(2,2) scale(1,1)"><g><path fill="none" stroke="none"></path><text fill="#000000" stroke="none" font-family="Arial" font-size="13px" font-style="normal" font-weight="bold" text-decoration="none" x="439" y="300">Start Course</text></g></g><g transform="translate(2,2) scale(1,1)"><path fill="none" stroke="#000000" d="M 475 275 L 475 212" stroke-miterlimit="10" stroke-dasharray="3"></path></g><g transform="translate(2,2) scale(1,1)"><path fill="none" stroke="#000000" d="M 479.209517756016 222.16267485762415 L 475 212 L 470.790482243984 222.16267485762415" stroke-miterlimit="10"></path></g><g transform="translate(2,2) scale(1,1)"><g><path fill="none" stroke="none"></path><text fill="#000000" stroke="none" font-family="Arial" font-size="13px" font-style="normal" font-weight="normal" text-decoration="none" x="417.5" y="248.5">«include»</text></g></g><g transform="translate(2,2) scale(1,1)"><path fill="none" stroke="#000000" d="M 161 402 L 423 311" stroke-miterlimit="10"></path></g><g transform="translate(2,2) scale(1,1)"><g><path fill="none" stroke="none"></path><text fill="#000000" stroke="none" font-family="Arial" font-size="13px" font-style="normal" font-weight="normal" text-decoration="none" x="268.5" y="347.5">+Start</text></g></g><g transform="translate(2,2) scale(1,1)"><path fill="#C0C0C0" stroke="none" d="M 64 294 C 64 284.6111584 93.32534559999999 277 129.5 277 C 165.6746544 277 195 284.6111584 195 294 C 195 303.3888416 165.6746544 311 129.5 311 C 93.32534559999999 311 64 303.3888416 64 294 Z" opacity="0.2"></path></g><g transform="translate(2,2) scale(1,1)"><path fill="#00ffd4" stroke="none" d="M 57 287 C 57 277.6111584 86.32534559999999 270 122.5 270 C 158.6746544 270 188 277.6111584 188 287 C 188 296.3888416 158.6746544 304 122.5 304 C 86.32534559999999 304 57 296.3888416 57 287 Z"></path></g><g transform="translate(2,2) scale(1,1)"><path fill="none" stroke="#000000" d="M 57 287 C 57 277.6111584 86.32534559999999 270 122.5 270 C 158.6746544 270 188 277.6111584 188 287 C 188 296.3888416 158.6746544 304 122.5 304 C 86.32534559999999 304 57 296.3888416 57 287 Z" stroke-miterlimit="10"></path></g><g transform="translate(2,2) scale(1,1)"><g><path fill="none" stroke="none"></path><text fill="#000000" stroke="none" font-family="Arial" font-size="13px" font-style="normal" font-weight="bold" text-decoration="none" x="83.5" y="294">Request Help</text></g></g><g transform="translate(2,2) scale(1,1)"><path fill="none" stroke="#000000" d="M 122 375 L 122 305" stroke-miterlimit="10"></path></g><g transform="translate(2,2) scale(1,1)"><g><path fill="none" stroke="none"></path><text fill="#000000" stroke="none" font-family="Arial" font-size="13px" font-style="normal" font-weight="normal" text-decoration="none" x="90.5" y="345.5">+help</text></g></g><g transform="translate(2,2) scale(1,1)"><path fill="none" stroke="#000000" d="M 122 269 L 122 150" stroke-miterlimit="10" stroke-dasharray="3"></path></g><g transform="translate(2,2) scale(1,1)"><path fill="none" stroke="#000000" d="M 126.20951775601598 160.16267485762415 L 122 150 L 117.79048224398402 160.16267485762415" stroke-miterlimit="10"></path></g><g transform="translate(2,2) scale(1,1)"><g><path fill="none" stroke="none"></path><text fill="#000000" stroke="none" font-family="Arial" font-size="13px" font-style="normal" font-weight="normal" text-decoration="none" x="65.5" y="214.5">«extend»</text></g></g><g transform="translate(2,2) scale(1,1)"><path fill="none" stroke="#000000" d="M 132 305 L 232 488 L 411 489" stroke-miterlimit="10" stroke-dasharray="3"></path></g><g transform="translate(2,2) scale(1,1)"><path fill="none" stroke="#000000" d="M 400.8139672352668 493.1526782340775 L 411 489 L 400.86100021926677 484.73377409807074" stroke-miterlimit="10"></path></g><g transform="translate(2,2) scale(1,1)"><g><path fill="none" stroke="none"></path><text fill="#000000" stroke="none" font-family="Arial" font-size="13px" font-style="normal" font-weight="normal" text-decoration="none" x="205.5" y="464.5">«extend»</text></g></g><g transform="translate(2,2) scale(1,1)"><path fill="none" stroke="#000000" d="M 343 114 L 343 67" stroke-miterlimit="10" stroke-dasharray="3"></path></g><g transform="translate(2,2) scale(1,1)"><path fill="none" stroke="#000000" d="M 347.209517756016 77.16267485762415 L 343 67 L 338.790482243984 77.16267485762415" stroke-miterlimit="10"></path></g><g transform="translate(2,2) scale(1,1)"><g><path fill="none" stroke="none"></path><text fill="#000000" stroke="none" font-family="Arial" font-size="13px" font-style="normal" font-weight="normal" text-decoration="none" x="286.5" y="95.5">«extend»</text></g></g><g transform="translate(2,2) scale(1,1)"><path fill="#C0C0C0" stroke="none" d="M 354 361 C 354 351.6111584 385.1162064 344 423.5 344 C 461.8837936 344 493 351.6111584 493 361 C 493 370.3888416 461.8837936 378 423.5 378 C 385.1162064 378 354 370.3888416 354 361 Z" opacity="0.2"></path></g><g transform="translate(2,2) scale(1,1)"><path fill="#00ffd4" stroke="none" d="M 347 354 C 347 344.6111584 378.1162064 337 416.5 337 C 454.8837936 337 486 344.6111584 486 354 C 486 363.3888416 454.8837936 371 416.5 371 C 378.1162064 371 347 363.3888416 347 354 Z"></path></g><g transform="translate(2,2) scale(1,1)"><path fill="none" stroke="#000000" d="M 347 354 C 347 344.6111584 378.1162064 337 416.5 337 C 454.8837936 337 486 344.6111584 486 354 C 486 363.3888416 454.8837936 371 416.5 371 C 378.1162064 371 347 363.3888416 347 354 Z" stroke-miterlimit="10"></path></g><g transform="translate(2,2) scale(1,1)"><g><path fill="none" stroke="none"></path><text fill="#000000" stroke="none" font-family="Arial" font-size="13px" font-style="normal" font-weight="bold" text-decoration="none" x="376" y="361">Achievements</text></g></g><g transform="translate(2,2) scale(1,1)"><path fill="none" stroke="#000000" d="M 161 407 L 346 369" stroke-miterlimit="10"></path></g><g transform="translate(2,2) scale(1,1)"><g><path fill="none" stroke="none"></path><text fill="#000000" stroke="none" font-family="Arial" font-size="13px" font-style="normal" font-weight="normal" text-decoration="none" x="227.5" y="378.5">+check</text></g></g></g></svg>