<svg version="1.1" xmlns="http://www.w3.org/2000/svg" xmlns:xlink="http://www.w3.org/1999/xlink" width="996" height="756"><defs></defs><g><g transform="translate(2,2) scale(1,1)"><path fill="none" stroke="#000000" d="M 8 8 L 984 8 L 984 744 L 8 744 L 8 8" stroke-miterlimit="10"></path></g><g transform="translate(2,2) scale(1,1)"><path fill="#6dceff" stroke="none" d="M 8 8 L 8 30 L 141 30 L 152 19 L 152 8 L 8 8"></path></g><g transform="translate(2,2) scale(1,1)"><path fill="none" stroke="#000000" d="M 8 8 L 8 30 L 141 30 L 152 19 L 152 8 L 8 8 L 8 8" stroke-miterlimit="10"></path></g><g transform="translate(2,2) scale(1,1)"><g><path fill="none" stroke="none"></path><text fill="#000000" stroke="none" font-family="Arial" font-size="13px" font-style="normal" font-weight="normal" text-decoration="none" x="72" y="25.5">Use Cases</text></g></g><g transform="translate(2,2) scale(1,1)"><g><path fill="none" stroke="none"></path><text fill="#000000" stroke="none" font-family="Arial" font-size="13px" font-style="normal" font-weight="bold" text-decoration="none" x="13" y="25.5">use case</text></g></g><g transform="translate(2,2) scale(1,1)"><path fill="#00ffd4" stroke="none" d="M 113.32072727272728 385.68 C 113.32072727272728 380.886167936 117.20656959767274 377 122 377 C 126.79343040232726 377 130.67927272727272 380.886167936 130.67927272727272 385.68 C 130.67927272727272 390.473832064 126.79343040232726 394.36 122 394.36 C 117.20656959767274 394.36 113.32072727272728 390.473832064 113.32072727272728 385.68 Z"></path></g><g transform="translate(2,2) scale(1,1)"><path fill="none" stroke="#000000" d="M 113.32072727272728 385.68 C 113.32072727272728 380.886167936 117.20656959767274 377 122 377 C 126.79343040232726 377 130.67927272727272 380.886167936 130.67927272727272 385.68 C 130.67927272727272 390.473832064 126.79343040232726 394.36 122 394.36 C 117.20656959767274 394.36 113.32072727272728 390.473832064 113.32072727272728 385.68 Z" stroke-miterlimit="10"></path></g><g transform="translate(2,2) scale(1,1)"><path fill="none" stroke="#000000" d="M 122 394.36 L 122 411.64" stroke-miterlimit="10"></path></g><g transform="translate(2,2) scale(1,1)"><path fill="none" stroke="#000000" d="M 112.81018181818183 400.84 L 131.18981818181817 400.84" stroke-miterlimit="10"></path></g><g transform="translate(2,2) scale(1,1)"><path fill="none" stroke="#000000" d="M 122 411.64 L 109.23636363636365 429" stroke-miterlimit="10"></path></g><g transform="translate(2,2) scale(1,1)"><path fill="none" stroke="#000000" d="M 122 411.64 L 134.76363636363635 429" stroke-miterlimit="10"></path></g><g transform="translate(2,2) scale(1,1)"><g><path fill="none" stroke="none"></path><text fill="#000000" stroke="none" font-family="Arial" font-size="13px" font-style="normal" font-weight="bold" text-decoration="none" x="91" y="449.5">Field_User</text></g></g><g transform="translate(2,2) scale(1,1)"><path fill="#ff00ff" stroke="none" d="M 606.3207272727273 673.6800000000001 C 606.3207272727273 668.8861679360001 610.2065695976727 665 615 665 C 619.7934304023273 665 623.6792727272727 668.8861679360001 623.6792727272727 673.6800000000001 C 623.6792727272727 678.473832064 619.7934304023273 682.36 615 682.36 C 610.2065695976727 682.36 606.3207272727273 678.473832064 606.3207272727273 673.6800000000001 Z"></path></g><g transform="translate(2,2) scale(1,1)"><path fill="none" stroke="#000000" d="M 606.3207272727273 673.6800000000001 C 606.3207272727273 668.8861679360001 610.2065695976727 665 615 665 C 619.7934304023273 665 623.6792727272727 668.8861679360001 623.6792727272727 673.6800000000001 C 623.6792727272727 678.473832064 619.7934304023273 682.36 615 682.36 C 610.2065695976727 682.36 606.3207272727273 678.473832064 606.3207272727273 673.6800000000001 Z" stroke-miterlimit="10"></path></g><g transform="translate(2,2) scale(1,1)"><path fill="none" stroke="#000000" d="M 615 682.36 L 615 699.64" stroke-miterlimit="10"></path></g><g transform="translate(2,2) scale(1,1)"><path fill="none" stroke="#000000" d="M 605.8101818181818 688.84 L 624.1898181818182 688.84" stroke-miterlimit="10"></path></g><g transform="translate(2,2) scale(1,1)"><path fill="none" stroke="#000000" d="M 615 699.64 L 602.2363636363636 717" stroke-miterlimit="10"></path></g><g transform="translate(2,2) scale(1,1)"><path fill="none" stroke="#000000" d="M 615 699.64 L 627.7636363636364 717" stroke-miterlimit="10"></path></g><g transform="translate(2,2) scale(1,1)"><g><path fill="none" stroke="none"></path><text fill="#000000" stroke="none" font-family="Arial" font-size="13px" font-style="normal" font-weight="bold" text-decoration="none" x="576.5" y="737.5">Monitor_User</text></g></g><g transform="translate(2,2) scale(1,1)"><path fill="#ffff00" stroke="none" d="M 907.3207272727273 249.68 C 907.3207272727273 244.886167936 911.2065695976727 241 916 241 C 920.7934304023273 241 924.6792727272727 244.886167936 924.6792727272727 249.68 C 924.6792727272727 254.47383206400002 920.7934304023273 258.36 916 258.36 C 911.2065695976727 258.36 907.3207272727273 254.47383206400002 907.3207272727273 249.68 Z"></path></g><g transform="translate(2,2) scale(1,1)"><path fill="none" stroke="#000000" d="M 907.3207272727273 249.68 C 907.3207272727273 244.886167936 911.2065695976727 241 916 241 C 920.7934304023273 241 924.6792727272727 244.886167936 924.6792727272727 249.68 C 924.6792727272727 254.47383206400002 920.7934304023273 258.36 916 258.36 C 911.2065695976727 258.36 907.3207272727273 254.47383206400002 907.3207272727273 249.68 Z" stroke-miterlimit="10"></path></g><g transform="translate(2,2) scale(1,1)"><path fill="none" stroke="#000000" d="M 916 258.36 L 916 275.64" stroke-miterlimit="10"></path></g><g transform="translate(2,2) scale(1,1)"><path fill="none" stroke="#000000" d="M 906.8101818181818 264.84 L 925.1898181818182 264.84" stroke-miterlimit="10"></path></g><g transform="translate(2,2) scale(1,1)"><path fill="none" stroke="#000000" d="M 916 275.64 L 903.2363636363636 293" stroke-miterlimit="10"></path></g><g transform="translate(2,2) scale(1,1)"><path fill="none" stroke="#000000" d="M 916 275.64 L 928.7636363636364 293" stroke-miterlimit="10"></path></g><g transform="translate(2,2) scale(1,1)"><g><path fill="none" stroke="none"></path><text fill="#000000" stroke="none" font-family="Arial" font-size="13px" font-style="normal" font-weight="bold" text-decoration="none" x="878" y="313.5">Event_Admin</text></g></g><g transform="translate(2,2) scale(1,1)"><path fill="#568eff" stroke="none" d="M 907.8207272727273 33.68 C 907.8207272727273 28.886167936 911.7065695976727 25 916.5 25 C 921.2934304023273 25 925.1792727272727 28.886167936 925.1792727272727 33.68 C 925.1792727272727 38.473832064 921.2934304023273 42.36 916.5 42.36 C 911.7065695976727 42.36 907.8207272727273 38.473832064 907.8207272727273 33.68 Z"></path></g><g transform="translate(2,2) scale(1,1)"><path fill="none" stroke="#000000" d="M 907.8207272727273 33.68 C 907.8207272727273 28.886167936 911.7065695976727 25 916.5 25 C 921.2934304023273 25 925.1792727272727 28.886167936 925.1792727272727 33.68 C 925.1792727272727 38.473832064 921.2934304023273 42.36 916.5 42.36 C 911.7065695976727 42.36 907.8207272727273 38.473832064 907.8207272727273 33.68 Z" stroke-miterlimit="10"></path></g><g transform="translate(2,2) scale(1,1)"><path fill="none" stroke="#000000" d="M 916.5 42.36 L 916.5 59.64" stroke-miterlimit="10"></path></g><g transform="translate(2,2) scale(1,1)"><path fill="none" stroke="#000000" d="M 907.3101818181818 48.84 L 925.6898181818182 48.84" stroke-miterlimit="10"></path></g><g transform="translate(2,2) scale(1,1)"><path fill="none" stroke="#000000" d="M 916.5 59.64 L 903.7363636363636 77" stroke-miterlimit="10"></path></g><g transform="translate(2,2) scale(1,1)"><path fill="none" stroke="#000000" d="M 916.5 59.64 L 929.2636363636364 77" stroke-miterlimit="10"></path></g><g transform="translate(2,2) scale(1,1)"><g><path fill="none" stroke="none"></path><text fill="#000000" stroke="none" font-family="Arial" font-size="13px" font-style="normal" font-weight="bold" text-decoration="none" x="874" y="97.5">Course_Admin</text></g></g><g transform="translate(2,2) scale(1,1)"><path fill="#C0C0C0" stroke="none" d="M 525 72 C 525 62.6111584 568.4283743999999 55 622 55 C 675.5716256000001 55 719 62.6111584 719 72 C 719 81.3888416 675.5716256000001 89 622 89 C 568.4283743999999 89 525 81.3888416 525 72 Z" opacity="0.2"></path></g><g transform="translate(2,2) scale(1,1)"><path fill="#38bcff" stroke="none" d="M 518 65 C 518 55.6111584 561.4283743999999 48 615 48 C 668.5716256000001 48 712 55.6111584 712 65 C 712 74.3888416 668.5716256000001 82 615 82 C 561.4283743999999 82 518 74.3888416 518 65 Z"></path></g><g transform="translate(2,2) scale(1,1)"><path fill="none" stroke="#000000" d="M 518 65 C 518 55.6111584 561.4283743999999 48 615 48 C 668.5716256000001 48 712 55.6111584 712 65 C 712 74.3888416 668.5716256000001 82 615 82 C 561.4283743999999 82 518 74.3888416 518 65 Z" stroke-miterlimit="10"></path></g><g transform="translate(2,2) scale(1,1)"><g><path fill="none" stroke="none"></path><text fill="#000000" stroke="none" font-family="Arial" font-size="13px" font-style="normal" font-weight="bold" text-decoration="none" x="556.5" y="72">Set Marker Location</text></g></g><g transform="translate(2,2) scale(1,1)"><path fill="#C0C0C0" stroke="none" d="M 553 160 C 553 150.6111584 584.1162064 143 622.5 143 C 660.8837936 143 692 150.6111584 692 160 C 692 169.3888416 660.8837936 177 622.5 177 C 584.1162064 177 553 169.3888416 553 160 Z" opacity="0.2"></path></g><g transform="translate(2,2) scale(1,1)"><path fill="#38bcff" stroke="none" d="M 546 153 C 546 143.6111584 577.1162064 136 615.5 136 C 653.8837936 136 685 143.6111584 685 153 C 685 162.3888416 653.8837936 170 615.5 170 C 577.1162064 170 546 162.3888416 546 153 Z"></path></g><g transform="translate(2,2) scale(1,1)"><path fill="none" stroke="#000000" d="M 546 153 C 546 143.6111584 577.1162064 136 615.5 136 C 653.8837936 136 685 143.6111584 685 153 C 685 162.3888416 653.8837936 170 615.5 170 C 577.1162064 170 546 162.3888416 546 153 Z" stroke-miterlimit="10"></path></g><g transform="translate(2,2) scale(1,1)"><g><path fill="none" stroke="none"></path><text fill="#000000" stroke="none" font-family="Arial" font-size="13px" font-style="normal" font-weight="bold" text-decoration="none" x="575" y="160">Define Course</text></g></g><g transform="translate(2,2) scale(1,1)"><path fill="none" stroke="#000000" d="M 615 83 L 615 135" stroke-miterlimit="10" stroke-dasharray="3"></path></g><g transform="translate(2,2) scale(1,1)"><path fill="none" stroke="#000000" d="M 610.790482243984 124.83732514237585 L 615 135 L 619.209517756016 124.83732514237585" stroke-miterlimit="10"></path></g><g transform="translate(2,2) scale(1,1)"><g><path fill="none" stroke="none"></path><text fill="#000000" stroke="none" font-family="Arial" font-size="13px" font-style="normal" font-weight="normal" text-decoration="none" x="619.5" y="121.5">+add Marker</text></g></g><g transform="translate(2,2) scale(1,1)"><path fill="none" stroke="#000000" d="M 865 63 L 713 64" stroke-miterlimit="10"></path></g><g transform="translate(2,2) scale(1,1)"><g><path fill="none" stroke="none"></path><text fill="#000000" stroke="none" font-family="Arial" font-size="13px" font-style="normal" font-weight="normal" text-decoration="none" x="769.5" y="83.5">+Move</text></g></g><g transform="translate(2,2) scale(1,1)"><path fill="none" stroke="#000000" d="M 865 78 L 675 135" stroke-miterlimit="10"></path></g><g transform="translate(2,2) scale(1,1)"><g><path fill="none" stroke="none"></path><text fill="#000000" stroke="none" font-family="Arial" font-size="13px" font-style="normal" font-weight="normal" text-decoration="none" x="751.5" y="126.5">+Define</text></g></g><g transform="translate(2,2) scale(1,1)"><path fill="#C0C0C0" stroke="none" d="M 573 286 C 573 276.6111584 597.624336 269 628 269 C 658.375664 269 683 276.6111584 683 286 C 683 295.3888416 658.375664 303 628 303 C 597.624336 303 573 295.3888416 573 286 Z" opacity="0.2"></path></g><g transform="translate(2,2) scale(1,1)"><path fill="#7fff00" stroke="none" d="M 566 279 C 566 269.6111584 590.624336 262 621 262 C 651.375664 262 676 269.6111584 676 279 C 676 288.3888416 651.375664 296 621 296 C 590.624336 296 566 288.3888416 566 279 Z"></path></g><g transform="translate(2,2) scale(1,1)"><path fill="none" stroke="#000000" d="M 566 279 C 566 269.6111584 590.624336 262 621 262 C 651.375664 262 676 269.6111584 676 279 C 676 288.3888416 651.375664 296 621 296 C 590.624336 296 566 288.3888416 566 279 Z" stroke-miterlimit="10"></path></g><g transform="translate(2,2) scale(1,1)"><g><path fill="none" stroke="none"></path><text fill="#000000" stroke="none" font-family="Arial" font-size="13px" font-style="normal" font-weight="bold" text-decoration="none" x="589.5" y="286">Log In_Out</text></g></g><g transform="translate(2,2) scale(1,1)"><path fill="none" stroke="#000000" d="M 865 100 L 646 261" stroke-miterlimit="10"></path></g><g transform="translate(2,2) scale(1,1)"><g><path fill="none" stroke="none"></path><text fill="#000000" stroke="none" font-family="Arial" font-size="13px" font-style="normal" font-weight="normal" text-decoration="none" x="727.5" y="198.5">+Log In_Out</text></g></g><g transform="translate(2,2) scale(1,1)"><path fill="none" stroke="#000000" d="M 161 411 L 544 368 L 605 297" stroke-miterlimit="10"></path></g><g transform="translate(2,2) scale(1,1)"><g><path fill="none" stroke="none"></path><text fill="#000000" stroke="none" font-family="Arial" font-size="13px" font-style="normal" font-weight="normal" text-decoration="none" x="495.5" y="363.5">+Log In_Out</text></g></g><g transform="translate(2,2) scale(1,1)"><path fill="none" stroke="#000000" d="M 869 279 L 677 279" stroke-miterlimit="10"></path></g><g transform="translate(2,2) scale(1,1)"><g><path fill="none" stroke="none"></path><text fill="#000000" stroke="none" font-family="Arial" font-size="13px" font-style="normal" font-weight="normal" text-decoration="none" x="736.5" y="300.5">+Log In_Out</text></g></g><g transform="translate(2,2) scale(1,1)"><path fill="none" stroke="#000000" d="M 616 663 L 621 297" stroke-miterlimit="10"></path></g><g transform="translate(2,2) scale(1,1)"><g><path fill="none" stroke="none"></path><text fill="#000000" stroke="none" font-family="Arial" font-size="13px" font-style="normal" font-weight="normal" text-decoration="none" x="567.5" y="485.5">+Log In_Out</text></g></g><g transform="translate(2,2) scale(1,1)"><path fill="#C0C0C0" stroke="none" d="M 687 416 C 687 406.6111584 721.697928 399 764.5 399 C 807.302072 399 842 406.6111584 842 416 C 842 425.3888416 807.302072 433 764.5 433 C 721.697928 433 687 425.3888416 687 416 Z" opacity="0.2"></path></g><g transform="translate(2,2) scale(1,1)"><path fill="#ffff49" stroke="none" d="M 680 409 C 680 399.6111584 714.697928 392 757.5 392 C 800.302072 392 835 399.6111584 835 409 C 835 418.3888416 800.302072 426 757.5 426 C 714.697928 426 680 418.3888416 680 409 Z"></path></g><g transform="translate(2,2) scale(1,1)"><path fill="none" stroke="#000000" d="M 680 409 C 680 399.6111584 714.697928 392 757.5 392 C 800.302072 392 835 399.6111584 835 409 C 835 418.3888416 800.302072 426 757.5 426 C 714.697928 426 680 418.3888416 680 409 Z" stroke-miterlimit="10"></path></g><g transform="translate(2,2) scale(1,1)"><g><path fill="none" stroke="none"></path><text fill="#000000" stroke="none" font-family="Arial" font-size="13px" font-style="normal" font-weight="bold" text-decoration="none" x="710.5" y="416">Register Entrant</text></g></g><g transform="translate(2,2) scale(1,1)"><path fill="none" stroke="#000000" d="M 869 317 L 779 391" stroke-miterlimit="10"></path></g><g transform="translate(2,2) scale(1,1)"><g><path fill="none" stroke="none"></path><text fill="#000000" stroke="none" font-family="Arial" font-size="13px" font-style="normal" font-weight="normal" text-decoration="none" x="807.5" y="371.5">+register</text></g></g><g transform="translate(2,2) scale(1,1)"><path fill="none" stroke="#000000" d="M 161 415 L 679 410" stroke-miterlimit="10" stroke-dasharray="3"></path></g><g transform="translate(2,2) scale(1,1)"><path fill="none" stroke="#000000" d="M 668.8784290603182 414.30741241501084 L 679 410 L 668.797168024269 405.88876908031165" stroke-miterlimit="10"></path></g><g transform="translate(2,2) scale(1,1)"><g><path fill="none" stroke="none"></path><text fill="#000000" stroke="none" font-family="Arial" font-size="13px" font-style="normal" font-weight="normal" text-decoration="none" x="372.5" y="432.5">+is Registered</text></g></g><g transform="translate(2,2) scale(1,1)"><path fill="#C0C0C0" stroke="none" d="M 871 480 C 871 470.6111584 894.505048 463 923.5 463 C 952.494952 463 976 470.6111584 976 480 C 976 489.3888416 952.494952 497 923.5 497 C 894.505048 497 871 489.3888416 871 480 Z" opacity="0.2"></path></g><g transform="translate(2,2) scale(1,1)"><path fill="#ffff00" stroke="none" d="M 864 473 C 864 463.6111584 887.505048 456 916.5 456 C 945.494952 456 969 463.6111584 969 473 C 969 482.3888416 945.494952 490 916.5 490 C 887.505048 490 864 482.3888416 864 473 Z"></path></g><g transform="translate(2,2) scale(1,1)"><path fill="none" stroke="#000000" d="M 864 473 C 864 463.6111584 887.505048 456 916.5 456 C 945.494952 456 969 463.6111584 969 473 C 969 482.3888416 945.494952 490 916.5 490 C 887.505048 490 864 482.3888416 864 473 Z" stroke-miterlimit="10"></path></g><g transform="translate(2,2) scale(1,1)"><g><path fill="none" stroke="none"></path><text fill="#000000" stroke="none" font-family="Arial" font-size="13px" font-style="normal" font-weight="bold" text-decoration="none" x="885.5" y="480">Result List</text></g></g><g transform="translate(2,2) scale(1,1)"><path fill="#C0C0C0" stroke="none" d="M 671 560 C 671 550.6111584 733.0085552 543 809.5 543 C 885.9914448 543 948 550.6111584 948 560 C 948 569.3888416 885.9914448 577 809.5 577 C 733.0085552 577 671 569.3888416 671 560 Z" opacity="0.2"></path></g><g transform="translate(2,2) scale(1,1)"><path fill="#ffff00" stroke="none" d="M 664 553 C 664 543.6111584 726.0085552 536 802.5 536 C 878.9914448 536 941 543.6111584 941 553 C 941 562.3888416 878.9914448 570 802.5 570 C 726.0085552 570 664 562.3888416 664 553 Z"></path></g><g transform="translate(2,2) scale(1,1)"><path fill="none" stroke="#000000" d="M 664 553 C 664 543.6111584 726.0085552 536 802.5 536 C 878.9914448 536 941 543.6111584 941 553 C 941 562.3888416 878.9914448 570 802.5 570 C 726.0085552 570 664 562.3888416 664 553 Z" stroke-miterlimit="10"></path></g><g transform="translate(2,2) scale(1,1)"><g><path fill="none" stroke="none"></path><text fill="#000000" stroke="none" font-family="Arial" font-size="13px" font-style="normal" font-weight="bold" text-decoration="none" x="716.5" y="560">Record Manual Entrants Time</text></g></g><g transform="translate(2,2) scale(1,1)"><path fill="none" stroke="#000000" d="M 893 320 L 832 432 L 806 535" stroke-miterlimit="10"></path></g><g transform="translate(2,2) scale(1,1)"><g><path fill="none" stroke="none"></path><text fill="#000000" stroke="none" font-family="Arial" font-size="13px" font-style="normal" font-weight="normal" text-decoration="none" x="811.5" y="441.5">+enter Time</text></g></g><g transform="translate(2,2) scale(1,1)"><path fill="none" stroke="#000000" d="M 916 320 L 916 455" stroke-miterlimit="10"></path></g><g transform="translate(2,2) scale(1,1)"><g><path fill="none" stroke="none"></path><text fill="#000000" stroke="none" font-family="Arial" font-size="13px" font-style="normal" font-weight="normal" text-decoration="none" x="892.5" y="392.5">+get Results</text></g></g><g transform="translate(2,2) scale(1,1)"><path fill="#C0C0C0" stroke="none" d="M 231 616 C 231 606.6111584 284.5019664 599 350.5 599 C 416.4980336 599 470 606.6111584 470 616 C 470 625.3888416 416.4980336 633 350.5 633 C 284.5019664 633 231 625.3888416 231 616 Z" opacity="0.2"></path></g><g transform="translate(2,2) scale(1,1)"><path fill="#ff00ff" stroke="none" d="M 224 609 C 224 599.6111584 277.5019664 592 343.5 592 C 409.4980336 592 463 599.6111584 463 609 C 463 618.3888416 409.4980336 626 343.5 626 C 277.5019664 626 224 618.3888416 224 609 Z"></path></g><g transform="translate(2,2) scale(1,1)"><path fill="none" stroke="#000000" d="M 224 609 C 224 599.6111584 277.5019664 592 343.5 592 C 409.4980336 592 463 599.6111584 463 609 C 463 618.3888416 409.4980336 626 343.5 626 C 277.5019664 626 224 618.3888416 224 609 Z" stroke-miterlimit="10"></path></g><g transform="translate(2,2) scale(1,1)"><g><path fill="none" stroke="none"></path><text fill="#000000" stroke="none" font-family="Arial" font-size="13px" font-style="normal" font-weight="bold" text-decoration="none" x="268.5" y="616">Send Field User Message</text></g></g><g transform="translate(2,2) scale(1,1)"><path fill="none" stroke="#000000" d="M 568 687 L 395 627" stroke-miterlimit="10"></path></g><g transform="translate(2,2) scale(1,1)"><g><path fill="none" stroke="none"></path><text fill="#000000" stroke="none" font-family="Arial" font-size="13px" font-style="normal" font-weight="normal" text-decoration="none" x="445.5" y="677.5">+message</text></g></g><g transform="translate(2,2) scale(1,1)"><path fill="none" stroke="#000000" d="M 322 591 L 161 449" stroke-miterlimit="10" stroke-dasharray="3"></path></g><g transform="translate(2,2) scale(1,1)"><path fill="none" stroke="#000000" d="M 171.4061991045406 452.565251771847 L 161 449 L 165.83728024868768 458.8793076577084" stroke-miterlimit="10"></path></g><g transform="translate(2,2) scale(1,1)"><g><path fill="none" stroke="none"></path><text fill="#000000" stroke="none" font-family="Arial" font-size="13px" font-style="normal" font-weight="normal" text-decoration="none" x="206.5" y="537.5">+receive</text></g></g><g transform="translate(2,2) scale(1,1)"><path fill="#C0C0C0" stroke="none" d="M 47 710 C 47 700.6111584 83.936504 693 129.5 693 C 175.063496 693 212 700.6111584 212 710 C 212 719.3888416 175.063496 727 129.5 727 C 83.936504 727 47 719.3888416 47 710 Z" opacity="0.2"></path></g><g transform="translate(2,2) scale(1,1)"><path fill="#ff38ff" stroke="none" d="M 40 703 C 40 693.6111584 76.936504 686 122.5 686 C 168.063496 686 205 693.6111584 205 703 C 205 712.3888416 168.063496 720 122.5 720 C 76.936504 720 40 712.3888416 40 703 Z"></path></g><g transform="translate(2,2) scale(1,1)"><path fill="none" stroke="#000000" d="M 40 703 C 40 693.6111584 76.936504 686 122.5 686 C 168.063496 686 205 693.6111584 205 703 C 205 712.3888416 168.063496 720 122.5 720 C 76.936504 720 40 712.3888416 40 703 Z" stroke-miterlimit="10"></path></g><g transform="translate(2,2) scale(1,1)"><g><path fill="none" stroke="none"></path><text fill="#000000" stroke="none" font-family="Arial" font-size="13px" font-style="normal" font-weight="bold" text-decoration="none" x="72.5" y="710">Select Field User</text></g></g><g transform="translate(2,2) scale(1,1)"><path fill="none" stroke="#000000" d="M 568 703 L 206 703" stroke-miterlimit="10"></path></g><g transform="translate(2,2) scale(1,1)"><g><path fill="none" stroke="none"></path><text fill="#000000" stroke="none" font-family="Arial" font-size="13px" font-style="normal" font-weight="normal" text-decoration="none" x="348.5" y="724.5">+select User</text></g></g><g transform="translate(2,2) scale(1,1)"><path fill="none" stroke="#000000" d="M 122 685 L 122 456" stroke-miterlimit="10" stroke-dasharray="3"></path></g><g transform="translate(2,2) scale(1,1)"><path fill="none" stroke="#000000" d="M 126.20951775601598 466.16267485762415 L 122 456 L 117.79048224398402 466.16267485762415" stroke-miterlimit="10"></path></g><g transform="translate(2,2) scale(1,1)"><path fill="#C0C0C0" stroke="none" d="M 279 139 C 279 129.6111584 311.0116368 122 350.5 122 C 389.9883632 122 422 129.6111584 422 139 C 422 148.3888416 389.9883632 156 350.5 156 C 311.0116368 156 279 148.3888416 279 139 Z" opacity="0.2"></path></g><g transform="translate(2,2) scale(1,1)"><path fill="#00ffd4" stroke="none" d="M 272 132 C 272 122.6111584 304.0116368 115 343.5 115 C 382.9883632 115 415 122.6111584 415 132 C 415 141.3888416 382.9883632 149 343.5 149 C 304.0116368 149 272 141.3888416 272 132 Z"></path></g><g transform="translate(2,2) scale(1,1)"><path fill="none" stroke="#000000" d="M 272 132 C 272 122.6111584 304.0116368 115 343.5 115 C 382.9883632 115 415 122.6111584 415 132 C 415 141.3888416 382.9883632 149 343.5 149 C 304.0116368 149 272 141.3888416 272 132 Z" stroke-miterlimit="10"></path></g><g transform="translate(2,2) scale(1,1)"><g><path fill="none" stroke="none"></path><text fill="#000000" stroke="none" font-family="Arial" font-size="13px" font-style="normal" font-weight="bold" text-decoration="none" x="303" y="139">Identify Target</text></g></g><g transform="translate(2,2) scale(1,1)"><path fill="#C0C0C0" stroke="none" d="M 284 56 C 284 46.6111584 313.7730608 39 350.5 39 C 387.2269392 39 417 46.6111584 417 56 C 417 65.3888416 387.2269392 73 350.5 73 C 313.7730608 73 284 65.3888416 284 56 Z" opacity="0.2"></path></g><g transform="translate(2,2) scale(1,1)"><path fill="#00ffd4" stroke="none" d="M 277 49 C 277 39.6111584 306.7730608 32 343.5 32 C 380.2269392 32 410 39.6111584 410 49 C 410 58.3888416 380.2269392 66 343.5 66 C 306.7730608 66 277 58.3888416 277 49 Z"></path></g><g transform="translate(2,2) scale(1,1)"><path fill="none" stroke="#000000" d="M 277 49 C 277 39.6111584 306.7730608 32 343.5 32 C 380.2269392 32 410 39.6111584 410 49 C 410 58.3888416 380.2269392 66 343.5 66 C 306.7730608 66 277 58.3888416 277 49 Z" stroke-miterlimit="10"></path></g><g transform="translate(2,2) scale(1,1)"><g><path fill="none" stroke="none"></path><text fill="#000000" stroke="none" font-family="Arial" font-size="13px" font-style="normal" font-weight="bold" text-decoration="none" x="305" y="56">Reach Target</text></g></g><g transform="translate(2,2) scale(1,1)"><path fill="none" stroke="#000000" d="M 153 375 L 329 150" stroke-miterlimit="10"></path></g><g transform="translate(2,2) scale(1,1)"><g><path fill="none" stroke="none"></path><text fill="#000000" stroke="none" font-family="Arial" font-size="13px" font-style="normal" font-weight="normal" text-decoration="none" x="206.5" y="258.5">+Target</text></g></g><g transform="translate(2,2) scale(1,1)"><path fill="#C0C0C0" stroke="none" d="M 283 264 C 283 254.6111584 312.9969184 247 350 247 C 387.0030816 247 417 254.6111584 417 264 C 417 273.3888416 387.0030816 281 350 281 C 312.9969184 281 283 273.3888416 283 264 Z" opacity="0.2"></path></g><g transform="translate(2,2) scale(1,1)"><path fill="#00ffd4" stroke="none" d="M 276 257 C 276 247.6111584 305.9969184 240 343 240 C 380.0030816 240 410 247.6111584 410 257 C 410 266.3888416 380.0030816 274 343 274 C 305.9969184 274 276 266.3888416 276 257 Z"></path></g><g transform="translate(2,2) scale(1,1)"><path fill="none" stroke="#000000" d="M 276 257 C 276 247.6111584 305.9969184 240 343 240 C 380.0030816 240 410 247.6111584 410 257 C 410 266.3888416 380.0030816 274 343 274 C 305.9969184 274 276 266.3888416 276 257 Z" stroke-miterlimit="10"></path></g><g transform="translate(2,2) scale(1,1)"><g><path fill="none" stroke="none"></path><text fill="#000000" stroke="none" font-family="Arial" font-size="13px" font-style="normal" font-weight="bold" text-decoration="none" x="303" y="264">Finish Course</text></g></g><g transform="translate(2,2) scale(1,1)"><path fill="none" stroke="#000000" d="M 161 387 L 318 275" stroke-miterlimit="10"></path></g><g transform="translate(2,2) scale(1,1)"><g><path fill="none" stroke="none"></path><text fill="#000000" stroke="none" font-family="Arial" font-size="13px" font-style="normal" font-weight="normal" text-decoration="none" x="208.5" y="324.5">+Finish</text></g></g><g transform="translate(2,2) scale(1,1)"><path fill="#C0C0C0" stroke="none" d="M 59 139 C 59 129.6111584 90.340064 122 129 122 C 167.65993600000002 122 199 129.6111584 199 139 C 199 148.3888416 167.65993600000002 156 129 156 C 90.340064 156 59 148.3888416 59 139 Z" opacity="0.2"></path></g><g transform="translate(2,2) scale(1,1)"><path fill="#00ffd4" stroke="none" d="M 52 132 C 52 122.6111584 83.340064 115 122 115 C 160.65993600000002 115 192 122.6111584 192 132 C 192 141.3888416 160.65993600000002 149 122 149 C 83.340064 149 52 141.3888416 52 132 Z"></path></g><g transform="translate(2,2) scale(1,1)"><path fill="none" stroke="#000000" d="M 52 132 C 52 122.6111584 83.340064 115 122 115 C 160.65993600000002 115 192 122.6111584 192 132 C 192 141.3888416 160.65993600000002 149 122 149 C 83.340064 149 52 141.3888416 52 132 Z" stroke-miterlimit="10"></path></g><g transform="translate(2,2) scale(1,1)"><g><path fill="none" stroke="none"></path><text fill="#000000" stroke="none" font-family="Arial" font-size="13px" font-style="normal" font-weight="bold" text-decoration="none" x="81.5" y="139">Direction Help</text></g></g><g transform="translate(2,2) scale(1,1)"><path fill="#C0C0C0" stroke="none" d="M 419 496 C 419 486.6111584 447.4299152 479 482.5 479 C 517.5700848 479 546 486.6111584 546 496 C 546 505.3888416 517.5700848 513 482.5 513 C 447.4299152 513 419 505.3888416 419 496 Z" opacity="0.2"></path></g><g transform="translate(2,2) scale(1,1)"><path fill="#00ffd4" stroke="none" d="M 412 489 C 412 479.6111584 440.4299152 472 475.5 472 C 510.5700848 472 539 479.6111584 539 489 C 539 498.3888416 510.5700848 506 475.5 506 C 440.4299152 506 412 498.3888416 412 489 Z"></path></g><g transform="translate(2,2) scale(1,1)"><path fill="none" stroke="#000000" d="M 412 489 C 412 479.6111584 440.4299152 472 475.5 472 C 510.5700848 472 539 479.6111584 539 489 C 539 498.3888416 510.5700848 506 475.5 506 C 440.4299152 506 412 498.3888416 412 489 Z" stroke-miterlimit="10"></path></g><g transform="translate(2,2) scale(1,1)"><g><path fill="none" stroke="none"></path><text fill="#000000" stroke="none" font-family="Arial" font-size="13px" font-style="normal" font-weight="bold" text-decoration="none" x="439" y="496">Monitor Help</text></g></g><g transform="translate(2,2) scale(1,1)"><path fill="none" stroke="#000000" d="M 487 507 L 589 663" stroke-miterlimit="10" stroke-dasharray="3"></path></g><g transform="translate(2,2) scale(1,1)"><path fill="none" stroke="#000000" d="M 579.9152442066974 656.7978058579198 L 589 663 L 586.9617211092324 652.1904940370315" stroke-miterlimit="10"></path></g><g transform="translate(2,2) scale(1,1)"><g><path fill="none" stroke="none"></path><text fill="#000000" stroke="none" font-family="Arial" font-size="13px" font-style="normal" font-weight="normal" text-decoration="none" x="525.5" y="582.5">+receive</text></g></g><g transform="translate(2,2) scale(1,1)"><path fill="none" stroke="#000000" d="M 193 132 L 271 132" stroke-miterlimit="10" stroke-dasharray="3"></path></g><g transform="translate(2,2) scale(1,1)"><path fill="none" stroke="#000000" d="M 260.83732514237585 136.209517756016 L 271 132 L 260.83732514237585 127.79048224398402" stroke-miterlimit="10"></path></g><g transform="translate(2,2) scale(1,1)"><g><path fill="none" stroke="none"></path><text fill="#000000" stroke="none" font-family="Arial" font-size="13px" font-style="normal" font-weight="normal" text-decoration="none" x="198.5" y="123.5">+get Target</text></g></g><g transform="translate(2,2) scale(1,1)"><path fill="#C0C0C0" stroke="none" d="M 426 201 C 426 191.6111584 451.0720512 184 482 184 C 512.9279488 184 538 191.6111584 538 201 C 538 210.3888416 512.9279488 218 482 218 C 451.0720512 218 426 210.3888416 426 201 Z" opacity="0.2"></path></g><g transform="translate(2,2) scale(1,1)"><path fill="#00ffd4" stroke="none" d="M 419 194 C 419 184.6111584 444.0720512 177 475 177 C 505.9279488 177 531 184.6111584 531 194 C 531 203.3888416 505.9279488 211 475 211 C 444.0720512 211 419 203.3888416 419 194 Z"></path></g><g transform="translate(2,2) scale(1,1)"><path fill="none" stroke="#000000" d="M 419 194 C 419 184.6111584 444.0720512 177 475 177 C 505.9279488 177 531 184.6111584 531 194 C 531 203.3888416 505.9279488 211 475 211 C 444.0720512 211 419 203.3888416 419 194 Z" stroke-miterlimit="10"></path></g><g transform="translate(2,2) scale(1,1)"><g><path fill="none" stroke="none"></path><text fill="#000000" stroke="none" font-family="Arial" font-size="13px" font-style="normal" font-weight="bold" text-decoration="none" x="442" y="201">Get Course</text></g></g><g transform="translate(2,2) scale(1,1)"><path fill="none" stroke="#000000" d="M 532 177 L 554 171" stroke-miterlimit="10" stroke-dasharray="3"></path></g><g transform="translate(2,2) scale(1,1)"><path fill="none" stroke="#000000" d="M 545.3030163619607 177.73516708030883 L 554 171 L 543.0878215787632 169.61278620858468" stroke-miterlimit="10"></path></g><g transform="translate(2,2) scale(1,1)"><path fill="#C0C0C0" stroke="none" d="M 421 300 C 421 290.6111584 448.5344848 283 482.5 283 C 516.4655152 283 544 290.6111584 544 300 C 544 309.3888416 516.4655152 317 482.5 317 C 448.5344848 317 421 309.3888416 421 300 Z" opacity="0.2"></path></g><g transform="translate(2,2) scale(1,1)"><path fill="#00ffd4" stroke="none" d="M 414 293 C 414 283.6111584 441.5344848 276 475.5 276 C 509.4655152 276 537 283.6111584 537 293 C 537 302.3888416 509.4655152 310 475.5 310 C 441.5344848 310 414 302.3888416 414 293 Z"></path></g><g transform="translate(2,2) scale(1,1)"><path fill="none" stroke="#000000" d="M 414 293 C 414 283.6111584 441.5344848 276 475.5 276 C 509.4655152 276 537 283.6111584 537 293 C 537 302.3888416 509.4655152 310 475.5 310 C 441.5344848 310 414 302.3888416 414 293 Z" stroke-miterlimit="10"></path></g><g transform="translate(2,2) scale(1,1)"><g><path fill="none" stroke="none"></path><text fill="#000000" stroke="none" font-family="Arial" font-size="13px" font-style="normal" font-weight="bold" text-decoration="none" x="439" y="300">Start Course</text></g></g><g transform="translate(2,2) scale(1,1)"><path fill="none" stroke="#000000" d="M 475 275 L 475 212" stroke-miterlimit="10" stroke-dasharray="3"></path></g><g transform="translate(2,2) scale(1,1)"><path fill="none" stroke="#000000" d="M 479.209517756016 222.16267485762415 L 475 212 L 470.790482243984 222.16267485762415" stroke-miterlimit="10"></path></g><g transform="translate(2,2) scale(1,1)"><g><path fill="none" stroke="none"></path><text fill="#000000" stroke="none" font-family="Arial" font-size="13px" font-style="normal" font-weight="normal" text-decoration="none" x="417.5" y="248.5">«include»</text></g></g><g transform="translate(2,2) scale(1,1)"><path fill="none" stroke="#000000" d="M 161 402 L 423 311" stroke-miterlimit="10"></path></g><g transform="translate(2,2) scale(1,1)"><g><path fill="none" stroke="none"></path><text fill="#000000" stroke="none" font-family="Arial" font-size="13px" font-style="normal" font-weight="normal" text-decoration="none" x="268.5" y="347.5">+Start</text></g></g><g transform="translate(2,2) scale(1,1)"><path fill="#C0C0C0" stroke="none" d="M 64 294 C 64 284.6111584 93.32534559999999 277 129.5 277 C 165.6746544 277 195 284.6111584 195 294 C 195 303.3888416 165.6746544 311 129.5 311 C 93.32534559999999 311 64 303.3888416 64 294 Z" opacity="0.2"></path></g><g transform="translate(2,2) scale(1,1)"><path fill="#00ffd4" stroke="none" d="M 57 287 C 57 277.6111584 86.32534559999999 270 122.5 270 C 158.6746544 270 188 277.6111584 188 287 C 188 296.3888416 158.6746544 304 122.5 304 C 86.32534559999999 304 57 296.3888416 57 287 Z"></path></g><g transform="translate(2,2) scale(1,1)"><path fill="none" stroke="#000000" d="M 57 287 C 57 277.6111584 86.32534559999999 270 122.5 270 C 158.6746544 270 188 277.6111584 188 287 C 188 296.3888416 158.6746544 304 122.5 304 C 86.32534559999999 304 57 296.3888416 57 287 Z" stroke-miterlimit="10"></path></g><g transform="translate(2,2) scale(1,1)"><g><path fill="none" stroke="none"></path><text fill="#000000" stroke="none" font-family="Arial" font-size="13px" font-style="normal" font-weight="bold" text-decoration="none" x="83.5" y="294">Request Help</text></g></g><g transform="translate(2,2) scale(1,1)"><path fill="none" stroke="#000000" d="M 122 375 L 122 305" stroke-miterlimit="10"></path></g><g transform="translate(2,2) scale(1,1)"><g><path fill="none" stroke="none"></path><text fill="#000000" stroke="none" font-family="Arial" font-size="13px" font-style="normal" font-weight="normal" text-decoration="none" x="90.5" y="345.5">+help</text></g></g><g transform="translate(2,2) scale(1,1)"><path fill="none" stroke="#000000" d="M 122 269 L 122 150" stroke-miterlimit="10" stroke-dasharray="3"></path></g><g transform="translate(2,2) scale(1,1)"><path fill="none" stroke="#000000" d="M 126.20951775601598 160.16267485762415 L 122 150 L 117.79048224398402 160.16267485762415" stroke-miterlimit="10"></path></g><g transform="translate(2,2) scale(1,1)"><g><path fill="none" stroke="none"></path><text fill="#000000" stroke="none" font-family="Arial" font-size="13px" font-style="normal" font-weight="normal" text-decoration="none" x="65.5" y="214.5">«extend»</text></g></g><g transform="translate(2,2) scale(1,1)"><path fill="none" stroke="#000000" d="M 132 305 L 232 488 L 411 489" stroke-miterlimit="10" stroke-dasharray="3"></path></g><g transform="translate(2,2) scale(1,1)"><path fill="none" stroke="#000000" d="M 400.8139672352668 493.1526782340775 L 411 489 L 400.86100021926677 484.73377409807074" stroke-miterlimit="10"></path></g><g transform="translate(2,2) scale(1,1)"><g><path fill="none" stroke="none"></path><text fill="#000000" stroke="none" font-family="Arial" font-size="13px" font-style="normal" font-weight="normal" text-decoration="none" x="205.5" y="464.5">«extend»</text></g></g><g transform="translate(2,2) scale(1,1)"><path fill="none" stroke="#000000" d="M 343 114 L 343 67" stroke-miterlimit="10" stroke-dasharray="3"></path></g><g transform="translate(2,2) scale(1,1)"><path fill="none" stroke="#000000" d="M 347.209517756016 77.16267485762415 L 343 67 L 338.790482243984 77.16267485762415" stroke-miterlimit="10"></path></g><g transform="translate(2,2) scale(1,1)"><g><path fill="none" stroke="none"></path><text fill="#000000" stroke="none" font-family="Arial" font-size="13px" font-style="normal" font-weight="normal" text-decoration="none" x="286.5" y="95.5">«extend»</text></g></g></g></svg>