<svg version="1.1" xmlns="http://www.w3.org/2000/svg" xmlns:xlink="http://www.w3.org/1999/xlink" width="955" height="805"><defs></defs><g><g transform="translate(-6,2) scale(1,1)"><rect fill="#ffff00" stroke="none" x="16" y="8" width="415" height="21"></rect></g><g transform="translate(-6,2) scale(1,1)"><path fill="none" stroke="#000000" d="M 16 8 L 431 8 L 431 29 L 16 29 L 16 8 Z Z" stroke-miterlimit="10" stroke-width="2"></path></g><g transform="translate(-6,2) scale(1,1)"><path fill="none" stroke="#000000" d="M 16 743 L 16 8 L 431 8 L 431 743" stroke-miterlimit="10" stroke-width="2"></path></g><g transform="translate(-6,2) scale(1,1)"><g><path fill="none" stroke="none"></path><text fill="#000000" stroke="none" font-family="Arial" font-size="13px" font-style="normal" font-weight="normal" text-decoration="none" x="167" y="25">Event Administrator</text></g></g><g transform="translate(-6,2) scale(1,1)"><rect fill="#ffadad" stroke="none" x="528" y="8" width="247" height="21"></rect></g><g transform="translate(-6,2) scale(1,1)"><path fill="none" stroke="#000000" d="M 528 8 L 775 8 L 775 29 L 528 29 L 528 8 Z Z" stroke-miterlimit="10" stroke-width="2"></path></g><g transform="translate(-6,2) scale(1,1)"><path fill="none" stroke="#000000" d="M 528 751 L 528 8 L 775 8 L 775 751" stroke-miterlimit="10" stroke-width="2"></path></g><g transform="translate(-6,2) scale(1,1)"><g><path fill="none" stroke="none"></path><text fill="#000000" stroke="none" font-family="Arial" font-size="13px" font-style="normal" font-weight="normal" text-decoration="none" x="629" y="25">System</text></g></g><g transform="translate(-6,2) scale(1,1)"><path fill="#C0C0C0" stroke="none" d="M 284 72.5 C 284 67.2532944 288.2532944 63 293.5 63 C 298.7467056 63 303 67.2532944 303 72.5 C 303 77.7467056 298.7467056 82 293.5 82 C 288.2532944 82 284 77.7467056 284 72.5 Z" opacity="0.2"></path></g><g transform="translate(-6,2) scale(1,1)"><path fill="#000000" stroke="none" d="M 277 65.5 C 277 60.2532944 281.2532944 56 286.5 56 C 291.7467056 56 296 60.2532944 296 65.5 C 296 70.7467056 291.7467056 75 286.5 75 C 281.2532944 75 277 70.7467056 277 65.5 Z"></path></g><g transform="translate(-6,2) scale(1,1)"><path fill="#C0C0C0" stroke="none" d="M 215 129 L 371 129 Q 381 129 381 139 L 381 159 Q 381 169 371 169 L 215 169 Q 205 169 205 159 L 205 139 Q 205 129 215 129 Z" opacity="0.2"></path></g><g transform="translate(-6,2) scale(1,1)"><path fill="#ffff00" stroke="none" d="M 208 122 L 364 122 Q 374 122 374 132 L 374 152 Q 374 162 364 162 L 208 162 Q 198 162 198 152 L 198 132 Q 198 122 208 122 Z"></path></g><g transform="translate(-6,2) scale(1,1)"><path fill="none" stroke="#000000" d="M 208 122 L 364 122 Q 374 122 374 132 L 374 152 Q 374 162 364 162 L 208 162 Q 198 162 198 152 L 198 132 Q 198 122 208 122 Z" stroke-miterlimit="10"></path></g><g transform="translate(-6,2) scale(1,1)"><g><path fill="none" stroke="none"></path><text fill="#000000" stroke="none" font-family="Arial" font-size="13px" font-style="normal" font-weight="bold" text-decoration="none" x="210.5" y="141.5">Initiate Manual Time Entry</text></g></g><g transform="translate(-6,2) scale(1,1)"><path fill="#C0C0C0" stroke="none" d="M 583 129 L 734 129 Q 744 129 744 139 L 744 159 Q 744 169 734 169 L 583 169 Q 573 169 573 159 L 573 139 Q 573 129 583 129 Z" opacity="0.2"></path></g><g transform="translate(-6,2) scale(1,1)"><path fill="#ffadad" stroke="none" d="M 576 122 L 727 122 Q 737 122 737 132 L 737 152 Q 737 162 727 162 L 576 162 Q 566 162 566 152 L 566 132 Q 566 122 576 122 Z"></path></g><g transform="translate(-6,2) scale(1,1)"><path fill="none" stroke="#000000" d="M 576 122 L 727 122 Q 737 122 737 132 L 737 152 Q 737 162 727 162 L 576 162 Q 566 162 566 152 L 566 132 Q 566 122 576 122 Z" stroke-miterlimit="10"></path></g><g transform="translate(-6,2) scale(1,1)"><g><path fill="none" stroke="none"></path><text fill="#000000" stroke="none" font-family="Arial" font-size="13px" font-style="normal" font-weight="bold" text-decoration="none" x="576" y="141.5">Get Entrant Search Query</text></g></g><g transform="translate(-6,2) scale(1,1)"><rect fill="#C0C0C0" stroke="none" x="846" y="131" width="112" height="37" opacity="0.2"></rect></g><g transform="translate(-6,2) scale(1,1)"><rect fill="#ffa182" stroke="none" x="839" y="124" width="112" height="37"></rect></g><g transform="translate(-6,2) scale(1,1)"><path fill="none" stroke="#000000" d="M 839 124 L 951 124 L 951 161 L 839 161 L 839 124 Z Z" stroke-miterlimit="10"></path></g><g transform="translate(-6,2) scale(1,1)"><rect fill="#ffa182" stroke="none" x="839" y="124" width="112" height="37"></rect></g><g transform="translate(-6,2) scale(1,1)"><path fill="none" stroke="#000000" d="M 839 124 L 951 124 L 951 161 L 839 161 L 839 124 Z Z" stroke-miterlimit="10"></path></g><g transform="translate(-6,2) scale(1,1)"><g><path fill="none" stroke="none"></path><text fill="#000000" stroke="none" font-family="Arial" font-size="13px" font-style="normal" font-weight="normal" text-decoration="none" x="861" y="141.5">«datastore»</text></g></g><g transform="translate(-6,2) scale(1,1)"><g><path fill="none" stroke="none"></path><text fill="#000000" stroke="none" font-family="Arial" font-size="13px" font-style="normal" font-weight="bold" text-decoration="none" x="859" y="156.5">UserStorage</text></g></g><g transform="translate(-6,2) scale(1,1)"><path fill="#C0C0C0" stroke="none" d="M 594 246 L 722 246 Q 732 246 732 256 L 732 276 Q 732 286 722 286 L 594 286 Q 584 286 584 276 L 584 256 Q 584 246 594 246 Z" opacity="0.2"></path></g><g transform="translate(-6,2) scale(1,1)"><path fill="#ffadad" stroke="none" d="M 587 239 L 715 239 Q 725 239 725 249 L 725 269 Q 725 279 715 279 L 587 279 Q 577 279 577 269 L 577 249 Q 577 239 587 239 Z"></path></g><g transform="translate(-6,2) scale(1,1)"><path fill="none" stroke="#000000" d="M 587 239 L 715 239 Q 725 239 725 249 L 725 269 Q 725 279 715 279 L 587 279 Q 577 279 577 269 L 577 249 Q 577 239 587 239 Z" stroke-miterlimit="10"></path></g><g transform="translate(-6,2) scale(1,1)"><g><path fill="none" stroke="none"></path><text fill="#000000" stroke="none" font-family="Arial" font-size="13px" font-style="normal" font-weight="bold" text-decoration="none" x="585" y="258.5">Present Query Results</text></g></g><g transform="translate(-6,2) scale(1,1)"><path fill="#C0C0C0" stroke="none" d="M 254 386 L 332 386 Q 342 386 342 396 L 342 416 Q 342 426 332 426 L 254 426 Q 244 426 244 416 L 244 396 Q 244 386 254 386 Z" opacity="0.2"></path></g><g transform="translate(-6,2) scale(1,1)"><path fill="#ffff49" stroke="none" d="M 247 379 L 325 379 Q 335 379 335 389 L 335 409 Q 335 419 325 419 L 247 419 Q 237 419 237 409 L 237 389 Q 237 379 247 379 Z"></path></g><g transform="translate(-6,2) scale(1,1)"><path fill="none" stroke="#000000" d="M 247 379 L 325 379 Q 335 379 335 389 L 335 409 Q 335 419 325 419 L 247 419 Q 237 419 237 409 L 237 389 Q 237 379 247 379 Z" stroke-miterlimit="10"></path></g><g transform="translate(-6,2) scale(1,1)"><g><path fill="none" stroke="none"></path><text fill="#000000" stroke="none" font-family="Arial" font-size="13px" font-style="normal" font-weight="bold" text-decoration="none" x="244.5" y="398.5">Select Entrant</text></g></g><g transform="translate(-6,2) scale(1,1)"><path fill="#C0C0C0" stroke="none" d="M 264 495 L 322 495 Q 332 495 332 505 L 332 525 Q 332 535 322 535 L 264 535 Q 254 535 254 525 L 254 505 Q 254 495 264 495 Z" opacity="0.2"></path></g><g transform="translate(-6,2) scale(1,1)"><path fill="#ffff49" stroke="none" d="M 257 488 L 315 488 Q 325 488 325 498 L 325 518 Q 325 528 315 528 L 257 528 Q 247 528 247 518 L 247 498 Q 247 488 257 488 Z"></path></g><g transform="translate(-6,2) scale(1,1)"><path fill="none" stroke="#000000" d="M 257 488 L 315 488 Q 325 488 325 498 L 325 518 Q 325 528 315 528 L 257 528 Q 247 528 247 518 L 247 498 Q 247 488 257 488 Z" stroke-miterlimit="10"></path></g><g transform="translate(-6,2) scale(1,1)"><g><path fill="none" stroke="none"></path><text fill="#000000" stroke="none" font-family="Arial" font-size="13px" font-style="normal" font-weight="bold" text-decoration="none" x="254.5" y="507.5">Enter Time</text></g></g><g transform="translate(-6,2) scale(1,1)"><path fill="none" stroke="#000000" d="M 375 142 L 565 142" stroke-miterlimit="10"></path></g><g transform="translate(-6,2) scale(1,1)"><path fill="none" stroke="#000000" d="M 554.8373251423759 146.209517756016 L 565 142 L 554.8373251423758 137.790482243984" stroke-miterlimit="10"></path></g><g transform="translate(-6,2) scale(1,1)"><path fill="none" stroke="#000000" d="M 738 142 L 838 142" stroke-miterlimit="10"></path></g><g transform="translate(-6,2) scale(1,1)"><path fill="none" stroke="#000000" d="M 827.8373251423759 146.209517756016 L 838 142 L 827.8373251423758 137.790482243984" stroke-miterlimit="10"></path></g><g transform="translate(-6,2) scale(1,1)"><path fill="none" stroke="#000000" d="M 895 162 L 896 256 L 726 258" stroke-miterlimit="10"></path></g><g transform="translate(-6,2) scale(1,1)"><path fill="none" stroke="#000000" d="M 736.112451319911 253.6712209224274 L 726 258 L 736.2114919427379 262.0896738627179" stroke-miterlimit="10"></path></g><g transform="translate(-6,2) scale(1,1)"><path fill="none" stroke="#000000" d="M 286 420 L 286 487" stroke-miterlimit="10"></path></g><g transform="translate(-6,2) scale(1,1)"><path fill="none" stroke="#000000" d="M 281.790482243984 476.83732514237585 L 286 487 L 290.209517756016 476.83732514237585" stroke-miterlimit="10"></path></g><g transform="translate(-6,2) scale(1,1)"><path fill="#C0C0C0" stroke="none" d="M 629 497 L 688 497 Q 698 497 698 507 L 698 527 Q 698 537 688 537 L 629 537 Q 619 537 619 527 L 619 507 Q 619 497 629 497 Z" opacity="0.2"></path></g><g transform="translate(-6,2) scale(1,1)"><path fill="#ffadad" stroke="none" d="M 622 490 L 681 490 Q 691 490 691 500 L 691 520 Q 691 530 681 530 L 622 530 Q 612 530 612 520 L 612 500 Q 612 490 622 490 Z"></path></g><g transform="translate(-6,2) scale(1,1)"><path fill="none" stroke="#000000" d="M 622 490 L 681 490 Q 691 490 691 500 L 691 520 Q 691 530 681 530 L 622 530 Q 612 530 612 520 L 612 500 Q 612 490 622 490 Z" stroke-miterlimit="10"></path></g><g transform="translate(-6,2) scale(1,1)"><g><path fill="none" stroke="none"></path><text fill="#000000" stroke="none" font-family="Arial" font-size="13px" font-style="normal" font-weight="bold" text-decoration="none" x="620" y="509.5">Store Time</text></g></g><g transform="translate(-6,2) scale(1,1)"><path fill="#C0C0C0" stroke="none" d="M 596 598 L 720 598 Q 730 598 730 608 L 730 628 Q 730 638 720 638 L 596 638 Q 586 638 586 628 L 586 608 Q 586 598 596 598 Z" opacity="0.2"></path></g><g transform="translate(-6,2) scale(1,1)"><path fill="#ffadad" stroke="none" d="M 589 591 L 713 591 Q 723 591 723 601 L 723 621 Q 723 631 713 631 L 589 631 Q 579 631 579 621 L 579 601 Q 579 591 589 591 Z"></path></g><g transform="translate(-6,2) scale(1,1)"><path fill="none" stroke="#000000" d="M 589 591 L 713 591 Q 723 591 723 601 L 723 621 Q 723 631 713 631 L 589 631 Q 579 631 579 621 L 579 601 Q 579 591 589 591 Z" stroke-miterlimit="10"></path></g><g transform="translate(-6,2) scale(1,1)"><g><path fill="none" stroke="none"></path><text fill="#000000" stroke="none" font-family="Arial" font-size="13px" font-style="normal" font-weight="bold" text-decoration="none" x="590.5" y="610.5">Validate Time Stored</text></g></g><g transform="translate(-6,2) scale(1,1)"><path fill="#C0C0C0" stroke="none" d="M 630 687 L 687 687 Q 697 687 697 697 L 697 717 Q 697 727 687 727 L 630 727 Q 620 727 620 717 L 620 697 Q 620 687 630 687 Z" opacity="0.2"></path></g><g transform="translate(-6,2) scale(1,1)"><path fill="#ffadad" stroke="none" d="M 623 680 L 680 680 Q 690 680 690 690 L 690 710 Q 690 720 680 720 L 623 720 Q 613 720 613 710 L 613 690 Q 613 680 623 680 Z"></path></g><g transform="translate(-6,2) scale(1,1)"><path fill="none" stroke="#000000" d="M 623 680 L 680 680 Q 690 680 690 690 L 690 710 Q 690 720 680 720 L 623 720 Q 613 720 613 710 L 613 690 Q 613 680 623 680 Z" stroke-miterlimit="10"></path></g><g transform="translate(-6,2) scale(1,1)"><g><path fill="none" stroke="none"></path><text fill="#000000" stroke="none" font-family="Arial" font-size="13px" font-style="normal" font-weight="bold" text-decoration="none" x="619.5" y="699.5">Notify User</text></g></g><g transform="translate(-6,2) scale(1,1)"><path fill="none" stroke="#000000" d="M 326 508 L 611 510" stroke-miterlimit="10"></path></g><g transform="translate(-6,2) scale(1,1)"><path fill="none" stroke="#000000" d="M 600.808035620146 514.1380988484794 L 611 510 L 600.8671151164134 505.71927063037356" stroke-miterlimit="10"></path></g><g transform="translate(-6,2) scale(1,1)"><path fill="none" stroke="#000000" d="M 651 531 L 651 590" stroke-miterlimit="10"></path></g><g transform="translate(-6,2) scale(1,1)"><path fill="none" stroke="#000000" d="M 646.790482243984 579.8373251423759 L 651 590 L 655.209517756016 579.8373251423759" stroke-miterlimit="10"></path></g><g transform="translate(-6,2) scale(1,1)"><path fill="none" stroke="#000000" d="M 651 632 L 651 679" stroke-miterlimit="10"></path></g><g transform="translate(-6,2) scale(1,1)"><path fill="none" stroke="#000000" d="M 646.790482243984 668.8373251423759 L 651 679 L 655.209517756016 668.8373251423759" stroke-miterlimit="10"></path></g><g transform="translate(-6,2) scale(1,1)"><path fill="#C0C0C0" stroke="none" d="M 646 787.5 C 646 780.59644 651.59644 775 658.5 775 C 665.40356 775 671 780.59644 671 787.5 C 671 794.40356 665.40356 800 658.5 800 C 651.59644 800 646 794.40356 646 787.5 Z" opacity="0.2"></path></g><g transform="translate(-6,2) scale(1,1)"><path fill="none" stroke="#000000" d="M 639 780.5 C 639 773.59644 644.59644 768 651.5 768 C 658.40356 768 664 773.59644 664 780.5 C 664 787.40356 658.40356 793 651.5 793 C 644.59644 793 639 787.40356 639 780.5 Z" stroke-miterlimit="10"></path></g><g transform="translate(-6,2) scale(1,1)"><path fill="#000000" stroke="none" d="M 644 780.5 C 644 776.357864 647.357864 773 651.5 773 C 655.642136 773 659 776.357864 659 780.5 C 659 784.642136 655.642136 788 651.5 788 C 647.357864 788 644 784.642136 644 780.5 Z"></path></g><g transform="translate(-6,2) scale(1,1)"><path fill="none" stroke="#000000" d="M 651 721 L 651 767" stroke-miterlimit="10"></path></g><g transform="translate(-6,2) scale(1,1)"><path fill="none" stroke="#000000" d="M 646.790482243984 756.8373251423759 L 651 767 L 655.209517756016 756.8373251423759" stroke-miterlimit="10"></path></g><g transform="translate(-6,2) scale(1,1)"><path fill="none" stroke="#000000" d="M 286 76 L 286 121" stroke-miterlimit="10"></path></g><g transform="translate(-6,2) scale(1,1)"><path fill="none" stroke="#000000" d="M 281.790482243984 110.83732514237585 L 286 121 L 290.209517756016 110.83732514237585" stroke-miterlimit="10"></path></g><g transform="translate(-6,2) scale(1,1)"><path fill="#C0C0C0" stroke="none" d="M 282 266.5 L 293.5 257 L 304 266.5 L 293.5 275 L 282 266.5" opacity="0.2"></path></g><g transform="translate(-6,2) scale(1,1)"><path fill="#38ff38" stroke="none" d="M 275 259 L 286 250 L 297 259 L 286 268 L 275 259"></path></g><g transform="translate(-6,2) scale(1,1)"><path fill="none" stroke="#000000" d="M 275 259 L 286 250 L 297 259 L 286 268 L 275 259 L 275 259" stroke-miterlimit="10"></path></g><g transform="translate(-6,2) scale(1,1)"><path fill="none" stroke="#000000" d="M 286 269 L 286 378" stroke-miterlimit="10"></path></g><g transform="translate(-6,2) scale(1,1)"><path fill="none" stroke="#000000" d="M 281.790482243984 367.83732514237585 L 286 378 L 290.209517756016 367.83732514237585" stroke-miterlimit="10"></path></g><g transform="translate(-6,2) scale(1,1)"><g><path fill="none" stroke="none"></path><text fill="#000000" stroke="none" font-family="Arial" font-size="13px" font-style="normal" font-weight="normal" text-decoration="none" x="288.5" y="328.5">Yes</text></g></g><g transform="translate(-6,2) scale(1,1)"><path fill="none" stroke="#000000" d="M 576 259 L 298 259" stroke-miterlimit="10"></path></g><g transform="translate(-6,2) scale(1,1)"><path fill="none" stroke="#000000" d="M 308.16267485762415 254.790482243984 L 298 259 L 308.16267485762415 263.209517756016" stroke-miterlimit="10"></path></g><g transform="translate(-6,2) scale(1,1)"><path fill="#C0C0C0" stroke="none" d="M 56 239 L 222 239 Q 232 239 232 249 L 232 284 Q 232 294 222 294 L 56 294 Q 46 294 46 284 L 46 249 Q 46 239 56 239 Z" opacity="0.2"></path></g><g transform="translate(-6,2) scale(1,1)"><path fill="#ffff00" stroke="none" d="M 49 232 L 215 232 Q 225 232 225 242 L 225 277 Q 225 287 215 287 L 49 287 Q 39 287 39 277 L 39 242 Q 39 232 49 232 Z"></path></g><g transform="translate(-6,2) scale(1,1)"><path fill="none" stroke="#000000" d="M 49 232 L 215 232 Q 225 232 225 242 L 225 277 Q 225 287 215 287 L 49 287 Q 39 287 39 277 L 39 242 Q 39 232 49 232 Z" stroke-miterlimit="10"></path></g><g transform="translate(-6,2) scale(1,1)"><path fill="none" stroke="#000000" d="M 199 274 C 199 272.3431456 200.3431456 271 202 271 C 203.6568544 271 205 272.3431456 205 274 C 205 275.6568544 203.6568544 277 202 277 C 200.3431456 277 199 275.6568544 199 274 Z" stroke-miterlimit="10"></path></g><g transform="translate(-6,2) scale(1,1)"><path fill="none" stroke="#000000" d="M 205 274 L 211 274" stroke-miterlimit="10"></path></g><g transform="translate(-6,2) scale(1,1)"><path fill="none" stroke="#000000" d="M 211 274 C 211 272.3431456 212.3431456 271 214 271 C 215.6568544 271 217 272.3431456 217 274 C 217 275.6568544 215.6568544 277 214 277 C 212.3431456 277 211 275.6568544 211 274 Z" stroke-miterlimit="10"></path></g><g transform="translate(-6,2) scale(1,1)"><g><path fill="none" stroke="none"></path><text fill="#000000" stroke="none" font-family="Arial" font-size="13px" font-style="normal" font-weight="bold" text-decoration="none" x="51" y="251.5">RE:Register Entrant Activity</text></g></g><g transform="translate(-6,2) scale(1,1)"><g><path fill="none" stroke="none"></path><text fill="#000000" stroke="none" font-family="Arial" font-size="13px" font-style="normal" font-weight="normal" text-decoration="none" x="43.5" y="266.5">(from Register Entrant Activity)</text></g></g><g transform="translate(-6,2) scale(1,1)"><path fill="none" stroke="#000000" d="M 274 259 L 226 259" stroke-miterlimit="10"></path></g><g transform="translate(-6,2) scale(1,1)"><path fill="none" stroke="#000000" d="M 236.16267485762415 254.790482243984 L 226 259 L 236.16267485762415 263.209517756016" stroke-miterlimit="10"></path></g><g transform="translate(-6,2) scale(1,1)"><g><path fill="none" stroke="none"></path><text fill="#000000" stroke="none" font-family="Arial" font-size="13px" font-style="normal" font-weight="normal" text-decoration="none" x="240.5" y="280.5">No</text></g></g><g transform="translate(-6,2) scale(1,1)"><path fill="none" stroke="#000000" d="M 132 288 L 128 512 L 246 509" stroke-miterlimit="10"></path></g><g transform="translate(-6,2) scale(1,1)"><path fill="none" stroke="#000000" d="M 235.9475950217689 513.4664475988905 L 246 509 L 235.73362088766953 505.0501316576492" stroke-miterlimit="10"></path></g><g transform="translate(-6,2) scale(1,1)"><rect fill="#C0C0C0" stroke="none" x="846" y="499" width="112" height="37" opacity="0.2"></rect></g><g transform="translate(-6,2) scale(1,1)"><rect fill="#ffa182" stroke="none" x="839" y="492" width="112" height="37"></rect></g><g transform="translate(-6,2) scale(1,1)"><path fill="none" stroke="#000000" d="M 839 492 L 951 492 L 951 529 L 839 529 L 839 492 Z Z" stroke-miterlimit="10"></path></g><g transform="translate(-6,2) scale(1,1)"><rect fill="#ffa182" stroke="none" x="839" y="492" width="112" height="37"></rect></g><g transform="translate(-6,2) scale(1,1)"><path fill="none" stroke="#000000" d="M 839 492 L 951 492 L 951 529 L 839 529 L 839 492 Z Z" stroke-miterlimit="10"></path></g><g transform="translate(-6,2) scale(1,1)"><g><path fill="none" stroke="none"></path><text fill="#000000" stroke="none" font-family="Arial" font-size="13px" font-style="normal" font-weight="normal" text-decoration="none" x="861" y="509.5">«datastore»</text></g></g><g transform="translate(-6,2) scale(1,1)"><g><path fill="none" stroke="none"></path><text fill="#000000" stroke="none" font-family="Arial" font-size="13px" font-style="normal" font-weight="bold" text-decoration="none" x="852" y="524.5">CourseStorage</text></g></g><g transform="translate(-6,2) scale(1,1)"><path fill="none" stroke="#000000" d="M 692 510 L 838 510" stroke-miterlimit="10"></path></g><g transform="translate(-6,2) scale(1,1)"><path fill="none" stroke="#000000" d="M 827.8373251423759 514.209517756016 L 838 510 L 827.8373251423758 505.790482243984" stroke-miterlimit="10"></path></g><g transform="translate(-6,2) scale(1,1)"><path fill="none" stroke="#000000" d="M 724 610 L 896 608 L 895 530" stroke-miterlimit="10"></path></g><g transform="translate(-6,2) scale(1,1)"><path fill="none" stroke="#000000" d="M 899.3394518457795 540.1078760221008 L 895 530 L 890.9211081481628 540.2158035054036" stroke-miterlimit="10"></path></g><g transform="translate(-6,2) scale(1,1)"><path fill="#fff5d8" stroke="none" d="M 56 536 L 114 536 L 124 546 L 124 585 L 56 585 L 56 536"></path></g><g transform="translate(-6,2) scale(1,1)"><path fill="none" stroke="#000000" d="M 56 536 L 114 536 L 124 546 L 124 585 L 56 585 L 56 536 L 56 536" stroke-miterlimit="10"></path></g><g transform="translate(-6,2) scale(1,1)"><path fill="none" stroke="#000000" d="M 114 536 L 114 546 L 124 546 L 114 536" stroke-miterlimit="10"></path></g><g transform="translate(-6,2) scale(1,1)"><g><path fill="none" stroke="none"></path><text fill="#000000" stroke="none" font-family="Arial" font-size="13px" font-style="normal" font-weight="normal" text-decoration="none" x="61" y="554">Does</text><text fill="#000000" stroke="none" font-family="Arial" font-size="13px" font-style="normal" font-weight="normal" text-decoration="none" x="61" y="567">entrant</text><text fill="#000000" stroke="none" font-family="Arial" font-size="13px" font-style="normal" font-weight="normal" text-decoration="none" x="61" y="580">exist?</text></g></g><g transform="translate(-6,2) scale(1,1)"><path fill="none" stroke="#000000" d="M 107 535 L 280 269" stroke-miterlimit="10" stroke-dasharray="3"></path></g></g></svg>