<svg version="1.1" xmlns="http://www.w3.org/2000/svg" xmlns:xlink="http://www.w3.org/1999/xlink" width="437" height="342.5"><defs></defs><g><g transform="translate(-10,-15) scale(1,1)"><rect fill="#C0C0C0" stroke="none" x="27" y="47" width="126" height="100" opacity="0.2"></rect></g><g transform="translate(-10,-15) scale(1,1)"><rect fill="#ffffff" stroke="none" x="20" y="40" width="126" height="100"></rect></g><g transform="translate(-10,-15) scale(1,1)"><path fill="none" stroke="#000000" d="M 20 40 L 146 40 L 146 140 L 20 140 L 20 40 Z Z" stroke-miterlimit="10"></path></g><g transform="translate(-10,-15) scale(1,1)"><path fill="none" stroke="#000000" d="M 20 65 L 146 65" stroke-miterlimit="10"></path></g><g transform="translate(-10,-15) scale(1,1)"><path fill="none" stroke="#000000" d="M 20 103 L 146 103" stroke-miterlimit="10"></path></g><g transform="translate(-10,-15) scale(1,1)"><g><path fill="none" stroke="none"></path><text fill="#000000" stroke="none" font-family="Arial" font-size="13px" font-style="normal" font-weight="bold" text-decoration="none" x="58.5" y="59.5">Location</text></g></g><g transform="translate(-10,-15) scale(1,1)"><g><path fill="none" stroke="none"></path><text fill="#000000" stroke="none" font-family="Arial" font-size="13px" font-style="normal" font-weight="normal" text-decoration="none" x="25" y="82.5">-longitude: double[1]</text></g></g><g transform="translate(-10,-15) scale(1,1)"><g><path fill="none" stroke="none"></path><text fill="#000000" stroke="none" font-family="Arial" font-size="13px" font-style="normal" font-weight="normal" text-decoration="none" x="25" y="97.5">-latitude: double[1]</text></g></g><g transform="translate(-10,-15) scale(1,1)"><g><path fill="none" stroke="none"></path><text fill="#000000" stroke="none" font-family="Arial" font-size="13px" font-style="normal" font-weight="normal" text-decoration="none" x="25" y="120.5">+getLongitude()</text></g></g><g transform="translate(-10,-15) scale(1,1)"><g><path fill="none" stroke="none"></path><text fill="#000000" stroke="none" font-family="Arial" font-size="13px" font-style="normal" font-weight="normal" text-decoration="none" x="25" y="135.5">+getLatitude()</text></g></g><g transform="translate(-10,-15) scale(1,1)"><rect fill="#C0C0C0" stroke="none" x="296" y="224.5" width="148" height="130" opacity="0.2"></rect></g><g transform="translate(-10,-15) scale(1,1)"><rect fill="#ffffff" stroke="none" x="289" y="217.5" width="148" height="130"></rect></g><g transform="translate(-10,-15) scale(1,1)"><path fill="none" stroke="#000000" d="M 289 217.5 L 437 217.5 L 437 347.5 L 289 347.5 L 289 217.5 Z Z" stroke-miterlimit="10"></path></g><g transform="translate(-10,-15) scale(1,1)"><path fill="none" stroke="#000000" d="M 289 242.5 L 437 242.5" stroke-miterlimit="10"></path></g><g transform="translate(-10,-15) scale(1,1)"><path fill="none" stroke="#000000" d="M 289 295.5 L 437 295.5" stroke-miterlimit="10"></path></g><g transform="translate(-10,-15) scale(1,1)"><g><path fill="none" stroke="none"></path><text fill="#000000" stroke="none" font-family="Arial" font-size="13px" font-style="normal" font-weight="bold" text-decoration="none" x="342.5" y="237">Course</text></g></g><g transform="translate(-10,-15) scale(1,1)"><g><path fill="none" stroke="none"></path><text fill="#000000" stroke="none" font-family="Arial" font-size="13px" font-style="normal" font-weight="normal" text-decoration="none" x="294" y="260">-ID {id, ordered, unique}</text></g></g><g transform="translate(-10,-15) scale(1,1)"><g><path fill="none" stroke="none"></path><text fill="#000000" stroke="none" font-family="Arial" font-size="13px" font-style="normal" font-weight="normal" text-decoration="none" x="294" y="275">-ageFor: int</text></g></g><g transform="translate(-10,-15) scale(1,1)"><g><path fill="none" stroke="none"></path><text fill="#000000" stroke="none" font-family="Arial" font-size="13px" font-style="normal" font-weight="normal" text-decoration="none" x="294" y="290">«Marker»-markerList</text></g></g><g transform="translate(-10,-15) scale(1,1)"><g><path fill="none" stroke="none"></path><text fill="#000000" stroke="none" font-family="Arial" font-size="13px" font-style="normal" font-weight="normal" text-decoration="none" x="294" y="313">+setAgeFor(age: int)</text></g></g><g transform="translate(-10,-15) scale(1,1)"><g><path fill="none" stroke="none"></path><text fill="#000000" stroke="none" font-family="Arial" font-size="13px" font-style="normal" font-weight="normal" text-decoration="none" x="294" y="328">+getAgeFor()</text></g></g><g transform="translate(-10,-15) scale(1,1)"><g><path fill="none" stroke="none"></path><text fill="#000000" stroke="none" font-family="Arial" font-size="13px" font-style="normal" font-weight="normal" text-decoration="none" x="294" y="343">+getID()</text></g></g><g transform="translate(-10,-15) scale(1,1)"><rect fill="#C0C0C0" stroke="none" x="305" y="32" width="130" height="130" opacity="0.2"></rect></g><g transform="translate(-10,-15) scale(1,1)"><rect fill="#ffffff" stroke="none" x="298" y="25" width="130" height="130"></rect></g><g transform="translate(-10,-15) scale(1,1)"><path fill="none" stroke="#000000" d="M 298 25 L 428 25 L 428 155 L 298 155 L 298 25 Z Z" stroke-miterlimit="10"></path></g><g transform="translate(-10,-15) scale(1,1)"><path fill="none" stroke="#000000" d="M 298 50 L 428 50" stroke-miterlimit="10"></path></g><g transform="translate(-10,-15) scale(1,1)"><path fill="none" stroke="#000000" d="M 298 88 L 428 88" stroke-miterlimit="10"></path></g><g transform="translate(-10,-15) scale(1,1)"><g><path fill="none" stroke="none"></path><text fill="#000000" stroke="none" font-family="Arial" font-size="13px" font-style="normal" font-weight="bold" text-decoration="none" x="343" y="44.5">Marker</text></g></g><g transform="translate(-10,-15) scale(1,1)"><g><path fill="none" stroke="none"></path><text fill="#000000" stroke="none" font-family="Arial" font-size="13px" font-style="normal" font-weight="normal" text-decoration="none" x="303" y="67.5">-location: Location[1]</text></g></g><g transform="translate(-10,-15) scale(1,1)"><g><path fill="none" stroke="none"></path><text fill="#000000" stroke="none" font-family="Arial" font-size="13px" font-style="normal" font-weight="normal" text-decoration="none" x="303" y="82.5">-image: url[1]</text></g></g><g transform="translate(-10,-15) scale(1,1)"><g><path fill="none" stroke="none"></path><text fill="#000000" stroke="none" font-family="Arial" font-size="13px" font-style="normal" font-weight="normal" text-decoration="none" x="303" y="105.5">+getLocation()</text></g></g><g transform="translate(-10,-15) scale(1,1)"><g><path fill="none" stroke="none"></path><text fill="#000000" stroke="none" font-family="Arial" font-size="13px" font-style="normal" font-weight="normal" text-decoration="none" x="303" y="120.5">+setLocation()</text></g></g><g transform="translate(-10,-15) scale(1,1)"><g><path fill="none" stroke="none"></path><text fill="#000000" stroke="none" font-family="Arial" font-size="13px" font-style="normal" font-weight="normal" text-decoration="none" x="303" y="135.5">+getImage()</text></g></g><g transform="translate(-10,-15) scale(1,1)"><g><path fill="none" stroke="none"></path><text fill="#000000" stroke="none" font-family="Arial" font-size="13px" font-style="normal" font-weight="normal" text-decoration="none" x="303" y="150.5">+setImage()</text></g></g><g transform="translate(-10,-15) scale(1,1)"><path fill="none" stroke="#000000" d="M 297 90 L 147 90" stroke-miterlimit="10"></path></g><g transform="translate(-10,-15) scale(1,1)"><path fill="none" stroke="#000000" d="M 363 156 L 363 217" stroke-miterlimit="10"></path></g></g></svg>