<svg version="1.1" xmlns="http://www.w3.org/2000/svg" xmlns:xlink="http://www.w3.org/1999/xlink" width="667" height="750"><defs></defs><g><g transform="translate(-110,-30) scale(1,1)"><rect fill="#ffadad" stroke="none" x="352" y="40" width="415" height="21"></rect></g><g transform="translate(-110,-30) scale(1,1)"><path fill="none" stroke="#000000" d="M 352 40 L 767 40 L 767 61 L 352 61 L 352 40 Z Z" stroke-miterlimit="10" stroke-width="2"></path></g><g transform="translate(-110,-30) scale(1,1)"><path fill="none" stroke="#000000" d="M 352 663 L 352 40 L 767 40 L 767 663" stroke-miterlimit="10" stroke-width="2"></path></g><g transform="translate(-110,-30) scale(1,1)"><g><path fill="none" stroke="none"></path><text fill="#000000" stroke="none" font-family="Arial" font-size="13px" font-style="normal" font-weight="normal" text-decoration="none" x="537" y="57">System</text></g></g><g transform="translate(-110,-30) scale(1,1)"><path fill="#C0C0C0" stroke="none" d="M 225 96.5 C 225 91.2532944 229.2532944 87 234.5 87 C 239.7467056 87 244 91.2532944 244 96.5 C 244 101.7467056 239.7467056 106 234.5 106 C 229.2532944 106 225 101.7467056 225 96.5 Z" opacity="0.2"></path></g><g transform="translate(-110,-30) scale(1,1)"><path fill="#000000" stroke="none" d="M 218 89.5 C 218 84.2532944 222.2532944 80 227.5 80 C 232.7467056 80 237 84.2532944 237 89.5 C 237 94.7467056 232.7467056 99 227.5 99 C 222.2532944 99 218 94.7467056 218 89.5 Z"></path></g><g transform="translate(-110,-30) scale(1,1)"><path fill="#C0C0C0" stroke="none" d="M 192 194 L 276 194 Q 286 194 286 204 L 286 224 Q 286 234 276 234 L 192 234 Q 182 234 182 224 L 182 204 Q 182 194 192 194 Z" opacity="0.2"></path></g><g transform="translate(-110,-30) scale(1,1)"><path fill="#00ff00" stroke="none" d="M 185 187 L 269 187 Q 279 187 279 197 L 279 217 Q 279 227 269 227 L 185 227 Q 175 227 175 217 L 175 197 Q 175 187 185 187 Z"></path></g><g transform="translate(-110,-30) scale(1,1)"><path fill="none" stroke="#000000" d="M 185 187 L 269 187 Q 279 187 279 197 L 279 217 Q 279 227 269 227 L 185 227 Q 175 227 175 217 L 175 197 Q 175 187 185 187 Z" stroke-miterlimit="10"></path></g><g transform="translate(-110,-30) scale(1,1)"><g><path fill="none" stroke="none"></path><text fill="#000000" stroke="none" font-family="Arial" font-size="13px" font-style="normal" font-weight="bold" text-decoration="none" x="183" y="206.5">Exit or Log Out</text></g></g><g transform="translate(-110,-30) scale(1,1)"><path fill="#C0C0C0" stroke="none" d="M 470 214.5 L 481.5 205 L 492 214.5 L 481.5 223 L 470 214.5" opacity="0.2"></path></g><g transform="translate(-110,-30) scale(1,1)"><path fill="#38ff9b" stroke="none" d="M 463 207 L 474 198 L 485 207 L 474 216 L 463 207"></path></g><g transform="translate(-110,-30) scale(1,1)"><path fill="none" stroke="#000000" d="M 463 207 L 474 198 L 485 207 L 474 216 L 463 207 L 463 207" stroke-miterlimit="10"></path></g><g transform="translate(-110,-30) scale(1,1)"><path fill="#C0C0C0" stroke="none" d="M 437 293 L 525 293 Q 535 293 535 303 L 535 323 Q 535 333 525 333 L 437 333 Q 427 333 427 323 L 427 303 Q 427 293 437 293 Z" opacity="0.2"></path></g><g transform="translate(-110,-30) scale(1,1)"><path fill="#ffadad" stroke="none" d="M 430 286 L 518 286 Q 528 286 528 296 L 528 316 Q 528 326 518 326 L 430 326 Q 420 326 420 316 L 420 296 Q 420 286 430 286 Z"></path></g><g transform="translate(-110,-30) scale(1,1)"><path fill="none" stroke="#000000" d="M 430 286 L 518 286 Q 528 286 528 296 L 528 316 Q 528 326 518 326 L 430 326 Q 420 326 420 316 L 420 296 Q 420 286 430 286 Z" stroke-miterlimit="10"></path></g><g transform="translate(-110,-30) scale(1,1)"><g><path fill="none" stroke="none"></path><text fill="#000000" stroke="none" font-family="Arial" font-size="13px" font-style="normal" font-weight="bold" text-decoration="none" x="428.5" y="305.5">Deactivate User</text></g></g><g transform="translate(-110,-30) scale(1,1)"><path fill="#C0C0C0" stroke="none" d="M 452 437 L 511 437 Q 521 437 521 447 L 521 467 Q 521 477 511 477 L 452 477 Q 442 477 442 467 L 442 447 Q 442 437 452 437 Z" opacity="0.2"></path></g><g transform="translate(-110,-30) scale(1,1)"><path fill="#ffadad" stroke="none" d="M 445 430 L 504 430 Q 514 430 514 440 L 514 460 Q 514 470 504 470 L 445 470 Q 435 470 435 460 L 435 440 Q 435 430 445 430 Z"></path></g><g transform="translate(-110,-30) scale(1,1)"><path fill="none" stroke="#000000" d="M 445 430 L 504 430 Q 514 430 514 440 L 514 460 Q 514 470 504 470 L 445 470 Q 435 470 435 460 L 435 440 Q 435 430 445 430 Z" stroke-miterlimit="10"></path></g><g transform="translate(-110,-30) scale(1,1)"><g><path fill="none" stroke="none"></path><text fill="#000000" stroke="none" font-family="Arial" font-size="13px" font-style="normal" font-weight="bold" text-decoration="none" x="443" y="449.5">Stop Timer</text></g></g><g transform="translate(-110,-30) scale(1,1)"><path fill="#C0C0C0" stroke="none" d="M 437 520 L 526 520 Q 536 520 536 530 L 536 550 Q 536 560 526 560 L 437 560 Q 427 560 427 550 L 427 530 Q 427 520 437 520 Z" opacity="0.2"></path></g><g transform="translate(-110,-30) scale(1,1)"><path fill="#ffadad" stroke="none" d="M 430 513 L 519 513 Q 529 513 529 523 L 529 543 Q 529 553 519 553 L 430 553 Q 420 553 420 543 L 420 523 Q 420 513 430 513 Z"></path></g><g transform="translate(-110,-30) scale(1,1)"><path fill="none" stroke="#000000" d="M 430 513 L 519 513 Q 529 513 529 523 L 529 543 Q 529 553 519 553 L 430 553 Q 420 553 420 543 L 420 523 Q 420 513 430 513 Z" stroke-miterlimit="10"></path></g><g transform="translate(-110,-30) scale(1,1)"><g><path fill="none" stroke="none"></path><text fill="#000000" stroke="none" font-family="Arial" font-size="13px" font-style="normal" font-weight="bold" text-decoration="none" x="429" y="532.5">Remove Course</text></g></g><g transform="translate(-110,-30) scale(1,1)"><path fill="#C0C0C0" stroke="none" d="M 470 385.5 L 481.5 376 L 492 385.5 L 481.5 394 L 470 385.5" opacity="0.2"></path></g><g transform="translate(-110,-30) scale(1,1)"><path fill="#6dffb6" stroke="none" d="M 463 378 L 474 369 L 485 378 L 474 387 L 463 378"></path></g><g transform="translate(-110,-30) scale(1,1)"><path fill="none" stroke="#000000" d="M 463 378 L 474 369 L 485 378 L 474 387 L 463 378 L 463 378" stroke-miterlimit="10"></path></g><g transform="translate(-110,-30) scale(1,1)"><path fill="#C0C0C0" stroke="none" d="M 414 623 L 549 623 Q 559 623 559 633 L 559 653 Q 559 663 549 663 L 414 663 Q 404 663 404 653 L 404 633 Q 404 623 414 623 Z" opacity="0.2"></path></g><g transform="translate(-110,-30) scale(1,1)"><path fill="#ffadad" stroke="none" d="M 407 616 L 542 616 Q 552 616 552 626 L 552 646 Q 552 656 542 656 L 407 656 Q 397 656 397 646 L 397 626 Q 397 616 407 616 Z"></path></g><g transform="translate(-110,-30) scale(1,1)"><path fill="none" stroke="#000000" d="M 407 616 L 542 616 Q 552 616 552 626 L 552 646 Q 552 656 542 656 L 407 656 Q 397 656 397 646 L 397 626 Q 397 616 407 616 Z" stroke-miterlimit="10"></path></g><g transform="translate(-110,-30) scale(1,1)"><g><path fill="none" stroke="none"></path><text fill="#000000" stroke="none" font-family="Arial" font-size="13px" font-style="normal" font-weight="bold" text-decoration="none" x="408.5" y="635.5">Stop Geofence Service</text></g></g><g transform="translate(-110,-30) scale(1,1)"><path fill="none" stroke="#000000" d="M 227 100 L 227 186" stroke-miterlimit="10"></path></g><g transform="translate(-110,-30) scale(1,1)"><path fill="none" stroke="#000000" d="M 222.790482243984 175.83732514237585 L 227 186 L 231.209517756016 175.83732514237585" stroke-miterlimit="10"></path></g><g transform="translate(-110,-30) scale(1,1)"><path fill="none" stroke="#000000" d="M 280 207 L 462 207" stroke-miterlimit="10"></path></g><g transform="translate(-110,-30) scale(1,1)"><path fill="none" stroke="#000000" d="M 451.83732514237585 211.209517756016 L 462 207 L 451.83732514237585 202.790482243984" stroke-miterlimit="10"></path></g><g transform="translate(-110,-30) scale(1,1)"><path fill="none" stroke="#000000" d="M 474 217 L 474 285" stroke-miterlimit="10"></path></g><g transform="translate(-110,-30) scale(1,1)"><path fill="none" stroke="#000000" d="M 469.790482243984 274.83732514237585 L 474 285 L 478.209517756016 274.83732514237585" stroke-miterlimit="10"></path></g><g transform="translate(-110,-30) scale(1,1)"><g><path fill="none" stroke="none"></path><text fill="#000000" stroke="none" font-family="Arial" font-size="13px" font-style="normal" font-weight="normal" text-decoration="none" x="476.5" y="256.5">Yes</text></g></g><g transform="translate(-110,-30) scale(1,1)"><path fill="none" stroke="#000000" d="M 474 327 L 474 368" stroke-miterlimit="10"></path></g><g transform="translate(-110,-30) scale(1,1)"><path fill="none" stroke="#000000" d="M 469.790482243984 357.83732514237585 L 474 368 L 478.209517756016 357.83732514237585" stroke-miterlimit="10"></path></g><g transform="translate(-110,-30) scale(1,1)"><path fill="none" stroke="#000000" d="M 474 388 L 474 429" stroke-miterlimit="10"></path></g><g transform="translate(-110,-30) scale(1,1)"><path fill="none" stroke="#000000" d="M 469.790482243984 418.83732514237585 L 474 429 L 478.209517756016 418.83732514237585" stroke-miterlimit="10"></path></g><g transform="translate(-110,-30) scale(1,1)"><g><path fill="none" stroke="none"></path><text fill="#000000" stroke="none" font-family="Arial" font-size="13px" font-style="normal" font-weight="normal" text-decoration="none" x="476.5" y="413.5">Yes</text></g></g><g transform="translate(-110,-30) scale(1,1)"><path fill="none" stroke="#000000" d="M 474 471 L 474 512" stroke-miterlimit="10"></path></g><g transform="translate(-110,-30) scale(1,1)"><path fill="none" stroke="#000000" d="M 469.790482243984 501.83732514237585 L 474 512 L 478.209517756016 501.83732514237585" stroke-miterlimit="10"></path></g><g transform="translate(-110,-30) scale(1,1)"><path fill="none" stroke="#000000" d="M 474 554 L 474 615" stroke-miterlimit="10"></path></g><g transform="translate(-110,-30) scale(1,1)"><path fill="none" stroke="#000000" d="M 469.790482243984 604.8373251423759 L 474 615 L 478.209517756016 604.8373251423759" stroke-miterlimit="10"></path></g><g transform="translate(-110,-30) scale(1,1)"><path fill="#C0C0C0" stroke="none" d="M 670 384.5 L 681.5 375 L 692 384.5 L 681.5 393 L 670 384.5" opacity="0.2"></path></g><g transform="translate(-110,-30) scale(1,1)"><path fill="#38ff9b" stroke="none" d="M 663 377 L 674 368 L 685 377 L 674 386 L 663 377"></path></g><g transform="translate(-110,-30) scale(1,1)"><path fill="none" stroke="#000000" d="M 663 377 L 674 368 L 685 377 L 674 386 L 663 377 L 663 377" stroke-miterlimit="10"></path></g><g transform="translate(-110,-30) scale(1,1)"><path fill="none" stroke="#000000" d="M 486 378 L 662 377" stroke-miterlimit="10"></path></g><g transform="translate(-110,-30) scale(1,1)"><path fill="none" stroke="#000000" d="M 651.861406507978 381.2671913483613 L 662 377 L 651.8135718510506 372.84829172914425" stroke-miterlimit="10"></path></g><g transform="translate(-110,-30) scale(1,1)"><g><path fill="none" stroke="none"></path><text fill="#000000" stroke="none" font-family="Arial" font-size="13px" font-style="normal" font-weight="normal" text-decoration="none" x="565.5" y="368.5">No</text></g></g><g transform="translate(-110,-30) scale(1,1)"><path fill="#ffeaad" stroke="none" d="M 408 136 L 466 136 L 476 146 L 476 174 L 408 174 L 408 136"></path></g><g transform="translate(-110,-30) scale(1,1)"><path fill="none" stroke="#000000" d="M 408 136 L 466 136 L 476 146 L 476 174 L 408 174 L 408 136 L 408 136" stroke-miterlimit="10"></path></g><g transform="translate(-110,-30) scale(1,1)"><path fill="none" stroke="#000000" d="M 466 136 L 466 146 L 476 146 L 466 136" stroke-miterlimit="10"></path></g><g transform="translate(-110,-30) scale(1,1)"><g><path fill="none" stroke="none"></path><text fill="#000000" stroke="none" font-family="Arial" font-size="13px" font-style="normal" font-weight="normal" text-decoration="none" x="413" y="154">Is Field</text><text fill="#000000" stroke="none" font-family="Arial" font-size="13px" font-style="normal" font-weight="normal" text-decoration="none" x="413" y="167">User</text></g></g><g transform="translate(-110,-30) scale(1,1)"><path fill="none" stroke="#000000" d="M 455 176 L 468 197" stroke-miterlimit="10" stroke-dasharray="3"></path></g><g transform="translate(-110,-30) scale(1,1)"><path fill="#ffeaad" stroke="none" d="M 368 376 L 439 376 L 449 386 L 449 425 L 368 425 L 368 376"></path></g><g transform="translate(-110,-30) scale(1,1)"><path fill="none" stroke="#000000" d="M 368 376 L 439 376 L 449 386 L 449 425 L 368 425 L 368 376 L 368 376" stroke-miterlimit="10"></path></g><g transform="translate(-110,-30) scale(1,1)"><path fill="none" stroke="#000000" d="M 439 376 L 439 386 L 449 386 L 439 376" stroke-miterlimit="10"></path></g><g transform="translate(-110,-30) scale(1,1)"><g><path fill="none" stroke="none"></path><text fill="#000000" stroke="none" font-family="Arial" font-size="13px" font-style="normal" font-weight="normal" text-decoration="none" x="373" y="394">Is</text><text fill="#000000" stroke="none" font-family="Arial" font-size="13px" font-style="normal" font-weight="normal" text-decoration="none" x="373" y="407">Attempting</text><text fill="#000000" stroke="none" font-family="Arial" font-size="13px" font-style="normal" font-weight="normal" text-decoration="none" x="373" y="420">Course</text></g></g><g transform="translate(-110,-30) scale(1,1)"><path fill="none" stroke="#000000" d="M 451 386 L 462 382" stroke-miterlimit="10" stroke-dasharray="3"></path></g><g transform="translate(-110,-30) scale(1,1)"><rect fill="#00ff00" stroke="none" x="120" y="40" width="207" height="21"></rect></g><g transform="translate(-110,-30) scale(1,1)"><path fill="none" stroke="#000000" d="M 120 40 L 327 40 L 327 61 L 120 61 L 120 40 Z Z" stroke-miterlimit="10" stroke-width="2"></path></g><g transform="translate(-110,-30) scale(1,1)"><path fill="none" stroke="#000000" d="M 120 663 L 120 40 L 327 40 L 327 663" stroke-miterlimit="10" stroke-width="2"></path></g><g transform="translate(-110,-30) scale(1,1)"><g><path fill="none" stroke="none"></path><text fill="#000000" stroke="none" font-family="Arial" font-size="13px" font-style="normal" font-weight="normal" text-decoration="none" x="197" y="57">All Users</text></g></g><g transform="translate(-110,-30) scale(1,1)"><path fill="#C0C0C0" stroke="none" d="M 630 623 L 732 623 Q 742 623 742 633 L 742 653 Q 742 663 732 663 L 630 663 Q 620 663 620 653 L 620 633 Q 620 623 630 623 Z" opacity="0.2"></path></g><g transform="translate(-110,-30) scale(1,1)"><path fill="#ffadad" stroke="none" d="M 623 616 L 725 616 Q 735 616 735 626 L 735 646 Q 735 656 725 656 L 623 656 Q 613 656 613 646 L 613 626 Q 613 616 623 616 Z"></path></g><g transform="translate(-110,-30) scale(1,1)"><path fill="none" stroke="#000000" d="M 623 616 L 725 616 Q 735 616 735 626 L 735 646 Q 735 656 725 656 L 623 656 Q 613 656 613 646 L 613 626 Q 613 616 623 616 Z" stroke-miterlimit="10"></path></g><g transform="translate(-110,-30) scale(1,1)"><g><path fill="none" stroke="none"></path><text fill="#000000" stroke="none" font-family="Arial" font-size="13px" font-style="normal" font-weight="bold" text-decoration="none" x="622" y="635.5">Suspend Services</text></g></g><g transform="translate(-110,-30) scale(1,1)"><path fill="#C0C0C0" stroke="none" d="M 669 764.5 C 669 757.59644 674.59644 752 681.5 752 C 688.40356 752 694 757.59644 694 764.5 C 694 771.40356 688.40356 777 681.5 777 C 674.59644 777 669 771.40356 669 764.5 Z" opacity="0.2"></path></g><g transform="translate(-110,-30) scale(1,1)"><path fill="none" stroke="#000000" d="M 662 757.5 C 662 750.59644 667.59644 745 674.5 745 C 681.40356 745 687 750.59644 687 757.5 C 687 764.40356 681.40356 770 674.5 770 C 667.59644 770 662 764.40356 662 757.5 Z" stroke-miterlimit="10"></path></g><g transform="translate(-110,-30) scale(1,1)"><path fill="#000000" stroke="none" d="M 667 757.5 C 667 753.357864 670.357864 750 674.5 750 C 678.642136 750 682 753.357864 682 757.5 C 682 761.642136 678.642136 765 674.5 765 C 670.357864 765 667 761.642136 667 757.5 Z"></path></g><g transform="translate(-110,-30) scale(1,1)"><path fill="none" stroke="#000000" d="M 486 217 L 662 367" stroke-miterlimit="10"></path></g><g transform="translate(-110,-30) scale(1,1)"><path fill="none" stroke="#000000" d="M 651.5348273890147 363.6117611916686 L 662 367 L 656.9958521181351 357.20415884283403" stroke-miterlimit="10"></path></g><g transform="translate(-110,-30) scale(1,1)"><g><path fill="none" stroke="none"></path><text fill="#000000" stroke="none" font-family="Arial" font-size="13px" font-style="normal" font-weight="normal" text-decoration="none" x="574.5" y="286.5">No</text></g></g><g transform="translate(-110,-30) scale(1,1)"><path fill="none" stroke="#000000" d="M 674 387 L 674 615" stroke-miterlimit="10"></path></g><g transform="translate(-110,-30) scale(1,1)"><path fill="none" stroke="#000000" d="M 669.790482243984 604.8373251423759 L 674 615 L 678.209517756016 604.8373251423759" stroke-miterlimit="10"></path></g><g transform="translate(-110,-30) scale(1,1)"><path fill="none" stroke="#000000" d="M 553 636 L 612 636" stroke-miterlimit="10"></path></g><g transform="translate(-110,-30) scale(1,1)"><path fill="none" stroke="#000000" d="M 601.8373251423759 640.209517756016 L 612 636 L 601.8373251423758 631.790482243984" stroke-miterlimit="10"></path></g><g transform="translate(-110,-30) scale(1,1)"><path fill="none" stroke="#000000" d="M 674 657 L 674 744" stroke-miterlimit="10"></path></g><g transform="translate(-110,-30) scale(1,1)"><path fill="none" stroke="#000000" d="M 669.790482243984 733.8373251423759 L 674 744 L 678.209517756016 733.8373251423759" stroke-miterlimit="10"></path></g></g></svg>