<svg version="1.1" xmlns="http://www.w3.org/2000/svg" xmlns:xlink="http://www.w3.org/1999/xlink" width="732" height="603"><defs></defs><g><g transform="translate(-62,-14) scale(1,1)"><path fill="#C0C0C0" stroke="none" d="M 120 189 L 221 189 Q 231 189 231 199 L 231 219 Q 231 229 221 229 L 120 229 Q 110 229 110 219 L 110 199 Q 110 189 120 189 Z" opacity="0.2"></path></g><g transform="translate(-62,-14) scale(1,1)"><path fill="#00ff00" stroke="none" d="M 113 182 L 214 182 Q 224 182 224 192 L 224 212 Q 224 222 214 222 L 113 222 Q 103 222 103 212 L 103 192 Q 103 182 113 182 Z"></path></g><g transform="translate(-62,-14) scale(1,1)"><path fill="none" stroke="#000000" d="M 113 182 L 214 182 Q 224 182 224 192 L 224 212 Q 224 222 214 222 L 113 222 Q 103 222 103 212 L 103 192 Q 103 182 113 182 Z" stroke-miterlimit="10"></path></g><g transform="translate(-62,-14) scale(1,1)"><g><path fill="none" stroke="none"></path><text fill="#000000" stroke="none" font-family="Arial" font-size="13px" font-style="normal" font-weight="bold" text-decoration="none" x="110.5" y="201.5">Enter User Details</text></g></g><g transform="translate(-62,-14) scale(1,1)"><path fill="#C0C0C0" stroke="none" d="M 446 189 L 496 189 Q 506 189 506 199 L 506 219 Q 506 229 496 229 L 446 229 Q 436 229 436 219 L 436 199 Q 436 189 446 189 Z" opacity="0.2"></path></g><g transform="translate(-62,-14) scale(1,1)"><path fill="#ffadad" stroke="none" d="M 439 182 L 489 182 Q 499 182 499 192 L 499 212 Q 499 222 489 222 L 439 222 Q 429 222 429 212 L 429 192 Q 429 182 439 182 Z"></path></g><g transform="translate(-62,-14) scale(1,1)"><path fill="none" stroke="#000000" d="M 439 182 L 489 182 Q 499 182 499 192 L 499 212 Q 499 222 489 222 L 439 222 Q 429 222 429 212 L 429 192 Q 429 182 439 182 Z" stroke-miterlimit="10"></path></g><g transform="translate(-62,-14) scale(1,1)"><g><path fill="none" stroke="none"></path><text fill="#000000" stroke="none" font-family="Arial" font-size="13px" font-style="normal" font-weight="bold" text-decoration="none" x="434.5" y="201.5">Check DB</text></g></g><g transform="translate(-62,-14) scale(1,1)"><rect fill="#C0C0C0" stroke="none" x="679" y="191" width="112" height="37" opacity="0.2"></rect></g><g transform="translate(-62,-14) scale(1,1)"><rect fill="#ffaa56" stroke="none" x="672" y="184" width="112" height="37"></rect></g><g transform="translate(-62,-14) scale(1,1)"><path fill="none" stroke="#000000" d="M 672 184 L 784 184 L 784 221 L 672 221 L 672 184 Z Z" stroke-miterlimit="10"></path></g><g transform="translate(-62,-14) scale(1,1)"><rect fill="#ffaa56" stroke="none" x="672" y="184" width="112" height="37"></rect></g><g transform="translate(-62,-14) scale(1,1)"><path fill="none" stroke="#000000" d="M 672 184 L 784 184 L 784 221 L 672 221 L 672 184 Z Z" stroke-miterlimit="10"></path></g><g transform="translate(-62,-14) scale(1,1)"><g><path fill="none" stroke="none"></path><text fill="#000000" stroke="none" font-family="Arial" font-size="13px" font-style="normal" font-weight="normal" text-decoration="none" x="694" y="201.5">«datastore»</text></g></g><g transform="translate(-62,-14) scale(1,1)"><g><path fill="none" stroke="none"></path><text fill="#000000" stroke="none" font-family="Arial" font-size="13px" font-style="normal" font-weight="bold" text-decoration="none" x="692" y="216.5">UserStorage</text></g></g><g transform="translate(-62,-14) scale(1,1)"><path fill="#C0C0C0" stroke="none" d="M 459 295.5 L 470.5 286 L 481 295.5 L 470.5 304 L 459 295.5" opacity="0.2"></path></g><g transform="translate(-62,-14) scale(1,1)"><path fill="#00ff00" stroke="none" d="M 452 288 L 463 279 L 474 288 L 463 297 L 452 288"></path></g><g transform="translate(-62,-14) scale(1,1)"><path fill="none" stroke="#000000" d="M 452 288 L 463 279 L 474 288 L 463 297 L 452 288 L 452 288" stroke-miterlimit="10"></path></g><g transform="translate(-62,-14) scale(1,1)"><path fill="#C0C0C0" stroke="none" d="M 161 101.5 C 161 96.2532944 165.2532944 92 170.5 92 C 175.7467056 92 180 96.2532944 180 101.5 C 180 106.7467056 175.7467056 111 170.5 111 C 165.2532944 111 161 106.7467056 161 101.5 Z" opacity="0.2"></path></g><g transform="translate(-62,-14) scale(1,1)"><path fill="#000000" stroke="none" d="M 154 94.5 C 154 89.2532944 158.2532944 85 163.5 85 C 168.7467056 85 173 89.2532944 173 94.5 C 173 99.7467056 168.7467056 104 163.5 104 C 158.2532944 104 154 99.7467056 154 94.5 Z"></path></g><g transform="translate(-62,-14) scale(1,1)"><path fill="#C0C0C0" stroke="none" d="M 460 384.5 L 471.5 375 L 482 384.5 L 471.5 393 L 460 384.5" opacity="0.2"></path></g><g transform="translate(-62,-14) scale(1,1)"><path fill="#00ff00" stroke="none" d="M 453 377 L 464 368 L 475 377 L 464 386 L 453 377"></path></g><g transform="translate(-62,-14) scale(1,1)"><path fill="none" stroke="#000000" d="M 453 377 L 464 368 L 475 377 L 464 386 L 453 377 L 453 377" stroke-miterlimit="10"></path></g><g transform="translate(-62,-14) scale(1,1)"><path fill="#C0C0C0" stroke="none" d="M 459 596.5 C 459 589.59644 464.59644 584 471.5 584 C 478.40356 584 484 589.59644 484 596.5 C 484 603.40356 478.40356 609 471.5 609 C 464.59644 609 459 603.40356 459 596.5 Z" opacity="0.2"></path></g><g transform="translate(-62,-14) scale(1,1)"><path fill="none" stroke="#000000" d="M 452 589.5 C 452 582.59644 457.59644 577 464.5 577 C 471.40356 577 477 582.59644 477 589.5 C 477 596.40356 471.40356 602 464.5 602 C 457.59644 602 452 596.40356 452 589.5 Z" stroke-miterlimit="10"></path></g><g transform="translate(-62,-14) scale(1,1)"><path fill="#000000" stroke="none" d="M 457 589.5 C 457 585.357864 460.357864 582 464.5 582 C 468.642136 582 472 585.357864 472 589.5 C 472 593.642136 468.642136 597 464.5 597 C 460.357864 597 457 593.642136 457 589.5 Z"></path></g><g transform="translate(-62,-14) scale(1,1)"><path fill="#C0C0C0" stroke="none" d="M 316 471 L 447 471 Q 457 471 457 481 L 457 501 Q 457 511 447 511 L 316 511 Q 306 511 306 501 L 306 481 Q 306 471 316 471 Z" opacity="0.2"></path></g><g transform="translate(-62,-14) scale(1,1)"><path fill="#00ffd4" stroke="none" d="M 309 464 L 440 464 Q 450 464 450 474 L 450 494 Q 450 504 440 504 L 309 504 Q 299 504 299 494 L 299 474 Q 299 464 309 464 Z"></path></g><g transform="translate(-62,-14) scale(1,1)"><path fill="none" stroke="#000000" d="M 309 464 L 440 464 Q 450 464 450 474 L 450 494 Q 450 504 440 504 L 309 504 Q 299 504 299 494 L 299 474 Q 299 464 309 464 Z" stroke-miterlimit="10"></path></g><g transform="translate(-62,-14) scale(1,1)"><g><path fill="none" stroke="none"></path><text fill="#000000" stroke="none" font-family="Arial" font-size="13px" font-style="normal" font-weight="bold" text-decoration="none" x="309" y="483.5">Mark Field User Active</text></g></g><g transform="translate(-62,-14) scale(1,1)"><path fill="none" stroke="#000000" d="M 163 105 L 163 181" stroke-miterlimit="10"></path></g><g transform="translate(-62,-14) scale(1,1)"><path fill="none" stroke="#000000" d="M 158.790482243984 170.83732514237585 L 163 181 L 167.209517756016 170.83732514237585" stroke-miterlimit="10"></path></g><g transform="translate(-62,-14) scale(1,1)"><path fill="none" stroke="#000000" d="M 225 202 L 428 202" stroke-miterlimit="10"></path></g><g transform="translate(-62,-14) scale(1,1)"><path fill="none" stroke="#000000" d="M 417.83732514237585 206.209517756016 L 428 202 L 417.83732514237585 197.790482243984" stroke-miterlimit="10"></path></g><g transform="translate(-62,-14) scale(1,1)"><g><path fill="none" stroke="none"></path><text fill="#000000" stroke="none" font-family="Arial" font-size="13px" font-style="normal" font-weight="normal" text-decoration="none" x="306.5" y="193.5">submit</text></g></g><g transform="translate(-62,-14) scale(1,1)"><path fill="none" stroke="#000000" d="M 463 298 L 464 367" stroke-miterlimit="10"></path></g><g transform="translate(-62,-14) scale(1,1)"><path fill="none" stroke="#000000" d="M 459.6436545802936 356.89939335563434 L 464 367 L 468.0618060648635 356.7773911602058" stroke-miterlimit="10"></path></g><g transform="translate(-62,-14) scale(1,1)"><g><path fill="none" stroke="none"></path><text fill="#000000" stroke="none" font-family="Arial" font-size="13px" font-style="normal" font-weight="normal" text-decoration="none" x="466.5" y="337.5">yes</text></g></g><g transform="translate(-62,-14) scale(1,1)"><path fill="none" stroke="#000000" d="M 464 387 L 464 576" stroke-miterlimit="10"></path></g><g transform="translate(-62,-14) scale(1,1)"><path fill="none" stroke="#000000" d="M 459.790482243984 565.8373251423759 L 464 576 L 468.209517756016 565.8373251423759" stroke-miterlimit="10"></path></g><g transform="translate(-62,-14) scale(1,1)"><g><path fill="none" stroke="none"></path><text fill="#000000" stroke="none" font-family="Arial" font-size="13px" font-style="normal" font-weight="normal" text-decoration="none" x="470.5" y="486.5">No</text></g></g><g transform="translate(-62,-14) scale(1,1)"><path fill="none" stroke="#000000" d="M 452 377 L 376 376 L 374 463" stroke-miterlimit="10"></path></g><g transform="translate(-62,-14) scale(1,1)"><path fill="none" stroke="#000000" d="M 370.025157110015 452.7432644569563 L 374 463 L 378.4419688936638 452.9367543830172" stroke-miterlimit="10"></path></g><g transform="translate(-62,-14) scale(1,1)"><g><path fill="none" stroke="none"></path><text fill="#000000" stroke="none" font-family="Arial" font-size="13px" font-style="normal" font-weight="normal" text-decoration="none" x="376.5" y="382.5">Yes</text></g></g><g transform="translate(-62,-14) scale(1,1)"><path fill="none" stroke="#000000" d="M 500 202 L 671 202" stroke-miterlimit="10"></path></g><g transform="translate(-62,-14) scale(1,1)"><path fill="none" stroke="#000000" d="M 660.8373251423759 206.209517756016 L 671 202 L 660.8373251423758 197.790482243984" stroke-miterlimit="10"></path></g><g transform="translate(-62,-14) scale(1,1)"><g><path fill="none" stroke="none"></path><text fill="#000000" stroke="none" font-family="Arial" font-size="13px" font-style="normal" font-weight="normal" text-decoration="none" x="568.5" y="193.5">query</text></g></g><g transform="translate(-62,-14) scale(1,1)"><path fill="none" stroke="#000000" d="M 728 222 L 728 288 L 475 288" stroke-miterlimit="10"></path></g><g transform="translate(-62,-14) scale(1,1)"><path fill="none" stroke="#000000" d="M 485.16267485762415 283.790482243984 L 475 288 L 485.16267485762415 292.209517756016" stroke-miterlimit="10"></path></g><g transform="translate(-62,-14) scale(1,1)"><g><path fill="none" stroke="none"></path><text fill="#000000" stroke="none" font-family="Arial" font-size="13px" font-style="normal" font-weight="normal" text-decoration="none" x="710.5" y="309.5">return</text></g></g><g transform="translate(-62,-14) scale(1,1)"><path fill="none" stroke="#000000" d="M 374 505 L 376 592 L 451 589" stroke-miterlimit="10"></path></g><g transform="translate(-62,-14) scale(1,1)"><path fill="none" stroke="#000000" d="M 441.0136917061868 593.6123363560042 L 451 589 L 440.67719937198143 585.2000280008691" stroke-miterlimit="10"></path></g><g transform="translate(-62,-14) scale(1,1)"><path fill="#C0C0C0" stroke="none" d="M 362 275 L 401 275 Q 411 275 411 285 L 411 305 Q 411 315 401 315 L 362 315 Q 352 315 352 305 L 352 285 Q 352 275 362 275 Z" opacity="0.2"></path></g><g transform="translate(-62,-14) scale(1,1)"><path fill="#c082ff" stroke="none" d="M 355 268 L 394 268 Q 404 268 404 278 L 404 298 Q 404 308 394 308 L 355 308 Q 345 308 345 298 L 345 278 Q 345 268 355 268 Z"></path></g><g transform="translate(-62,-14) scale(1,1)"><path fill="none" stroke="#000000" d="M 355 268 L 394 268 Q 404 268 404 278 L 404 298 Q 404 308 394 308 L 355 308 Q 345 308 345 298 L 345 278 Q 345 268 355 268 Z" stroke-miterlimit="10"></path></g><g transform="translate(-62,-14) scale(1,1)"><g><path fill="none" stroke="none"></path><text fill="#000000" stroke="none" font-family="Arial" font-size="13px" font-style="normal" font-weight="bold" text-decoration="none" x="360.5" y="287.5">Error</text></g></g><g transform="translate(-62,-14) scale(1,1)"><path fill="none" stroke="#000000" d="M 451 288 L 405 288" stroke-miterlimit="10"></path></g><g transform="translate(-62,-14) scale(1,1)"><path fill="none" stroke="#000000" d="M 415.16267485762415 283.790482243984 L 405 288 L 415.16267485762415 292.209517756016" stroke-miterlimit="10"></path></g><g transform="translate(-62,-14) scale(1,1)"><path fill="none" stroke="#000000" d="M 415 298 L 439 298" stroke-miterlimit="10"></path></g><g transform="translate(-62,-14) scale(1,1)"><path fill="none" stroke="#000000" d="M 439 298 L 415 312" stroke-miterlimit="10"></path></g><g transform="translate(-62,-14) scale(1,1)"><path fill="none" stroke="#000000" d="M 415 312 L 439 312" stroke-miterlimit="10"></path></g><g transform="translate(-62,-14) scale(1,1)"><path fill="none" stroke="#000000" d="M 439 312 L 434 317" stroke-miterlimit="10"></path></g><g transform="translate(-62,-14) scale(1,1)"><path fill="none" stroke="#000000" d="M 439 312 L 434 307" stroke-miterlimit="10"></path></g><g transform="translate(-62,-14) scale(1,1)"><path fill="#ffeaad" stroke="none" d="M 560 320 L 618 320 L 628 330 L 628 358 L 560 358 L 560 320"></path></g><g transform="translate(-62,-14) scale(1,1)"><path fill="none" stroke="#000000" d="M 560 320 L 618 320 L 628 330 L 628 358 L 560 358 L 560 320 L 560 320" stroke-miterlimit="10"></path></g><g transform="translate(-62,-14) scale(1,1)"><path fill="none" stroke="#000000" d="M 618 320 L 618 330 L 628 330 L 618 320" stroke-miterlimit="10"></path></g><g transform="translate(-62,-14) scale(1,1)"><g><path fill="none" stroke="none"></path><text fill="#000000" stroke="none" font-family="Arial" font-size="13px" font-style="normal" font-weight="normal" text-decoration="none" x="565" y="338">Is Valid</text><text fill="#000000" stroke="none" font-family="Arial" font-size="13px" font-style="normal" font-weight="normal" text-decoration="none" x="565" y="351">User</text></g></g><g transform="translate(-62,-14) scale(1,1)"><path fill="none" stroke="#000000" d="M 475 293 L 559 325" stroke-miterlimit="10" stroke-dasharray="3"></path></g><g transform="translate(-62,-14) scale(1,1)"><path fill="#ffeaad" stroke="none" d="M 560 432 L 618 432 L 628 442 L 628 470 L 560 470 L 560 432"></path></g><g transform="translate(-62,-14) scale(1,1)"><path fill="none" stroke="#000000" d="M 560 432 L 618 432 L 628 442 L 628 470 L 560 470 L 560 432 L 560 432" stroke-miterlimit="10"></path></g><g transform="translate(-62,-14) scale(1,1)"><path fill="none" stroke="#000000" d="M 618 432 L 618 442 L 628 442 L 618 432" stroke-miterlimit="10"></path></g><g transform="translate(-62,-14) scale(1,1)"><g><path fill="none" stroke="none"></path><text fill="#000000" stroke="none" font-family="Arial" font-size="13px" font-style="normal" font-weight="normal" text-decoration="none" x="565" y="450">Is Field</text><text fill="#000000" stroke="none" font-family="Arial" font-size="13px" font-style="normal" font-weight="normal" text-decoration="none" x="565" y="463">User</text></g></g><g transform="translate(-62,-14) scale(1,1)"><path fill="none" stroke="#000000" d="M 476 384 L 559 431" stroke-miterlimit="10" stroke-dasharray="3"></path></g><g transform="translate(-62,-14) scale(1,1)"><rect fill="#00ff00" stroke="none" x="72" y="24" width="183" height="21"></rect></g><g transform="translate(-62,-14) scale(1,1)"><path fill="none" stroke="#000000" d="M 72 24 L 255 24 L 255 45 L 72 45 L 72 24 Z Z" stroke-miterlimit="10" stroke-width="2"></path></g><g transform="translate(-62,-14) scale(1,1)"><path fill="none" stroke="#000000" d="M 72 591 L 72 24 L 255 24 L 255 591" stroke-miterlimit="10" stroke-width="2"></path></g><g transform="translate(-62,-14) scale(1,1)"><g><path fill="none" stroke="none"></path><text fill="#000000" stroke="none" font-family="Arial" font-size="13px" font-style="normal" font-weight="normal" text-decoration="none" x="137" y="41">All Users</text></g></g><g transform="translate(-62,-14) scale(1,1)"><rect fill="#ffa182" stroke="none" x="288" y="24" width="359" height="21"></rect></g><g transform="translate(-62,-14) scale(1,1)"><path fill="none" stroke="#000000" d="M 288 24 L 647 24 L 647 45 L 288 45 L 288 24 Z Z" stroke-miterlimit="10" stroke-width="2"></path></g><g transform="translate(-62,-14) scale(1,1)"><path fill="none" stroke="#000000" d="M 288 607 L 288 24 L 647 24 L 647 607" stroke-miterlimit="10" stroke-width="2"></path></g><g transform="translate(-62,-14) scale(1,1)"><g><path fill="none" stroke="none"></path><text fill="#000000" stroke="none" font-family="Arial" font-size="13px" font-style="normal" font-weight="normal" text-decoration="none" x="445" y="41">System</text></g></g></g></svg>