<svg version="1.1" xmlns="http://www.w3.org/2000/svg" xmlns:xlink="http://www.w3.org/1999/xlink" width="780" height="427"><defs></defs><g><g transform="translate(-102,-14) scale(1,1)"><rect fill="#ffadad" stroke="none" x="424" y="24" width="231" height="21"></rect></g><g transform="translate(-102,-14) scale(1,1)"><path fill="none" stroke="#000000" d="M 424 24 L 655 24 L 655 45 L 424 45 L 424 24 Z Z" stroke-miterlimit="10" stroke-width="2"></path></g><g transform="translate(-102,-14) scale(1,1)"><path fill="none" stroke="#000000" d="M 424 431 L 424 24 L 655 24 L 655 431" stroke-miterlimit="10" stroke-width="2"></path></g><g transform="translate(-102,-14) scale(1,1)"><g><path fill="none" stroke="none"></path><text fill="#000000" stroke="none" font-family="Arial" font-size="13px" font-style="normal" font-weight="normal" text-decoration="none" x="517" y="41">System</text></g></g><g transform="translate(-102,-14) scale(1,1)"><rect fill="#ff00ff" stroke="none" x="112" y="24" width="207" height="21"></rect></g><g transform="translate(-102,-14) scale(1,1)"><path fill="none" stroke="#000000" d="M 112 24 L 319 24 L 319 45 L 112 45 L 112 24 Z Z" stroke-miterlimit="10" stroke-width="2"></path></g><g transform="translate(-102,-14) scale(1,1)"><path fill="none" stroke="#000000" d="M 112 423 L 112 24 L 319 24 L 319 423" stroke-miterlimit="10" stroke-width="2"></path></g><g transform="translate(-102,-14) scale(1,1)"><g><path fill="none" stroke="none"></path><text fill="#000000" stroke="none" font-family="Arial" font-size="13px" font-style="normal" font-weight="normal" text-decoration="none" x="178.5" y="41">Monitor User</text></g></g><g transform="translate(-102,-14) scale(1,1)"><path fill="#C0C0C0" stroke="none" d="M 213 80.5 C 213 75.2532944 217.2532944 71 222.5 71 C 227.7467056 71 232 75.2532944 232 80.5 C 232 85.7467056 227.7467056 90 222.5 90 C 217.2532944 90 213 85.7467056 213 80.5 Z" opacity="0.2"></path></g><g transform="translate(-102,-14) scale(1,1)"><path fill="#000000" stroke="none" d="M 206 73.5 C 206 68.2532944 210.2532944 64 215.5 64 C 220.7467056 64 225 68.2532944 225 73.5 C 225 78.7467056 220.7467056 83 215.5 83 C 210.2532944 83 206 78.7467056 206 73.5 Z"></path></g><g transform="translate(-102,-14) scale(1,1)"><path fill="#C0C0C0" stroke="none" d="M 169 159 L 276 159 Q 286 159 286 169 L 286 189 Q 286 199 276 199 L 169 199 Q 159 199 159 189 L 159 169 Q 159 159 169 159 Z" opacity="0.2"></path></g><g transform="translate(-102,-14) scale(1,1)"><path fill="#ff00ff" stroke="none" d="M 162 152 L 269 152 Q 279 152 279 162 L 279 182 Q 279 192 269 192 L 162 192 Q 152 192 152 182 L 152 162 Q 152 152 162 152 Z"></path></g><g transform="translate(-102,-14) scale(1,1)"><path fill="none" stroke="#000000" d="M 162 152 L 269 152 Q 279 152 279 162 L 279 182 Q 279 192 269 192 L 162 192 Q 152 192 152 182 L 152 162 Q 152 152 162 152 Z" stroke-miterlimit="10"></path></g><g transform="translate(-102,-14) scale(1,1)"><g><path fill="none" stroke="none"></path><text fill="#000000" stroke="none" font-family="Arial" font-size="13px" font-style="normal" font-weight="bold" text-decoration="none" x="162" y="171.5">Choose Field User</text></g></g><g transform="translate(-102,-14) scale(1,1)"><path fill="#C0C0C0" stroke="none" d="M 501 159 L 591 159 Q 601 159 601 169 L 601 189 Q 601 199 591 199 L 501 199 Q 491 199 491 189 L 491 169 Q 491 159 501 159 Z" opacity="0.2"></path></g><g transform="translate(-102,-14) scale(1,1)"><path fill="#ffadad" stroke="none" d="M 494 152 L 584 152 Q 594 152 594 162 L 594 182 Q 594 192 584 192 L 494 192 Q 484 192 484 182 L 484 162 Q 484 152 494 152 Z"></path></g><g transform="translate(-102,-14) scale(1,1)"><path fill="none" stroke="#000000" d="M 494 152 L 584 152 Q 594 152 594 162 L 594 182 Q 594 192 584 192 L 494 192 Q 484 192 484 182 L 484 162 Q 484 152 494 152 Z" stroke-miterlimit="10"></path></g><g transform="translate(-102,-14) scale(1,1)"><g><path fill="none" stroke="none"></path><text fill="#000000" stroke="none" font-family="Arial" font-size="13px" font-style="normal" font-weight="bold" text-decoration="none" x="491" y="171.5">Get User Details</text></g></g><g transform="translate(-102,-14) scale(1,1)"><rect fill="#C0C0C0" stroke="none" x="767" y="159" width="112" height="37" opacity="0.2"></rect></g><g transform="translate(-102,-14) scale(1,1)"><rect fill="#ffca2b" stroke="none" x="760" y="152" width="112" height="37"></rect></g><g transform="translate(-102,-14) scale(1,1)"><path fill="none" stroke="#000000" d="M 760 152 L 872 152 L 872 189 L 760 189 L 760 152 Z Z" stroke-miterlimit="10"></path></g><g transform="translate(-102,-14) scale(1,1)"><rect fill="#ffca2b" stroke="none" x="760" y="152" width="112" height="37"></rect></g><g transform="translate(-102,-14) scale(1,1)"><path fill="none" stroke="#000000" d="M 760 152 L 872 152 L 872 189 L 760 189 L 760 152 Z Z" stroke-miterlimit="10"></path></g><g transform="translate(-102,-14) scale(1,1)"><g><path fill="none" stroke="none"></path><text fill="#000000" stroke="none" font-family="Arial" font-size="13px" font-style="normal" font-weight="normal" text-decoration="none" x="782" y="169.5">«datastore»</text></g></g><g transform="translate(-102,-14) scale(1,1)"><g><path fill="none" stroke="none"></path><text fill="#000000" stroke="none" font-family="Arial" font-size="13px" font-style="normal" font-weight="bold" text-decoration="none" x="780" y="184.5">UserStorage</text></g></g><g transform="translate(-102,-14) scale(1,1)"><path fill="#C0C0C0" stroke="none" d="M 474 294 L 618 294 Q 628 294 628 304 L 628 324 Q 628 334 618 334 L 474 334 Q 464 334 464 324 L 464 304 Q 464 294 474 294 Z" opacity="0.2"></path></g><g transform="translate(-102,-14) scale(1,1)"><path fill="#ffadad" stroke="none" d="M 467 287 L 611 287 Q 621 287 621 297 L 621 317 Q 621 327 611 327 L 467 327 Q 457 327 457 317 L 457 297 Q 457 287 467 287 Z"></path></g><g transform="translate(-102,-14) scale(1,1)"><path fill="none" stroke="#000000" d="M 467 287 L 611 287 Q 621 287 621 297 L 621 317 Q 621 327 611 327 L 467 327 Q 457 327 457 317 L 457 297 Q 457 287 467 287 Z" stroke-miterlimit="10"></path></g><g transform="translate(-102,-14) scale(1,1)"><g><path fill="none" stroke="none"></path><text fill="#000000" stroke="none" font-family="Arial" font-size="13px" font-style="normal" font-weight="bold" text-decoration="none" x="468.5" y="306.5">Display User Information</text></g></g><g transform="translate(-102,-14) scale(1,1)"><path fill="#C0C0C0" stroke="none" d="M 210 314.5 C 210 307.59644 215.59644 302 222.5 302 C 229.40356 302 235 307.59644 235 314.5 C 235 321.40356 229.40356 327 222.5 327 C 215.59644 327 210 321.40356 210 314.5 Z" opacity="0.2"></path></g><g transform="translate(-102,-14) scale(1,1)"><path fill="none" stroke="#000000" d="M 203 307.5 C 203 300.59644 208.59644 295 215.5 295 C 222.40356 295 228 300.59644 228 307.5 C 228 314.40356 222.40356 320 215.5 320 C 208.59644 320 203 314.40356 203 307.5 Z" stroke-miterlimit="10"></path></g><g transform="translate(-102,-14) scale(1,1)"><path fill="#000000" stroke="none" d="M 208 307.5 C 208 303.357864 211.357864 300 215.5 300 C 219.642136 300 223 303.357864 223 307.5 C 223 311.642136 219.642136 315 215.5 315 C 211.357864 315 208 311.642136 208 307.5 Z"></path></g><g transform="translate(-102,-14) scale(1,1)"><path fill="none" stroke="#000000" d="M 215 84 L 215 151" stroke-miterlimit="10"></path></g><g transform="translate(-102,-14) scale(1,1)"><path fill="none" stroke="#000000" d="M 210.790482243984 140.83732514237585 L 215 151 L 219.209517756016 140.83732514237585" stroke-miterlimit="10"></path></g><g transform="translate(-102,-14) scale(1,1)"><path fill="none" stroke="#000000" d="M 280 172 L 483 172" stroke-miterlimit="10"></path></g><g transform="translate(-102,-14) scale(1,1)"><path fill="none" stroke="#000000" d="M 472.83732514237585 176.209517756016 L 483 172 L 472.83732514237585 167.790482243984" stroke-miterlimit="10"></path></g><g transform="translate(-102,-14) scale(1,1)"><path fill="none" stroke="#000000" d="M 595 172 L 759 170" stroke-miterlimit="10"></path></g><g transform="translate(-102,-14) scale(1,1)"><path fill="none" stroke="#000000" d="M 748.8894125251521 174.3331306134767 L 759 170 L 748.7867489941989 165.9147210753117" stroke-miterlimit="10"></path></g><g transform="translate(-102,-14) scale(1,1)"><path fill="none" stroke="#000000" d="M 816 190 L 816 304 L 622 306" stroke-miterlimit="10"></path></g><g transform="translate(-102,-14) scale(1,1)"><path fill="none" stroke="#000000" d="M 632.1187400656224 301.68594164569276 L 622 306 L 632.2055296342307 310.1045298007005" stroke-miterlimit="10"></path></g><g transform="translate(-102,-14) scale(1,1)"><path fill="none" stroke="#000000" d="M 456 307 L 229 307" stroke-miterlimit="10"></path></g><g transform="translate(-102,-14) scale(1,1)"><path fill="none" stroke="#000000" d="M 239.16267485762415 302.790482243984 L 229 307 L 239.16267485762415 311.209517756016" stroke-miterlimit="10"></path></g></g></svg>