<svg version="1.1" xmlns="http://www.w3.org/2000/svg" xmlns:xlink="http://www.w3.org/1999/xlink" width="692" height="587"><defs></defs><g><g transform="translate(-230,-30) scale(1,1)"><rect fill="#ffff00" stroke="none" x="240" y="40" width="191" height="21"></rect></g><g transform="translate(-230,-30) scale(1,1)"><path fill="none" stroke="#000000" d="M 240 40 L 431 40 L 431 61 L 240 61 L 240 40 Z Z" stroke-miterlimit="10" stroke-width="2"></path></g><g transform="translate(-230,-30) scale(1,1)"><path fill="none" stroke="#000000" d="M 240 607 L 240 40 L 431 40 L 431 607" stroke-miterlimit="10" stroke-width="2"></path></g><g transform="translate(-230,-30) scale(1,1)"><g><path fill="none" stroke="none"></path><text fill="#000000" stroke="none" font-family="Arial" font-size="13px" font-style="normal" font-weight="normal" text-decoration="none" x="279" y="57">Event Administrator</text></g></g><g transform="translate(-230,-30) scale(1,1)"><rect fill="#ffa182" stroke="none" x="576" y="40" width="167" height="21"></rect></g><g transform="translate(-230,-30) scale(1,1)"><path fill="none" stroke="#000000" d="M 576 40 L 743 40 L 743 61 L 576 61 L 576 40 Z Z" stroke-miterlimit="10" stroke-width="2"></path></g><g transform="translate(-230,-30) scale(1,1)"><path fill="none" stroke="#000000" d="M 576 599 L 576 40 L 743 40 L 743 599" stroke-miterlimit="10" stroke-width="2"></path></g><g transform="translate(-230,-30) scale(1,1)"><g><path fill="none" stroke="none"></path><text fill="#000000" stroke="none" font-family="Arial" font-size="13px" font-style="normal" font-weight="normal" text-decoration="none" x="637" y="57">System</text></g></g><g transform="translate(-230,-30) scale(1,1)"><path fill="#C0C0C0" stroke="none" d="M 341 96.5 C 341 91.2532944 345.2532944 87 350.5 87 C 355.7467056 87 360 91.2532944 360 96.5 C 360 101.7467056 355.7467056 106 350.5 106 C 345.2532944 106 341 101.7467056 341 96.5 Z" opacity="0.2"></path></g><g transform="translate(-230,-30) scale(1,1)"><path fill="#000000" stroke="none" d="M 334 89.5 C 334 84.2532944 338.2532944 80 343.5 80 C 348.7467056 80 353 84.2532944 353 89.5 C 353 94.7467056 348.7467056 99 343.5 99 C 338.2532944 99 334 94.7467056 334 89.5 Z"></path></g><g transform="translate(-230,-30) scale(1,1)"><path fill="#C0C0C0" stroke="none" d="M 279 165 L 422 165 Q 432 165 432 175 L 432 195 Q 432 205 422 205 L 279 205 Q 269 205 269 195 L 269 175 Q 269 165 279 165 Z" opacity="0.2"></path></g><g transform="translate(-230,-30) scale(1,1)"><path fill="#ffff00" stroke="none" d="M 272 158 L 415 158 Q 425 158 425 168 L 425 188 Q 425 198 415 198 L 272 198 Q 262 198 262 188 L 262 168 Q 262 158 272 158 Z"></path></g><g transform="translate(-230,-30) scale(1,1)"><path fill="none" stroke="#000000" d="M 272 158 L 415 158 Q 425 158 425 168 L 425 188 Q 425 198 415 198 L 272 198 Q 262 198 262 188 L 262 168 Q 262 158 272 158 Z" stroke-miterlimit="10"></path></g><g transform="translate(-230,-30) scale(1,1)"><g><path fill="none" stroke="none"></path><text fill="#000000" stroke="none" font-family="Arial" font-size="13px" font-style="normal" font-weight="bold" text-decoration="none" x="273.5" y="177.5">Initiate Add New Entrant</text></g></g><g transform="translate(-230,-30) scale(1,1)"><path fill="#C0C0C0" stroke="none" d="M 619 165 L 699 165 Q 709 165 709 175 L 709 195 Q 709 205 699 205 L 619 205 Q 609 205 609 195 L 609 175 Q 609 165 619 165 Z" opacity="0.2"></path></g><g transform="translate(-230,-30) scale(1,1)"><path fill="#ff8282" stroke="none" d="M 612 158 L 692 158 Q 702 158 702 168 L 702 188 Q 702 198 692 198 L 612 198 Q 602 198 602 188 L 602 168 Q 602 158 612 158 Z"></path></g><g transform="translate(-230,-30) scale(1,1)"><path fill="none" stroke="#000000" d="M 612 158 L 692 158 Q 702 158 702 168 L 702 188 Q 702 198 692 198 L 612 198 Q 602 198 602 188 L 602 168 Q 602 158 612 158 Z" stroke-miterlimit="10"></path></g><g transform="translate(-230,-30) scale(1,1)"><g><path fill="none" stroke="none"></path><text fill="#000000" stroke="none" font-family="Arial" font-size="13px" font-style="normal" font-weight="bold" text-decoration="none" x="610" y="177.5">Collect Details</text></g></g><g transform="translate(-230,-30) scale(1,1)"><rect fill="#C0C0C0" stroke="none" x="807" y="167" width="112" height="37" opacity="0.2"></rect></g><g transform="translate(-230,-30) scale(1,1)"><rect fill="#ffa182" stroke="none" x="800" y="160" width="112" height="37"></rect></g><g transform="translate(-230,-30) scale(1,1)"><path fill="none" stroke="#000000" d="M 800 160 L 912 160 L 912 197 L 800 197 L 800 160 Z Z" stroke-miterlimit="10"></path></g><g transform="translate(-230,-30) scale(1,1)"><rect fill="#ffa182" stroke="none" x="800" y="160" width="112" height="37"></rect></g><g transform="translate(-230,-30) scale(1,1)"><path fill="none" stroke="#000000" d="M 800 160 L 912 160 L 912 197 L 800 197 L 800 160 Z Z" stroke-miterlimit="10"></path></g><g transform="translate(-230,-30) scale(1,1)"><g><path fill="none" stroke="none"></path><text fill="#000000" stroke="none" font-family="Arial" font-size="13px" font-style="normal" font-weight="normal" text-decoration="none" x="822" y="177.5">«datastore»</text></g></g><g transform="translate(-230,-30) scale(1,1)"><g><path fill="none" stroke="none"></path><text fill="#000000" stroke="none" font-family="Arial" font-size="13px" font-style="normal" font-weight="bold" text-decoration="none" x="818" y="192.5">User Storage</text></g></g><g transform="translate(-230,-30) scale(1,1)"><path fill="#C0C0C0" stroke="none" d="M 611 271 L 707 271 Q 717 271 717 281 L 717 301 Q 717 311 707 311 L 611 311 Q 601 311 601 301 L 601 281 Q 601 271 611 271 Z" opacity="0.2"></path></g><g transform="translate(-230,-30) scale(1,1)"><path fill="#ff8282" stroke="none" d="M 604 264 L 700 264 Q 710 264 710 274 L 710 294 Q 710 304 700 304 L 604 304 Q 594 304 594 294 L 594 274 Q 594 264 604 264 Z"></path></g><g transform="translate(-230,-30) scale(1,1)"><path fill="none" stroke="#000000" d="M 604 264 L 700 264 Q 710 264 710 274 L 710 294 Q 710 304 700 304 L 604 304 Q 594 304 594 294 L 594 274 Q 594 264 604 264 Z" stroke-miterlimit="10"></path></g><g transform="translate(-230,-30) scale(1,1)"><g><path fill="none" stroke="none"></path><text fill="#000000" stroke="none" font-family="Arial" font-size="13px" font-style="normal" font-weight="bold" text-decoration="none" x="604" y="283.5">Validate Storage</text></g></g><g transform="translate(-230,-30) scale(1,1)"><path fill="#C0C0C0" stroke="none" d="M 648 368.5 L 659.5 359 L 670 368.5 L 659.5 377 L 648 368.5" opacity="0.2"></path></g><g transform="translate(-230,-30) scale(1,1)"><path fill="#a3ffa3" stroke="none" d="M 641 361 L 652 352 L 663 361 L 652 370 L 641 361"></path></g><g transform="translate(-230,-30) scale(1,1)"><path fill="none" stroke="#000000" d="M 641 361 L 652 352 L 663 361 L 652 370 L 641 361 L 641 361" stroke-miterlimit="10"></path></g><g transform="translate(-230,-30) scale(1,1)"><path fill="#C0C0C0" stroke="none" d="M 625 434 L 693 434 Q 703 434 703 444 L 703 464 Q 703 474 693 474 L 625 474 Q 615 474 615 464 L 615 444 Q 615 434 625 434 Z" opacity="0.2"></path></g><g transform="translate(-230,-30) scale(1,1)"><path fill="#ff8282" stroke="none" d="M 618 427 L 686 427 Q 696 427 696 437 L 696 457 Q 696 467 686 467 L 618 467 Q 608 467 608 457 L 608 437 Q 608 427 618 427 Z"></path></g><g transform="translate(-230,-30) scale(1,1)"><path fill="none" stroke="#000000" d="M 618 427 L 686 427 Q 696 427 696 437 L 696 457 Q 696 467 686 467 L 618 467 Q 608 467 608 457 L 608 437 Q 608 427 618 427 Z" stroke-miterlimit="10"></path></g><g transform="translate(-230,-30) scale(1,1)"><g><path fill="none" stroke="none"></path><text fill="#000000" stroke="none" font-family="Arial" font-size="13px" font-style="normal" font-weight="bold" text-decoration="none" x="614.5" y="446.5">Issue Details</text></g></g><g transform="translate(-230,-30) scale(1,1)"><path fill="#C0C0C0" stroke="none" d="M 300 434 L 400 434 Q 410 434 410 444 L 410 464 Q 410 474 400 474 L 300 474 Q 290 474 290 464 L 290 444 Q 290 434 300 434 Z" opacity="0.2"></path></g><g transform="translate(-230,-30) scale(1,1)"><path fill="#ffff00" stroke="none" d="M 293 427 L 393 427 Q 403 427 403 437 L 403 457 Q 403 467 393 467 L 293 467 Q 283 467 283 457 L 283 437 Q 283 427 293 427 Z"></path></g><g transform="translate(-230,-30) scale(1,1)"><path fill="none" stroke="#000000" d="M 293 427 L 393 427 Q 403 427 403 437 L 403 457 Q 403 467 393 467 L 293 467 Q 283 467 283 457 L 283 437 Q 283 427 293 427 Z" stroke-miterlimit="10"></path></g><g transform="translate(-230,-30) scale(1,1)"><g><path fill="none" stroke="none"></path><text fill="#000000" stroke="none" font-family="Arial" font-size="13px" font-style="normal" font-weight="bold" text-decoration="none" x="290" y="446.5">Issue User Details</text></g></g><g transform="translate(-230,-30) scale(1,1)"><path fill="#C0C0C0" stroke="none" d="M 338 563.5 C 338 556.59644 343.59644 551 350.5 551 C 357.40356 551 363 556.59644 363 563.5 C 363 570.40356 357.40356 576 350.5 576 C 343.59644 576 338 570.40356 338 563.5 Z" opacity="0.2"></path></g><g transform="translate(-230,-30) scale(1,1)"><path fill="none" stroke="#000000" d="M 331 556.5 C 331 549.59644 336.59644 544 343.5 544 C 350.40356 544 356 549.59644 356 556.5 C 356 563.40356 350.40356 569 343.5 569 C 336.59644 569 331 563.40356 331 556.5 Z" stroke-miterlimit="10"></path></g><g transform="translate(-230,-30) scale(1,1)"><path fill="#000000" stroke="none" d="M 336 556.5 C 336 552.357864 339.357864 549 343.5 549 C 347.642136 549 351 552.357864 351 556.5 C 351 560.642136 347.642136 564 343.5 564 C 339.357864 564 336 560.642136 336 556.5 Z"></path></g><g transform="translate(-230,-30) scale(1,1)"><path fill="none" stroke="#000000" d="M 426 178 L 601 178" stroke-miterlimit="10"></path></g><g transform="translate(-230,-30) scale(1,1)"><path fill="none" stroke="#000000" d="M 590.8373251423759 182.209517756016 L 601 178 L 590.8373251423758 173.790482243984" stroke-miterlimit="10"></path></g><g transform="translate(-230,-30) scale(1,1)"><path fill="none" stroke="#000000" d="M 703 178 L 799 178" stroke-miterlimit="10"></path></g><g transform="translate(-230,-30) scale(1,1)"><path fill="none" stroke="#000000" d="M 788.8373251423759 182.209517756016 L 799 178 L 788.8373251423758 173.790482243984" stroke-miterlimit="10"></path></g><g transform="translate(-230,-30) scale(1,1)"><path fill="none" stroke="#000000" d="M 664 361 L 856 360 L 856 198" stroke-miterlimit="10"></path></g><g transform="translate(-230,-30) scale(1,1)"><path fill="none" stroke="#000000" d="M 860.209517756016 208.16267485762415 L 856 198 L 851.790482243984 208.16267485762415" stroke-miterlimit="10"></path></g><g transform="translate(-230,-30) scale(1,1)"><g><path fill="none" stroke="none"></path><text fill="#000000" stroke="none" font-family="Arial" font-size="13px" font-style="normal" font-weight="normal" text-decoration="none" x="819.5" y="365.5">remove</text></g></g><g transform="translate(-230,-30) scale(1,1)"><path fill="none" stroke="#000000" d="M 664 358 L 800 320 L 800 224 L 703 194" stroke-miterlimit="10"></path></g><g transform="translate(-230,-30) scale(1,1)"><path fill="none" stroke="#000000" d="M 713.9527178536703 192.98119107881126 L 703 194 L 711.465147763659 201.02433436984728" stroke-miterlimit="10"></path></g><g transform="translate(-230,-30) scale(1,1)"><g><path fill="none" stroke="none"></path><text fill="#000000" stroke="none" font-family="Arial" font-size="13px" font-style="normal" font-weight="normal" text-decoration="none" x="767.5" y="277.5">return</text></g></g><g transform="translate(-230,-30) scale(1,1)"><path fill="none" stroke="#000000" d="M 652 199 L 652 263" stroke-miterlimit="10"></path></g><g transform="translate(-230,-30) scale(1,1)"><path fill="none" stroke="#000000" d="M 647.790482243984 252.83732514237585 L 652 263 L 656.209517756016 252.83732514237585" stroke-miterlimit="10"></path></g><g transform="translate(-230,-30) scale(1,1)"><path fill="none" stroke="#000000" d="M 652 305 L 652 351" stroke-miterlimit="10"></path></g><g transform="translate(-230,-30) scale(1,1)"><path fill="none" stroke="#000000" d="M 647.790482243984 340.83732514237585 L 652 351 L 656.209517756016 340.83732514237585" stroke-miterlimit="10"></path></g><g transform="translate(-230,-30) scale(1,1)"><g><path fill="none" stroke="none"></path><text fill="#000000" stroke="none" font-family="Arial" font-size="13px" font-style="normal" font-weight="normal" text-decoration="none" x="634.5" y="333.5">validCheck</text></g></g><g transform="translate(-230,-30) scale(1,1)"><path fill="none" stroke="#000000" d="M 652 371 L 652 426" stroke-miterlimit="10"></path></g><g transform="translate(-230,-30) scale(1,1)"><path fill="none" stroke="#000000" d="M 647.790482243984 415.83732514237585 L 652 426 L 656.209517756016 415.83732514237585" stroke-miterlimit="10"></path></g><g transform="translate(-230,-30) scale(1,1)"><g><path fill="none" stroke="none"></path><text fill="#000000" stroke="none" font-family="Arial" font-size="13px" font-style="normal" font-weight="normal" text-decoration="none" x="646.5" y="403.5">isValid</text></g></g><g transform="translate(-230,-30) scale(1,1)"><path fill="none" stroke="#000000" d="M 607 447 L 404 447" stroke-miterlimit="10"></path></g><g transform="translate(-230,-30) scale(1,1)"><path fill="none" stroke="#000000" d="M 414.16267485762415 442.790482243984 L 404 447 L 414.16267485762415 451.209517756016" stroke-miterlimit="10"></path></g><g transform="translate(-230,-30) scale(1,1)"><path fill="none" stroke="#000000" d="M 343 468 L 343 543" stroke-miterlimit="10"></path></g><g transform="translate(-230,-30) scale(1,1)"><path fill="none" stroke="#000000" d="M 338.790482243984 532.8373251423759 L 343 543 L 347.209517756016 532.8373251423759" stroke-miterlimit="10"></path></g><g transform="translate(-230,-30) scale(1,1)"><path fill="none" stroke="#000000" d="M 343 100 L 343 157" stroke-miterlimit="10"></path></g><g transform="translate(-230,-30) scale(1,1)"><path fill="none" stroke="#000000" d="M 338.790482243984 146.83732514237585 L 343 157 L 347.209517756016 146.83732514237585" stroke-miterlimit="10"></path></g><g transform="translate(-230,-30) scale(1,1)"><path fill="#fff5d8" stroke="none" d="M 840 416 L 898 416 L 908 426 L 908 491 L 840 491 L 840 416"></path></g><g transform="translate(-230,-30) scale(1,1)"><path fill="none" stroke="#000000" d="M 840 416 L 898 416 L 908 426 L 908 491 L 840 491 L 840 416 L 840 416" stroke-miterlimit="10"></path></g><g transform="translate(-230,-30) scale(1,1)"><path fill="none" stroke="#000000" d="M 898 416 L 898 426 L 908 426 L 898 416" stroke-miterlimit="10"></path></g><g transform="translate(-230,-30) scale(1,1)"><g><path fill="none" stroke="none"></path><text fill="#000000" stroke="none" font-family="Arial" font-size="13px" font-style="normal" font-weight="normal" text-decoration="none" x="845" y="434">checks</text><text fill="#000000" stroke="none" font-family="Arial" font-size="13px" font-style="normal" font-weight="normal" text-decoration="none" x="845" y="447">entrant</text><text fill="#000000" stroke="none" font-family="Arial" font-size="13px" font-style="normal" font-weight="normal" text-decoration="none" x="845" y="460">was</text><text fill="#000000" stroke="none" font-family="Arial" font-size="13px" font-style="normal" font-weight="normal" text-decoration="none" x="845" y="473">stored</text><text fill="#000000" stroke="none" font-family="Arial" font-size="13px" font-style="normal" font-weight="normal" text-decoration="none" x="845" y="486">correctly</text></g></g><g transform="translate(-230,-30) scale(1,1)"><path fill="none" stroke="#000000" d="M 664 366 L 839 439" stroke-miterlimit="10" stroke-dasharray="3"></path></g></g></svg>