<svg version="1.1" xmlns="http://www.w3.org/2000/svg" xmlns:xlink="http://www.w3.org/1999/xlink" width="708" height="597"><defs></defs><g><g transform="translate(-62,-85) scale(1,1)"><rect fill="#C0C0C0" stroke="none" x="175" y="102" width="122" height="160" opacity="0.2"></rect></g><g transform="translate(-62,-85) scale(1,1)"><rect fill="#ffffff" stroke="none" x="168" y="95" width="122" height="160"></rect></g><g transform="translate(-62,-85) scale(1,1)"><path fill="none" stroke="#000000" d="M 168 95 L 290 95 L 290 255 L 168 255 L 168 95 Z Z" stroke-miterlimit="10"></path></g><g transform="translate(-62,-85) scale(1,1)"><path fill="none" stroke="#000000" d="M 168 120 L 290 120" stroke-miterlimit="10"></path></g><g transform="translate(-62,-85) scale(1,1)"><path fill="none" stroke="#000000" d="M 168 188 L 290 188" stroke-miterlimit="10"></path></g><g transform="translate(-62,-85) scale(1,1)"><g><path fill="none" stroke="none"></path><text fill="#000000" stroke="none" font-family="Arial" font-size="13px" font-style="italic" font-weight="bold" text-decoration="none" x="215.5" y="114.5">User</text></g></g><g transform="translate(-62,-85) scale(1,1)"><g><path fill="none" stroke="none"></path><text fill="#000000" stroke="none" font-family="Arial" font-size="13px" font-style="normal" font-weight="normal" text-decoration="none" x="173" y="137.5">-ID {id, unique}</text></g></g><g transform="translate(-62,-85) scale(1,1)"><g><path fill="none" stroke="none"></path><text fill="#000000" stroke="none" font-family="Arial" font-size="13px" font-style="normal" font-weight="normal" text-decoration="none" x="173" y="152.5">-userName {unique}</text></g></g><g transform="translate(-62,-85) scale(1,1)"><g><path fill="none" stroke="none"></path><text fill="#000000" stroke="none" font-family="Arial" font-size="13px" font-style="normal" font-weight="normal" text-decoration="none" x="173" y="167.5">-password</text></g></g><g transform="translate(-62,-85) scale(1,1)"><g><path fill="none" stroke="none"></path><text fill="#000000" stroke="none" font-family="Arial" font-size="13px" font-style="normal" font-weight="normal" text-decoration="none" x="173" y="182.5">-firstName</text></g></g><g transform="translate(-62,-85) scale(1,1)"><g><path fill="none" stroke="none"></path><text fill="#000000" stroke="none" font-family="Arial" font-size="13px" font-style="normal" font-weight="normal" text-decoration="none" x="173" y="205.5">+getID()</text></g></g><g transform="translate(-62,-85) scale(1,1)"><g><path fill="none" stroke="none"></path><text fill="#000000" stroke="none" font-family="Arial" font-size="13px" font-style="normal" font-weight="normal" text-decoration="none" x="173" y="220.5">+getUserName()</text></g></g><g transform="translate(-62,-85) scale(1,1)"><g><path fill="none" stroke="none"></path><text fill="#000000" stroke="none" font-family="Arial" font-size="13px" font-style="normal" font-weight="normal" text-decoration="none" x="173" y="235.5">+getPassword()</text></g></g><g transform="translate(-62,-85) scale(1,1)"><g><path fill="none" stroke="none"></path><text fill="#000000" stroke="none" font-family="Arial" font-size="13px" font-style="normal" font-weight="normal" text-decoration="none" x="173" y="250.5">+getFirstName()</text></g></g><g transform="translate(-62,-85) scale(1,1)"><rect fill="#C0C0C0" stroke="none" x="79" y="305" width="180" height="115" opacity="0.2"></rect></g><g transform="translate(-62,-85) scale(1,1)"><rect fill="#ffffff" stroke="none" x="72" y="298" width="180" height="115"></rect></g><g transform="translate(-62,-85) scale(1,1)"><path fill="none" stroke="#000000" d="M 72 298 L 252 298 L 252 413 L 72 413 L 72 298 Z Z" stroke-miterlimit="10"></path></g><g transform="translate(-62,-85) scale(1,1)"><path fill="none" stroke="#000000" d="M 72 323 L 252 323" stroke-miterlimit="10"></path></g><g transform="translate(-62,-85) scale(1,1)"><path fill="none" stroke="#000000" d="M 72 361 L 252 361" stroke-miterlimit="10"></path></g><g transform="translate(-62,-85) scale(1,1)"><g><path fill="none" stroke="none"></path><text fill="#000000" stroke="none" font-family="Arial" font-size="13px" font-style="normal" font-weight="bold" text-decoration="none" x="134.5" y="317.5">FieldUser</text></g></g><g transform="translate(-62,-85) scale(1,1)"><g><path fill="none" stroke="none"></path><text fill="#000000" stroke="none" font-family="Arial" font-size="13px" font-style="normal" font-weight="normal" text-decoration="none" x="77" y="340.5">-location: Location</text></g></g><g transform="translate(-62,-85) scale(1,1)"><g><path fill="none" stroke="none"></path><text fill="#000000" stroke="none" font-family="Arial" font-size="13px" font-style="normal" font-weight="normal" text-decoration="none" x="77" y="355.5">«Course»-completedCourses</text></g></g><g transform="translate(-62,-85) scale(1,1)"><g><path fill="none" stroke="none"></path><text fill="#000000" stroke="none" font-family="Arial" font-size="13px" font-style="normal" font-weight="normal" text-decoration="none" x="77" y="378.5">+getCurrentLocation()</text><path fill="none" stroke="#000000" d="M 77 378.5 L 202 378.5" stroke-miterlimit="10"></path></g></g><g transform="translate(-62,-85) scale(1,1)"><g><path fill="none" stroke="none"></path><text fill="#000000" stroke="none" font-family="Arial" font-size="13px" font-style="normal" font-weight="normal" text-decoration="none" x="77" y="393.5">+getDirectionHelp()</text><path fill="none" stroke="#000000" d="M 77 393.5 L 188 393.5" stroke-miterlimit="10"></path></g></g><g transform="translate(-62,-85) scale(1,1)"><g><path fill="none" stroke="none"></path><text fill="#000000" stroke="none" font-family="Arial" font-size="13px" font-style="normal" font-weight="normal" text-decoration="none" x="77" y="408.5">+getMonitorHelp()</text><path fill="none" stroke="#000000" d="M 77 408.5 L 180 408.5" stroke-miterlimit="10"></path></g></g><g transform="translate(-62,-85) scale(1,1)"><path fill="none" stroke="#000000" d="M 184 297 L 199 256" stroke-miterlimit="10"></path></g><g transform="translate(-62,-85) scale(1,1)"><path fill="#FFFFFF" stroke="none" d="M 199.9230938635299 277.980625507913 L 199 256 L 184.11007657920646 272.1953752819409"></path></g><g transform="translate(-62,-85) scale(1,1)"><path fill="none" stroke="#000000" d="M 199.9230938635299 277.980625507913 L 199 256 L 184.11007657920646 272.1953752819409 L 199.9230938635299 277.980625507913" stroke-miterlimit="10"></path></g><g transform="translate(-62,-85) scale(1,1)"><rect fill="#C0C0C0" stroke="none" x="412" y="154" width="355" height="57" opacity="0.2"></rect></g><g transform="translate(-62,-85) scale(1,1)"><rect fill="#ffffff" stroke="none" x="405" y="147" width="355" height="57"></rect></g><g transform="translate(-62,-85) scale(1,1)"><path fill="none" stroke="#000000" d="M 405 147 L 760 147 L 760 204 L 405 204 L 405 147 Z Z" stroke-miterlimit="10"></path></g><g transform="translate(-62,-85) scale(1,1)"><path fill="none" stroke="#000000" d="M 405 172 L 760 172" stroke-miterlimit="10"></path></g><g transform="translate(-62,-85) scale(1,1)"><path fill="none" stroke="#000000" d="M 405 182 L 760 182" stroke-miterlimit="10"></path></g><g transform="translate(-62,-85) scale(1,1)"><g><path fill="none" stroke="none"></path><text fill="#000000" stroke="none" font-family="Arial" font-size="13px" font-style="normal" font-weight="bold" text-decoration="none" x="547.5" y="166.5">MonitorUser</text></g></g><g transform="translate(-62,-85) scale(1,1)"><g><path fill="none" stroke="none"></path><text fill="#000000" stroke="none" font-family="Arial" font-size="13px" font-style="normal" font-weight="normal" text-decoration="none" x="410" y="199.5">+sendHelpMessage(message: string, timePenalty[0..1] = 0)</text><path fill="none" stroke="#000000" d="M 410 199.5 L 756 199.5" stroke-miterlimit="10"></path></g></g><g transform="translate(-62,-85) scale(1,1)"><path fill="none" stroke="#000000" d="M 404 175 L 291 175" stroke-miterlimit="10"></path></g><g transform="translate(-62,-85) scale(1,1)"><path fill="#FFFFFF" stroke="none" d="M 311.3253497152483 166.58096448796803 L 291 175 L 311.3253497152483 183.41903551203197"></path></g><g transform="translate(-62,-85) scale(1,1)"><path fill="none" stroke="#000000" d="M 311.3253497152483 166.58096448796803 L 291 175 L 311.3253497152483 183.41903551203197 L 311.3253497152483 166.58096448796803" stroke-miterlimit="10"></path></g><g transform="translate(-62,-85) scale(1,1)"><rect fill="#C0C0C0" stroke="none" x="412" y="312" width="134" height="100" opacity="0.2"></rect></g><g transform="translate(-62,-85) scale(1,1)"><rect fill="#ffffff" stroke="none" x="405" y="305" width="134" height="100"></rect></g><g transform="translate(-62,-85) scale(1,1)"><path fill="none" stroke="#000000" d="M 405 305 L 539 305 L 539 405 L 405 405 L 405 305 Z Z" stroke-miterlimit="10"></path></g><g transform="translate(-62,-85) scale(1,1)"><path fill="none" stroke="#000000" d="M 405 330 L 539 330" stroke-miterlimit="10"></path></g><g transform="translate(-62,-85) scale(1,1)"><path fill="none" stroke="#000000" d="M 405 353 L 539 353" stroke-miterlimit="10"></path></g><g transform="translate(-62,-85) scale(1,1)"><g><path fill="none" stroke="none"></path><text fill="#000000" stroke="none" font-family="Arial" font-size="13px" font-style="normal" font-weight="bold" text-decoration="none" x="433" y="324.5">CourseAdmin</text></g></g><g transform="translate(-62,-85) scale(1,1)"><g><path fill="none" stroke="none"></path><text fill="#000000" stroke="none" font-family="Arial" font-size="13px" font-style="normal" font-weight="normal" text-decoration="none" x="410" y="347.5">-location: Location</text></g></g><g transform="translate(-62,-85) scale(1,1)"><g><path fill="none" stroke="none"></path><text fill="#000000" stroke="none" font-family="Arial" font-size="13px" font-style="normal" font-weight="normal" text-decoration="none" x="410" y="370.5">+getCurrentLocation()</text><path fill="none" stroke="#000000" d="M 410 370.5 L 535 370.5" stroke-miterlimit="10"></path></g></g><g transform="translate(-62,-85) scale(1,1)"><g><path fill="none" stroke="none"></path><text fill="#000000" stroke="none" font-family="Arial" font-size="13px" font-style="normal" font-weight="normal" text-decoration="none" x="410" y="385.5">+createMarker()</text><path fill="none" stroke="#000000" d="M 410 385.5 L 502 385.5" stroke-miterlimit="10"></path></g></g><g transform="translate(-62,-85) scale(1,1)"><g><path fill="none" stroke="none"></path><text fill="#000000" stroke="none" font-family="Arial" font-size="13px" font-style="normal" font-weight="normal" text-decoration="none" x="410" y="400.5">+createCourse()</text><path fill="none" stroke="#000000" d="M 410 400.5 L 503 400.5" stroke-miterlimit="10"></path></g></g><g transform="translate(-62,-85) scale(1,1)"><path fill="none" stroke="#000000" d="M 404 305 L 291 221" stroke-miterlimit="10"></path></g><g transform="translate(-62,-85) scale(1,1)"><path fill="#FFFFFF" stroke="none" d="M 312.33477433514275 226.36911576225856 L 291 221 L 302.28942544299554 239.88250177193277"></path></g><g transform="translate(-62,-85) scale(1,1)"><path fill="none" stroke="#000000" d="M 312.33477433514275 226.36911576225856 L 291 221 L 302.28942544299554 239.88250177193277 L 312.33477433514275 226.36911576225856" stroke-miterlimit="10"></path></g><g transform="translate(-62,-85) scale(1,1)"><rect fill="#C0C0C0" stroke="none" x="239" y="466" width="151" height="100" opacity="0.2"></rect></g><g transform="translate(-62,-85) scale(1,1)"><rect fill="#ffffff" stroke="none" x="232" y="459" width="151" height="100"></rect></g><g transform="translate(-62,-85) scale(1,1)"><path fill="none" stroke="#000000" d="M 232 459 L 383 459 L 383 559 L 232 559 L 232 459 Z Z" stroke-miterlimit="10"></path></g><g transform="translate(-62,-85) scale(1,1)"><path fill="none" stroke="#000000" d="M 232 484 L 383 484" stroke-miterlimit="10"></path></g><g transform="translate(-62,-85) scale(1,1)"><path fill="none" stroke="#000000" d="M 232 522 L 383 522" stroke-miterlimit="10"></path></g><g transform="translate(-62,-85) scale(1,1)"><g><path fill="none" stroke="none"></path><text fill="#000000" stroke="none" font-family="Arial" font-size="13px" font-style="normal" font-weight="bold" text-decoration="none" x="283" y="478.5">Location</text></g></g><g transform="translate(-62,-85) scale(1,1)"><g><path fill="none" stroke="none"></path><text fill="#000000" stroke="none" font-family="Arial" font-size="13px" font-style="normal" font-weight="normal" text-decoration="none" x="237" y="501.5">-longitude: double</text></g></g><g transform="translate(-62,-85) scale(1,1)"><g><path fill="none" stroke="none"></path><text fill="#000000" stroke="none" font-family="Arial" font-size="13px" font-style="normal" font-weight="normal" text-decoration="none" x="237" y="516.5">-latitude: double</text></g></g><g transform="translate(-62,-85) scale(1,1)"><g><path fill="none" stroke="none"></path><text fill="#000000" stroke="none" font-family="Arial" font-size="13px" font-style="normal" font-weight="normal" text-decoration="none" x="237" y="539.5">+getLongitude()</text></g></g><g transform="translate(-62,-85) scale(1,1)"><g><path fill="none" stroke="none"></path><text fill="#000000" stroke="none" font-family="Arial" font-size="13px" font-style="normal" font-weight="normal" text-decoration="none" x="237" y="554.5">+getLatitude()</text></g></g><g transform="translate(-62,-85) scale(1,1)"><rect fill="#C0C0C0" stroke="none" x="591" y="466" width="152" height="100" opacity="0.2"></rect></g><g transform="translate(-62,-85) scale(1,1)"><rect fill="#ffffff" stroke="none" x="584" y="459" width="152" height="100"></rect></g><g transform="translate(-62,-85) scale(1,1)"><path fill="none" stroke="#000000" d="M 584 459 L 736 459 L 736 559 L 584 559 L 584 459 Z Z" stroke-miterlimit="10"></path></g><g transform="translate(-62,-85) scale(1,1)"><path fill="none" stroke="#000000" d="M 584 484 L 736 484" stroke-miterlimit="10"></path></g><g transform="translate(-62,-85) scale(1,1)"><path fill="none" stroke="#000000" d="M 584 537 L 736 537" stroke-miterlimit="10"></path></g><g transform="translate(-62,-85) scale(1,1)"><g><path fill="none" stroke="none"></path><text fill="#000000" stroke="none" font-family="Arial" font-size="13px" font-style="normal" font-weight="bold" text-decoration="none" x="639.5" y="478.5">Course</text></g></g><g transform="translate(-62,-85) scale(1,1)"><g><path fill="none" stroke="none"></path><text fill="#000000" stroke="none" font-family="Arial" font-size="13px" font-style="normal" font-weight="normal" text-decoration="none" x="589" y="501.5">+ID {id, ordered, unique}</text></g></g><g transform="translate(-62,-85) scale(1,1)"><g><path fill="none" stroke="none"></path><text fill="#000000" stroke="none" font-family="Arial" font-size="13px" font-style="normal" font-weight="normal" text-decoration="none" x="589" y="516.5">-ageFor: int</text></g></g><g transform="translate(-62,-85) scale(1,1)"><g><path fill="none" stroke="none"></path><text fill="#000000" stroke="none" font-family="Arial" font-size="13px" font-style="normal" font-weight="normal" text-decoration="none" x="589" y="531.5">«Marker»-markerList</text></g></g><g transform="translate(-62,-85) scale(1,1)"><g><path fill="none" stroke="none"></path><text fill="#000000" stroke="none" font-family="Arial" font-size="13px" font-style="normal" font-weight="normal" text-decoration="none" x="589" y="554.5">+setAgeFor(age: int)</text></g></g><g transform="translate(-62,-85) scale(1,1)"><rect fill="#C0C0C0" stroke="none" x="422" y="607" width="115" height="72" opacity="0.2"></rect></g><g transform="translate(-62,-85) scale(1,1)"><rect fill="#ffffff" stroke="none" x="415" y="600" width="115" height="72"></rect></g><g transform="translate(-62,-85) scale(1,1)"><path fill="none" stroke="#000000" d="M 415 600 L 530 600 L 530 672 L 415 672 L 415 600 Z Z" stroke-miterlimit="10"></path></g><g transform="translate(-62,-85) scale(1,1)"><path fill="none" stroke="#000000" d="M 415 625 L 530 625" stroke-miterlimit="10"></path></g><g transform="translate(-62,-85) scale(1,1)"><path fill="none" stroke="#000000" d="M 415 663 L 530 663" stroke-miterlimit="10"></path></g><g transform="translate(-62,-85) scale(1,1)"><g><path fill="none" stroke="none"></path><text fill="#000000" stroke="none" font-family="Arial" font-size="13px" font-style="normal" font-weight="bold" text-decoration="none" x="452.5" y="619.5">Marker</text></g></g><g transform="translate(-62,-85) scale(1,1)"><g><path fill="none" stroke="none"></path><text fill="#000000" stroke="none" font-family="Arial" font-size="13px" font-style="normal" font-weight="normal" text-decoration="none" x="420" y="642.5">-location: Location</text></g></g><g transform="translate(-62,-85) scale(1,1)"><g><path fill="none" stroke="none"></path><text fill="#000000" stroke="none" font-family="Arial" font-size="13px" font-style="normal" font-weight="normal" text-decoration="none" x="420" y="657.5">-image: url[1]</text></g></g><g transform="translate(-62,-85) scale(1,1)"><path fill="none" stroke="#000000" d="M 218 414 L 259 458" stroke-miterlimit="10"></path></g><g transform="translate(-62,-85) scale(1,1)"><path fill="none" stroke="#000000" d="M 417 406 L 362 458" stroke-miterlimit="10"></path></g><g transform="translate(-62,-85) scale(1,1)"><path fill="none" stroke="#000000" d="M 424 599 L 373 560" stroke-miterlimit="10"></path></g><g transform="translate(-62,-85) scale(1,1)"><path fill="none" stroke="#000000" d="M 534 406 L 598 458" stroke-miterlimit="10"></path></g><g transform="translate(-62,-85) scale(1,1)"><path fill="none" stroke="#000000" d="M 472 406 L 472 599" stroke-miterlimit="10"></path></g><g transform="translate(-62,-85) scale(1,1)"><path fill="none" stroke="#000000" d="M 527 599 L 585 560" stroke-miterlimit="10"></path></g><g transform="translate(-62,-85) scale(1,1)"><g><path fill="none" stroke="none"></path><text fill="#000000" stroke="none" font-family="Arial" font-size="13px" font-style="normal" font-weight="normal" text-decoration="none" x="540.5" y="603.5">1..*</text></g></g><g transform="translate(-62,-85) scale(1,1)"><g><path fill="none" stroke="none"></path><text fill="#000000" stroke="none" font-family="Arial" font-size="13px" font-style="normal" font-weight="normal" text-decoration="none" x="563.5" y="588.5">0..*</text></g></g></g></svg>