<svg version="1.1" xmlns="http://www.w3.org/2000/svg" xmlns:xlink="http://www.w3.org/1999/xlink" width="843" height="511"><defs></defs><g><g transform="translate(-70,-86) scale(1,1)"><path fill="#C0C0C0" stroke="none" d="M 327 113 L 595 113 L 595 517 L 327 517" opacity="0.2"></path></g><g transform="translate(-70,-86) scale(1,1)"><path fill="#C0C0C0" stroke="none" d="M 327 113 L 337 103 L 605 103 L 595 113" opacity="0.2"></path></g><g transform="translate(-70,-86) scale(1,1)"><path fill="#C0C0C0" stroke="none" d="M 605 103 L 595 113 L 595 517 L 605 507" opacity="0.2"></path></g><g transform="translate(-70,-86) scale(1,1)"><path fill="#ffffff" stroke="none" d="M 320 106 L 588 106 L 588 510 L 320 510"></path></g><g transform="translate(-70,-86) scale(1,1)"><path fill="#ffffff" stroke="none" d="M 320 106 L 330 96 L 598 96 L 588 106"></path></g><g transform="translate(-70,-86) scale(1,1)"><path fill="#ffffff" stroke="none" d="M 598 96 L 588 106 L 588 510 L 598 500"></path></g><g transform="translate(-70,-86) scale(1,1)"><path fill="none" stroke="#000000" d="M 320 106 L 588 106 L 588 510 L 320 510 L 320 106" stroke-miterlimit="10"></path></g><g transform="translate(-70,-86) scale(1,1)"><path fill="none" stroke="#000000" d="M 320 106 L 330 96 L 598 96 L 588 106 L 320 106" stroke-miterlimit="10"></path></g><g transform="translate(-70,-86) scale(1,1)"><path fill="none" stroke="#000000" d="M 598 96 L 588 106 L 588 510 L 598 500 L 598 96" stroke-miterlimit="10"></path></g><g transform="translate(-70,-86) scale(1,1)"><g><path fill="none" stroke="none"></path><text fill="#000000" stroke="none" font-family="Arial" font-size="13px" font-style="normal" font-weight="bold" text-decoration="none" x="412.5" y="125.5">System Model</text></g></g><g transform="translate(-70,-86) scale(1,1)"><rect fill="#C0C0C0" stroke="none" x="391" y="166" width="57" height="24" opacity="0.2"></rect></g><g transform="translate(-70,-86) scale(1,1)"><rect fill="#ffffff" stroke="none" x="384" y="159" width="57" height="24"></rect></g><g transform="translate(-70,-86) scale(1,1)"><path fill="none" stroke="#000000" d="M 384 159 L 441 159 L 441 183 L 384 183 L 384 159 Z Z" stroke-miterlimit="10"></path></g><g transform="translate(-70,-86) scale(1,1)"><rect fill="#ffffff" stroke="none" x="384" y="159" width="57" height="24"></rect></g><g transform="translate(-70,-86) scale(1,1)"><path fill="none" stroke="#000000" d="M 384 159 L 441 159 L 441 183 L 384 183 L 384 159 Z Z" stroke-miterlimit="10"></path></g><g transform="translate(-70,-86) scale(1,1)"><g><path fill="none" stroke="none"></path><text fill="#000000" stroke="none" font-family="Arial" font-size="13px" font-style="normal" font-weight="bold" text-decoration="none" x="399" y="178.5">User</text><path fill="none" stroke="#000000" d="M 426.5 178.5 L 398.5 178.5" stroke-miterlimit="10"></path></g></g><g transform="translate(-70,-86) scale(1,1)"><rect fill="#C0C0C0" stroke="none" x="391" y="253" width="57" height="24" opacity="0.2"></rect></g><g transform="translate(-70,-86) scale(1,1)"><rect fill="#ffffff" stroke="none" x="384" y="246" width="57" height="24"></rect></g><g transform="translate(-70,-86) scale(1,1)"><path fill="none" stroke="#000000" d="M 384 246 L 441 246 L 441 270 L 384 270 L 384 246 Z Z" stroke-miterlimit="10"></path></g><g transform="translate(-70,-86) scale(1,1)"><rect fill="#ffffff" stroke="none" x="384" y="246" width="57" height="24"></rect></g><g transform="translate(-70,-86) scale(1,1)"><path fill="none" stroke="#000000" d="M 384 246 L 441 246 L 441 270 L 384 270 L 384 246 Z Z" stroke-miterlimit="10"></path></g><g transform="translate(-70,-86) scale(1,1)"><g><path fill="none" stroke="none"></path><text fill="#000000" stroke="none" font-family="Arial" font-size="13px" font-style="normal" font-weight="bold" text-decoration="none" x="392" y="265.5">Course</text><path fill="none" stroke="#000000" d="M 434.5 265.5 L 390.5 265.5" stroke-miterlimit="10"></path></g></g><g transform="translate(-70,-86) scale(1,1)"><rect fill="#C0C0C0" stroke="none" x="514" y="253" width="57" height="24" opacity="0.2"></rect></g><g transform="translate(-70,-86) scale(1,1)"><rect fill="#ffffff" stroke="none" x="507" y="246" width="57" height="24"></rect></g><g transform="translate(-70,-86) scale(1,1)"><path fill="none" stroke="#000000" d="M 507 246 L 564 246 L 564 270 L 507 270 L 507 246 Z Z" stroke-miterlimit="10"></path></g><g transform="translate(-70,-86) scale(1,1)"><rect fill="#ffffff" stroke="none" x="507" y="246" width="57" height="24"></rect></g><g transform="translate(-70,-86) scale(1,1)"><path fill="none" stroke="#000000" d="M 507 246 L 564 246 L 564 270 L 507 270 L 507 246 Z Z" stroke-miterlimit="10"></path></g><g transform="translate(-70,-86) scale(1,1)"><g><path fill="none" stroke="none"></path><text fill="#000000" stroke="none" font-family="Arial" font-size="13px" font-style="normal" font-weight="bold" text-decoration="none" x="515.5" y="265.5">Marker</text><path fill="none" stroke="#000000" d="M 557.5 265.5 L 513.5 265.5" stroke-miterlimit="10"></path></g></g><g transform="translate(-70,-86) scale(1,1)"><rect fill="#C0C0C0" stroke="none" x="510" y="351" width="64" height="24" opacity="0.2"></rect></g><g transform="translate(-70,-86) scale(1,1)"><rect fill="#ffffff" stroke="none" x="503" y="344" width="64" height="24"></rect></g><g transform="translate(-70,-86) scale(1,1)"><path fill="none" stroke="#000000" d="M 503 344 L 567 344 L 567 368 L 503 368 L 503 344 Z Z" stroke-miterlimit="10"></path></g><g transform="translate(-70,-86) scale(1,1)"><rect fill="#ffffff" stroke="none" x="503" y="344" width="64" height="24"></rect></g><g transform="translate(-70,-86) scale(1,1)"><path fill="none" stroke="#000000" d="M 503 344 L 567 344 L 567 368 L 503 368 L 503 344 Z Z" stroke-miterlimit="10"></path></g><g transform="translate(-70,-86) scale(1,1)"><g><path fill="none" stroke="none"></path><text fill="#000000" stroke="none" font-family="Arial" font-size="13px" font-style="normal" font-weight="bold" text-decoration="none" x="510.5" y="363.5">Location</text><path fill="none" stroke="#000000" d="M 562.5 363.5 L 507.5 363.5" stroke-miterlimit="10"></path></g></g><g transform="translate(-70,-86) scale(1,1)"><path fill="none" stroke="#000000" d="M 421 184 L 526 343" stroke-miterlimit="10"></path></g><g transform="translate(-70,-86) scale(1,1)"><path fill="none" stroke="#000000" d="M 535 343 L 535 271" stroke-miterlimit="10"></path></g><g transform="translate(-70,-86) scale(1,1)"><path fill="none" stroke="#000000" d="M 506 258 L 442 258" stroke-miterlimit="10"></path></g><g transform="translate(-70,-86) scale(1,1)"><path fill="none" stroke="#000000" d="M 412 184 L 412 245" stroke-miterlimit="10"></path></g><g transform="translate(-70,-86) scale(1,1)"><path fill="none" stroke="#000000" d="M 441 176 L 536 176 L 536 246" stroke-miterlimit="10"></path></g><g transform="translate(-70,-86) scale(1,1)"><rect fill="#C0C0C0" stroke="none" x="134" y="288" width="107" height="44" opacity="0.2"></rect></g><g transform="translate(-70,-86) scale(1,1)"><rect fill="#ffffff" stroke="none" x="127" y="281" width="107" height="44"></rect></g><g transform="translate(-70,-86) scale(1,1)"><path fill="none" stroke="#000000" d="M 127 281 L 234 281 L 234 325 L 127 325 L 127 281 Z Z" stroke-miterlimit="10"></path></g><g transform="translate(-70,-86) scale(1,1)"><rect fill="#ffffff" stroke="none" x="117" y="288" width="20" height="10"></rect></g><g transform="translate(-70,-86) scale(1,1)"><path fill="none" stroke="#000000" d="M 117 288 L 137 288 L 137 298 L 117 298 L 117 288 Z Z" stroke-miterlimit="10"></path></g><g transform="translate(-70,-86) scale(1,1)"><rect fill="#ffffff" stroke="none" x="117" y="308" width="20" height="10"></rect></g><g transform="translate(-70,-86) scale(1,1)"><path fill="none" stroke="#000000" d="M 117 308 L 137 308 L 137 318 L 117 318 L 117 308 Z Z" stroke-miterlimit="10"></path></g><g transform="translate(-70,-86) scale(1,1)"><g><path fill="none" stroke="none"></path><text fill="#000000" stroke="none" font-family="Arial" font-size="13px" font-style="normal" font-weight="bold" text-decoration="none" x="146.5" y="300.5">UICoordinator</text></g></g><g transform="translate(-70,-86) scale(1,1)"><rect fill="#C0C0C0" stroke="none" x="736" y="288" width="167" height="44" opacity="0.2"></rect></g><g transform="translate(-70,-86) scale(1,1)"><rect fill="#ffffff" stroke="none" x="729" y="281" width="167" height="44"></rect></g><g transform="translate(-70,-86) scale(1,1)"><path fill="none" stroke="#000000" d="M 729 281 L 896 281 L 896 325 L 729 325 L 729 281 Z Z" stroke-miterlimit="10"></path></g><g transform="translate(-70,-86) scale(1,1)"><rect fill="#ffffff" stroke="none" x="719" y="288" width="20" height="10"></rect></g><g transform="translate(-70,-86) scale(1,1)"><path fill="none" stroke="#000000" d="M 719 288 L 739 288 L 739 298 L 719 298 L 719 288 Z Z" stroke-miterlimit="10"></path></g><g transform="translate(-70,-86) scale(1,1)"><rect fill="#ffffff" stroke="none" x="719" y="308" width="20" height="10"></rect></g><g transform="translate(-70,-86) scale(1,1)"><path fill="none" stroke="#000000" d="M 719 308 L 739 308 L 739 318 L 719 318 L 719 308 Z Z" stroke-miterlimit="10"></path></g><g transform="translate(-70,-86) scale(1,1)"><g><path fill="none" stroke="none"></path><text fill="#000000" stroke="none" font-family="Arial" font-size="13px" font-style="normal" font-weight="bold" text-decoration="none" x="750" y="300.5">PersistenceCoordinator</text></g></g><g transform="translate(-70,-86) scale(1,1)"><path fill="#C0C0C0" stroke="none" d="M 111.5 498 C 111.5 458.7877792 143.2877792 427 182.5 427 C 221.7122208 427 253.5 458.7877792 253.5 498 C 253.5 537.2122208 221.7122208 569 182.5 569 C 143.2877792 569 111.5 537.2122208 111.5 498 Z" opacity="0.2"></path></g><g transform="translate(-70,-86) scale(1,1)"><path fill="#ffffff" stroke="none" d="M 104.5 491 C 104.5 451.7877792 136.2877792 420 175.5 420 C 214.7122208 420 246.5 451.7877792 246.5 491 C 246.5 530.2122208 214.7122208 562 175.5 562 C 136.2877792 562 104.5 530.2122208 104.5 491 Z"></path></g><g transform="translate(-70,-86) scale(1,1)"><path fill="none" stroke="#000000" d="M 104.5 491 C 104.5 451.7877792 136.2877792 420 175.5 420 C 214.7122208 420 246.5 451.7877792 246.5 491 C 246.5 530.2122208 214.7122208 562 175.5 562 C 136.2877792 562 104.5 530.2122208 104.5 491 Z" stroke-miterlimit="10"></path></g><g transform="translate(-70,-86) scale(1,1)"><g><path fill="none" stroke="none"></path><text fill="#000000" stroke="none" font-family="Arial" font-size="13px" font-style="normal" font-weight="bold" text-decoration="none" x="137.5" y="581.5">UserInterface</text></g></g><g transform="translate(-70,-86) scale(1,1)"><path fill="#C0C0C0" stroke="none" d="M 743.5 498 C 743.5 458.7877792 775.2877792 427 814.5 427 C 853.7122208 427 885.5 458.7877792 885.5 498 C 885.5 537.2122208 853.7122208 569 814.5 569 C 775.2877792 569 743.5 537.2122208 743.5 498 Z" opacity="0.2"></path></g><g transform="translate(-70,-86) scale(1,1)"><path fill="#ffffff" stroke="none" d="M 736.5 491 C 736.5 451.7877792 768.2877792 420 807.5 420 C 846.7122208 420 878.5 451.7877792 878.5 491 C 878.5 530.2122208 846.7122208 562 807.5 562 C 768.2877792 562 736.5 530.2122208 736.5 491 Z"></path></g><g transform="translate(-70,-86) scale(1,1)"><path fill="none" stroke="#000000" d="M 736.5 491 C 736.5 451.7877792 768.2877792 420 807.5 420 C 846.7122208 420 878.5 451.7877792 878.5 491 C 878.5 530.2122208 846.7122208 562 807.5 562 C 768.2877792 562 736.5 530.2122208 736.5 491 Z" stroke-miterlimit="10"></path></g><g transform="translate(-70,-86) scale(1,1)"><g><path fill="none" stroke="none"></path><text fill="#000000" stroke="none" font-family="Arial" font-size="13px" font-style="normal" font-weight="bold" text-decoration="none" x="768.5" y="581.5">CloudStorage</text></g></g><g transform="translate(-70,-86) scale(1,1)"><path fill="none" stroke="#000000" d="M 807 326 L 807 420" stroke-miterlimit="10"></path></g><g transform="translate(-70,-86) scale(1,1)"><path fill="none" stroke="#000000" d="M 175 326 L 175 420" stroke-miterlimit="10"></path></g><g transform="translate(-70,-86) scale(1,1)"><path fill="none" stroke="#000000" d="M 319 303 L 235 303" stroke-miterlimit="10" stroke-dasharray="3"></path></g><g transform="translate(-70,-86) scale(1,1)"><path fill="#FFFFFF" stroke="none" d="M 255.3253497152483 294.580964487968 L 235 303 L 255.3253497152483 311.419035512032"></path></g><g transform="translate(-70,-86) scale(1,1)"><path fill="none" stroke="#000000" d="M 255.3253497152483 294.580964487968 L 235 303 L 255.3253497152483 311.419035512032 L 255.3253497152483 294.580964487968" stroke-miterlimit="10"></path></g><g transform="translate(-70,-86) scale(1,1)"><path fill="none" stroke="#000000" d="M 600 303 L 718 303" stroke-miterlimit="10" stroke-dasharray="3"></path></g><g transform="translate(-70,-86) scale(1,1)"><path fill="#FFFFFF" stroke="none" d="M 697.6746502847517 311.419035512032 L 718 303 L 697.6746502847517 294.580964487968"></path></g><g transform="translate(-70,-86) scale(1,1)"><path fill="none" stroke="#000000" d="M 697.6746502847517 311.419035512032 L 718 303 L 697.6746502847517 294.580964487968 L 697.6746502847517 311.419035512032" stroke-miterlimit="10"></path></g></g></svg>