<svg version="1.1" xmlns="http://www.w3.org/2000/svg" xmlns:xlink="http://www.w3.org/1999/xlink" width="764" height="571"><defs></defs><g><g transform="translate(-102,-6) scale(1,1)"><path fill="#C0C0C0" stroke="none" d="M 217 56.5 C 217 51.2532944 221.2532944 47 226.5 47 C 231.7467056 47 236 51.2532944 236 56.5 C 236 61.7467056 231.7467056 66 226.5 66 C 221.2532944 66 217 61.7467056 217 56.5 Z" opacity="0.2"></path></g><g transform="translate(-102,-6) scale(1,1)"><path fill="#000000" stroke="none" d="M 210 49.5 C 210 44.2532944 214.2532944 40 219.5 40 C 224.7467056 40 229 44.2532944 229 49.5 C 229 54.7467056 224.7467056 59 219.5 59 C 214.2532944 59 210 54.7467056 210 49.5 Z"></path></g><g transform="translate(-102,-6) scale(1,1)"><path fill="#C0C0C0" stroke="none" d="M 172 111 L 280 111 Q 290 111 290 121 L 290 141 Q 290 151 280 151 L 172 151 Q 162 151 162 141 L 162 121 Q 162 111 172 111 Z" opacity="0.2"></path></g><g transform="translate(-102,-6) scale(1,1)"><path fill="#ffff49" stroke="none" d="M 165 104 L 273 104 Q 283 104 283 114 L 283 134 Q 283 144 273 144 L 165 144 Q 155 144 155 134 L 155 114 Q 155 104 165 104 Z"></path></g><g transform="translate(-102,-6) scale(1,1)"><path fill="none" stroke="#000000" d="M 165 104 L 273 104 Q 283 104 283 114 L 283 134 Q 283 144 273 144 L 165 144 Q 155 144 155 134 L 155 114 Q 155 104 165 104 Z" stroke-miterlimit="10"></path></g><g transform="translate(-102,-6) scale(1,1)"><g><path fill="none" stroke="none"></path><text fill="#000000" stroke="none" font-family="Arial" font-size="13px" font-style="normal" font-weight="bold" text-decoration="none" x="163.5" y="123.5">Initiates Result List</text></g></g><g transform="translate(-102,-6) scale(1,1)"><path fill="#C0C0C0" stroke="none" d="M 183 199 L 270 199 Q 280 199 280 209 L 280 229 Q 280 239 270 239 L 183 239 Q 173 239 173 229 L 173 209 Q 173 199 183 199 Z" opacity="0.2"></path></g><g transform="translate(-102,-6) scale(1,1)"><path fill="#ffff49" stroke="none" d="M 176 192 L 263 192 Q 273 192 273 202 L 273 222 Q 273 232 263 232 L 176 232 Q 166 232 166 222 L 166 202 Q 166 192 176 192 Z"></path></g><g transform="translate(-102,-6) scale(1,1)"><path fill="none" stroke="#000000" d="M 176 192 L 263 192 Q 273 192 273 202 L 273 222 Q 273 232 263 232 L 176 232 Q 166 232 166 222 L 166 202 Q 166 192 176 192 Z" stroke-miterlimit="10"></path></g><g transform="translate(-102,-6) scale(1,1)"><g><path fill="none" stroke="none"></path><text fill="#000000" stroke="none" font-family="Arial" font-size="13px" font-style="normal" font-weight="bold" text-decoration="none" x="178.5" y="211.5">Select Course</text></g></g><g transform="translate(-102,-6) scale(1,1)"><path fill="#C0C0C0" stroke="none" d="M 450 199 L 587 199 Q 597 199 597 209 L 597 229 Q 597 239 587 239 L 450 239 Q 440 239 440 229 L 440 209 Q 440 199 450 199 Z" opacity="0.2"></path></g><g transform="translate(-102,-6) scale(1,1)"><path fill="#ffadad" stroke="none" d="M 443 192 L 580 192 Q 590 192 590 202 L 590 222 Q 590 232 580 232 L 443 232 Q 433 232 433 222 L 433 202 Q 433 192 443 192 Z"></path></g><g transform="translate(-102,-6) scale(1,1)"><path fill="none" stroke="#000000" d="M 443 192 L 580 192 Q 590 192 590 202 L 590 222 Q 590 232 580 232 L 443 232 Q 433 232 433 222 L 433 202 Q 433 192 443 192 Z" stroke-miterlimit="10"></path></g><g transform="translate(-102,-6) scale(1,1)"><g><path fill="none" stroke="none"></path><text fill="#000000" stroke="none" font-family="Arial" font-size="13px" font-style="normal" font-weight="bold" text-decoration="none" x="444" y="211.5">Retrieve Course Details</text></g></g><g transform="translate(-102,-6) scale(1,1)"><rect fill="#C0C0C0" stroke="none" x="751" y="199" width="112" height="37" opacity="0.2"></rect></g><g transform="translate(-102,-6) scale(1,1)"><rect fill="#ffaa56" stroke="none" x="744" y="192" width="112" height="37"></rect></g><g transform="translate(-102,-6) scale(1,1)"><path fill="none" stroke="#000000" d="M 744 192 L 856 192 L 856 229 L 744 229 L 744 192 Z Z" stroke-miterlimit="10"></path></g><g transform="translate(-102,-6) scale(1,1)"><rect fill="#ffaa56" stroke="none" x="744" y="192" width="112" height="37"></rect></g><g transform="translate(-102,-6) scale(1,1)"><path fill="none" stroke="#000000" d="M 744 192 L 856 192 L 856 229 L 744 229 L 744 192 Z Z" stroke-miterlimit="10"></path></g><g transform="translate(-102,-6) scale(1,1)"><g><path fill="none" stroke="none"></path><text fill="#000000" stroke="none" font-family="Arial" font-size="13px" font-style="normal" font-weight="normal" text-decoration="none" x="766" y="209.5">«datastore»</text></g></g><g transform="translate(-102,-6) scale(1,1)"><g><path fill="none" stroke="none"></path><text fill="#000000" stroke="none" font-family="Arial" font-size="13px" font-style="normal" font-weight="bold" text-decoration="none" x="757" y="224.5">CourseStorage</text></g></g><g transform="translate(-102,-6) scale(1,1)"><path fill="#C0C0C0" stroke="none" d="M 493 339 L 544 339 Q 554 339 554 349 L 554 369 Q 554 379 544 379 L 493 379 Q 483 379 483 369 L 483 349 Q 483 339 493 339 Z" opacity="0.2"></path></g><g transform="translate(-102,-6) scale(1,1)"><path fill="#ffadad" stroke="none" d="M 486 332 L 537 332 Q 547 332 547 342 L 547 362 Q 547 372 537 372 L 486 372 Q 476 372 476 362 L 476 342 Q 476 332 486 332 Z"></path></g><g transform="translate(-102,-6) scale(1,1)"><path fill="none" stroke="#000000" d="M 486 332 L 537 332 Q 547 332 547 342 L 547 362 Q 547 372 537 372 L 486 372 Q 476 372 476 362 L 476 342 Q 476 332 486 332 Z" stroke-miterlimit="10"></path></g><g transform="translate(-102,-6) scale(1,1)"><g><path fill="none" stroke="none"></path><text fill="#000000" stroke="none" font-family="Arial" font-size="13px" font-style="normal" font-weight="bold" text-decoration="none" x="483" y="351.5">Order List</text></g></g><g transform="translate(-102,-6) scale(1,1)"><path fill="#C0C0C0" stroke="none" d="M 214 359.5 C 214 352.59644 219.59644 347 226.5 347 C 233.40356 347 239 352.59644 239 359.5 C 239 366.40356 233.40356 372 226.5 372 C 219.59644 372 214 366.40356 214 359.5 Z" opacity="0.2"></path></g><g transform="translate(-102,-6) scale(1,1)"><path fill="none" stroke="#000000" d="M 207 352.5 C 207 345.59644 212.59644 340 219.5 340 C 226.40356 340 232 345.59644 232 352.5 C 232 359.40356 226.40356 365 219.5 365 C 212.59644 365 207 359.40356 207 352.5 Z" stroke-miterlimit="10"></path></g><g transform="translate(-102,-6) scale(1,1)"><path fill="#000000" stroke="none" d="M 212 352.5 C 212 348.357864 215.357864 345 219.5 345 C 223.642136 345 227 348.357864 227 352.5 C 227 356.642136 223.642136 360 219.5 360 C 215.357864 360 212 356.642136 212 352.5 Z"></path></g><g transform="translate(-102,-6) scale(1,1)"><path fill="none" stroke="#000000" d="M 219 60 L 219 103" stroke-miterlimit="10"></path></g><g transform="translate(-102,-6) scale(1,1)"><path fill="none" stroke="#000000" d="M 214.790482243984 92.83732514237585 L 219 103 L 223.209517756016 92.83732514237585" stroke-miterlimit="10"></path></g><g transform="translate(-102,-6) scale(1,1)"><path fill="none" stroke="#000000" d="M 219 145 L 219 191" stroke-miterlimit="10"></path></g><g transform="translate(-102,-6) scale(1,1)"><path fill="none" stroke="#000000" d="M 214.790482243984 180.83732514237585 L 219 191 L 223.209517756016 180.83732514237585" stroke-miterlimit="10"></path></g><g transform="translate(-102,-6) scale(1,1)"><path fill="none" stroke="#000000" d="M 274 212 L 432 212" stroke-miterlimit="10"></path></g><g transform="translate(-102,-6) scale(1,1)"><path fill="none" stroke="#000000" d="M 421.83732514237585 216.209517756016 L 432 212 L 421.83732514237585 207.790482243984" stroke-miterlimit="10"></path></g><g transform="translate(-102,-6) scale(1,1)"><path fill="none" stroke="#000000" d="M 591 211 L 743 210" stroke-miterlimit="10"></path></g><g transform="translate(-102,-6) scale(1,1)"><path fill="none" stroke="#000000" d="M 732.8652386649153 214.27628491577346 L 743 210 L 732.8098514720252 205.8574315964835" stroke-miterlimit="10"></path></g><g transform="translate(-102,-6) scale(1,1)"><g><path fill="none" stroke="none"></path><text fill="#000000" stroke="none" font-family="Arial" font-size="13px" font-style="normal" font-weight="normal" text-decoration="none" x="640.5" y="201.5">CourseID</text></g></g><g transform="translate(-102,-6) scale(1,1)"><path fill="none" stroke="#000000" d="M 800 230 L 800 352 L 548 352" stroke-miterlimit="10"></path></g><g transform="translate(-102,-6) scale(1,1)"><path fill="none" stroke="#000000" d="M 558.1626748576241 347.790482243984 L 548 352 L 558.1626748576241 356.209517756016" stroke-miterlimit="10"></path></g><g transform="translate(-102,-6) scale(1,1)"><g><path fill="none" stroke="none"></path><text fill="#000000" stroke="none" font-family="Arial" font-size="13px" font-style="normal" font-weight="normal" text-decoration="none" x="753.5" y="373.5">CourseEntrants</text></g></g><g transform="translate(-102,-6) scale(1,1)"><path fill="none" stroke="#000000" d="M 475 352 L 233 352" stroke-miterlimit="10"></path></g><g transform="translate(-102,-6) scale(1,1)"><path fill="none" stroke="#000000" d="M 243.16267485762415 347.790482243984 L 233 352 L 243.16267485762415 356.209517756016" stroke-miterlimit="10"></path></g><g transform="translate(-102,-6) scale(1,1)"><rect fill="#ffff00" stroke="none" x="112" y="16" width="215" height="21"></rect></g><g transform="translate(-102,-6) scale(1,1)"><path fill="none" stroke="#000000" d="M 112 16 L 327 16 L 327 37 L 112 37 L 112 16 Z Z" stroke-miterlimit="10" stroke-width="2"></path></g><g transform="translate(-102,-6) scale(1,1)"><path fill="none" stroke="#000000" d="M 112 543 L 112 16 L 327 16 L 327 543" stroke-miterlimit="10" stroke-width="2"></path></g><g transform="translate(-102,-6) scale(1,1)"><g><path fill="none" stroke="none"></path><text fill="#000000" stroke="none" font-family="Arial" font-size="13px" font-style="normal" font-weight="normal" text-decoration="none" x="164.5" y="33">Event Adminstrator</text></g></g><g transform="translate(-102,-6) scale(1,1)"><rect fill="#ffadad" stroke="none" x="400" y="16" width="223" height="21"></rect></g><g transform="translate(-102,-6) scale(1,1)"><path fill="none" stroke="#000000" d="M 400 16 L 623 16 L 623 37 L 400 37 L 400 16 Z Z" stroke-miterlimit="10" stroke-width="2"></path></g><g transform="translate(-102,-6) scale(1,1)"><path fill="none" stroke="#000000" d="M 400 567 L 400 16 L 623 16 L 623 567" stroke-miterlimit="10" stroke-width="2"></path></g><g transform="translate(-102,-6) scale(1,1)"><g><path fill="none" stroke="none"></path><text fill="#000000" stroke="none" font-family="Arial" font-size="13px" font-style="normal" font-weight="normal" text-decoration="none" x="489" y="33">System</text></g></g></g></svg>