<svg version="1.1" xmlns="http://www.w3.org/2000/svg" xmlns:xlink="http://www.w3.org/1999/xlink" width="555" height="627"><defs></defs><g><g transform="translate(-118,-134) scale(1,1)"><rect fill="#00ffd4" stroke="none" x="128" y="144" width="223" height="21"></rect></g><g transform="translate(-118,-134) scale(1,1)"><path fill="none" stroke="#000000" d="M 128 144 L 351 144 L 351 165 L 128 165 L 128 144 Z Z" stroke-miterlimit="10" stroke-width="2"></path></g><g transform="translate(-118,-134) scale(1,1)"><path fill="none" stroke="#000000" d="M 128 443 L 128 144 L 351 144 L 351 443" stroke-miterlimit="10" stroke-width="2"></path></g><g transform="translate(-118,-134) scale(1,1)"><g><path fill="none" stroke="none"></path><text fill="#000000" stroke="none" font-family="Arial" font-size="13px" font-style="normal" font-weight="normal" text-decoration="none" x="210" y="161">Field User</text></g></g><g transform="translate(-118,-134) scale(1,1)"><path fill="#C0C0C0" stroke="none" d="M 241 192.5 C 241 187.2532944 245.2532944 183 250.5 183 C 255.7467056 183 260 187.2532944 260 192.5 C 260 197.7467056 255.7467056 202 250.5 202 C 245.2532944 202 241 197.7467056 241 192.5 Z" opacity="0.2"></path></g><g transform="translate(-118,-134) scale(1,1)"><path fill="#000000" stroke="none" d="M 234 185.5 C 234 180.2532944 238.2532944 176 243.5 176 C 248.7467056 176 253 180.2532944 253 185.5 C 253 190.7467056 248.7467056 195 243.5 195 C 238.2532944 195 234 190.7467056 234 185.5 Z"></path></g><g transform="translate(-118,-134) scale(1,1)"><path fill="#C0C0C0" stroke="none" d="M 193 274 L 308 274 Q 318 274 318 284 L 318 304 Q 318 314 308 314 L 193 314 Q 183 314 183 304 L 183 284 Q 183 274 193 274 Z" opacity="0.2"></path></g><g transform="translate(-118,-134) scale(1,1)"><path fill="#00ffd4" stroke="none" d="M 186 267 L 301 267 Q 311 267 311 277 L 311 297 Q 311 307 301 307 L 186 307 Q 176 307 176 297 L 176 277 Q 176 267 186 267 Z"></path></g><g transform="translate(-118,-134) scale(1,1)"><path fill="none" stroke="#000000" d="M 186 267 L 301 267 Q 311 267 311 277 L 311 297 Q 311 307 301 307 L 186 307 Q 176 307 176 297 L 176 277 Q 176 267 186 267 Z" stroke-miterlimit="10"></path></g><g transform="translate(-118,-134) scale(1,1)"><g><path fill="none" stroke="none"></path><text fill="#000000" stroke="none" font-family="Arial" font-size="13px" font-style="normal" font-weight="bold" text-decoration="none" x="186" y="286.5">Initiate Start Course</text></g></g><g transform="translate(-118,-134) scale(1,1)"><path fill="#C0C0C0" stroke="none" d="M 489 274 L 624 274 Q 634 274 634 284 L 634 304 Q 634 314 624 314 L 489 314 Q 479 314 479 304 L 479 284 Q 479 274 489 274 Z" opacity="0.2"></path></g><g transform="translate(-118,-134) scale(1,1)"><path fill="#ffadad" stroke="none" d="M 482 267 L 617 267 Q 627 267 627 277 L 627 297 Q 627 307 617 307 L 482 307 Q 472 307 472 297 L 472 277 Q 472 267 482 267 Z"></path></g><g transform="translate(-118,-134) scale(1,1)"><path fill="none" stroke="#000000" d="M 482 267 L 617 267 Q 627 267 627 277 L 627 297 Q 627 307 617 307 L 482 307 Q 472 307 472 297 L 472 277 Q 472 267 482 267 Z" stroke-miterlimit="10"></path></g><g transform="translate(-118,-134) scale(1,1)"><path fill="none" stroke="#000000" d="M 601 294 C 601 292.3431456 602.3431456 291 604 291 C 605.6568544 291 607 292.3431456 607 294 C 607 295.6568544 605.6568544 297 604 297 C 602.3431456 297 601 295.6568544 601 294 Z" stroke-miterlimit="10"></path></g><g transform="translate(-118,-134) scale(1,1)"><path fill="none" stroke="#000000" d="M 607 294 L 613 294" stroke-miterlimit="10"></path></g><g transform="translate(-118,-134) scale(1,1)"><path fill="none" stroke="#000000" d="M 613 294 C 613 292.3431456 614.3431456 291 616 291 C 617.6568544 291 619 292.3431456 619 294 C 619 295.6568544 617.6568544 297 616 297 C 614.3431456 297 613 295.6568544 613 294 Z" stroke-miterlimit="10"></path></g><g transform="translate(-118,-134) scale(1,1)"><g><path fill="none" stroke="none"></path><text fill="#000000" stroke="none" font-family="Arial" font-size="13px" font-style="normal" font-weight="bold" text-decoration="none" x="481" y="286.5">Get:Get Course Activity</text></g></g><g transform="translate(-118,-134) scale(1,1)"><path fill="#C0C0C0" stroke="none" d="M 498 359 L 615 359 Q 625 359 625 369 L 625 389 Q 625 399 615 399 L 498 399 Q 488 399 488 389 L 488 369 Q 488 359 498 359 Z" opacity="0.2"></path></g><g transform="translate(-118,-134) scale(1,1)"><path fill="#ffadad" stroke="none" d="M 491 352 L 608 352 Q 618 352 618 362 L 618 382 Q 618 392 608 392 L 491 392 Q 481 392 481 382 L 481 362 Q 481 352 491 352 Z"></path></g><g transform="translate(-118,-134) scale(1,1)"><path fill="none" stroke="#000000" d="M 491 352 L 608 352 Q 618 352 618 362 L 618 382 Q 618 392 608 392 L 491 392 Q 481 392 481 382 L 481 362 Q 481 352 491 352 Z" stroke-miterlimit="10"></path></g><g transform="translate(-118,-134) scale(1,1)"><g><path fill="none" stroke="none"></path><text fill="#000000" stroke="none" font-family="Arial" font-size="13px" font-style="normal" font-weight="bold" text-decoration="none" x="490" y="371.5">Notify Course Ready</text></g></g><g transform="translate(-118,-134) scale(1,1)"><path fill="#C0C0C0" stroke="none" d="M 526 463 L 586 463 Q 596 463 596 473 L 596 493 Q 596 503 586 503 L 526 503 Q 516 503 516 493 L 516 473 Q 516 463 526 463 Z" opacity="0.2"></path></g><g transform="translate(-118,-134) scale(1,1)"><path fill="#ffadad" stroke="none" d="M 519 456 L 579 456 Q 589 456 589 466 L 589 486 Q 589 496 579 496 L 519 496 Q 509 496 509 486 L 509 466 Q 509 456 519 456 Z"></path></g><g transform="translate(-118,-134) scale(1,1)"><path fill="none" stroke="#000000" d="M 519 456 L 579 456 Q 589 456 589 466 L 589 486 Q 589 496 579 496 L 519 496 Q 509 496 509 486 L 509 466 Q 509 456 519 456 Z" stroke-miterlimit="10"></path></g><g transform="translate(-118,-134) scale(1,1)"><g><path fill="none" stroke="none"></path><text fill="#000000" stroke="none" font-family="Arial" font-size="13px" font-style="normal" font-weight="bold" text-decoration="none" x="517" y="475.5">Start Timer</text></g></g><g transform="translate(-118,-134) scale(1,1)"><path fill="#C0C0C0" stroke="none" d="M 523 551 L 589 551 Q 599 551 599 561 L 599 581 Q 599 591 589 591 L 523 591 Q 513 591 513 581 L 513 561 Q 513 551 523 551 Z" opacity="0.2"></path></g><g transform="translate(-118,-134) scale(1,1)"><path fill="#ffadad" stroke="none" d="M 516 544 L 582 544 Q 592 544 592 554 L 592 574 Q 592 584 582 584 L 516 584 Q 506 584 506 574 L 506 554 Q 506 544 516 544 Z"></path></g><g transform="translate(-118,-134) scale(1,1)"><path fill="none" stroke="#000000" d="M 516 544 L 582 544 Q 592 544 592 554 L 592 574 Q 592 584 582 584 L 516 584 Q 506 584 506 574 L 506 554 Q 506 544 516 544 Z" stroke-miterlimit="10"></path></g><g transform="translate(-118,-134) scale(1,1)"><g><path fill="none" stroke="none"></path><text fill="#000000" stroke="none" font-family="Arial" font-size="13px" font-style="normal" font-weight="bold" text-decoration="none" x="513" y="563.5">Display Map</text></g></g><g transform="translate(-118,-134) scale(1,1)"><path fill="none" stroke="#000000" d="M 243 196 L 243 266" stroke-miterlimit="10"></path></g><g transform="translate(-118,-134) scale(1,1)"><path fill="none" stroke="#000000" d="M 238.790482243984 255.83732514237585 L 243 266 L 247.209517756016 255.83732514237585" stroke-miterlimit="10"></path></g><g transform="translate(-118,-134) scale(1,1)"><path fill="none" stroke="#000000" d="M 312 287 L 471 287" stroke-miterlimit="10"></path></g><g transform="translate(-118,-134) scale(1,1)"><path fill="none" stroke="#000000" d="M 460.83732514237585 291.209517756016 L 471 287 L 460.83732514237585 282.790482243984" stroke-miterlimit="10"></path></g><g transform="translate(-118,-134) scale(1,1)"><path fill="none" stroke="#000000" d="M 549 308 L 549 351" stroke-miterlimit="10"></path></g><g transform="translate(-118,-134) scale(1,1)"><path fill="none" stroke="#000000" d="M 544.790482243984 340.83732514237585 L 549 351 L 553.209517756016 340.83732514237585" stroke-miterlimit="10"></path></g><g transform="translate(-118,-134) scale(1,1)"><path fill="none" stroke="#000000" d="M 549 393 L 549 455" stroke-miterlimit="10"></path></g><g transform="translate(-118,-134) scale(1,1)"><path fill="none" stroke="#000000" d="M 544.790482243984 444.83732514237585 L 549 455 L 553.209517756016 444.83732514237585" stroke-miterlimit="10"></path></g><g transform="translate(-118,-134) scale(1,1)"><path fill="none" stroke="#000000" d="M 549 497 L 549 543" stroke-miterlimit="10"></path></g><g transform="translate(-118,-134) scale(1,1)"><path fill="none" stroke="#000000" d="M 544.790482243984 532.8373251423759 L 549 543 L 553.209517756016 532.8373251423759" stroke-miterlimit="10"></path></g><g transform="translate(-118,-134) scale(1,1)"><path fill="#C0C0C0" stroke="none" d="M 496 645 L 617 645 Q 627 645 627 655 L 627 675 Q 627 685 617 685 L 496 685 Q 486 685 486 675 L 486 655 Q 486 645 496 645 Z" opacity="0.2"></path></g><g transform="translate(-118,-134) scale(1,1)"><path fill="#ffadad" stroke="none" d="M 489 638 L 610 638 Q 620 638 620 648 L 620 668 Q 620 678 610 678 L 489 678 Q 479 678 479 668 L 479 648 Q 479 638 489 638 Z"></path></g><g transform="translate(-118,-134) scale(1,1)"><path fill="none" stroke="#000000" d="M 489 638 L 610 638 Q 620 638 620 648 L 620 668 Q 620 678 610 678 L 489 678 Q 479 678 479 668 L 479 648 Q 479 638 489 638 Z" stroke-miterlimit="10"></path></g><g transform="translate(-118,-134) scale(1,1)"><path fill="none" stroke="#000000" d="M 594 665 C 594 663.3431456 595.3431456 662 597 662 C 598.6568544 662 600 663.3431456 600 665 C 600 666.6568544 598.6568544 668 597 668 C 595.3431456 668 594 666.6568544 594 665 Z" stroke-miterlimit="10"></path></g><g transform="translate(-118,-134) scale(1,1)"><path fill="none" stroke="#000000" d="M 600 665 L 606 665" stroke-miterlimit="10"></path></g><g transform="translate(-118,-134) scale(1,1)"><path fill="none" stroke="#000000" d="M 606 665 C 606 663.3431456 607.3431456 662 609 662 C 610.6568544 662 612 663.3431456 612 665 C 612 666.6568544 610.6568544 668 609 668 C 607.3431456 668 606 666.6568544 606 665 Z" stroke-miterlimit="10"></path></g><g transform="translate(-118,-134) scale(1,1)"><g><path fill="none" stroke="none"></path><text fill="#000000" stroke="none" font-family="Arial" font-size="13px" font-style="normal" font-weight="bold" text-decoration="none" x="492" y="657.5">Initial:Identify Target</text></g></g><g transform="translate(-118,-134) scale(1,1)"><path fill="none" stroke="#000000" d="M 549 585 L 549 637" stroke-miterlimit="10"></path></g><g transform="translate(-118,-134) scale(1,1)"><path fill="none" stroke="#000000" d="M 544.790482243984 626.8373251423759 L 549 637 L 553.209517756016 626.8373251423759" stroke-miterlimit="10"></path></g><g transform="translate(-118,-134) scale(1,1)"><rect fill="#ffadad" stroke="none" x="416" y="144" width="247" height="21"></rect></g><g transform="translate(-118,-134) scale(1,1)"><path fill="none" stroke="#000000" d="M 416 144 L 663 144 L 663 165 L 416 165 L 416 144 Z Z" stroke-miterlimit="10" stroke-width="2"></path></g><g transform="translate(-118,-134) scale(1,1)"><path fill="none" stroke="#000000" d="M 416 751 L 416 144 L 663 144 L 663 751" stroke-miterlimit="10" stroke-width="2"></path></g><g transform="translate(-118,-134) scale(1,1)"><g><path fill="none" stroke="none"></path><text fill="#000000" stroke="none" font-family="Arial" font-size="13px" font-style="normal" font-weight="normal" text-decoration="none" x="517" y="161">System</text></g></g></g></svg>