<svg version="1.1" xmlns="http://www.w3.org/2000/svg" xmlns:xlink="http://www.w3.org/1999/xlink" width="772" height="451"><defs></defs><g><g transform="translate(-94,-6) scale(1,1)"><path fill="#C0C0C0" stroke="none" d="M 193 85.5 C 193 80.2532944 197.2532944 76 202.5 76 C 207.7467056 76 212 80.2532944 212 85.5 C 212 90.7467056 207.7467056 95 202.5 95 C 197.2532944 95 193 90.7467056 193 85.5 Z" opacity="0.2"></path></g><g transform="translate(-94,-6) scale(1,1)"><path fill="#000000" stroke="none" d="M 186 78.5 C 186 73.2532944 190.2532944 69 195.5 69 C 200.7467056 69 205 73.2532944 205 78.5 C 205 83.7467056 200.7467056 88 195.5 88 C 190.2532944 88 186 83.7467056 186 78.5 Z"></path></g><g transform="translate(-94,-6) scale(1,1)"><path fill="#C0C0C0" stroke="none" d="M 474 65 L 539 65 Q 549 65 549 75 L 549 95 Q 549 105 539 105 L 474 105 Q 464 105 464 95 L 464 75 Q 464 65 474 65 Z" opacity="0.2"></path></g><g transform="translate(-94,-6) scale(1,1)"><path fill="#ffadad" stroke="none" d="M 467 58 L 532 58 Q 542 58 542 68 L 542 88 Q 542 98 532 98 L 467 98 Q 457 98 457 88 L 457 68 Q 457 58 467 58 Z"></path></g><g transform="translate(-94,-6) scale(1,1)"><path fill="none" stroke="#000000" d="M 467 58 L 532 58 Q 542 58 542 68 L 542 88 Q 542 98 532 98 L 467 98 Q 457 98 457 88 L 457 68 Q 457 58 467 58 Z" stroke-miterlimit="10"></path></g><g transform="translate(-94,-6) scale(1,1)"><g><path fill="none" stroke="none"></path><text fill="#000000" stroke="none" font-family="Arial" font-size="13px" font-style="normal" font-weight="bold" text-decoration="none" x="463" y="77.5">Get Courses</text></g></g><g transform="translate(-94,-6) scale(1,1)"><path fill="#C0C0C0" stroke="none" d="M 440 175 L 573 175 Q 583 175 583 185 L 583 205 Q 583 215 573 215 L 440 215 Q 430 215 430 205 L 430 185 Q 430 175 440 175 Z" opacity="0.2"></path></g><g transform="translate(-94,-6) scale(1,1)"><path fill="#ffadad" stroke="none" d="M 433 168 L 566 168 Q 576 168 576 178 L 576 198 Q 576 208 566 208 L 433 208 Q 423 208 423 198 L 423 178 Q 423 168 433 168 Z"></path></g><g transform="translate(-94,-6) scale(1,1)"><path fill="none" stroke="#000000" d="M 433 168 L 566 168 Q 576 168 576 178 L 576 198 Q 576 208 566 208 L 433 208 Q 423 208 423 198 L 423 178 Q 423 168 433 168 Z" stroke-miterlimit="10"></path></g><g transform="translate(-94,-6) scale(1,1)"><g><path fill="none" stroke="none"></path><text fill="#000000" stroke="none" font-family="Arial" font-size="13px" font-style="normal" font-weight="bold" text-decoration="none" x="432.5" y="187.5">Check User Completed</text></g></g><g transform="translate(-94,-6) scale(1,1)"><path fill="#C0C0C0" stroke="none" d="M 443 295 L 569 295 Q 579 295 579 305 L 579 325 Q 579 335 569 335 L 443 335 Q 433 335 433 325 L 433 305 Q 433 295 443 295 Z" opacity="0.2"></path></g><g transform="translate(-94,-6) scale(1,1)"><path fill="#ffadad" stroke="none" d="M 436 288 L 562 288 Q 572 288 572 298 L 572 318 Q 572 328 562 328 L 436 328 Q 426 328 426 318 L 426 298 Q 426 288 436 288 Z"></path></g><g transform="translate(-94,-6) scale(1,1)"><path fill="none" stroke="#000000" d="M 436 288 L 562 288 Q 572 288 572 298 L 572 318 Q 572 328 562 328 L 436 328 Q 426 328 426 318 L 426 298 Q 426 288 436 288 Z" stroke-miterlimit="10"></path></g><g transform="translate(-94,-6) scale(1,1)"><g><path fill="none" stroke="none"></path><text fill="#000000" stroke="none" font-family="Arial" font-size="13px" font-style="normal" font-weight="bold" text-decoration="none" x="436" y="307.5">Get Completed Times</text></g></g><g transform="translate(-94,-6) scale(1,1)"><rect fill="#C0C0C0" stroke="none" x="751" y="71" width="112" height="37" opacity="0.2"></rect></g><g transform="translate(-94,-6) scale(1,1)"><rect fill="#ffbf00" stroke="none" x="744" y="64" width="112" height="37"></rect></g><g transform="translate(-94,-6) scale(1,1)"><path fill="none" stroke="#000000" d="M 744 64 L 856 64 L 856 101 L 744 101 L 744 64 Z Z" stroke-miterlimit="10"></path></g><g transform="translate(-94,-6) scale(1,1)"><rect fill="#ffbf00" stroke="none" x="744" y="64" width="112" height="37"></rect></g><g transform="translate(-94,-6) scale(1,1)"><path fill="none" stroke="#000000" d="M 744 64 L 856 64 L 856 101 L 744 101 L 744 64 Z Z" stroke-miterlimit="10"></path></g><g transform="translate(-94,-6) scale(1,1)"><g><path fill="none" stroke="none"></path><text fill="#000000" stroke="none" font-family="Arial" font-size="13px" font-style="normal" font-weight="normal" text-decoration="none" x="766" y="81.5">«datastore»</text></g></g><g transform="translate(-94,-6) scale(1,1)"><g><path fill="none" stroke="none"></path><text fill="#000000" stroke="none" font-family="Arial" font-size="13px" font-style="normal" font-weight="bold" text-decoration="none" x="757" y="96.5">CourseStorage</text></g></g><g transform="translate(-94,-6) scale(1,1)"><path fill="#C0C0C0" stroke="none" d="M 473 383 L 540 383 Q 550 383 550 393 L 550 413 Q 550 423 540 423 L 473 423 Q 463 423 463 413 L 463 393 Q 463 383 473 383 Z" opacity="0.2"></path></g><g transform="translate(-94,-6) scale(1,1)"><path fill="#ffadad" stroke="none" d="M 466 376 L 533 376 Q 543 376 543 386 L 543 406 Q 543 416 533 416 L 466 416 Q 456 416 456 406 L 456 386 Q 456 376 466 376 Z"></path></g><g transform="translate(-94,-6) scale(1,1)"><path fill="none" stroke="#000000" d="M 466 376 L 533 376 Q 543 376 543 386 L 543 406 Q 543 416 533 416 L 466 416 Q 456 416 456 406 L 456 386 Q 456 376 466 376 Z" stroke-miterlimit="10"></path></g><g transform="translate(-94,-6) scale(1,1)"><g><path fill="none" stroke="none"></path><text fill="#000000" stroke="none" font-family="Arial" font-size="13px" font-style="normal" font-weight="bold" text-decoration="none" x="462" y="395.5">Results to UI</text></g></g><g transform="translate(-94,-6) scale(1,1)"><path fill="#C0C0C0" stroke="none" d="M 190 403.5 C 190 396.59644 195.59644 391 202.5 391 C 209.40356 391 215 396.59644 215 403.5 C 215 410.40356 209.40356 416 202.5 416 C 195.59644 416 190 410.40356 190 403.5 Z" opacity="0.2"></path></g><g transform="translate(-94,-6) scale(1,1)"><path fill="none" stroke="#000000" d="M 183 396.5 C 183 389.59644 188.59644 384 195.5 384 C 202.40356 384 208 389.59644 208 396.5 C 208 403.40356 202.40356 409 195.5 409 C 188.59644 409 183 403.40356 183 396.5 Z" stroke-miterlimit="10"></path></g><g transform="translate(-94,-6) scale(1,1)"><path fill="#000000" stroke="none" d="M 188 396.5 C 188 392.357864 191.357864 389 195.5 389 C 199.642136 389 203 392.357864 203 396.5 C 203 400.642136 199.642136 404 195.5 404 C 191.357864 404 188 400.642136 188 396.5 Z"></path></g><g transform="translate(-94,-6) scale(1,1)"><path fill="none" stroke="#000000" d="M 206 78 L 456 78" stroke-miterlimit="10"></path></g><g transform="translate(-94,-6) scale(1,1)"><path fill="none" stroke="#000000" d="M 445.83732514237585 82.20951775601598 L 456 78 L 445.83732514237585 73.79048224398402" stroke-miterlimit="10"></path></g><g transform="translate(-94,-6) scale(1,1)"><path fill="none" stroke="#000000" d="M 543 79 L 743 81" stroke-miterlimit="10"></path></g><g transform="translate(-94,-6) scale(1,1)"><path fill="none" stroke="#000000" d="M 732.7957401650527 85.10768562829269 L 743 81 L 732.879926310971 76.68907103646755" stroke-miterlimit="10"></path></g><g transform="translate(-94,-6) scale(1,1)"><path fill="none" stroke="#000000" d="M 743 102 L 559 167" stroke-miterlimit="10"></path></g><g transform="translate(-94,-6) scale(1,1)"><path fill="none" stroke="#000000" d="M 567.1802018395862 159.64579726526176 L 559 167 L 569.9844828162 167.584069568292" stroke-miterlimit="10"></path></g><g transform="translate(-94,-6) scale(1,1)"><path fill="none" stroke="#000000" d="M 499 209 L 499 287" stroke-miterlimit="10"></path></g><g transform="translate(-94,-6) scale(1,1)"><path fill="none" stroke="#000000" d="M 494.790482243984 276.83732514237585 L 499 287 L 503.209517756016 276.83732514237585" stroke-miterlimit="10"></path></g><g transform="translate(-94,-6) scale(1,1)"><path fill="none" stroke="#000000" d="M 499 329 L 499 375" stroke-miterlimit="10"></path></g><g transform="translate(-94,-6) scale(1,1)"><path fill="none" stroke="#000000" d="M 494.790482243984 364.83732514237585 L 499 375 L 503.209517756016 364.83732514237585" stroke-miterlimit="10"></path></g><g transform="translate(-94,-6) scale(1,1)"><path fill="none" stroke="#000000" d="M 455 396 L 209 396" stroke-miterlimit="10"></path></g><g transform="translate(-94,-6) scale(1,1)"><path fill="none" stroke="#000000" d="M 219.16267485762415 391.790482243984 L 209 396 L 219.16267485762415 400.209517756016" stroke-miterlimit="10"></path></g><g transform="translate(-94,-6) scale(1,1)"><rect fill="#00ffd4" stroke="none" x="104" y="16" width="183" height="21"></rect></g><g transform="translate(-94,-6) scale(1,1)"><path fill="none" stroke="#000000" d="M 104 16 L 287 16 L 287 37 L 104 37 L 104 16 Z Z" stroke-miterlimit="10" stroke-width="2"></path></g><g transform="translate(-94,-6) scale(1,1)"><path fill="none" stroke="#000000" d="M 104 407 L 104 16 L 287 16 L 287 407" stroke-miterlimit="10" stroke-width="2"></path></g><g transform="translate(-94,-6) scale(1,1)"><g><path fill="none" stroke="none"></path><text fill="#000000" stroke="none" font-family="Arial" font-size="13px" font-style="normal" font-weight="normal" text-decoration="none" x="166" y="33">Field User</text></g></g><g transform="translate(-94,-6) scale(1,1)"><rect fill="#ffadad" stroke="none" x="392" y="16" width="215" height="21"></rect></g><g transform="translate(-94,-6) scale(1,1)"><path fill="none" stroke="#000000" d="M 392 16 L 607 16 L 607 37 L 392 37 L 392 16 Z Z" stroke-miterlimit="10" stroke-width="2"></path></g><g transform="translate(-94,-6) scale(1,1)"><path fill="none" stroke="#000000" d="M 392 447 L 392 16 L 607 16 L 607 447" stroke-miterlimit="10" stroke-width="2"></path></g><g transform="translate(-94,-6) scale(1,1)"><g><path fill="none" stroke="none"></path><text fill="#000000" stroke="none" font-family="Arial" font-size="13px" font-style="normal" font-weight="normal" text-decoration="none" x="477" y="33">System</text></g></g></g></svg>