<svg version="1.1" xmlns="http://www.w3.org/2000/svg" xmlns:xlink="http://www.w3.org/1999/xlink" width="772" height="451"><defs></defs><g><g transform="translate(-94,-6) scale(1,1)"><rect fill="#ffadad" stroke="none" x="397" y="16" width="215" height="21"></rect></g><g transform="translate(-94,-6) scale(1,1)"><path fill="none" stroke="#000000" d="M 397 16 L 612 16 L 612 37 L 397 37 L 397 16 Z Z" stroke-miterlimit="10" stroke-width="2"></path></g><g transform="translate(-94,-6) scale(1,1)"><path fill="none" stroke="#000000" d="M 397 447 L 397 16 L 612 16 L 612 447" stroke-miterlimit="10" stroke-width="2"></path></g><g transform="translate(-94,-6) scale(1,1)"><g><path fill="none" stroke="none"></path><text fill="#000000" stroke="none" font-family="Arial" font-size="13px" font-style="normal" font-weight="normal" text-decoration="none" x="482" y="33">System</text></g></g><g transform="translate(-94,-6) scale(1,1)"><path fill="#C0C0C0" stroke="none" d="M 193 85.5 C 193 80.2532944 197.2532944 76 202.5 76 C 207.7467056 76 212 80.2532944 212 85.5 C 212 90.7467056 207.7467056 95 202.5 95 C 197.2532944 95 193 90.7467056 193 85.5 Z" opacity="0.2"></path></g><g transform="translate(-94,-6) scale(1,1)"><path fill="#000000" stroke="none" d="M 186 78.5 C 186 73.2532944 190.2532944 69 195.5 69 C 200.7467056 69 205 73.2532944 205 78.5 C 205 83.7467056 200.7467056 88 195.5 88 C 190.2532944 88 186 83.7467056 186 78.5 Z"></path></g><g transform="translate(-94,-6) scale(1,1)"><path fill="#C0C0C0" stroke="none" d="M 441 65 L 582 65 Q 592 65 592 75 L 592 95 Q 592 105 582 105 L 441 105 Q 431 105 431 95 L 431 75 Q 431 65 441 65 Z" opacity="0.2"></path></g><g transform="translate(-94,-6) scale(1,1)"><path fill="#ffadad" stroke="none" d="M 434 58 L 575 58 Q 585 58 585 68 L 585 88 Q 585 98 575 98 L 434 98 Q 424 98 424 88 L 424 68 Q 424 58 434 58 Z"></path></g><g transform="translate(-94,-6) scale(1,1)"><path fill="none" stroke="#000000" d="M 434 58 L 575 58 Q 585 58 585 68 L 585 88 Q 585 98 575 98 L 434 98 Q 424 98 424 88 L 424 68 Q 424 58 434 58 Z" stroke-miterlimit="10"></path></g><g transform="translate(-94,-6) scale(1,1)"><g><path fill="none" stroke="none"></path><text fill="#000000" stroke="none" font-family="Arial" font-size="13px" font-style="normal" font-weight="bold" text-decoration="none" x="433.5" y="77.5">Get Course and Markers</text></g></g><g transform="translate(-94,-6) scale(1,1)"><path fill="#C0C0C0" stroke="none" d="M 445 175 L 578 175 Q 588 175 588 185 L 588 205 Q 588 215 578 215 L 445 215 Q 435 215 435 205 L 435 185 Q 435 175 445 175 Z" opacity="0.2"></path></g><g transform="translate(-94,-6) scale(1,1)"><path fill="#ffadad" stroke="none" d="M 438 168 L 571 168 Q 581 168 581 178 L 581 198 Q 581 208 571 208 L 438 208 Q 428 208 428 198 L 428 178 Q 428 168 438 168 Z"></path></g><g transform="translate(-94,-6) scale(1,1)"><path fill="none" stroke="#000000" d="M 438 168 L 571 168 Q 581 168 581 178 L 581 198 Q 581 208 571 208 L 438 208 Q 428 208 428 198 L 428 178 Q 428 168 438 168 Z" stroke-miterlimit="10"></path></g><g transform="translate(-94,-6) scale(1,1)"><g><path fill="none" stroke="none"></path><text fill="#000000" stroke="none" font-family="Arial" font-size="13px" font-style="normal" font-weight="bold" text-decoration="none" x="437.5" y="187.5">Check User Completed</text></g></g><g transform="translate(-94,-6) scale(1,1)"><path fill="#C0C0C0" stroke="none" d="M 448 295 L 574 295 Q 584 295 584 305 L 584 325 Q 584 335 574 335 L 448 335 Q 438 335 438 325 L 438 305 Q 438 295 448 295 Z" opacity="0.2"></path></g><g transform="translate(-94,-6) scale(1,1)"><path fill="#ffadad" stroke="none" d="M 441 288 L 567 288 Q 577 288 577 298 L 577 318 Q 577 328 567 328 L 441 328 Q 431 328 431 318 L 431 298 Q 431 288 441 288 Z"></path></g><g transform="translate(-94,-6) scale(1,1)"><path fill="none" stroke="#000000" d="M 441 288 L 567 288 Q 577 288 577 298 L 577 318 Q 577 328 567 328 L 441 328 Q 431 328 431 318 L 431 298 Q 431 288 441 288 Z" stroke-miterlimit="10"></path></g><g transform="translate(-94,-6) scale(1,1)"><g><path fill="none" stroke="none"></path><text fill="#000000" stroke="none" font-family="Arial" font-size="13px" font-style="normal" font-weight="bold" text-decoration="none" x="441" y="307.5">Get Completed Times</text></g></g><g transform="translate(-94,-6) scale(1,1)"><rect fill="#C0C0C0" stroke="none" x="751" y="71" width="112" height="37" opacity="0.2"></rect></g><g transform="translate(-94,-6) scale(1,1)"><rect fill="#ffbf00" stroke="none" x="744" y="64" width="112" height="37"></rect></g><g transform="translate(-94,-6) scale(1,1)"><path fill="none" stroke="#000000" d="M 744 64 L 856 64 L 856 101 L 744 101 L 744 64 Z Z" stroke-miterlimit="10"></path></g><g transform="translate(-94,-6) scale(1,1)"><rect fill="#ffbf00" stroke="none" x="744" y="64" width="112" height="37"></rect></g><g transform="translate(-94,-6) scale(1,1)"><path fill="none" stroke="#000000" d="M 744 64 L 856 64 L 856 101 L 744 101 L 744 64 Z Z" stroke-miterlimit="10"></path></g><g transform="translate(-94,-6) scale(1,1)"><g><path fill="none" stroke="none"></path><text fill="#000000" stroke="none" font-family="Arial" font-size="13px" font-style="normal" font-weight="normal" text-decoration="none" x="766" y="81.5">«datastore»</text></g></g><g transform="translate(-94,-6) scale(1,1)"><g><path fill="none" stroke="none"></path><text fill="#000000" stroke="none" font-family="Arial" font-size="13px" font-style="normal" font-weight="bold" text-decoration="none" x="757" y="96.5">CourseStorage</text></g></g><g transform="translate(-94,-6) scale(1,1)"><path fill="#C0C0C0" stroke="none" d="M 478 383 L 545 383 Q 555 383 555 393 L 555 413 Q 555 423 545 423 L 478 423 Q 468 423 468 413 L 468 393 Q 468 383 478 383 Z" opacity="0.2"></path></g><g transform="translate(-94,-6) scale(1,1)"><path fill="#ffadad" stroke="none" d="M 471 376 L 538 376 Q 548 376 548 386 L 548 406 Q 548 416 538 416 L 471 416 Q 461 416 461 406 L 461 386 Q 461 376 471 376 Z"></path></g><g transform="translate(-94,-6) scale(1,1)"><path fill="none" stroke="#000000" d="M 471 376 L 538 376 Q 548 376 548 386 L 548 406 Q 548 416 538 416 L 471 416 Q 461 416 461 406 L 461 386 Q 461 376 471 376 Z" stroke-miterlimit="10"></path></g><g transform="translate(-94,-6) scale(1,1)"><g><path fill="none" stroke="none"></path><text fill="#000000" stroke="none" font-family="Arial" font-size="13px" font-style="normal" font-weight="bold" text-decoration="none" x="467" y="395.5">Results to UI</text></g></g><g transform="translate(-94,-6) scale(1,1)"><path fill="#C0C0C0" stroke="none" d="M 190 403.5 C 190 396.59644 195.59644 391 202.5 391 C 209.40356 391 215 396.59644 215 403.5 C 215 410.40356 209.40356 416 202.5 416 C 195.59644 416 190 410.40356 190 403.5 Z" opacity="0.2"></path></g><g transform="translate(-94,-6) scale(1,1)"><path fill="none" stroke="#000000" d="M 183 396.5 C 183 389.59644 188.59644 384 195.5 384 C 202.40356 384 208 389.59644 208 396.5 C 208 403.40356 202.40356 409 195.5 409 C 188.59644 409 183 403.40356 183 396.5 Z" stroke-miterlimit="10"></path></g><g transform="translate(-94,-6) scale(1,1)"><path fill="#000000" stroke="none" d="M 188 396.5 C 188 392.357864 191.357864 389 195.5 389 C 199.642136 389 203 392.357864 203 396.5 C 203 400.642136 199.642136 404 195.5 404 C 191.357864 404 188 400.642136 188 396.5 Z"></path></g><g transform="translate(-94,-6) scale(1,1)"><path fill="none" stroke="#000000" d="M 206 78 L 423 78" stroke-miterlimit="10"></path></g><g transform="translate(-94,-6) scale(1,1)"><path fill="none" stroke="#000000" d="M 412.83732514237585 82.20951775601598 L 423 78 L 412.83732514237585 73.79048224398402" stroke-miterlimit="10"></path></g><g transform="translate(-94,-6) scale(1,1)"><path fill="none" stroke="#000000" d="M 586 79 L 743 81" stroke-miterlimit="10"></path></g><g transform="translate(-94,-6) scale(1,1)"><path fill="none" stroke="#000000" d="M 732.7845295537797 85.07972591755883 L 743 81 L 732.8917697127786 76.66137343615529" stroke-miterlimit="10"></path></g><g transform="translate(-94,-6) scale(1,1)"><path fill="none" stroke="#000000" d="M 744 102 L 563 167" stroke-miterlimit="10"></path></g><g transform="translate(-94,-6) scale(1,1)"><path fill="none" stroke="#000000" d="M 571.1418796287998 159.60339293255777 L 563 167 L 573.9873693122896 167.52698728196816" stroke-miterlimit="10"></path></g><g transform="translate(-94,-6) scale(1,1)"><path fill="none" stroke="#000000" d="M 504 209 L 504 287" stroke-miterlimit="10"></path></g><g transform="translate(-94,-6) scale(1,1)"><path fill="none" stroke="#000000" d="M 499.790482243984 276.83732514237585 L 504 287 L 508.209517756016 276.83732514237585" stroke-miterlimit="10"></path></g><g transform="translate(-94,-6) scale(1,1)"><path fill="none" stroke="#000000" d="M 504 329 L 504 375" stroke-miterlimit="10"></path></g><g transform="translate(-94,-6) scale(1,1)"><path fill="none" stroke="#000000" d="M 499.790482243984 364.83732514237585 L 504 375 L 508.209517756016 364.83732514237585" stroke-miterlimit="10"></path></g><g transform="translate(-94,-6) scale(1,1)"><path fill="none" stroke="#000000" d="M 460 396 L 209 396" stroke-miterlimit="10"></path></g><g transform="translate(-94,-6) scale(1,1)"><path fill="none" stroke="#000000" d="M 219.16267485762415 391.790482243984 L 209 396 L 219.16267485762415 400.209517756016" stroke-miterlimit="10"></path></g><g transform="translate(-94,-6) scale(1,1)"><rect fill="#00ffd4" stroke="none" x="104" y="16" width="183" height="21"></rect></g><g transform="translate(-94,-6) scale(1,1)"><path fill="none" stroke="#000000" d="M 104 16 L 287 16 L 287 37 L 104 37 L 104 16 Z Z" stroke-miterlimit="10" stroke-width="2"></path></g><g transform="translate(-94,-6) scale(1,1)"><path fill="none" stroke="#000000" d="M 104 407 L 104 16 L 287 16 L 287 407" stroke-miterlimit="10" stroke-width="2"></path></g><g transform="translate(-94,-6) scale(1,1)"><g><path fill="none" stroke="none"></path><text fill="#000000" stroke="none" font-family="Arial" font-size="13px" font-style="normal" font-weight="normal" text-decoration="none" x="166" y="33">Field User</text></g></g></g></svg>