<svg version="1.1" xmlns="http://www.w3.org/2000/svg" xmlns:xlink="http://www.w3.org/1999/xlink" width="836" height="608"><defs></defs><g><g transform="translate(-54,-70) scale(1,1)"><path fill="#C0C0C0" stroke="none" d="M 559 132.5 C 559 127.2532944 563.2532944 123 568.5 123 C 573.7467056 123 578 127.2532944 578 132.5 C 578 137.7467056 573.7467056 142 568.5 142 C 563.2532944 142 559 137.7467056 559 132.5 Z" opacity="0.2"></path></g><g transform="translate(-54,-70) scale(1,1)"><path fill="#000000" stroke="none" d="M 552 125.5 C 552 120.2532944 556.2532944 116 561.5 116 C 566.7467056 116 571 120.2532944 571 125.5 C 571 130.7467056 566.7467056 135 561.5 135 C 556.2532944 135 552 130.7467056 552 125.5 Z"></path></g><g transform="translate(-54,-70) scale(1,1)"><path fill="#C0C0C0" stroke="none" d="M 539 200 L 598 200 Q 608 200 608 210 L 608 230 Q 608 240 598 240 L 539 240 Q 529 240 529 230 L 529 210 Q 529 200 539 200 Z" opacity="0.2"></path></g><g transform="translate(-54,-70) scale(1,1)"><path fill="#ffadad" stroke="none" d="M 532 193 L 591 193 Q 601 193 601 203 L 601 223 Q 601 233 591 233 L 532 233 Q 522 233 522 223 L 522 203 Q 522 193 532 193 Z"></path></g><g transform="translate(-54,-70) scale(1,1)"><path fill="none" stroke="#000000" d="M 532 193 L 591 193 Q 601 193 601 203 L 601 223 Q 601 233 591 233 L 532 233 Q 522 233 522 223 L 522 203 Q 522 193 532 193 Z" stroke-miterlimit="10"></path></g><g transform="translate(-54,-70) scale(1,1)"><g><path fill="none" stroke="none"></path><text fill="#000000" stroke="none" font-family="Arial" font-size="13px" font-style="normal" font-weight="bold" text-decoration="none" x="530" y="212.5">Stop Timer</text></g></g><g transform="translate(-54,-70) scale(1,1)"><path fill="#C0C0C0" stroke="none" d="M 269 267 L 382 267 Q 392 267 392 277 L 392 297 Q 392 307 382 307 L 269 307 Q 259 307 259 297 L 259 277 Q 259 267 269 267 Z" opacity="0.2"></path></g><g transform="translate(-54,-70) scale(1,1)"><path fill="#38bcff" stroke="none" d="M 262 260 L 375 260 Q 385 260 385 270 L 385 290 Q 385 300 375 300 L 262 300 Q 252 300 252 290 L 252 270 Q 252 260 262 260 Z"></path></g><g transform="translate(-54,-70) scale(1,1)"><path fill="none" stroke="#000000" d="M 262 260 L 375 260 Q 385 260 385 270 L 385 290 Q 385 300 375 300 L 262 300 Q 252 300 252 290 L 252 270 Q 252 260 262 260 Z" stroke-miterlimit="10"></path></g><g transform="translate(-54,-70) scale(1,1)"><g><path fill="none" stroke="none"></path><text fill="#000000" stroke="none" font-family="Arial" font-size="13px" font-style="normal" font-weight="bold" text-decoration="none" x="262" y="279.5">Add Time Penalties</text></g></g><g transform="translate(-54,-70) scale(1,1)"><path fill="#C0C0C0" stroke="none" d="M 539 267 L 598 267 Q 608 267 608 277 L 608 297 Q 608 307 598 307 L 539 307 Q 529 307 529 297 L 529 277 Q 529 267 539 267 Z" opacity="0.2"></path></g><g transform="translate(-54,-70) scale(1,1)"><path fill="#ffadad" stroke="none" d="M 532 260 L 591 260 Q 601 260 601 270 L 601 290 Q 601 300 591 300 L 532 300 Q 522 300 522 290 L 522 270 Q 522 260 532 260 Z"></path></g><g transform="translate(-54,-70) scale(1,1)"><path fill="none" stroke="#000000" d="M 532 260 L 591 260 Q 601 260 601 270 L 601 290 Q 601 300 591 300 L 532 300 Q 522 300 522 290 L 522 270 Q 522 260 532 260 Z" stroke-miterlimit="10"></path></g><g transform="translate(-54,-70) scale(1,1)"><g><path fill="none" stroke="none"></path><text fill="#000000" stroke="none" font-family="Arial" font-size="13px" font-style="normal" font-weight="bold" text-decoration="none" x="530" y="279.5">Store Time</text></g></g><g transform="translate(-54,-70) scale(1,1)"><rect fill="#C0C0C0" stroke="none" x="775" y="269" width="112" height="37" opacity="0.2"></rect></g><g transform="translate(-54,-70) scale(1,1)"><rect fill="#ffd456" stroke="none" x="768" y="262" width="112" height="37"></rect></g><g transform="translate(-54,-70) scale(1,1)"><path fill="none" stroke="#000000" d="M 768 262 L 880 262 L 880 299 L 768 299 L 768 262 Z Z" stroke-miterlimit="10"></path></g><g transform="translate(-54,-70) scale(1,1)"><rect fill="#ffd456" stroke="none" x="768" y="262" width="112" height="37"></rect></g><g transform="translate(-54,-70) scale(1,1)"><path fill="none" stroke="#000000" d="M 768 262 L 880 262 L 880 299 L 768 299 L 768 262 Z Z" stroke-miterlimit="10"></path></g><g transform="translate(-54,-70) scale(1,1)"><g><path fill="none" stroke="none"></path><text fill="#000000" stroke="none" font-family="Arial" font-size="13px" font-style="normal" font-weight="normal" text-decoration="none" x="790" y="279.5">«datastore»</text></g></g><g transform="translate(-54,-70) scale(1,1)"><g><path fill="none" stroke="none"></path><text fill="#000000" stroke="none" font-family="Arial" font-size="13px" font-style="normal" font-weight="bold" text-decoration="none" x="781" y="294.5">CourseStorage</text></g></g><g transform="translate(-54,-70) scale(1,1)"><path fill="#C0C0C0" stroke="none" d="M 296 399 L 355 399 L 355 439 L 296 439 L 306.25 419.5" opacity="0.2"></path></g><g transform="translate(-54,-70) scale(1,1)"><path fill="#38bcff" stroke="none" d="M 289 392 L 348 392 L 348 432 L 289 432 L 299.25 412.5"></path></g><g transform="translate(-54,-70) scale(1,1)"><path fill="none" stroke="#000000" d="M 289 392 L 348 392 L 348 432 L 289 432 L 299.25 412.5 L 289 392" stroke-miterlimit="10"></path></g><g transform="translate(-54,-70) scale(1,1)"><g><path fill="none" stroke="none"></path><text fill="#000000" stroke="none" font-family="Arial" font-size="13px" font-style="normal" font-weight="bold" text-decoration="none" x="310" y="411.5">Ok</text></g></g><g transform="translate(-54,-70) scale(1,1)"><path fill="#C0C0C0" stroke="none" d="M 314 530.5 L 325.5 521 L 336 530.5 L 325.5 539 L 314 530.5" opacity="0.2"></path></g><g transform="translate(-54,-70) scale(1,1)"><path fill="#9bff38" stroke="none" d="M 307 523 L 318 514 L 329 523 L 318 532 L 307 523"></path></g><g transform="translate(-54,-70) scale(1,1)"><path fill="none" stroke="#000000" d="M 307 523 L 318 514 L 329 523 L 318 532 L 307 523 L 307 523" stroke-miterlimit="10"></path></g><g transform="translate(-54,-70) scale(1,1)"><path fill="#C0C0C0" stroke="none" d="M 98 510 L 249 510 Q 259 510 259 520 L 259 555 Q 259 565 249 565 L 98 565 Q 88 565 88 555 L 88 520 Q 88 510 98 510 Z" opacity="0.2"></path></g><g transform="translate(-54,-70) scale(1,1)"><path fill="#38bcff" stroke="none" d="M 91 503 L 242 503 Q 252 503 252 513 L 252 548 Q 252 558 242 558 L 91 558 Q 81 558 81 548 L 81 513 Q 81 503 91 503 Z"></path></g><g transform="translate(-54,-70) scale(1,1)"><path fill="none" stroke="#000000" d="M 91 503 L 242 503 Q 252 503 252 513 L 252 548 Q 252 558 242 558 L 91 558 Q 81 558 81 548 L 81 513 Q 81 503 91 503 Z" stroke-miterlimit="10"></path></g><g transform="translate(-54,-70) scale(1,1)"><path fill="none" stroke="#000000" d="M 226 545 C 226 543.3431456 227.3431456 542 229 542 C 230.6568544 542 232 543.3431456 232 545 C 232 546.6568544 230.6568544 548 229 548 C 227.3431456 548 226 546.6568544 226 545 Z" stroke-miterlimit="10"></path></g><g transform="translate(-54,-70) scale(1,1)"><path fill="none" stroke="#000000" d="M 232 545 L 238 545" stroke-miterlimit="10"></path></g><g transform="translate(-54,-70) scale(1,1)"><path fill="none" stroke="#000000" d="M 238 545 C 238 543.3431456 239.3431456 542 241 542 C 242.6568544 542 244 543.3431456 244 545 C 244 546.6568544 242.6568544 548 241 548 C 239.3431456 548 238 546.6568544 238 545 Z" stroke-miterlimit="10"></path></g><g transform="translate(-54,-70) scale(1,1)"><g><path fill="none" stroke="none"></path><text fill="#000000" stroke="none" font-family="Arial" font-size="13px" font-style="normal" font-weight="bold" text-decoration="none" x="91" y="522.5">Start:Start Course Activity</text></g></g><g transform="translate(-54,-70) scale(1,1)"><g><path fill="none" stroke="none"></path><text fill="#000000" stroke="none" font-family="Arial" font-size="13px" font-style="normal" font-weight="normal" text-decoration="none" x="88.5" y="537.5">(from Start Course Activity)</text></g></g><g transform="translate(-54,-70) scale(1,1)"><path fill="#C0C0C0" stroke="none" d="M 292 620 L 364 620 Q 374 620 374 630 L 374 665 Q 374 675 364 675 L 292 675 Q 282 675 282 665 L 282 630 Q 282 620 292 620 Z" opacity="0.2"></path></g><g transform="translate(-54,-70) scale(1,1)"><path fill="#38ff38" stroke="none" d="M 285 613 L 357 613 Q 367 613 367 623 L 367 658 Q 367 668 357 668 L 285 668 Q 275 668 275 658 L 275 623 Q 275 613 285 613 Z"></path></g><g transform="translate(-54,-70) scale(1,1)"><path fill="none" stroke="#000000" d="M 285 613 L 357 613 Q 367 613 367 623 L 367 658 Q 367 668 357 668 L 285 668 Q 275 668 275 658 L 275 623 Q 275 613 285 613 Z" stroke-miterlimit="10"></path></g><g transform="translate(-54,-70) scale(1,1)"><path fill="none" stroke="#000000" d="M 341 655 C 341 653.3431456 342.3431456 652 344 652 C 345.6568544 652 347 653.3431456 347 655 C 347 656.6568544 345.6568544 658 344 658 C 342.3431456 658 341 656.6568544 341 655 Z" stroke-miterlimit="10"></path></g><g transform="translate(-54,-70) scale(1,1)"><path fill="none" stroke="#000000" d="M 347 655 L 353 655" stroke-miterlimit="10"></path></g><g transform="translate(-54,-70) scale(1,1)"><path fill="none" stroke="#000000" d="M 353 655 C 353 653.3431456 354.3431456 652 356 652 C 357.6568544 652 359 653.3431456 359 655 C 359 656.6568544 357.6568544 658 356 658 C 354.3431456 658 353 656.6568544 353 655 Z" stroke-miterlimit="10"></path></g><g transform="translate(-54,-70) scale(1,1)"><g><path fill="none" stroke="none"></path><text fill="#000000" stroke="none" font-family="Arial" font-size="13px" font-style="normal" font-weight="bold" text-decoration="none" x="284.5" y="632.5">Exit:Log Out</text></g></g><g transform="translate(-54,-70) scale(1,1)"><g><path fill="none" stroke="none"></path><text fill="#000000" stroke="none" font-family="Arial" font-size="13px" font-style="normal" font-weight="normal" text-decoration="none" x="279.5" y="647.5">(from Log Out)</text></g></g><g transform="translate(-54,-70) scale(1,1)"><path fill="none" stroke="#000000" d="M 561 136 L 561 192" stroke-miterlimit="10"></path></g><g transform="translate(-54,-70) scale(1,1)"><path fill="none" stroke="#000000" d="M 556.790482243984 181.83732514237585 L 561 192 L 565.209517756016 181.83732514237585" stroke-miterlimit="10"></path></g><g transform="translate(-54,-70) scale(1,1)"><path fill="none" stroke="#000000" d="M 602 280 L 767 280" stroke-miterlimit="10"></path></g><g transform="translate(-54,-70) scale(1,1)"><path fill="none" stroke="#000000" d="M 756.8373251423759 284.209517756016 L 767 280 L 756.8373251423758 275.790482243984" stroke-miterlimit="10"></path></g><g transform="translate(-54,-70) scale(1,1)"><path fill="none" stroke="#000000" d="M 521 213 L 320 216 L 319 259" stroke-miterlimit="10"></path></g><g transform="translate(-54,-70) scale(1,1)"><path fill="none" stroke="#000000" d="M 315.0278974963755 248.7422028826507 L 319 259 L 323.44465728583253 248.9379414824055" stroke-miterlimit="10"></path></g><g transform="translate(-54,-70) scale(1,1)"><path fill="none" stroke="#000000" d="M 386 280 L 521 280" stroke-miterlimit="10"></path></g><g transform="translate(-54,-70) scale(1,1)"><path fill="none" stroke="#000000" d="M 510.83732514237585 284.209517756016 L 521 280 L 510.83732514237585 275.790482243984" stroke-miterlimit="10"></path></g><g transform="translate(-54,-70) scale(1,1)"><path fill="none" stroke="#000000" d="M 318 433 L 318 513" stroke-miterlimit="10"></path></g><g transform="translate(-54,-70) scale(1,1)"><path fill="none" stroke="#000000" d="M 313.790482243984 502.83732514237585 L 318 513 L 322.209517756016 502.83732514237585" stroke-miterlimit="10"></path></g><g transform="translate(-54,-70) scale(1,1)"><path fill="none" stroke="#000000" d="M 306 524 L 253 526" stroke-miterlimit="10"></path></g><g transform="translate(-54,-70) scale(1,1)"><path fill="none" stroke="#000000" d="M 262.9967100339717 521.4102518046532 L 253 526 L 263.3141835274455 529.8232993817085" stroke-miterlimit="10"></path></g><g transform="translate(-54,-70) scale(1,1)"><g><path fill="none" stroke="none"></path><text fill="#000000" stroke="none" font-family="Arial" font-size="13px" font-style="normal" font-weight="normal" text-decoration="none" x="267.5" y="545.5">Yes</text></g></g><g transform="translate(-54,-70) scale(1,1)"><path fill="none" stroke="#000000" d="M 318 533 L 320 612" stroke-miterlimit="10"></path></g><g transform="translate(-54,-70) scale(1,1)"><path fill="none" stroke="#000000" d="M 315.5346300859649 601.9471162579671 L 320 612 L 323.9509689177509 601.7340443888079" stroke-miterlimit="10"></path></g><g transform="translate(-54,-70) scale(1,1)"><g><path fill="none" stroke="none"></path><text fill="#000000" stroke="none" font-family="Arial" font-size="13px" font-style="normal" font-weight="normal" text-decoration="none" x="324.5" y="577.5">No</text></g></g><g transform="translate(-54,-70) scale(1,1)"><path fill="#ffeaad" stroke="none" d="M 432 512 L 490 512 L 500 522 L 500 561 L 432 561 L 432 512"></path></g><g transform="translate(-54,-70) scale(1,1)"><path fill="none" stroke="#000000" d="M 432 512 L 490 512 L 500 522 L 500 561 L 432 561 L 432 512 L 432 512" stroke-miterlimit="10"></path></g><g transform="translate(-54,-70) scale(1,1)"><path fill="none" stroke="#000000" d="M 490 512 L 490 522 L 500 522 L 490 512" stroke-miterlimit="10"></path></g><g transform="translate(-54,-70) scale(1,1)"><g><path fill="none" stroke="none"></path><text fill="#000000" stroke="none" font-family="Arial" font-size="13px" font-style="normal" font-weight="normal" text-decoration="none" x="437" y="530">Attempt</text><text fill="#000000" stroke="none" font-family="Arial" font-size="13px" font-style="normal" font-weight="normal" text-decoration="none" x="437" y="543">another</text><text fill="#000000" stroke="none" font-family="Arial" font-size="13px" font-style="normal" font-weight="normal" text-decoration="none" x="437" y="556">course?</text></g></g><g transform="translate(-54,-70) scale(1,1)"><path fill="none" stroke="#000000" d="M 431 534 L 330 524" stroke-miterlimit="10" stroke-dasharray="3"></path></g><g transform="translate(-54,-70) scale(1,1)"><path fill="#C0C0C0" stroke="none" d="M 530 399 L 530 439 L 596.75 439 L 607 419.5 L 596.75 399" opacity="0.2"></path></g><g transform="translate(-54,-70) scale(1,1)"><path fill="#ffadad" stroke="none" d="M 523 392 L 523 432 L 589.75 432 L 600 412.5 L 589.75 392"></path></g><g transform="translate(-54,-70) scale(1,1)"><path fill="none" stroke="#000000" d="M 523 392 L 523 432 L 589.75 432 L 600 412.5 L 589.75 392 L 523 392" stroke-miterlimit="10"></path></g><g transform="translate(-54,-70) scale(1,1)"><g><path fill="none" stroke="none"></path><text fill="#000000" stroke="none" font-family="Arial" font-size="13px" font-style="normal" font-weight="bold" text-decoration="none" x="529.5" y="411.5">Notify User</text></g></g><g transform="translate(-54,-70) scale(1,1)"><path fill="none" stroke="#000000" d="M 561 301 L 561 391" stroke-miterlimit="10"></path></g><g transform="translate(-54,-70) scale(1,1)"><path fill="none" stroke="#000000" d="M 556.790482243984 380.83732514237585 L 561 391 L 565.209517756016 380.83732514237585" stroke-miterlimit="10"></path></g><g transform="translate(-54,-70) scale(1,1)"><path fill="none" stroke="#000000" d="M 522 412 L 349 412" stroke-miterlimit="10"></path></g><g transform="translate(-54,-70) scale(1,1)"><path fill="none" stroke="#000000" d="M 359.16267485762415 407.790482243984 L 349 412 L 359.16267485762415 416.209517756016" stroke-miterlimit="10"></path></g><g transform="translate(-54,-70) scale(1,1)"><rect fill="#38bcff" stroke="none" x="64" y="80" width="343" height="21"></rect></g><g transform="translate(-54,-70) scale(1,1)"><path fill="none" stroke="#000000" d="M 64 80 L 407 80 L 407 101 L 64 101 L 64 80 Z Z" stroke-miterlimit="10" stroke-width="2"></path></g><g transform="translate(-54,-70) scale(1,1)"><path fill="none" stroke="#000000" d="M 64 591 L 64 80 L 407 80 L 407 591" stroke-miterlimit="10" stroke-width="2"></path></g><g transform="translate(-54,-70) scale(1,1)"><g><path fill="none" stroke="none"></path><text fill="#000000" stroke="none" font-family="Arial" font-size="13px" font-style="normal" font-weight="normal" text-decoration="none" x="206" y="97">Field User</text></g></g><g transform="translate(-54,-70) scale(1,1)"><rect fill="#ffadad" stroke="none" x="472" y="80" width="167" height="21"></rect></g><g transform="translate(-54,-70) scale(1,1)"><path fill="none" stroke="#000000" d="M 472 80 L 639 80 L 639 101 L 472 101 L 472 80 Z Z" stroke-miterlimit="10" stroke-width="2"></path></g><g transform="translate(-54,-70) scale(1,1)"><path fill="none" stroke="#000000" d="M 472 495 L 472 80 L 639 80 L 639 495" stroke-miterlimit="10" stroke-width="2"></path></g><g transform="translate(-54,-70) scale(1,1)"><g><path fill="none" stroke="none"></path><text fill="#000000" stroke="none" font-family="Arial" font-size="13px" font-style="normal" font-weight="normal" text-decoration="none" x="533" y="97">System</text></g></g></g></svg>