<svg version="1.1" xmlns="http://www.w3.org/2000/svg" xmlns:xlink="http://www.w3.org/1999/xlink" width="836" height="608"><defs></defs><g><g transform="translate(-54,-70) scale(1,1)"><rect fill="#00ffd4" stroke="none" x="64" y="80" width="343" height="21"></rect></g><g transform="translate(-54,-70) scale(1,1)"><path fill="none" stroke="#000000" d="M 64 80 L 407 80 L 407 101 L 64 101 L 64 80 Z Z" stroke-miterlimit="10" stroke-width="2"></path></g><g transform="translate(-54,-70) scale(1,1)"><path fill="none" stroke="#000000" d="M 64 591 L 64 80 L 407 80 L 407 591" stroke-miterlimit="10" stroke-width="2"></path></g><g transform="translate(-54,-70) scale(1,1)"><g><path fill="none" stroke="none"></path><text fill="#000000" stroke="none" font-family="Arial" font-size="13px" font-style="normal" font-weight="normal" text-decoration="none" x="206" y="97">Field User</text></g></g><g transform="translate(-54,-70) scale(1,1)"><path fill="#C0C0C0" stroke="none" d="M 559 132.5 C 559 127.2532944 563.2532944 123 568.5 123 C 573.7467056 123 578 127.2532944 578 132.5 C 578 137.7467056 573.7467056 142 568.5 142 C 563.2532944 142 559 137.7467056 559 132.5 Z" opacity="0.2"></path></g><g transform="translate(-54,-70) scale(1,1)"><path fill="#000000" stroke="none" d="M 552 125.5 C 552 120.2532944 556.2532944 116 561.5 116 C 566.7467056 116 571 120.2532944 571 125.5 C 571 130.7467056 566.7467056 135 561.5 135 C 556.2532944 135 552 130.7467056 552 125.5 Z"></path></g><g transform="translate(-54,-70) scale(1,1)"><path fill="#C0C0C0" stroke="none" d="M 539 200 L 598 200 Q 608 200 608 210 L 608 230 Q 608 240 598 240 L 539 240 Q 529 240 529 230 L 529 210 Q 529 200 539 200 Z" opacity="0.2"></path></g><g transform="translate(-54,-70) scale(1,1)"><path fill="#ffadad" stroke="none" d="M 532 193 L 591 193 Q 601 193 601 203 L 601 223 Q 601 233 591 233 L 532 233 Q 522 233 522 223 L 522 203 Q 522 193 532 193 Z"></path></g><g transform="translate(-54,-70) scale(1,1)"><path fill="none" stroke="#000000" d="M 532 193 L 591 193 Q 601 193 601 203 L 601 223 Q 601 233 591 233 L 532 233 Q 522 233 522 223 L 522 203 Q 522 193 532 193 Z" stroke-miterlimit="10"></path></g><g transform="translate(-54,-70) scale(1,1)"><g><path fill="none" stroke="none"></path><text fill="#000000" stroke="none" font-family="Arial" font-size="13px" font-style="normal" font-weight="bold" text-decoration="none" x="530" y="212.5">Stop Timer</text></g></g><g transform="translate(-54,-70) scale(1,1)"><path fill="#C0C0C0" stroke="none" d="M 186 267 L 299 267 Q 309 267 309 277 L 309 297 Q 309 307 299 307 L 186 307 Q 176 307 176 297 L 176 277 Q 176 267 186 267 Z" opacity="0.2"></path></g><g transform="translate(-54,-70) scale(1,1)"><path fill="#00ffd4" stroke="none" d="M 179 260 L 292 260 Q 302 260 302 270 L 302 290 Q 302 300 292 300 L 179 300 Q 169 300 169 290 L 169 270 Q 169 260 179 260 Z"></path></g><g transform="translate(-54,-70) scale(1,1)"><path fill="none" stroke="#000000" d="M 179 260 L 292 260 Q 302 260 302 270 L 302 290 Q 302 300 292 300 L 179 300 Q 169 300 169 290 L 169 270 Q 169 260 179 260 Z" stroke-miterlimit="10"></path></g><g transform="translate(-54,-70) scale(1,1)"><g><path fill="none" stroke="none"></path><text fill="#000000" stroke="none" font-family="Arial" font-size="13px" font-style="normal" font-weight="bold" text-decoration="none" x="179" y="279.5">Add Time Penalties</text></g></g><g transform="translate(-54,-70) scale(1,1)"><path fill="#C0C0C0" stroke="none" d="M 539 267 L 598 267 Q 608 267 608 277 L 608 297 Q 608 307 598 307 L 539 307 Q 529 307 529 297 L 529 277 Q 529 267 539 267 Z" opacity="0.2"></path></g><g transform="translate(-54,-70) scale(1,1)"><path fill="#ffadad" stroke="none" d="M 532 260 L 591 260 Q 601 260 601 270 L 601 290 Q 601 300 591 300 L 532 300 Q 522 300 522 290 L 522 270 Q 522 260 532 260 Z"></path></g><g transform="translate(-54,-70) scale(1,1)"><path fill="none" stroke="#000000" d="M 532 260 L 591 260 Q 601 260 601 270 L 601 290 Q 601 300 591 300 L 532 300 Q 522 300 522 290 L 522 270 Q 522 260 532 260 Z" stroke-miterlimit="10"></path></g><g transform="translate(-54,-70) scale(1,1)"><g><path fill="none" stroke="none"></path><text fill="#000000" stroke="none" font-family="Arial" font-size="13px" font-style="normal" font-weight="bold" text-decoration="none" x="530" y="279.5">Store Time</text></g></g><g transform="translate(-54,-70) scale(1,1)"><rect fill="#C0C0C0" stroke="none" x="775" y="269" width="112" height="37" opacity="0.2"></rect></g><g transform="translate(-54,-70) scale(1,1)"><rect fill="#ffd456" stroke="none" x="768" y="262" width="112" height="37"></rect></g><g transform="translate(-54,-70) scale(1,1)"><path fill="none" stroke="#000000" d="M 768 262 L 880 262 L 880 299 L 768 299 L 768 262 Z Z" stroke-miterlimit="10"></path></g><g transform="translate(-54,-70) scale(1,1)"><rect fill="#ffd456" stroke="none" x="768" y="262" width="112" height="37"></rect></g><g transform="translate(-54,-70) scale(1,1)"><path fill="none" stroke="#000000" d="M 768 262 L 880 262 L 880 299 L 768 299 L 768 262 Z Z" stroke-miterlimit="10"></path></g><g transform="translate(-54,-70) scale(1,1)"><g><path fill="none" stroke="none"></path><text fill="#000000" stroke="none" font-family="Arial" font-size="13px" font-style="normal" font-weight="normal" text-decoration="none" x="790" y="279.5">«datastore»</text></g></g><g transform="translate(-54,-70) scale(1,1)"><g><path fill="none" stroke="none"></path><text fill="#000000" stroke="none" font-family="Arial" font-size="13px" font-style="normal" font-weight="bold" text-decoration="none" x="781" y="294.5">CourseStorage</text></g></g><g transform="translate(-54,-70) scale(1,1)"><path fill="#C0C0C0" stroke="none" d="M 213 399 L 272 399 L 272 439 L 213 439 L 223.25 419.5" opacity="0.2"></path></g><g transform="translate(-54,-70) scale(1,1)"><path fill="#00ffd4" stroke="none" d="M 206 392 L 265 392 L 265 432 L 206 432 L 216.25 412.5"></path></g><g transform="translate(-54,-70) scale(1,1)"><path fill="none" stroke="#000000" d="M 206 392 L 265 392 L 265 432 L 206 432 L 216.25 412.5 L 206 392" stroke-miterlimit="10"></path></g><g transform="translate(-54,-70) scale(1,1)"><g><path fill="none" stroke="none"></path><text fill="#000000" stroke="none" font-family="Arial" font-size="13px" font-style="normal" font-weight="bold" text-decoration="none" x="227" y="411.5">Ok</text></g></g><g transform="translate(-54,-70) scale(1,1)"><path fill="#C0C0C0" stroke="none" d="M 206 620 L 278 620 Q 288 620 288 630 L 288 665 Q 288 675 278 675 L 206 675 Q 196 675 196 665 L 196 630 Q 196 620 206 620 Z" opacity="0.2"></path></g><g transform="translate(-54,-70) scale(1,1)"><path fill="#38ff38" stroke="none" d="M 199 613 L 271 613 Q 281 613 281 623 L 281 658 Q 281 668 271 668 L 199 668 Q 189 668 189 658 L 189 623 Q 189 613 199 613 Z"></path></g><g transform="translate(-54,-70) scale(1,1)"><path fill="none" stroke="#000000" d="M 199 613 L 271 613 Q 281 613 281 623 L 281 658 Q 281 668 271 668 L 199 668 Q 189 668 189 658 L 189 623 Q 189 613 199 613 Z" stroke-miterlimit="10"></path></g><g transform="translate(-54,-70) scale(1,1)"><path fill="none" stroke="#000000" d="M 255 655 C 255 653.3431456 256.3431456 652 258 652 C 259.6568544 652 261 653.3431456 261 655 C 261 656.6568544 259.6568544 658 258 658 C 256.3431456 658 255 656.6568544 255 655 Z" stroke-miterlimit="10"></path></g><g transform="translate(-54,-70) scale(1,1)"><path fill="none" stroke="#000000" d="M 261 655 L 267 655" stroke-miterlimit="10"></path></g><g transform="translate(-54,-70) scale(1,1)"><path fill="none" stroke="#000000" d="M 267 655 C 267 653.3431456 268.3431456 652 270 652 C 271.6568544 652 273 653.3431456 273 655 C 273 656.6568544 271.6568544 658 270 658 C 268.3431456 658 267 656.6568544 267 655 Z" stroke-miterlimit="10"></path></g><g transform="translate(-54,-70) scale(1,1)"><g><path fill="none" stroke="none"></path><text fill="#000000" stroke="none" font-family="Arial" font-size="13px" font-style="normal" font-weight="bold" text-decoration="none" x="198.5" y="632.5">Exit:Log Out</text></g></g><g transform="translate(-54,-70) scale(1,1)"><g><path fill="none" stroke="none"></path><text fill="#000000" stroke="none" font-family="Arial" font-size="13px" font-style="normal" font-weight="normal" text-decoration="none" x="193.5" y="647.5">(from Log Out)</text></g></g><g transform="translate(-54,-70) scale(1,1)"><path fill="none" stroke="#000000" d="M 561 136 L 561 192" stroke-miterlimit="10"></path></g><g transform="translate(-54,-70) scale(1,1)"><path fill="none" stroke="#000000" d="M 556.790482243984 181.83732514237585 L 561 192 L 565.209517756016 181.83732514237585" stroke-miterlimit="10"></path></g><g transform="translate(-54,-70) scale(1,1)"><path fill="none" stroke="#000000" d="M 602 280 L 767 280" stroke-miterlimit="10"></path></g><g transform="translate(-54,-70) scale(1,1)"><path fill="none" stroke="#000000" d="M 756.8373251423759 284.209517756016 L 767 280 L 756.8373251423758 275.790482243984" stroke-miterlimit="10"></path></g><g transform="translate(-54,-70) scale(1,1)"><path fill="none" stroke="#000000" d="M 521 212 L 232 208 L 234 259" stroke-miterlimit="10"></path></g><g transform="translate(-54,-70) scale(1,1)"><path fill="none" stroke="#000000" d="M 229.39548518758045 249.01008291614946 L 234 259 L 237.8080544655463 248.68017823858216" stroke-miterlimit="10"></path></g><g transform="translate(-54,-70) scale(1,1)"><path fill="none" stroke="#000000" d="M 303 280 L 521 280" stroke-miterlimit="10"></path></g><g transform="translate(-54,-70) scale(1,1)"><path fill="none" stroke="#000000" d="M 510.83732514237585 284.209517756016 L 521 280 L 510.83732514237585 275.790482243984" stroke-miterlimit="10"></path></g><g transform="translate(-54,-70) scale(1,1)"><path fill="#C0C0C0" stroke="none" d="M 530 399 L 530 439 L 596.75 439 L 607 419.5 L 596.75 399" opacity="0.2"></path></g><g transform="translate(-54,-70) scale(1,1)"><path fill="#ffadad" stroke="none" d="M 523 392 L 523 432 L 589.75 432 L 600 412.5 L 589.75 392"></path></g><g transform="translate(-54,-70) scale(1,1)"><path fill="none" stroke="#000000" d="M 523 392 L 523 432 L 589.75 432 L 600 412.5 L 589.75 392 L 523 392" stroke-miterlimit="10"></path></g><g transform="translate(-54,-70) scale(1,1)"><g><path fill="none" stroke="none"></path><text fill="#000000" stroke="none" font-family="Arial" font-size="13px" font-style="normal" font-weight="bold" text-decoration="none" x="529.5" y="411.5">Notify User</text></g></g><g transform="translate(-54,-70) scale(1,1)"><path fill="none" stroke="#000000" d="M 561 301 L 561 391" stroke-miterlimit="10"></path></g><g transform="translate(-54,-70) scale(1,1)"><path fill="none" stroke="#000000" d="M 556.790482243984 380.83732514237585 L 561 391 L 565.209517756016 380.83732514237585" stroke-miterlimit="10"></path></g><g transform="translate(-54,-70) scale(1,1)"><path fill="none" stroke="#000000" d="M 522 412 L 266 412" stroke-miterlimit="10"></path></g><g transform="translate(-54,-70) scale(1,1)"><path fill="none" stroke="#000000" d="M 276.16267485762415 407.790482243984 L 266 412 L 276.16267485762415 416.209517756016" stroke-miterlimit="10"></path></g><g transform="translate(-54,-70) scale(1,1)"><rect fill="#ffadad" stroke="none" x="472" y="80" width="167" height="21"></rect></g><g transform="translate(-54,-70) scale(1,1)"><path fill="none" stroke="#000000" d="M 472 80 L 639 80 L 639 101 L 472 101 L 472 80 Z Z" stroke-miterlimit="10" stroke-width="2"></path></g><g transform="translate(-54,-70) scale(1,1)"><path fill="none" stroke="#000000" d="M 472 495 L 472 80 L 639 80 L 639 495" stroke-miterlimit="10" stroke-width="2"></path></g><g transform="translate(-54,-70) scale(1,1)"><g><path fill="none" stroke="none"></path><text fill="#000000" stroke="none" font-family="Arial" font-size="13px" font-style="normal" font-weight="normal" text-decoration="none" x="533" y="97">System</text></g></g><g transform="translate(-54,-70) scale(1,1)"><path fill="#C0C0C0" stroke="none" d="M 189 519 L 296 519 Q 306 519 306 529 L 306 549 Q 306 559 296 559 L 189 559 Q 179 559 179 549 L 179 529 Q 179 519 189 519 Z" opacity="0.2"></path></g><g transform="translate(-54,-70) scale(1,1)"><path fill="#00ffd4" stroke="none" d="M 182 512 L 289 512 Q 299 512 299 522 L 299 542 Q 299 552 289 552 L 182 552 Q 172 552 172 542 L 172 522 Q 172 512 182 512 Z"></path></g><g transform="translate(-54,-70) scale(1,1)"><path fill="none" stroke="#000000" d="M 182 512 L 289 512 Q 299 512 299 522 L 299 542 Q 299 552 289 552 L 182 552 Q 172 552 172 542 L 172 522 Q 172 512 182 512 Z" stroke-miterlimit="10"></path></g><g transform="translate(-54,-70) scale(1,1)"><g><path fill="none" stroke="none"></path><text fill="#000000" stroke="none" font-family="Arial" font-size="13px" font-style="normal" font-weight="bold" text-decoration="none" x="182" y="531.5">Display Final Time</text></g></g><g transform="translate(-54,-70) scale(1,1)"><path fill="none" stroke="#000000" d="M 235 433 L 235 511" stroke-miterlimit="10"></path></g><g transform="translate(-54,-70) scale(1,1)"><path fill="none" stroke="#000000" d="M 230.790482243984 500.83732514237585 L 235 511 L 239.209517756016 500.83732514237585" stroke-miterlimit="10"></path></g><g transform="translate(-54,-70) scale(1,1)"><path fill="none" stroke="#000000" d="M 235 553 L 235 612" stroke-miterlimit="10"></path></g><g transform="translate(-54,-70) scale(1,1)"><path fill="none" stroke="#000000" d="M 230.790482243984 601.8373251423759 L 235 612 L 239.209517756016 601.8373251423759" stroke-miterlimit="10"></path></g></g></svg>