<svg version="1.1" xmlns="http://www.w3.org/2000/svg" xmlns:xlink="http://www.w3.org/1999/xlink" width="543" height="683"><defs></defs><g><g transform="translate(-94,-6) scale(1,1)"><rect fill="#ffadad" stroke="none" x="104" y="16" width="271" height="21"></rect></g><g transform="translate(-94,-6) scale(1,1)"><path fill="none" stroke="#000000" d="M 104 16 L 375 16 L 375 37 L 104 37 L 104 16 Z Z" stroke-miterlimit="10" stroke-width="2"></path></g><g transform="translate(-94,-6) scale(1,1)"><path fill="none" stroke="#000000" d="M 104 679 L 104 16 L 375 16 L 375 679" stroke-miterlimit="10" stroke-width="2"></path></g><g transform="translate(-94,-6) scale(1,1)"><g><path fill="none" stroke="none"></path><text fill="#000000" stroke="none" font-family="Arial" font-size="13px" font-style="normal" font-weight="normal" text-decoration="none" x="217" y="33">System</text></g></g><g transform="translate(-94,-6) scale(1,1)"><path fill="#C0C0C0" stroke="none" d="M 237 88.5 C 237 83.2532944 241.2532944 79 246.5 79 C 251.7467056 79 256 83.2532944 256 88.5 C 256 93.7467056 251.7467056 98 246.5 98 C 241.2532944 98 237 93.7467056 237 88.5 Z" opacity="0.2"></path></g><g transform="translate(-94,-6) scale(1,1)"><path fill="#000000" stroke="none" d="M 230 81.5 C 230 76.2532944 234.2532944 72 239.5 72 C 244.7467056 72 249 76.2532944 249 81.5 C 249 86.7467056 244.7467056 91 239.5 91 C 234.2532944 91 230 86.7467056 230 81.5 Z"></path></g><g transform="translate(-94,-6) scale(1,1)"><path fill="#C0C0C0" stroke="none" d="M 168 143 L 324 143 Q 334 143 334 153 L 334 173 Q 334 183 324 183 L 168 183 Q 158 183 158 173 L 158 153 Q 158 143 168 143 Z" opacity="0.2"></path></g><g transform="translate(-94,-6) scale(1,1)"><path fill="#ffadad" stroke="none" d="M 161 136 L 317 136 Q 327 136 327 146 L 327 166 Q 327 176 317 176 L 161 176 Q 151 176 151 166 L 151 146 Q 151 136 161 136 Z"></path></g><g transform="translate(-94,-6) scale(1,1)"><path fill="none" stroke="#000000" d="M 161 136 L 317 136 Q 327 136 327 146 L 327 166 Q 327 176 317 176 L 161 176 Q 151 176 151 166 L 151 146 Q 151 136 161 136 Z" stroke-miterlimit="10"></path></g><g transform="translate(-94,-6) scale(1,1)"><g><path fill="none" stroke="none"></path><text fill="#000000" stroke="none" font-family="Arial" font-size="13px" font-style="normal" font-weight="bold" text-decoration="none" x="162" y="155.5">Query Storage for Courses</text></g></g><g transform="translate(-94,-6) scale(1,1)"><path fill="#C0C0C0" stroke="none" d="M 181 271 L 311 271 Q 321 271 321 281 L 321 301 Q 321 311 311 311 L 181 311 Q 171 311 171 301 L 171 281 Q 171 271 181 271 Z" opacity="0.2"></path></g><g transform="translate(-94,-6) scale(1,1)"><path fill="#ffadad" stroke="none" d="M 174 264 L 304 264 Q 314 264 314 274 L 314 294 Q 314 304 304 304 L 174 304 Q 164 304 164 294 L 164 274 Q 164 264 174 264 Z"></path></g><g transform="translate(-94,-6) scale(1,1)"><path fill="none" stroke="#000000" d="M 174 264 L 304 264 Q 314 264 314 274 L 314 294 Q 314 304 304 304 L 174 304 Q 164 304 164 294 L 164 274 Q 164 264 174 264 Z" stroke-miterlimit="10"></path></g><g transform="translate(-94,-6) scale(1,1)"><g><path fill="none" stroke="none"></path><text fill="#000000" stroke="none" font-family="Arial" font-size="13px" font-style="normal" font-weight="bold" text-decoration="none" x="172.5" y="283.5">Assign Random Couse</text></g></g><g transform="translate(-94,-6) scale(1,1)"><path fill="#C0C0C0" stroke="none" d="M 169 479 L 324 479 Q 334 479 334 489 L 334 509 Q 334 519 324 519 L 169 519 Q 159 519 159 509 L 159 489 Q 159 479 169 479 Z" opacity="0.2"></path></g><g transform="translate(-94,-6) scale(1,1)"><path fill="#ffadad" stroke="none" d="M 162 472 L 317 472 Q 327 472 327 482 L 327 502 Q 327 512 317 512 L 162 512 Q 152 512 152 502 L 152 482 Q 152 472 162 472 Z"></path></g><g transform="translate(-94,-6) scale(1,1)"><path fill="none" stroke="#000000" d="M 162 472 L 317 472 Q 327 472 327 482 L 327 502 Q 327 512 317 512 L 162 512 Q 152 512 152 502 L 152 482 Q 152 472 162 472 Z" stroke-miterlimit="10"></path></g><g transform="translate(-94,-6) scale(1,1)"><g><path fill="none" stroke="none"></path><text fill="#000000" stroke="none" font-family="Arial" font-size="13px" font-style="normal" font-weight="bold" text-decoration="none" x="164.5" y="491.5">Retrieve Marker Locations</text></g></g><g transform="translate(-94,-6) scale(1,1)"><path fill="#C0C0C0" stroke="none" d="M 234 603.5 C 234 596.59644 239.59644 591 246.5 591 C 253.40356 591 259 596.59644 259 603.5 C 259 610.40356 253.40356 616 246.5 616 C 239.59644 616 234 610.40356 234 603.5 Z" opacity="0.2"></path></g><g transform="translate(-94,-6) scale(1,1)"><path fill="none" stroke="#000000" d="M 227 596.5 C 227 589.59644 232.59644 584 239.5 584 C 246.40356 584 252 589.59644 252 596.5 C 252 603.40356 246.40356 609 239.5 609 C 232.59644 609 227 603.40356 227 596.5 Z" stroke-miterlimit="10"></path></g><g transform="translate(-94,-6) scale(1,1)"><path fill="#000000" stroke="none" d="M 232 596.5 C 232 592.357864 235.357864 589 239.5 589 C 243.642136 589 247 592.357864 247 596.5 C 247 600.642136 243.642136 604 239.5 604 C 235.357864 604 232 600.642136 232 596.5 Z"></path></g><g transform="translate(-94,-6) scale(1,1)"><rect fill="#C0C0C0" stroke="none" x="522" y="143" width="112" height="37" opacity="0.2"></rect></g><g transform="translate(-94,-6) scale(1,1)"><rect fill="#ffaa56" stroke="none" x="515" y="136" width="112" height="37"></rect></g><g transform="translate(-94,-6) scale(1,1)"><path fill="none" stroke="#000000" d="M 515 136 L 627 136 L 627 173 L 515 173 L 515 136 Z Z" stroke-miterlimit="10"></path></g><g transform="translate(-94,-6) scale(1,1)"><rect fill="#ffaa56" stroke="none" x="515" y="136" width="112" height="37"></rect></g><g transform="translate(-94,-6) scale(1,1)"><path fill="none" stroke="#000000" d="M 515 136 L 627 136 L 627 173 L 515 173 L 515 136 Z Z" stroke-miterlimit="10"></path></g><g transform="translate(-94,-6) scale(1,1)"><g><path fill="none" stroke="none"></path><text fill="#000000" stroke="none" font-family="Arial" font-size="13px" font-style="normal" font-weight="normal" text-decoration="none" x="537" y="153.5">«datastore»</text></g></g><g transform="translate(-94,-6) scale(1,1)"><g><path fill="none" stroke="none"></path><text fill="#000000" stroke="none" font-family="Arial" font-size="13px" font-style="normal" font-weight="bold" text-decoration="none" x="528" y="168.5">CourseStorage</text></g></g><g transform="translate(-94,-6) scale(1,1)"><rect fill="#C0C0C0" stroke="none" x="522" y="479" width="112" height="37" opacity="0.2"></rect></g><g transform="translate(-94,-6) scale(1,1)"><rect fill="#ffaa56" stroke="none" x="515" y="472" width="112" height="37"></rect></g><g transform="translate(-94,-6) scale(1,1)"><path fill="none" stroke="#000000" d="M 515 472 L 627 472 L 627 509 L 515 509 L 515 472 Z Z" stroke-miterlimit="10"></path></g><g transform="translate(-94,-6) scale(1,1)"><rect fill="#ffaa56" stroke="none" x="515" y="472" width="112" height="37"></rect></g><g transform="translate(-94,-6) scale(1,1)"><path fill="none" stroke="#000000" d="M 515 472 L 627 472 L 627 509 L 515 509 L 515 472 Z Z" stroke-miterlimit="10"></path></g><g transform="translate(-94,-6) scale(1,1)"><g><path fill="none" stroke="none"></path><text fill="#000000" stroke="none" font-family="Arial" font-size="13px" font-style="normal" font-weight="normal" text-decoration="none" x="537" y="489.5">«datastore»</text></g></g><g transform="translate(-94,-6) scale(1,1)"><g><path fill="none" stroke="none"></path><text fill="#000000" stroke="none" font-family="Arial" font-size="13px" font-style="normal" font-weight="bold" text-decoration="none" x="528.5" y="504.5">MarkerStorage</text></g></g><g transform="translate(-94,-6) scale(1,1)"><path fill="none" stroke="#000000" d="M 328 155 L 514 154" stroke-miterlimit="10"></path></g><g transform="translate(-94,-6) scale(1,1)"><path fill="none" stroke="#000000" d="M 503.86010350444747 158.26409416634786 L 514 154 L 503.81484052682254 149.8451803281077" stroke-miterlimit="10"></path></g><g transform="translate(-94,-6) scale(1,1)"><g><path fill="none" stroke="none"></path><text fill="#000000" stroke="none" font-family="Arial" font-size="13px" font-style="normal" font-weight="normal" text-decoration="none" x="381.5" y="145.5">UserCategory</text></g></g><g transform="translate(-94,-6) scale(1,1)"><path fill="none" stroke="#000000" d="M 239 92 L 239 135" stroke-miterlimit="10"></path></g><g transform="translate(-94,-6) scale(1,1)"><path fill="none" stroke="#000000" d="M 234.790482243984 124.83732514237585 L 239 135 L 243.209517756016 124.83732514237585" stroke-miterlimit="10"></path></g><g transform="translate(-94,-6) scale(1,1)"><path fill="none" stroke="#000000" d="M 239 305 L 239 471" stroke-miterlimit="10"></path></g><g transform="translate(-94,-6) scale(1,1)"><path fill="none" stroke="#000000" d="M 234.790482243984 460.83732514237585 L 239 471 L 243.209517756016 460.83732514237585" stroke-miterlimit="10"></path></g><g transform="translate(-94,-6) scale(1,1)"><g><path fill="none" stroke="none"></path><text fill="#000000" stroke="none" font-family="Arial" font-size="13px" font-style="normal" font-weight="normal" text-decoration="none" x="226.5" y="393.5">CourseID</text></g></g><g transform="translate(-94,-6) scale(1,1)"><path fill="none" stroke="#000000" d="M 328 491 L 514 490" stroke-miterlimit="10"></path></g><g transform="translate(-94,-6) scale(1,1)"><path fill="none" stroke="#000000" d="M 503.86010350444747 494.2640941663479 L 514 490 L 503.81484052682254 485.8451803281077" stroke-miterlimit="10"></path></g><g transform="translate(-94,-6) scale(1,1)"><g><path fill="none" stroke="none"></path><text fill="#000000" stroke="none" font-family="Arial" font-size="13px" font-style="normal" font-weight="normal" text-decoration="none" x="394.5" y="481.5">CourseID</text></g></g><g transform="translate(-94,-6) scale(1,1)"><path fill="none" stroke="#000000" d="M 570 510 L 568 592 L 253 596" stroke-miterlimit="10"></path></g><g transform="translate(-94,-6) scale(1,1)"><path fill="none" stroke="#000000" d="M 263.10840570813 591.6617821585536 L 253 596 L 263.2153054771548 600.0801389692523" stroke-miterlimit="10"></path></g><g transform="translate(-94,-6) scale(1,1)"><g><path fill="none" stroke="none"></path><text fill="#000000" stroke="none" font-family="Arial" font-size="13px" font-style="normal" font-weight="normal" text-decoration="none" x="537.5" y="612.5">MarkerList</text></g></g><g transform="translate(-94,-6) scale(1,1)"><path fill="none" stroke="#000000" d="M 572 174 L 576 280 L 315 283" stroke-miterlimit="10"></path></g><g transform="translate(-94,-6) scale(1,1)"><path fill="none" stroke="#000000" d="M 325.11362152316485 278.6739556536975 L 315 283 L 325.21038565436834 287.0924350683999" stroke-miterlimit="10"></path></g><g transform="translate(-94,-6) scale(1,1)"><g><path fill="none" stroke="none"></path><text fill="#000000" stroke="none" font-family="Arial" font-size="13px" font-style="normal" font-weight="normal" text-decoration="none" x="544.5" y="300.5">CourseList</text></g></g></g></svg>