<svg version="1.1" xmlns="http://www.w3.org/2000/svg" xmlns:xlink="http://www.w3.org/1999/xlink" width="435" height="501"><defs></defs><g><g transform="translate(-118,-22) scale(1,1)"><rect fill="#00ffd4" stroke="none" x="384" y="32" width="159" height="21"></rect></g><g transform="translate(-118,-22) scale(1,1)"><path fill="none" stroke="#000000" d="M 384 32 L 543 32 L 543 53 L 384 53 L 384 32 Z Z" stroke-miterlimit="10" stroke-width="2"></path></g><g transform="translate(-118,-22) scale(1,1)"><path fill="none" stroke="#000000" d="M 384 331 L 384 32 L 543 32 L 543 331" stroke-miterlimit="10" stroke-width="2"></path></g><g transform="translate(-118,-22) scale(1,1)"><g><path fill="none" stroke="none"></path><text fill="#000000" stroke="none" font-family="Arial" font-size="13px" font-style="normal" font-weight="normal" text-decoration="none" x="434" y="49">Field User</text></g></g><g transform="translate(-118,-22) scale(1,1)"><path fill="#C0C0C0" stroke="none" d="M 238 89.5 C 238 84.2532944 242.2532944 80 247.5 80 C 252.7467056 80 257 84.2532944 257 89.5 C 257 94.7467056 252.7467056 99 247.5 99 C 242.2532944 99 238 94.7467056 238 89.5 Z" opacity="0.2"></path></g><g transform="translate(-118,-22) scale(1,1)"><path fill="#000000" stroke="none" d="M 231 82.5 C 231 77.2532944 235.2532944 73 240.5 73 C 245.7467056 73 250 77.2532944 250 82.5 C 250 87.7467056 245.7467056 92 240.5 92 C 235.2532944 92 231 87.7467056 231 82.5 Z"></path></g><g transform="translate(-118,-22) scale(1,1)"><path fill="#C0C0C0" stroke="none" d="M 216 159 L 278 159 Q 288 159 288 169 L 288 189 Q 288 199 278 199 L 216 199 Q 206 199 206 189 L 206 169 Q 206 159 216 159 Z" opacity="0.2"></path></g><g transform="translate(-118,-22) scale(1,1)"><path fill="#ffadad" stroke="none" d="M 209 152 L 271 152 Q 281 152 281 162 L 281 182 Q 281 192 271 192 L 209 192 Q 199 192 199 182 L 199 162 Q 199 152 209 152 Z"></path></g><g transform="translate(-118,-22) scale(1,1)"><path fill="none" stroke="#000000" d="M 209 152 L 271 152 Q 281 152 281 162 L 281 182 Q 281 192 271 192 L 209 192 Q 199 192 199 182 L 199 162 Q 199 152 209 152 Z" stroke-miterlimit="10"></path></g><g transform="translate(-118,-22) scale(1,1)"><g><path fill="none" stroke="none"></path><text fill="#000000" stroke="none" font-family="Arial" font-size="13px" font-style="normal" font-weight="bold" text-decoration="none" x="206" y="171.5">List Targets</text></g></g><g transform="translate(-118,-22) scale(1,1)"><path fill="#C0C0C0" stroke="none" d="M 425 159 L 499 159 Q 509 159 509 169 L 509 189 Q 509 199 499 199 L 425 199 Q 415 199 415 189 L 415 169 Q 415 159 425 159 Z" opacity="0.2"></path></g><g transform="translate(-118,-22) scale(1,1)"><path fill="#00ffd4" stroke="none" d="M 418 152 L 492 152 Q 502 152 502 162 L 502 182 Q 502 192 492 192 L 418 192 Q 408 192 408 182 L 408 162 Q 408 152 418 152 Z"></path></g><g transform="translate(-118,-22) scale(1,1)"><path fill="none" stroke="#000000" d="M 418 152 L 492 152 Q 502 152 502 162 L 502 182 Q 502 192 492 192 L 418 192 Q 408 192 408 182 L 408 162 Q 408 152 418 152 Z" stroke-miterlimit="10"></path></g><g transform="translate(-118,-22) scale(1,1)"><g><path fill="none" stroke="none"></path><text fill="#000000" stroke="none" font-family="Arial" font-size="13px" font-style="normal" font-weight="bold" text-decoration="none" x="416.5" y="171.5">Select Target</text></g></g><g transform="translate(-118,-22) scale(1,1)"><path fill="#C0C0C0" stroke="none" d="M 202 263 L 293 263 Q 303 263 303 273 L 303 293 Q 303 303 293 303 L 202 303 Q 192 303 192 293 L 192 273 Q 192 263 202 263 Z" opacity="0.2"></path></g><g transform="translate(-118,-22) scale(1,1)"><path fill="#ffadad" stroke="none" d="M 195 256 L 286 256 Q 296 256 296 266 L 296 286 Q 296 296 286 296 L 195 296 Q 185 296 185 286 L 185 266 Q 185 256 195 256 Z"></path></g><g transform="translate(-118,-22) scale(1,1)"><path fill="none" stroke="#000000" d="M 195 256 L 286 256 Q 296 256 296 266 L 296 286 Q 296 296 286 296 L 195 296 Q 185 296 185 286 L 185 266 Q 185 256 195 256 Z" stroke-miterlimit="10"></path></g><g transform="translate(-118,-22) scale(1,1)"><g><path fill="none" stroke="none"></path><text fill="#000000" stroke="none" font-family="Arial" font-size="13px" font-style="normal" font-weight="bold" text-decoration="none" x="195.5" y="275.5">Highlight Target</text></g></g><g transform="translate(-118,-22) scale(1,1)"><path fill="#C0C0C0" stroke="none" d="M 172 367 L 322 367 Q 332 367 332 377 L 332 397 Q 332 407 322 407 L 172 407 Q 162 407 162 397 L 162 377 Q 162 367 172 367 Z" opacity="0.2"></path></g><g transform="translate(-118,-22) scale(1,1)"><path fill="#ffadad" stroke="none" d="M 165 360 L 315 360 Q 325 360 325 370 L 325 390 Q 325 400 315 400 L 165 400 Q 155 400 155 390 L 155 370 Q 155 360 165 360 Z"></path></g><g transform="translate(-118,-22) scale(1,1)"><path fill="none" stroke="#000000" d="M 165 360 L 315 360 Q 325 360 325 370 L 325 390 Q 325 400 315 400 L 165 400 Q 155 400 155 390 L 155 370 Q 155 360 165 360 Z" stroke-miterlimit="10"></path></g><g transform="translate(-118,-22) scale(1,1)"><g><path fill="none" stroke="none"></path><text fill="#000000" stroke="none" font-family="Arial" font-size="13px" font-style="normal" font-weight="bold" text-decoration="none" x="167.5" y="379.5">Activate Target Boundary</text></g></g><g transform="translate(-118,-22) scale(1,1)"><path fill="#C0C0C0" stroke="none" d="M 235 507.5 C 235 500.59644 240.59644 495 247.5 495 C 254.40356 495 260 500.59644 260 507.5 C 260 514.40356 254.40356 520 247.5 520 C 240.59644 520 235 514.40356 235 507.5 Z" opacity="0.2"></path></g><g transform="translate(-118,-22) scale(1,1)"><path fill="none" stroke="#000000" d="M 228 500.5 C 228 493.59644 233.59644 488 240.5 488 C 247.40356 488 253 493.59644 253 500.5 C 253 507.40356 247.40356 513 240.5 513 C 233.59644 513 228 507.40356 228 500.5 Z" stroke-miterlimit="10"></path></g><g transform="translate(-118,-22) scale(1,1)"><path fill="#000000" stroke="none" d="M 233 500.5 C 233 496.357864 236.357864 493 240.5 493 C 244.642136 493 248 496.357864 248 500.5 C 248 504.642136 244.642136 508 240.5 508 C 236.357864 508 233 504.642136 233 500.5 Z"></path></g><g transform="translate(-118,-22) scale(1,1)"><path fill="none" stroke="#000000" d="M 240 93 L 240 151" stroke-miterlimit="10"></path></g><g transform="translate(-118,-22) scale(1,1)"><path fill="none" stroke="#000000" d="M 235.790482243984 140.83732514237585 L 240 151 L 244.209517756016 140.83732514237585" stroke-miterlimit="10"></path></g><g transform="translate(-118,-22) scale(1,1)"><path fill="none" stroke="#000000" d="M 282 172 L 407 172" stroke-miterlimit="10"></path></g><g transform="translate(-118,-22) scale(1,1)"><path fill="none" stroke="#000000" d="M 396.83732514237585 176.209517756016 L 407 172 L 396.83732514237585 167.790482243984" stroke-miterlimit="10"></path></g><g transform="translate(-118,-22) scale(1,1)"><path fill="none" stroke="#000000" d="M 455 193 L 456 272 L 297 275" stroke-miterlimit="10"></path></g><g transform="translate(-118,-22) scale(1,1)"><path fill="none" stroke="#000000" d="M 307.08145566205394 270.5995168749283 L 297 275 L 307.240277121105 279.0170542046347" stroke-miterlimit="10"></path></g><g transform="translate(-118,-22) scale(1,1)"><path fill="none" stroke="#000000" d="M 240 297 L 240 359" stroke-miterlimit="10"></path></g><g transform="translate(-118,-22) scale(1,1)"><path fill="none" stroke="#000000" d="M 235.790482243984 348.83732514237585 L 240 359 L 244.209517756016 348.83732514237585" stroke-miterlimit="10"></path></g><g transform="translate(-118,-22) scale(1,1)"><path fill="none" stroke="#000000" d="M 240 401 L 240 487" stroke-miterlimit="10"></path></g><g transform="translate(-118,-22) scale(1,1)"><path fill="none" stroke="#000000" d="M 235.790482243984 476.83732514237585 L 240 487 L 244.209517756016 476.83732514237585" stroke-miterlimit="10"></path></g><g transform="translate(-118,-22) scale(1,1)"><rect fill="#ffadad" stroke="none" x="128" y="32" width="239" height="21"></rect></g><g transform="translate(-118,-22) scale(1,1)"><path fill="none" stroke="#000000" d="M 128 32 L 367 32 L 367 53 L 128 53 L 128 32 Z Z" stroke-miterlimit="10" stroke-width="2"></path></g><g transform="translate(-118,-22) scale(1,1)"><path fill="none" stroke="#000000" d="M 128 511 L 128 32 L 367 32 L 367 511" stroke-miterlimit="10" stroke-width="2"></path></g><g transform="translate(-118,-22) scale(1,1)"><g><path fill="none" stroke="none"></path><text fill="#000000" stroke="none" font-family="Arial" font-size="13px" font-style="normal" font-weight="normal" text-decoration="none" x="225" y="49">System</text></g></g></g></svg>