<svg version="1.1" xmlns="http://www.w3.org/2000/svg" xmlns:xlink="http://www.w3.org/1999/xlink" width="603" height="467"><defs></defs><g><g transform="translate(-86,-6) scale(1,1)"><rect fill="#38bcff" stroke="none" x="96" y="16" width="303" height="21"></rect></g><g transform="translate(-86,-6) scale(1,1)"><path fill="none" stroke="#000000" d="M 96 16 L 399 16 L 399 37 L 96 37 L 96 16 Z Z" stroke-miterlimit="10" stroke-width="2"></path></g><g transform="translate(-86,-6) scale(1,1)"><path fill="none" stroke="#000000" d="M 96 463 L 96 16 L 399 16 L 399 463" stroke-miterlimit="10" stroke-width="2"></path></g><g transform="translate(-86,-6) scale(1,1)"><g><path fill="none" stroke="none"></path><text fill="#000000" stroke="none" font-family="Arial" font-size="13px" font-style="normal" font-weight="normal" text-decoration="none" x="218" y="33">Field User</text></g></g><g transform="translate(-86,-6) scale(1,1)"><rect fill="#ffadad" stroke="none" x="408" y="16" width="271" height="21"></rect></g><g transform="translate(-86,-6) scale(1,1)"><path fill="none" stroke="#000000" d="M 408 16 L 679 16 L 679 37 L 408 37 L 408 16 Z Z" stroke-miterlimit="10" stroke-width="2"></path></g><g transform="translate(-86,-6) scale(1,1)"><path fill="none" stroke="#000000" d="M 408 463 L 408 16 L 679 16 L 679 463" stroke-miterlimit="10" stroke-width="2"></path></g><g transform="translate(-86,-6) scale(1,1)"><g><path fill="none" stroke="none"></path><text fill="#000000" stroke="none" font-family="Arial" font-size="13px" font-style="normal" font-weight="normal" text-decoration="none" x="521" y="33">System</text></g></g><g transform="translate(-86,-6) scale(1,1)"><path fill="#C0C0C0" stroke="none" d="M 254 56.5 C 254 51.2532944 258.2532944 47 263.5 47 C 268.7467056 47 273 51.2532944 273 56.5 C 273 61.7467056 268.7467056 66 263.5 66 C 258.2532944 66 254 61.7467056 254 56.5 Z" opacity="0.2"></path></g><g transform="translate(-86,-6) scale(1,1)"><path fill="#000000" stroke="none" d="M 247 49.5 C 247 44.2532944 251.2532944 40 256.5 40 C 261.7467056 40 266 44.2532944 266 49.5 C 266 54.7467056 261.7467056 59 256.5 59 C 251.2532944 59 247 54.7467056 247 49.5 Z"></path></g><g transform="translate(-86,-6) scale(1,1)"><path fill="#C0C0C0" stroke="none" d="M 230 119 L 296 119 Q 306 119 306 129 L 306 149 Q 306 159 296 159 L 230 159 Q 220 159 220 149 L 220 129 Q 220 119 230 119 Z" opacity="0.2"></path></g><g transform="translate(-86,-6) scale(1,1)"><path fill="#38bcff" stroke="none" d="M 223 112 L 289 112 Q 299 112 299 122 L 299 142 Q 299 152 289 152 L 223 152 Q 213 152 213 142 L 213 122 Q 213 112 223 112 Z"></path></g><g transform="translate(-86,-6) scale(1,1)"><path fill="none" stroke="#000000" d="M 223 112 L 289 112 Q 299 112 299 122 L 299 142 Q 299 152 289 152 L 223 152 Q 213 152 213 142 L 213 122 Q 213 112 223 112 Z" stroke-miterlimit="10"></path></g><g transform="translate(-86,-6) scale(1,1)"><g><path fill="none" stroke="none"></path><text fill="#000000" stroke="none" font-family="Arial" font-size="13px" font-style="normal" font-weight="bold" text-decoration="none" x="222" y="131.5">Initiate Help</text></g></g><g transform="translate(-86,-6) scale(1,1)"><path fill="#C0C0C0" stroke="none" d="M 252 244.5 L 263.5 235 L 274 244.5 L 263.5 253 L 252 244.5" opacity="0.2"></path></g><g transform="translate(-86,-6) scale(1,1)"><path fill="#9bff38" stroke="none" d="M 245 237 L 256 228 L 267 237 L 256 246 L 245 237"></path></g><g transform="translate(-86,-6) scale(1,1)"><path fill="none" stroke="#000000" d="M 245 237 L 256 228 L 267 237 L 256 246 L 245 237 L 245 237" stroke-miterlimit="10"></path></g><g transform="translate(-86,-6) scale(1,1)"><path fill="#C0C0C0" stroke="none" d="M 469 323 L 632 323 Q 642 323 642 333 L 642 353 Q 642 363 632 363 L 469 363 Q 459 363 459 353 L 459 333 Q 459 323 469 323 Z" opacity="0.2"></path></g><g transform="translate(-86,-6) scale(1,1)"><path fill="#ffadad" stroke="none" d="M 462 316 L 625 316 Q 635 316 635 326 L 635 346 Q 635 356 625 356 L 462 356 Q 452 356 452 346 L 452 326 Q 452 316 462 316 Z"></path></g><g transform="translate(-86,-6) scale(1,1)"><path fill="none" stroke="#000000" d="M 462 316 L 625 316 Q 635 316 635 326 L 635 346 Q 635 356 625 356 L 462 356 Q 452 356 452 346 L 452 326 Q 452 316 462 316 Z" stroke-miterlimit="10"></path></g><g transform="translate(-86,-6) scale(1,1)"><path fill="none" stroke="#000000" d="M 609 343 C 609 341.3431456 610.3431456 340 612 340 C 613.6568544 340 615 341.3431456 615 343 C 615 344.6568544 613.6568544 346 612 346 C 610.3431456 346 609 344.6568544 609 343 Z" stroke-miterlimit="10"></path></g><g transform="translate(-86,-6) scale(1,1)"><path fill="none" stroke="#000000" d="M 615 343 L 621 343" stroke-miterlimit="10"></path></g><g transform="translate(-86,-6) scale(1,1)"><path fill="none" stroke="#000000" d="M 621 343 C 621 341.3431456 622.3431456 340 624 340 C 625.6568544 340 627 341.3431456 627 343 C 627 344.6568544 625.6568544 346 624 346 C 622.3431456 346 621 344.6568544 621 343 Z" stroke-miterlimit="10"></path></g><g transform="translate(-86,-6) scale(1,1)"><g><path fill="none" stroke="none"></path><text fill="#000000" stroke="none" font-family="Arial" font-size="13px" font-style="normal" font-weight="bold" text-decoration="none" x="464" y="335.5">Start:Direction Help Activity</text></g></g><g transform="translate(-86,-6) scale(1,1)"><path fill="#C0C0C0" stroke="none" d="M 463 224 L 638 224 Q 648 224 648 234 L 648 254 Q 648 264 638 264 L 463 264 Q 453 264 453 254 L 453 234 Q 453 224 463 224 Z" opacity="0.2"></path></g><g transform="translate(-86,-6) scale(1,1)"><path fill="#ffadad" stroke="none" d="M 456 217 L 631 217 Q 641 217 641 227 L 641 247 Q 641 257 631 257 L 456 257 Q 446 257 446 247 L 446 227 Q 446 217 456 217 Z"></path></g><g transform="translate(-86,-6) scale(1,1)"><path fill="none" stroke="#000000" d="M 456 217 L 631 217 Q 641 217 641 227 L 641 247 Q 641 257 631 257 L 456 257 Q 446 257 446 247 L 446 227 Q 446 217 456 217 Z" stroke-miterlimit="10"></path></g><g transform="translate(-86,-6) scale(1,1)"><path fill="none" stroke="#000000" d="M 615 244 C 615 242.3431456 616.3431456 241 618 241 C 619.6568544 241 621 242.3431456 621 244 C 621 245.6568544 619.6568544 247 618 247 C 616.3431456 247 615 245.6568544 615 244 Z" stroke-miterlimit="10"></path></g><g transform="translate(-86,-6) scale(1,1)"><path fill="none" stroke="#000000" d="M 621 244 L 627 244" stroke-miterlimit="10"></path></g><g transform="translate(-86,-6) scale(1,1)"><path fill="none" stroke="#000000" d="M 627 244 C 627 242.3431456 628.3431456 241 630 241 C 631.6568544 241 633 242.3431456 633 244 C 633 245.6568544 631.6568544 247 630 247 C 628.3431456 247 627 245.6568544 627 244 Z" stroke-miterlimit="10"></path></g><g transform="translate(-86,-6) scale(1,1)"><g><path fill="none" stroke="none"></path><text fill="#000000" stroke="none" font-family="Arial" font-size="13px" font-style="normal" font-weight="bold" text-decoration="none" x="458" y="236.5">Request:Monitor Help Activity</text></g></g><g transform="translate(-86,-6) scale(1,1)"><path fill="none" stroke="#000000" d="M 256 60 L 256 111" stroke-miterlimit="10"></path></g><g transform="translate(-86,-6) scale(1,1)"><path fill="none" stroke="#000000" d="M 251.790482243984 100.83732514237585 L 256 111 L 260.209517756016 100.83732514237585" stroke-miterlimit="10"></path></g><g transform="translate(-86,-6) scale(1,1)"><path fill="none" stroke="#000000" d="M 256 153 L 256 227" stroke-miterlimit="10"></path></g><g transform="translate(-86,-6) scale(1,1)"><path fill="none" stroke="#000000" d="M 251.790482243984 216.83732514237585 L 256 227 L 260.209517756016 216.83732514237585" stroke-miterlimit="10"></path></g><g transform="translate(-86,-6) scale(1,1)"><path fill="none" stroke="#000000" d="M 256 247 L 256 336 L 451 336" stroke-miterlimit="10"></path></g><g transform="translate(-86,-6) scale(1,1)"><path fill="none" stroke="#000000" d="M 440.83732514237585 340.209517756016 L 451 336 L 440.83732514237585 331.790482243984" stroke-miterlimit="10"></path></g><g transform="translate(-86,-6) scale(1,1)"><path fill="none" stroke="#000000" d="M 268 237 L 445 237" stroke-miterlimit="10"></path></g><g transform="translate(-86,-6) scale(1,1)"><path fill="none" stroke="#000000" d="M 434.83732514237585 241.209517756016 L 445 237 L 434.83732514237585 232.790482243984" stroke-miterlimit="10"></path></g><g transform="translate(-86,-6) scale(1,1)"><path fill="#ffeaad" stroke="none" d="M 128 256 L 186 256 L 196 266 L 196 305 L 128 305 L 128 256"></path></g><g transform="translate(-86,-6) scale(1,1)"><path fill="none" stroke="#000000" d="M 128 256 L 186 256 L 196 266 L 196 305 L 128 305 L 128 256 L 128 256" stroke-miterlimit="10"></path></g><g transform="translate(-86,-6) scale(1,1)"><path fill="none" stroke="#000000" d="M 186 256 L 186 266 L 196 266 L 186 256" stroke-miterlimit="10"></path></g><g transform="translate(-86,-6) scale(1,1)"><g><path fill="none" stroke="none"></path><text fill="#000000" stroke="none" font-family="Arial" font-size="13px" font-style="normal" font-weight="normal" text-decoration="none" x="133" y="274">Choose</text><text fill="#000000" stroke="none" font-family="Arial" font-size="13px" font-style="normal" font-weight="normal" text-decoration="none" x="133" y="287">type of</text><text fill="#000000" stroke="none" font-family="Arial" font-size="13px" font-style="normal" font-weight="normal" text-decoration="none" x="133" y="300">help</text></g></g><g transform="translate(-86,-6) scale(1,1)"><path fill="none" stroke="#000000" d="M 198 264 L 244 243" stroke-miterlimit="10" stroke-dasharray="3"></path></g></g></svg>