<svg version="1.1" xmlns="http://www.w3.org/2000/svg" xmlns:xlink="http://www.w3.org/1999/xlink" width="903" height="659"><defs></defs><g><g transform="translate(-162,-38) scale(1,1)"><path fill="#C0C0C0" stroke="none" d="M 807 65 L 1051 65 L 1051 645 L 807 645" opacity="0.2"></path></g><g transform="translate(-162,-38) scale(1,1)"><path fill="#C0C0C0" stroke="none" d="M 807 65 L 817 55 L 1061 55 L 1051 65" opacity="0.2"></path></g><g transform="translate(-162,-38) scale(1,1)"><path fill="#C0C0C0" stroke="none" d="M 1061 55 L 1051 65 L 1051 645 L 1061 635" opacity="0.2"></path></g><g transform="translate(-162,-38) scale(1,1)"><path fill="#ffffff" stroke="none" d="M 800 58 L 1044 58 L 1044 638 L 800 638"></path></g><g transform="translate(-162,-38) scale(1,1)"><path fill="#ffffff" stroke="none" d="M 800 58 L 810 48 L 1054 48 L 1044 58"></path></g><g transform="translate(-162,-38) scale(1,1)"><path fill="#ffffff" stroke="none" d="M 1054 48 L 1044 58 L 1044 638 L 1054 628"></path></g><g transform="translate(-162,-38) scale(1,1)"><path fill="none" stroke="#000000" d="M 800 58 L 1044 58 L 1044 638 L 800 638 L 800 58" stroke-miterlimit="10"></path></g><g transform="translate(-162,-38) scale(1,1)"><path fill="none" stroke="#000000" d="M 800 58 L 810 48 L 1054 48 L 1044 58 L 800 58" stroke-miterlimit="10"></path></g><g transform="translate(-162,-38) scale(1,1)"><path fill="none" stroke="#000000" d="M 1054 48 L 1044 58 L 1044 638 L 1054 628 L 1054 48" stroke-miterlimit="10"></path></g><g transform="translate(-162,-38) scale(1,1)"><g><path fill="none" stroke="none"></path><text fill="#000000" stroke="none" font-family="Arial" font-size="13px" font-style="normal" font-weight="bold" text-decoration="none" x="886" y="77.5">Cloud Server</text></g></g><g transform="translate(-162,-38) scale(1,1)"><path fill="#C0C0C0" stroke="none" d="M 419 65 L 687 65 L 687 357 L 419 357" opacity="0.2"></path></g><g transform="translate(-162,-38) scale(1,1)"><path fill="#C0C0C0" stroke="none" d="M 419 65 L 429 55 L 697 55 L 687 65" opacity="0.2"></path></g><g transform="translate(-162,-38) scale(1,1)"><path fill="#C0C0C0" stroke="none" d="M 697 55 L 687 65 L 687 357 L 697 347" opacity="0.2"></path></g><g transform="translate(-162,-38) scale(1,1)"><path fill="#ffffff" stroke="none" d="M 412 58 L 680 58 L 680 350 L 412 350"></path></g><g transform="translate(-162,-38) scale(1,1)"><path fill="#ffffff" stroke="none" d="M 412 58 L 422 48 L 690 48 L 680 58"></path></g><g transform="translate(-162,-38) scale(1,1)"><path fill="#ffffff" stroke="none" d="M 690 48 L 680 58 L 680 350 L 690 340"></path></g><g transform="translate(-162,-38) scale(1,1)"><path fill="none" stroke="#000000" d="M 412 58 L 680 58 L 680 350 L 412 350 L 412 58" stroke-miterlimit="10"></path></g><g transform="translate(-162,-38) scale(1,1)"><path fill="none" stroke="#000000" d="M 412 58 L 422 48 L 690 48 L 680 58 L 412 58" stroke-miterlimit="10"></path></g><g transform="translate(-162,-38) scale(1,1)"><path fill="none" stroke="#000000" d="M 690 48 L 680 58 L 680 350 L 690 340 L 690 48" stroke-miterlimit="10"></path></g><g transform="translate(-162,-38) scale(1,1)"><g><path fill="none" stroke="none"></path><text fill="#000000" stroke="none" font-family="Arial" font-size="13px" font-style="normal" font-weight="bold" text-decoration="none" x="482.5" y="77.5">Hand Held Application</text></g></g><g transform="translate(-162,-38) scale(1,1)"><path fill="#C0C0C0" stroke="none" d="M 415 433 L 691 433 L 691 645 L 415 645" opacity="0.2"></path></g><g transform="translate(-162,-38) scale(1,1)"><path fill="#C0C0C0" stroke="none" d="M 415 433 L 425 423 L 701 423 L 691 433" opacity="0.2"></path></g><g transform="translate(-162,-38) scale(1,1)"><path fill="#C0C0C0" stroke="none" d="M 701 423 L 691 433 L 691 645 L 701 635" opacity="0.2"></path></g><g transform="translate(-162,-38) scale(1,1)"><path fill="#ffffff" stroke="none" d="M 408 426 L 684 426 L 684 638 L 408 638"></path></g><g transform="translate(-162,-38) scale(1,1)"><path fill="#ffffff" stroke="none" d="M 408 426 L 418 416 L 694 416 L 684 426"></path></g><g transform="translate(-162,-38) scale(1,1)"><path fill="#ffffff" stroke="none" d="M 694 416 L 684 426 L 684 638 L 694 628"></path></g><g transform="translate(-162,-38) scale(1,1)"><path fill="none" stroke="#000000" d="M 408 426 L 684 426 L 684 638 L 408 638 L 408 426" stroke-miterlimit="10"></path></g><g transform="translate(-162,-38) scale(1,1)"><path fill="none" stroke="#000000" d="M 408 426 L 418 416 L 694 416 L 684 426 L 408 426" stroke-miterlimit="10"></path></g><g transform="translate(-162,-38) scale(1,1)"><path fill="none" stroke="#000000" d="M 694 416 L 684 426 L 684 638 L 694 628 L 694 416" stroke-miterlimit="10"></path></g><g transform="translate(-162,-38) scale(1,1)"><g><path fill="none" stroke="none"></path><text fill="#000000" stroke="none" font-family="Arial" font-size="13px" font-style="normal" font-weight="bold" text-decoration="none" x="488.5" y="445.5">Desktop Application</text></g></g><g transform="translate(-162,-38) scale(1,1)"><path fill="#ffffff" stroke="none" d="M 234.32072727272728 84.68 C 234.32072727272728 79.886167936 238.20656959767274 76 243 76 C 247.79343040232726 76 251.67927272727272 79.886167936 251.67927272727272 84.68 C 251.67927272727272 89.473832064 247.79343040232726 93.36 243 93.36 C 238.20656959767274 93.36 234.32072727272728 89.473832064 234.32072727272728 84.68 Z"></path></g><g transform="translate(-162,-38) scale(1,1)"><path fill="none" stroke="#000000" d="M 234.32072727272728 84.68 C 234.32072727272728 79.886167936 238.20656959767274 76 243 76 C 247.79343040232726 76 251.67927272727272 79.886167936 251.67927272727272 84.68 C 251.67927272727272 89.473832064 247.79343040232726 93.36 243 93.36 C 238.20656959767274 93.36 234.32072727272728 89.473832064 234.32072727272728 84.68 Z" stroke-miterlimit="10"></path></g><g transform="translate(-162,-38) scale(1,1)"><path fill="none" stroke="#000000" d="M 243 93.36 L 243 110.64" stroke-miterlimit="10"></path></g><g transform="translate(-162,-38) scale(1,1)"><path fill="none" stroke="#000000" d="M 233.81018181818183 99.84 L 252.18981818181817 99.84" stroke-miterlimit="10"></path></g><g transform="translate(-162,-38) scale(1,1)"><path fill="none" stroke="#000000" d="M 243 110.64 L 230.23636363636365 128" stroke-miterlimit="10"></path></g><g transform="translate(-162,-38) scale(1,1)"><path fill="none" stroke="#000000" d="M 243 110.64 L 255.76363636363635 128" stroke-miterlimit="10"></path></g><g transform="translate(-162,-38) scale(1,1)"><g><path fill="none" stroke="none"></path><text fill="#000000" stroke="none" font-family="Arial" font-size="13px" font-style="normal" font-weight="bold" text-decoration="none" x="212" y="148.5">Field_User</text></g></g><g transform="translate(-162,-38) scale(1,1)"><g><path fill="none" stroke="none"></path><text fill="#000000" stroke="none" font-family="Arial" font-size="13px" font-style="normal" font-weight="normal" text-decoration="none" x="176.5" y="163.5">(from Use Case Model)</text></g></g><g transform="translate(-162,-38) scale(1,1)"><path fill="#ffffff" stroke="none" d="M 234.32072727272728 252.68 C 234.32072727272728 247.886167936 238.20656959767274 244 243 244 C 247.79343040232726 244 251.67927272727272 247.886167936 251.67927272727272 252.68 C 251.67927272727272 257.473832064 247.79343040232726 261.36 243 261.36 C 238.20656959767274 261.36 234.32072727272728 257.473832064 234.32072727272728 252.68 Z"></path></g><g transform="translate(-162,-38) scale(1,1)"><path fill="none" stroke="#000000" d="M 234.32072727272728 252.68 C 234.32072727272728 247.886167936 238.20656959767274 244 243 244 C 247.79343040232726 244 251.67927272727272 247.886167936 251.67927272727272 252.68 C 251.67927272727272 257.473832064 247.79343040232726 261.36 243 261.36 C 238.20656959767274 261.36 234.32072727272728 257.473832064 234.32072727272728 252.68 Z" stroke-miterlimit="10"></path></g><g transform="translate(-162,-38) scale(1,1)"><path fill="none" stroke="#000000" d="M 243 261.36 L 243 278.64" stroke-miterlimit="10"></path></g><g transform="translate(-162,-38) scale(1,1)"><path fill="none" stroke="#000000" d="M 233.81018181818183 267.84 L 252.18981818181817 267.84" stroke-miterlimit="10"></path></g><g transform="translate(-162,-38) scale(1,1)"><path fill="none" stroke="#000000" d="M 243 278.64 L 230.23636363636365 296" stroke-miterlimit="10"></path></g><g transform="translate(-162,-38) scale(1,1)"><path fill="none" stroke="#000000" d="M 243 278.64 L 255.76363636363635 296" stroke-miterlimit="10"></path></g><g transform="translate(-162,-38) scale(1,1)"><g><path fill="none" stroke="none"></path><text fill="#000000" stroke="none" font-family="Arial" font-size="13px" font-style="normal" font-weight="bold" text-decoration="none" x="200.5" y="316.5">Course_Admin</text></g></g><g transform="translate(-162,-38) scale(1,1)"><g><path fill="none" stroke="none"></path><text fill="#000000" stroke="none" font-family="Arial" font-size="13px" font-style="normal" font-weight="normal" text-decoration="none" x="176.5" y="331.5">(from Use Case Model)</text></g></g><g transform="translate(-162,-38) scale(1,1)"><path fill="#ffffff" stroke="none" d="M 234.32072727272728 469.68 C 234.32072727272728 464.886167936 238.20656959767274 461 243 461 C 247.79343040232726 461 251.67927272727272 464.886167936 251.67927272727272 469.68 C 251.67927272727272 474.473832064 247.79343040232726 478.36 243 478.36 C 238.20656959767274 478.36 234.32072727272728 474.473832064 234.32072727272728 469.68 Z"></path></g><g transform="translate(-162,-38) scale(1,1)"><path fill="none" stroke="#000000" d="M 234.32072727272728 469.68 C 234.32072727272728 464.886167936 238.20656959767274 461 243 461 C 247.79343040232726 461 251.67927272727272 464.886167936 251.67927272727272 469.68 C 251.67927272727272 474.473832064 247.79343040232726 478.36 243 478.36 C 238.20656959767274 478.36 234.32072727272728 474.473832064 234.32072727272728 469.68 Z" stroke-miterlimit="10"></path></g><g transform="translate(-162,-38) scale(1,1)"><path fill="none" stroke="#000000" d="M 243 478.36 L 243 495.64" stroke-miterlimit="10"></path></g><g transform="translate(-162,-38) scale(1,1)"><path fill="none" stroke="#000000" d="M 233.81018181818183 484.84 L 252.18981818181817 484.84" stroke-miterlimit="10"></path></g><g transform="translate(-162,-38) scale(1,1)"><path fill="none" stroke="#000000" d="M 243 495.64 L 230.23636363636365 513" stroke-miterlimit="10"></path></g><g transform="translate(-162,-38) scale(1,1)"><path fill="none" stroke="#000000" d="M 243 495.64 L 255.76363636363635 513" stroke-miterlimit="10"></path></g><g transform="translate(-162,-38) scale(1,1)"><g><path fill="none" stroke="none"></path><text fill="#000000" stroke="none" font-family="Arial" font-size="13px" font-style="normal" font-weight="bold" text-decoration="none" x="204.5" y="533.5">Monitor_User</text></g></g><g transform="translate(-162,-38) scale(1,1)"><g><path fill="none" stroke="none"></path><text fill="#000000" stroke="none" font-family="Arial" font-size="13px" font-style="normal" font-weight="normal" text-decoration="none" x="176.5" y="548.5">(from Use Case Model)</text></g></g><g transform="translate(-162,-38) scale(1,1)"><path fill="#ffffff" stroke="none" d="M 234.32072727272728 602.6800000000001 C 234.32072727272728 597.8861679360001 238.20656959767274 594 243 594 C 247.79343040232726 594 251.67927272727272 597.8861679360001 251.67927272727272 602.6800000000001 C 251.67927272727272 607.473832064 247.79343040232726 611.36 243 611.36 C 238.20656959767274 611.36 234.32072727272728 607.473832064 234.32072727272728 602.6800000000001 Z"></path></g><g transform="translate(-162,-38) scale(1,1)"><path fill="none" stroke="#000000" d="M 234.32072727272728 602.6800000000001 C 234.32072727272728 597.8861679360001 238.20656959767274 594 243 594 C 247.79343040232726 594 251.67927272727272 597.8861679360001 251.67927272727272 602.6800000000001 C 251.67927272727272 607.473832064 247.79343040232726 611.36 243 611.36 C 238.20656959767274 611.36 234.32072727272728 607.473832064 234.32072727272728 602.6800000000001 Z" stroke-miterlimit="10"></path></g><g transform="translate(-162,-38) scale(1,1)"><path fill="none" stroke="#000000" d="M 243 611.36 L 243 628.64" stroke-miterlimit="10"></path></g><g transform="translate(-162,-38) scale(1,1)"><path fill="none" stroke="#000000" d="M 233.81018181818183 617.84 L 252.18981818181817 617.84" stroke-miterlimit="10"></path></g><g transform="translate(-162,-38) scale(1,1)"><path fill="none" stroke="#000000" d="M 243 628.64 L 230.23636363636365 646" stroke-miterlimit="10"></path></g><g transform="translate(-162,-38) scale(1,1)"><path fill="none" stroke="#000000" d="M 243 628.64 L 255.76363636363635 646" stroke-miterlimit="10"></path></g><g transform="translate(-162,-38) scale(1,1)"><g><path fill="none" stroke="none"></path><text fill="#000000" stroke="none" font-family="Arial" font-size="13px" font-style="normal" font-weight="bold" text-decoration="none" x="205" y="666.5">Event_Admin</text></g></g><g transform="translate(-162,-38) scale(1,1)"><g><path fill="none" stroke="none"></path><text fill="#000000" stroke="none" font-family="Arial" font-size="13px" font-style="normal" font-weight="normal" text-decoration="none" x="176.5" y="681.5">(from Use Case Model)</text></g></g><g transform="translate(-162,-38) scale(1,1)"><rect fill="#C0C0C0" stroke="none" x="889" y="127" width="100" height="44" opacity="0.2"></rect></g><g transform="translate(-162,-38) scale(1,1)"><rect fill="#ffffff" stroke="none" x="882" y="120" width="100" height="44"></rect></g><g transform="translate(-162,-38) scale(1,1)"><path fill="none" stroke="#000000" d="M 882 120 L 982 120 L 982 164 L 882 164 L 882 120 Z Z" stroke-miterlimit="10"></path></g><g transform="translate(-162,-38) scale(1,1)"><rect fill="#ffffff" stroke="none" x="872" y="127" width="20" height="10"></rect></g><g transform="translate(-162,-38) scale(1,1)"><path fill="none" stroke="#000000" d="M 872 127 L 892 127 L 892 137 L 872 137 L 872 127 Z Z" stroke-miterlimit="10"></path></g><g transform="translate(-162,-38) scale(1,1)"><rect fill="#ffffff" stroke="none" x="872" y="147" width="20" height="10"></rect></g><g transform="translate(-162,-38) scale(1,1)"><path fill="none" stroke="#000000" d="M 872 147 L 892 147 L 892 157 L 872 157 L 872 147 Z Z" stroke-miterlimit="10"></path></g><g transform="translate(-162,-38) scale(1,1)"><g><path fill="none" stroke="none"></path><text fill="#000000" stroke="none" font-family="Arial" font-size="13px" font-style="normal" font-weight="bold" text-decoration="none" x="900" y="139.5">Location API</text></g></g><g transform="translate(-162,-38) scale(1,1)"><rect fill="#C0C0C0" stroke="none" x="890" y="279" width="99" height="44" opacity="0.2"></rect></g><g transform="translate(-162,-38) scale(1,1)"><rect fill="#ffffff" stroke="none" x="883" y="272" width="99" height="44"></rect></g><g transform="translate(-162,-38) scale(1,1)"><path fill="none" stroke="#000000" d="M 883 272 L 982 272 L 982 316 L 883 316 L 883 272 Z Z" stroke-miterlimit="10"></path></g><g transform="translate(-162,-38) scale(1,1)"><rect fill="#ffffff" stroke="none" x="873" y="279" width="20" height="10"></rect></g><g transform="translate(-162,-38) scale(1,1)"><path fill="none" stroke="#000000" d="M 873 279 L 893 279 L 893 289 L 873 289 L 873 279 Z Z" stroke-miterlimit="10"></path></g><g transform="translate(-162,-38) scale(1,1)"><rect fill="#ffffff" stroke="none" x="873" y="299" width="20" height="10"></rect></g><g transform="translate(-162,-38) scale(1,1)"><path fill="none" stroke="#000000" d="M 873 299 L 893 299 L 893 309 L 873 309 L 873 299 Z Z" stroke-miterlimit="10"></path></g><g transform="translate(-162,-38) scale(1,1)"><g><path fill="none" stroke="none"></path><text fill="#000000" stroke="none" font-family="Arial" font-size="13px" font-style="normal" font-weight="bold" text-decoration="none" x="915" y="291.5">Storage</text></g></g><g transform="translate(-162,-38) scale(1,1)"><rect fill="#C0C0C0" stroke="none" x="890" y="455" width="99" height="44" opacity="0.2"></rect></g><g transform="translate(-162,-38) scale(1,1)"><rect fill="#ffffff" stroke="none" x="883" y="448" width="99" height="44"></rect></g><g transform="translate(-162,-38) scale(1,1)"><path fill="none" stroke="#000000" d="M 883 448 L 982 448 L 982 492 L 883 492 L 883 448 Z Z" stroke-miterlimit="10"></path></g><g transform="translate(-162,-38) scale(1,1)"><rect fill="#ffffff" stroke="none" x="873" y="455" width="20" height="10"></rect></g><g transform="translate(-162,-38) scale(1,1)"><path fill="none" stroke="#000000" d="M 873 455 L 893 455 L 893 465 L 873 465 L 873 455 Z Z" stroke-miterlimit="10"></path></g><g transform="translate(-162,-38) scale(1,1)"><rect fill="#ffffff" stroke="none" x="873" y="475" width="20" height="10"></rect></g><g transform="translate(-162,-38) scale(1,1)"><path fill="none" stroke="#000000" d="M 873 475 L 893 475 L 893 485 L 873 485 L 873 475 Z Z" stroke-miterlimit="10"></path></g><g transform="translate(-162,-38) scale(1,1)"><g><path fill="none" stroke="none"></path><text fill="#000000" stroke="none" font-family="Arial" font-size="13px" font-style="normal" font-weight="bold" text-decoration="none" x="906" y="467.5">Messaging</text></g></g><g transform="translate(-162,-38) scale(1,1)"><rect fill="#C0C0C0" stroke="none" x="508" y="476" width="111" height="44" opacity="0.2"></rect></g><g transform="translate(-162,-38) scale(1,1)"><rect fill="#ffffff" stroke="none" x="501" y="469" width="111" height="44"></rect></g><g transform="translate(-162,-38) scale(1,1)"><path fill="none" stroke="#000000" d="M 501 469 L 612 469 L 612 513 L 501 513 L 501 469 Z Z" stroke-miterlimit="10"></path></g><g transform="translate(-162,-38) scale(1,1)"><rect fill="#ffffff" stroke="none" x="491" y="476" width="20" height="10"></rect></g><g transform="translate(-162,-38) scale(1,1)"><path fill="none" stroke="#000000" d="M 491 476 L 511 476 L 511 486 L 491 486 L 491 476 Z Z" stroke-miterlimit="10"></path></g><g transform="translate(-162,-38) scale(1,1)"><rect fill="#ffffff" stroke="none" x="491" y="496" width="20" height="10"></rect></g><g transform="translate(-162,-38) scale(1,1)"><path fill="none" stroke="#000000" d="M 491 496 L 511 496 L 511 506 L 491 506 L 491 496 Z Z" stroke-miterlimit="10"></path></g><g transform="translate(-162,-38) scale(1,1)"><g><path fill="none" stroke="none"></path><text fill="#000000" stroke="none" font-family="Arial" font-size="13px" font-style="normal" font-weight="bold" text-decoration="none" x="519" y="488.5">Location Maps</text><path fill="none" stroke="#000000" d="M 607.5 488.5 L 515.5 488.5" stroke-miterlimit="10"></path></g></g><g transform="translate(-162,-38) scale(1,1)"><rect fill="#C0C0C0" stroke="none" x="508" y="109" width="111" height="44" opacity="0.2"></rect></g><g transform="translate(-162,-38) scale(1,1)"><rect fill="#ffffff" stroke="none" x="501" y="102" width="111" height="44"></rect></g><g transform="translate(-162,-38) scale(1,1)"><path fill="none" stroke="#000000" d="M 501 102 L 612 102 L 612 146 L 501 146 L 501 102 Z Z" stroke-miterlimit="10"></path></g><g transform="translate(-162,-38) scale(1,1)"><rect fill="#ffffff" stroke="none" x="491" y="109" width="20" height="10"></rect></g><g transform="translate(-162,-38) scale(1,1)"><path fill="none" stroke="#000000" d="M 491 109 L 511 109 L 511 119 L 491 119 L 491 109 Z Z" stroke-miterlimit="10"></path></g><g transform="translate(-162,-38) scale(1,1)"><rect fill="#ffffff" stroke="none" x="491" y="129" width="20" height="10"></rect></g><g transform="translate(-162,-38) scale(1,1)"><path fill="none" stroke="#000000" d="M 491 129 L 511 129 L 511 139 L 491 139 L 491 129 Z Z" stroke-miterlimit="10"></path></g><g transform="translate(-162,-38) scale(1,1)"><g><path fill="none" stroke="none"></path><text fill="#000000" stroke="none" font-family="Arial" font-size="13px" font-style="normal" font-weight="bold" text-decoration="none" x="519" y="121.5">Location Maps</text><path fill="none" stroke="#000000" d="M 607.5 121.5 L 515.5 121.5" stroke-miterlimit="10"></path></g></g><g transform="translate(-162,-38) scale(1,1)"><rect fill="#C0C0C0" stroke="none" x="487" y="223" width="152" height="44" opacity="0.2"></rect></g><g transform="translate(-162,-38) scale(1,1)"><rect fill="#ffffff" stroke="none" x="480" y="216" width="152" height="44"></rect></g><g transform="translate(-162,-38) scale(1,1)"><path fill="none" stroke="#000000" d="M 480 216 L 632 216 L 632 260 L 480 260 L 480 216 Z Z" stroke-miterlimit="10"></path></g><g transform="translate(-162,-38) scale(1,1)"><rect fill="#ffffff" stroke="none" x="470" y="223" width="20" height="10"></rect></g><g transform="translate(-162,-38) scale(1,1)"><path fill="none" stroke="#000000" d="M 470 223 L 490 223 L 490 233 L 470 233 L 470 223 Z Z" stroke-miterlimit="10"></path></g><g transform="translate(-162,-38) scale(1,1)"><rect fill="#ffffff" stroke="none" x="470" y="243" width="20" height="10"></rect></g><g transform="translate(-162,-38) scale(1,1)"><path fill="none" stroke="#000000" d="M 470 243 L 490 243 L 490 253 L 470 253 L 470 243 Z Z" stroke-miterlimit="10"></path></g><g transform="translate(-162,-38) scale(1,1)"><g><path fill="none" stroke="none"></path><text fill="#000000" stroke="none" font-family="Arial" font-size="13px" font-style="normal" font-weight="bold" text-decoration="none" x="531" y="235.5">Messages</text><path fill="none" stroke="#000000" d="M 591.5 235.5 L 530.5 235.5" stroke-miterlimit="10"></path></g></g><g transform="translate(-162,-38) scale(1,1)"><rect fill="#C0C0C0" stroke="none" x="523" y="569" width="80" height="44" opacity="0.2"></rect></g><g transform="translate(-162,-38) scale(1,1)"><rect fill="#ffffff" stroke="none" x="516" y="562" width="80" height="44"></rect></g><g transform="translate(-162,-38) scale(1,1)"><path fill="none" stroke="#000000" d="M 516 562 L 596 562 L 596 606 L 516 606 L 516 562 Z Z" stroke-miterlimit="10"></path></g><g transform="translate(-162,-38) scale(1,1)"><rect fill="#ffffff" stroke="none" x="506" y="569" width="20" height="10"></rect></g><g transform="translate(-162,-38) scale(1,1)"><path fill="none" stroke="#000000" d="M 506 569 L 526 569 L 526 579 L 506 579 L 506 569 Z Z" stroke-miterlimit="10"></path></g><g transform="translate(-162,-38) scale(1,1)"><rect fill="#ffffff" stroke="none" x="506" y="589" width="20" height="10"></rect></g><g transform="translate(-162,-38) scale(1,1)"><path fill="none" stroke="#000000" d="M 506 589 L 526 589 L 526 599 L 506 599 L 506 589 Z Z" stroke-miterlimit="10"></path></g><g transform="translate(-162,-38) scale(1,1)"><g><path fill="none" stroke="none"></path><text fill="#000000" stroke="none" font-family="Arial" font-size="13px" font-style="normal" font-weight="bold" text-decoration="none" x="531" y="581.5">Messages</text><path fill="none" stroke="#000000" d="M 591.5 581.5 L 530.5 581.5" stroke-miterlimit="10"></path></g></g><g transform="translate(-162,-38) scale(1,1)"><path fill="none" stroke="#000000" d="M 692 253 L 799 294" stroke-miterlimit="10" stroke-dasharray="3"></path></g><g transform="translate(-162,-38) scale(1,1)"><path fill="none" stroke="#000000" d="M 788.0039437133394 294.2945269776967 L 799 294 L 791.0163520102216 286.432876056565" stroke-miterlimit="10"></path></g><g transform="translate(-162,-38) scale(1,1)"><path fill="none" stroke="#000000" d="M 696 456 L 799 406" stroke-miterlimit="10" stroke-dasharray="3"></path></g><g transform="translate(-162,-38) scale(1,1)"><path fill="none" stroke="#000000" d="M 791.695899624206 414.2249691610562 L 799 406 L 788.0192896249757 406.6511525626419" stroke-miterlimit="10"></path></g><g transform="translate(-162,-38) scale(1,1)"><path fill="none" stroke="#000000" d="M 315 140 L 411 164" stroke-miterlimit="10" stroke-dasharray="3"></path></g><g transform="translate(-162,-38) scale(1,1)"><path fill="none" stroke="#000000" d="M 400.1197991854035 165.61902138159263 L 411 164 L 402.1617152255173 157.45135722113758" stroke-miterlimit="10"></path></g><g transform="translate(-162,-38) scale(1,1)"><path fill="none" stroke="#000000" d="M 315 269 L 411 240" stroke-miterlimit="10" stroke-dasharray="3"></path></g><g transform="translate(-162,-38) scale(1,1)"><path fill="none" stroke="#000000" d="M 402.4888146961538 246.9684808045651 L 411 240 L 400.0542231242388 238.90914318719132" stroke-miterlimit="10"></path></g><g transform="translate(-162,-38) scale(1,1)"><path fill="none" stroke="#000000" d="M 315 614 L 407 580" stroke-miterlimit="10" stroke-dasharray="3"></path></g><g transform="translate(-162,-38) scale(1,1)"><path fill="none" stroke="#000000" d="M 398.92669681328414 587.4713971688944 L 407 580 L 396.00823696703503 579.5743881731615" stroke-miterlimit="10"></path></g><g transform="translate(-162,-38) scale(1,1)"><path fill="none" stroke="#000000" d="M 315 512 L 407 518" stroke-miterlimit="10" stroke-dasharray="3"></path></g><g transform="translate(-162,-38) scale(1,1)"><path fill="none" stroke="#000000" d="M 396.58491715197533 521.5392159115803 L 407 518 L 397.1328207203803 513.1380278627038" stroke-miterlimit="10"></path></g><g transform="translate(-162,-38) scale(1,1)"><path fill="none" stroke="#000000" d="M 305 338 L 407 416" stroke-miterlimit="10" stroke-dasharray="3"></path></g><g transform="translate(-162,-38) scale(1,1)"><path fill="none" stroke="#000000" d="M 396.37012760913274 413.1705454670771 L 407 416 L 401.48427163655896 406.4828186619813" stroke-miterlimit="10"></path></g><g transform="translate(-162,-38) scale(1,1)"><path fill="none" stroke="#000000" d="M 696 456 L 799 406" stroke-miterlimit="10"></path></g><g transform="translate(-162,-38) scale(1,1)"><path fill="none" stroke="#000000" d="M 692 253 L 799 294" stroke-miterlimit="10"></path></g><g transform="translate(-162,-38) scale(1,1)"><path fill="none" stroke="#000000" d="M 799 406 L 696 456" stroke-miterlimit="10"></path></g></g></svg>