<svg version="1.1" xmlns="http://www.w3.org/2000/svg" xmlns:xlink="http://www.w3.org/1999/xlink" width="755" height="651"><defs></defs><g><g transform="translate(-166,-22) scale(1,1)"><path fill="#C0C0C0" stroke="none" d="M 225 263 L 860 263 Q 870 263 870 273 L 870 412 Q 870 422 860 422 L 225 422 Q 215 422 215 412 L 215 273 Q 215 263 225 263 Z" opacity="0.2"></path></g><g transform="translate(-166,-22) scale(1,1)"><path fill="#d8ffeb" stroke="none" d="M 218 256 L 853 256 Q 863 256 863 266 L 863 405 Q 863 415 853 415 L 218 415 Q 208 415 208 405 L 208 266 Q 208 256 218 256 Z"></path></g><g transform="translate(-166,-22) scale(1,1)"><path fill="none" stroke="#000000" d="M 218 256 L 853 256 Q 863 256 863 266 L 863 405 Q 863 415 853 415 L 218 415 Q 208 415 208 405 L 208 266 Q 208 256 218 256 Z" stroke-miterlimit="10" stroke-dasharray="3"></path></g><g transform="translate(-166,-22) scale(1,1)"><g><path fill="none" stroke="none"></path><text fill="#000000" stroke="none" font-family="Arial" font-size="13px" font-style="normal" font-weight="normal" text-decoration="none" x="213" y="273.5">«structured»</text></g></g><g transform="translate(-166,-22) scale(1,1)"><g><path fill="none" stroke="none"></path><text fill="#000000" stroke="none" font-family="Arial" font-size="13px" font-style="normal" font-weight="bold" text-decoration="none" x="484" y="288.5">Reach the Marker</text></g></g><g transform="translate(-166,-22) scale(1,1)"><rect fill="#38bcff" stroke="none" x="176" y="32" width="295" height="21"></rect></g><g transform="translate(-166,-22) scale(1,1)"><path fill="none" stroke="#000000" d="M 176 32 L 471 32 L 471 53 L 176 53 L 176 32 Z Z" stroke-miterlimit="10" stroke-width="2"></path></g><g transform="translate(-166,-22) scale(1,1)"><path fill="none" stroke="#000000" d="M 176 447 L 176 32 L 471 32 L 471 447" stroke-miterlimit="10" stroke-width="2"></path></g><g transform="translate(-166,-22) scale(1,1)"><g><path fill="none" stroke="none"></path><text fill="#000000" stroke="none" font-family="Arial" font-size="13px" font-style="normal" font-weight="normal" text-decoration="none" x="294" y="49">Field User</text></g></g><g transform="translate(-166,-22) scale(1,1)"><rect fill="#ffadad" stroke="none" x="520" y="32" width="391" height="21"></rect></g><g transform="translate(-166,-22) scale(1,1)"><path fill="none" stroke="#000000" d="M 520 32 L 911 32 L 911 53 L 520 53 L 520 32 Z Z" stroke-miterlimit="10" stroke-width="2"></path></g><g transform="translate(-166,-22) scale(1,1)"><path fill="none" stroke="#000000" d="M 520 663 L 520 32 L 911 32 L 911 663" stroke-miterlimit="10" stroke-width="2"></path></g><g transform="translate(-166,-22) scale(1,1)"><g><path fill="none" stroke="none"></path><text fill="#000000" stroke="none" font-family="Arial" font-size="13px" font-style="normal" font-weight="normal" text-decoration="none" x="693" y="49">System</text></g></g><g transform="translate(-166,-22) scale(1,1)"><path fill="#C0C0C0" stroke="none" d="M 284 96.5 C 284 91.2532944 288.2532944 87 293.5 87 C 298.7467056 87 303 91.2532944 303 96.5 C 303 101.7467056 298.7467056 106 293.5 106 C 288.2532944 106 284 101.7467056 284 96.5 Z" opacity="0.2"></path></g><g transform="translate(-166,-22) scale(1,1)"><path fill="#000000" stroke="none" d="M 277 89.5 C 277 84.2532944 281.2532944 80 286.5 80 C 291.7467056 80 296 84.2532944 296 89.5 C 296 94.7467056 291.7467056 99 286.5 99 C 281.2532944 99 277 94.7467056 277 89.5 Z"></path></g><g transform="translate(-166,-22) scale(1,1)"><path fill="#C0C0C0" stroke="none" d="M 217 186 L 217 226 L 358.75 226 L 369 206.5 L 358.75 186" opacity="0.2"></path></g><g transform="translate(-166,-22) scale(1,1)"><path fill="#38bcff" stroke="none" d="M 210 179 L 210 219 L 351.75 219 L 362 199.5 L 351.75 179"></path></g><g transform="translate(-166,-22) scale(1,1)"><path fill="none" stroke="#000000" d="M 210 179 L 210 219 L 351.75 219 L 362 199.5 L 351.75 179 L 210 179" stroke-miterlimit="10"></path></g><g transform="translate(-166,-22) scale(1,1)"><g><path fill="none" stroke="none"></path><text fill="#000000" stroke="none" font-family="Arial" font-size="13px" font-style="normal" font-weight="bold" text-decoration="none" x="221" y="198.5">Enter Target Boundary</text></g></g><g transform="translate(-166,-22) scale(1,1)"><path fill="#C0C0C0" stroke="none" d="M 576 186 L 653 186 L 653 226 L 576 226 L 586.25 206.5" opacity="0.2"></path></g><g transform="translate(-166,-22) scale(1,1)"><path fill="#ffadad" stroke="none" d="M 569 179 L 646 179 L 646 219 L 569 219 L 579.25 199.5"></path></g><g transform="translate(-166,-22) scale(1,1)"><path fill="none" stroke="#000000" d="M 569 179 L 646 179 L 646 219 L 569 219 L 579.25 199.5 L 569 179" stroke-miterlimit="10"></path></g><g transform="translate(-166,-22) scale(1,1)"><g><path fill="none" stroke="none"></path><text fill="#000000" stroke="none" font-family="Arial" font-size="13px" font-style="normal" font-weight="bold" text-decoration="none" x="575.5" y="198.5">Notify User</text></g></g><g transform="translate(-166,-22) scale(1,1)"><path fill="none" stroke="#000000" d="M 363 199 L 568 199" stroke-miterlimit="10"></path></g><g transform="translate(-166,-22) scale(1,1)"><path fill="none" stroke="#000000" d="M 557.8373251423759 203.209517756016 L 568 199 L 557.8373251423758 194.790482243984" stroke-miterlimit="10"></path></g><g transform="translate(-166,-22) scale(1,1)"><path fill="#C0C0C0" stroke="none" d="M 595 538.5 L 606.5 529 L 617 538.5 L 606.5 547 L 595 538.5" opacity="0.2"></path></g><g transform="translate(-166,-22) scale(1,1)"><path fill="#38ff38" stroke="none" d="M 588 531 L 599 522 L 610 531 L 599 540 L 588 531"></path></g><g transform="translate(-166,-22) scale(1,1)"><path fill="none" stroke="#000000" d="M 588 531 L 599 522 L 610 531 L 599 540 L 588 531 L 588 531" stroke-miterlimit="10"></path></g><g transform="translate(-166,-22) scale(1,1)"><path fill="#C0C0C0" stroke="none" d="M 546 612 L 667 612 Q 677 612 677 622 L 677 657 Q 677 667 667 667 L 546 667 Q 536 667 536 657 L 536 622 Q 536 612 546 612 Z" opacity="0.2"></path></g><g transform="translate(-166,-22) scale(1,1)"><path fill="#ffadad" stroke="none" d="M 539 605 L 660 605 Q 670 605 670 615 L 670 650 Q 670 660 660 660 L 539 660 Q 529 660 529 650 L 529 615 Q 529 605 539 605 Z"></path></g><g transform="translate(-166,-22) scale(1,1)"><path fill="none" stroke="#000000" d="M 539 605 L 660 605 Q 670 605 670 615 L 670 650 Q 670 660 660 660 L 539 660 Q 529 660 529 650 L 529 615 Q 529 605 539 605 Z" stroke-miterlimit="10"></path></g><g transform="translate(-166,-22) scale(1,1)"><path fill="none" stroke="#000000" d="M 644 647 C 644 645.3431456 645.3431456 644 647 644 C 648.6568544 644 650 645.3431456 650 647 C 650 648.6568544 648.6568544 650 647 650 C 645.3431456 650 644 648.6568544 644 647 Z" stroke-miterlimit="10"></path></g><g transform="translate(-166,-22) scale(1,1)"><path fill="none" stroke="#000000" d="M 650 647 L 656 647" stroke-miterlimit="10"></path></g><g transform="translate(-166,-22) scale(1,1)"><path fill="none" stroke="#000000" d="M 656 647 C 656 645.3431456 657.3431456 644 659 644 C 660.6568544 644 662 645.3431456 662 647 C 662 648.6568544 660.6568544 650 659 650 C 657.3431456 650 656 648.6568544 656 647 Z" stroke-miterlimit="10"></path></g><g transform="translate(-166,-22) scale(1,1)"><g><path fill="none" stroke="none"></path><text fill="#000000" stroke="none" font-family="Arial" font-size="13px" font-style="normal" font-weight="bold" text-decoration="none" x="542" y="624.5">Initial:Identify Target</text></g></g><g transform="translate(-166,-22) scale(1,1)"><g><path fill="none" stroke="none"></path><text fill="#000000" stroke="none" font-family="Arial" font-size="13px" font-style="normal" font-weight="normal" text-decoration="none" x="540.5" y="639.5">(from Identify Target)</text></g></g><g transform="translate(-166,-22) scale(1,1)"><path fill="#C0C0C0" stroke="none" d="M 757 518 L 906 518 Q 916 518 916 528 L 916 548 Q 916 558 906 558 L 757 558 Q 747 558 747 548 L 747 528 Q 747 518 757 518 Z" opacity="0.2"></path></g><g transform="translate(-166,-22) scale(1,1)"><path fill="#ffadad" stroke="none" d="M 750 511 L 899 511 Q 909 511 909 521 L 909 541 Q 909 551 899 551 L 750 551 Q 740 551 740 541 L 740 521 Q 740 511 750 511 Z"></path></g><g transform="translate(-166,-22) scale(1,1)"><path fill="none" stroke="#000000" d="M 750 511 L 899 511 Q 909 511 909 521 L 909 541 Q 909 551 899 551 L 750 551 Q 740 551 740 541 L 740 521 Q 740 511 750 511 Z" stroke-miterlimit="10"></path></g><g transform="translate(-166,-22) scale(1,1)"><path fill="none" stroke="#000000" d="M 883 538 C 883 536.3431456 884.3431456 535 886 535 C 887.6568544 535 889 536.3431456 889 538 C 889 539.6568544 887.6568544 541 886 541 C 884.3431456 541 883 539.6568544 883 538 Z" stroke-miterlimit="10"></path></g><g transform="translate(-166,-22) scale(1,1)"><path fill="none" stroke="#000000" d="M 889 538 L 895 538" stroke-miterlimit="10"></path></g><g transform="translate(-166,-22) scale(1,1)"><path fill="none" stroke="#000000" d="M 895 538 C 895 536.3431456 896.3431456 535 898 535 C 899.6568544 535 901 536.3431456 901 538 C 901 539.6568544 899.6568544 541 898 541 C 896.3431456 541 895 539.6568544 895 538 Z" stroke-miterlimit="10"></path></g><g transform="translate(-166,-22) scale(1,1)"><g><path fill="none" stroke="none"></path><text fill="#000000" stroke="none" font-family="Arial" font-size="13px" font-style="normal" font-weight="bold" text-decoration="none" x="750.5" y="530.5">Fin:Finish Course Activity</text></g></g><g transform="translate(-166,-22) scale(1,1)"><path fill="none" stroke="#000000" d="M 611 531 L 739 531" stroke-miterlimit="10"></path></g><g transform="translate(-166,-22) scale(1,1)"><path fill="none" stroke="#000000" d="M 728.8373251423759 535.209517756016 L 739 531 L 728.8373251423758 526.790482243984" stroke-miterlimit="10"></path></g><g transform="translate(-166,-22) scale(1,1)"><g><path fill="none" stroke="none"></path><text fill="#000000" stroke="none" font-family="Arial" font-size="13px" font-style="normal" font-weight="normal" text-decoration="none" x="663.5" y="522.5">Yes</text></g></g><g transform="translate(-166,-22) scale(1,1)"><path fill="none" stroke="#000000" d="M 599 541 L 599 604" stroke-miterlimit="10"></path></g><g transform="translate(-166,-22) scale(1,1)"><path fill="none" stroke="#000000" d="M 594.790482243984 593.8373251423759 L 599 604 L 603.209517756016 593.8373251423759" stroke-miterlimit="10"></path></g><g transform="translate(-166,-22) scale(1,1)"><g><path fill="none" stroke="none"></path><text fill="#000000" stroke="none" font-family="Arial" font-size="13px" font-style="normal" font-weight="normal" text-decoration="none" x="604.5" y="577.5">No</text></g></g><g transform="translate(-166,-22) scale(1,1)"><path fill="#C0C0C0" stroke="none" d="M 619 335 L 785 335 Q 795 335 795 345 L 795 365 Q 795 375 785 375 L 619 375 Q 609 375 609 365 L 609 345 Q 609 335 619 335 Z" opacity="0.2"></path></g><g transform="translate(-166,-22) scale(1,1)"><path fill="#ffadad" stroke="none" d="M 612 328 L 778 328 Q 788 328 788 338 L 788 358 Q 788 368 778 368 L 612 368 Q 602 368 602 358 L 602 338 Q 602 328 612 328 Z"></path></g><g transform="translate(-166,-22) scale(1,1)"><path fill="none" stroke="#000000" d="M 612 328 L 778 328 Q 788 328 788 338 L 788 358 Q 788 368 778 368 L 612 368 Q 602 368 602 358 L 602 338 Q 602 328 612 328 Z" stroke-miterlimit="10"></path></g><g transform="translate(-166,-22) scale(1,1)"><g><path fill="none" stroke="none"></path><text fill="#000000" stroke="none" font-family="Arial" font-size="13px" font-style="normal" font-weight="bold" text-decoration="none" x="615.5" y="347.5">Decativate Target Boundary</text></g></g><g transform="translate(-166,-22) scale(1,1)"><path fill="#C0C0C0" stroke="none" d="M 299 335 L 463 335 Q 473 335 473 345 L 473 365 Q 473 375 463 375 L 299 375 Q 289 375 289 365 L 289 345 Q 289 335 299 335 Z" opacity="0.2"></path></g><g transform="translate(-166,-22) scale(1,1)"><path fill="#38bcff" stroke="none" d="M 292 328 L 456 328 Q 466 328 466 338 L 466 358 Q 466 368 456 368 L 292 368 Q 282 368 282 358 L 282 338 Q 282 328 292 328 Z"></path></g><g transform="translate(-166,-22) scale(1,1)"><path fill="none" stroke="#000000" d="M 292 328 L 456 328 Q 466 328 466 338 L 466 358 Q 466 368 456 368 L 292 368 Q 282 368 282 358 L 282 338 Q 282 328 292 328 Z" stroke-miterlimit="10"></path></g><g transform="translate(-166,-22) scale(1,1)"><g><path fill="none" stroke="none"></path><text fill="#000000" stroke="none" font-family="Arial" font-size="13px" font-style="normal" font-weight="bold" text-decoration="none" x="293.5" y="347.5">Check off Marker on Course</text></g></g><g transform="translate(-166,-22) scale(1,1)"><path fill="none" stroke="#000000" d="M 596 220 L 577 255" stroke-miterlimit="10"></path></g><g transform="translate(-166,-22) scale(1,1)"><path fill="none" stroke="#000000" d="M 578.1489803543816 244.06017165832822 L 577 255 L 585.5480786054462 248.07682499462047" stroke-miterlimit="10"></path></g><g transform="translate(-166,-22) scale(1,1)"><path fill="none" stroke="#000000" d="M 561 416 L 596 521" stroke-miterlimit="10"></path></g><g transform="translate(-166,-22) scale(1,1)"><path fill="none" stroke="#000000" d="M 588.7927808450386 512.6900064950472 L 596 521 L 596.7797792209975 510.02767370306094" stroke-miterlimit="10"></path></g><g transform="translate(-166,-22) scale(1,1)"><path fill="none" stroke="#000000" d="M 286 100 L 286 178" stroke-miterlimit="10"></path></g><g transform="translate(-166,-22) scale(1,1)"><path fill="none" stroke="#000000" d="M 281.790482243984 167.83732514237585 L 286 178 L 290.209517756016 167.83732514237585" stroke-miterlimit="10"></path></g><g transform="translate(-166,-22) scale(1,1)"><path fill="#fff5d8" stroke="none" d="M 384 528 L 442 528 L 452 538 L 452 655 L 384 655 L 384 528"></path></g><g transform="translate(-166,-22) scale(1,1)"><path fill="none" stroke="#000000" d="M 384 528 L 442 528 L 452 538 L 452 655 L 384 655 L 384 528 L 384 528" stroke-miterlimit="10"></path></g><g transform="translate(-166,-22) scale(1,1)"><path fill="none" stroke="#000000" d="M 442 528 L 442 538 L 452 538 L 442 528" stroke-miterlimit="10"></path></g><g transform="translate(-166,-22) scale(1,1)"><g><path fill="none" stroke="none"></path><text fill="#000000" stroke="none" font-family="Arial" font-size="13px" font-style="normal" font-weight="normal" text-decoration="none" x="389" y="546">Is this</text><text fill="#000000" stroke="none" font-family="Arial" font-size="13px" font-style="normal" font-weight="normal" text-decoration="none" x="389" y="559">home</text><text fill="#000000" stroke="none" font-family="Arial" font-size="13px" font-style="normal" font-weight="normal" text-decoration="none" x="389" y="572">base?</text><text fill="#000000" stroke="none" font-family="Arial" font-size="13px" font-style="normal" font-weight="normal" text-decoration="none" x="389" y="585">And have</text><text fill="#000000" stroke="none" font-family="Arial" font-size="13px" font-style="normal" font-weight="normal" text-decoration="none" x="389" y="598">all other</text><text fill="#000000" stroke="none" font-family="Arial" font-size="13px" font-style="normal" font-weight="normal" text-decoration="none" x="389" y="611">markers</text><text fill="#000000" stroke="none" font-family="Arial" font-size="13px" font-style="normal" font-weight="normal" text-decoration="none" x="389" y="624">been</text><text fill="#000000" stroke="none" font-family="Arial" font-size="13px" font-style="normal" font-weight="normal" text-decoration="none" x="389" y="637">found?</text></g></g><g transform="translate(-166,-22) scale(1,1)"><path fill="none" stroke="#000000" d="M 454 580 L 587 535" stroke-miterlimit="10" stroke-dasharray="3"></path></g></g></svg>