<svg version="1.1" xmlns="http://www.w3.org/2000/svg" xmlns:xlink="http://www.w3.org/1999/xlink" width="851" height="947"><defs></defs><g><g transform="translate(-86,-6) scale(1,1)"><rect fill="#38bcff" stroke="none" x="96" y="16" width="247" height="21"></rect></g><g transform="translate(-86,-6) scale(1,1)"><path fill="none" stroke="#000000" d="M 96 16 L 343 16 L 343 37 L 96 37 L 96 16 Z Z" stroke-miterlimit="10" stroke-width="2"></path></g><g transform="translate(-86,-6) scale(1,1)"><path fill="none" stroke="#000000" d="M 96 943 L 96 16 L 343 16 L 343 943" stroke-miterlimit="10" stroke-width="2"></path></g><g transform="translate(-86,-6) scale(1,1)"><g><path fill="none" stroke="none"></path><text fill="#000000" stroke="none" font-family="Arial" font-size="13px" font-style="normal" font-weight="normal" text-decoration="none" x="190" y="33">Field User</text></g></g><g transform="translate(-86,-6) scale(1,1)"><rect fill="#ffadad" stroke="none" x="360" y="16" width="567" height="21"></rect></g><g transform="translate(-86,-6) scale(1,1)"><path fill="none" stroke="#000000" d="M 360 16 L 927 16 L 927 37 L 360 37 L 360 16 Z Z" stroke-miterlimit="10" stroke-width="2"></path></g><g transform="translate(-86,-6) scale(1,1)"><path fill="none" stroke="#000000" d="M 360 935 L 360 16 L 927 16 L 927 935" stroke-miterlimit="10" stroke-width="2"></path></g><g transform="translate(-86,-6) scale(1,1)"><g><path fill="none" stroke="none"></path><text fill="#000000" stroke="none" font-family="Arial" font-size="13px" font-style="normal" font-weight="normal" text-decoration="none" x="621" y="33">System</text></g></g><g transform="translate(-86,-6) scale(1,1)"><path fill="#C0C0C0" stroke="none" d="M 153 375 L 300 375 Q 310 375 310 385 L 310 644 Q 310 654 300 654 L 153 654 Q 143 654 143 644 L 143 385 Q 143 375 153 375 Z" opacity="0.2"></path></g><g transform="translate(-86,-6) scale(1,1)"><path fill="#a3ffd1" stroke="none" d="M 146 368 L 293 368 Q 303 368 303 378 L 303 637 Q 303 647 293 647 L 146 647 Q 136 647 136 637 L 136 378 Q 136 368 146 368 Z"></path></g><g transform="translate(-86,-6) scale(1,1)"><path fill="none" stroke="#000000" d="M 146 368 L 293 368 Q 303 368 303 378 L 303 637 Q 303 647 293 647 L 146 647 Q 136 647 136 637 L 136 378 Q 136 368 146 368 Z" stroke-miterlimit="10" stroke-dasharray="3"></path></g><g transform="translate(-86,-6) scale(1,1)"><g><path fill="none" stroke="none"></path><text fill="#000000" stroke="none" font-family="Arial" font-size="13px" font-style="normal" font-weight="normal" text-decoration="none" x="141" y="385.5">«iterative»</text></g></g><g transform="translate(-86,-6) scale(1,1)"><g><path fill="none" stroke="none"></path><text fill="#000000" stroke="none" font-family="Arial" font-size="13px" font-style="normal" font-weight="bold" text-decoration="none" x="183.5" y="400.5">PenaltyLoop</text></g></g><g transform="translate(-86,-6) scale(1,1)"><path fill="#C0C0C0" stroke="none" d="M 429 263 L 872 263 Q 882 263 882 273 L 882 660 Q 882 670 872 670 L 429 670 Q 419 670 419 660 L 419 273 Q 419 263 429 263 Z" opacity="0.2"></path></g><g transform="translate(-86,-6) scale(1,1)"><path fill="#b6ff6d" stroke="none" d="M 422 256 L 865 256 Q 875 256 875 266 L 875 653 Q 875 663 865 663 L 422 663 Q 412 663 412 653 L 412 266 Q 412 256 422 256 Z"></path></g><g transform="translate(-86,-6) scale(1,1)"><path fill="none" stroke="#000000" d="M 422 256 L 865 256 Q 875 256 875 266 L 875 653 Q 875 663 865 663 L 422 663 Q 412 663 412 653 L 412 266 Q 412 256 422 256 Z" stroke-miterlimit="10" stroke-dasharray="3"></path></g><g transform="translate(-86,-6) scale(1,1)"><g><path fill="none" stroke="none"></path><text fill="#000000" stroke="none" font-family="Arial" font-size="13px" font-style="normal" font-weight="normal" text-decoration="none" x="417" y="273.5">«structured»</text></g></g><g transform="translate(-86,-6) scale(1,1)"><g><path fill="none" stroke="none"></path><text fill="#000000" stroke="none" font-family="Arial" font-size="13px" font-style="normal" font-weight="bold" text-decoration="none" x="595" y="288.5">Location Bearing</text></g></g><g transform="translate(-86,-6) scale(1,1)"><path fill="#C0C0C0" stroke="none" d="M 641 64.5 C 641 59.2532944 645.2532944 55 650.5 55 C 655.7467056 55 660 59.2532944 660 64.5 C 660 69.7467056 655.7467056 74 650.5 74 C 645.2532944 74 641 69.7467056 641 64.5 Z" opacity="0.2"></path></g><g transform="translate(-86,-6) scale(1,1)"><path fill="#000000" stroke="none" d="M 634 57.5 C 634 52.2532944 638.2532944 48 643.5 48 C 648.7467056 48 653 52.2532944 653 57.5 C 653 62.7467056 648.7467056 67 643.5 67 C 638.2532944 67 634 62.7467056 634 57.5 Z"></path></g><g transform="translate(-86,-6) scale(1,1)"><path fill="#C0C0C0" stroke="none" d="M 558 327 L 743 327 Q 753 327 753 337 L 753 357 Q 753 367 743 367 L 558 367 Q 548 367 548 357 L 548 337 Q 548 327 558 327 Z" opacity="0.2"></path></g><g transform="translate(-86,-6) scale(1,1)"><path fill="#ffadad" stroke="none" d="M 551 320 L 736 320 Q 746 320 746 330 L 746 350 Q 746 360 736 360 L 551 360 Q 541 360 541 350 L 541 330 Q 541 320 551 320 Z"></path></g><g transform="translate(-86,-6) scale(1,1)"><path fill="none" stroke="#000000" d="M 551 320 L 736 320 Q 746 320 746 330 L 746 350 Q 746 360 736 360 L 551 360 Q 541 360 541 350 L 541 330 Q 541 320 551 320 Z" stroke-miterlimit="10"></path></g><g transform="translate(-86,-6) scale(1,1)"><g><path fill="none" stroke="none"></path><text fill="#000000" stroke="none" font-family="Arial" font-size="13px" font-style="normal" font-weight="bold" text-decoration="none" x="554.5" y="339.5">Get Current Location_Direction</text></g></g><g transform="translate(-86,-6) scale(1,1)"><path fill="#C0C0C0" stroke="none" d="M 606 423 L 694 423 Q 704 423 704 433 L 704 453 Q 704 463 694 463 L 606 463 Q 596 463 596 453 L 596 433 Q 596 423 606 423 Z" opacity="0.2"></path></g><g transform="translate(-86,-6) scale(1,1)"><path fill="#ffadad" stroke="none" d="M 599 416 L 687 416 Q 697 416 697 426 L 697 446 Q 697 456 687 456 L 599 456 Q 589 456 589 446 L 589 426 Q 589 416 599 416 Z"></path></g><g transform="translate(-86,-6) scale(1,1)"><path fill="none" stroke="#000000" d="M 599 416 L 687 416 Q 697 416 697 426 L 697 446 Q 697 456 687 456 L 599 456 Q 589 456 589 446 L 589 426 Q 589 416 599 416 Z" stroke-miterlimit="10"></path></g><g transform="translate(-86,-6) scale(1,1)"><g><path fill="none" stroke="none"></path><text fill="#000000" stroke="none" font-family="Arial" font-size="13px" font-style="normal" font-weight="bold" text-decoration="none" x="597" y="435.5">Get User Target</text></g></g><g transform="translate(-86,-6) scale(1,1)"><path fill="#C0C0C0" stroke="none" d="M 565 519 L 736 519 Q 746 519 746 529 L 746 549 Q 746 559 736 559 L 565 559 Q 555 559 555 549 L 555 529 Q 555 519 565 519 Z" opacity="0.2"></path></g><g transform="translate(-86,-6) scale(1,1)"><path fill="#ffadad" stroke="none" d="M 558 512 L 729 512 Q 739 512 739 522 L 739 542 Q 739 552 729 552 L 558 552 Q 548 552 548 542 L 548 522 Q 548 512 558 512 Z"></path></g><g transform="translate(-86,-6) scale(1,1)"><path fill="none" stroke="#000000" d="M 558 512 L 729 512 Q 739 512 739 522 L 739 542 Q 739 552 729 552 L 558 552 Q 548 552 548 542 L 548 522 Q 548 512 558 512 Z" stroke-miterlimit="10"></path></g><g transform="translate(-86,-6) scale(1,1)"><g><path fill="none" stroke="none"></path><text fill="#000000" stroke="none" font-family="Arial" font-size="13px" font-style="normal" font-weight="bold" text-decoration="none" x="560" y="531.5">Calcluate Direction_Distance</text></g></g><g transform="translate(-86,-6) scale(1,1)"><path fill="#C0C0C0" stroke="none" d="M 580 615 L 721 615 Q 731 615 731 625 L 731 645 Q 731 655 721 655 L 580 655 Q 570 655 570 645 L 570 625 Q 570 615 580 615 Z" opacity="0.2"></path></g><g transform="translate(-86,-6) scale(1,1)"><path fill="#ffadad" stroke="none" d="M 573 608 L 714 608 Q 724 608 724 618 L 724 638 Q 724 648 714 648 L 573 648 Q 563 648 563 638 L 563 618 Q 563 608 573 608 Z"></path></g><g transform="translate(-86,-6) scale(1,1)"><path fill="none" stroke="#000000" d="M 573 608 L 714 608 Q 724 608 724 618 L 724 638 Q 724 648 714 648 L 573 648 Q 563 648 563 638 L 563 618 Q 563 608 573 608 Z" stroke-miterlimit="10"></path></g><g transform="translate(-86,-6) scale(1,1)"><g><path fill="none" stroke="none"></path><text fill="#000000" stroke="none" font-family="Arial" font-size="13px" font-style="normal" font-weight="bold" text-decoration="none" x="574.5" y="627.5">Display Target Direction</text></g></g><g transform="translate(-86,-6) scale(1,1)"><path fill="#ffffff" stroke="none" d="M 208 424 L 231 424 L 208 447 L 231 447 L 208 424"></path></g><g transform="translate(-86,-6) scale(1,1)"><path fill="none" stroke="#000000" d="M 208 424 L 231 424 L 208 447 L 231 447 L 208 424 L 208 424" stroke-miterlimit="10"></path></g><g transform="translate(-86,-6) scale(1,1)"><g><path fill="none" stroke="none"></path><text fill="#000000" stroke="none" font-family="Arial" font-size="13px" font-style="normal" font-weight="bold" text-decoration="none" x="168" y="466.5">Every 30 seconds</text></g></g><g transform="translate(-86,-6) scale(1,1)"><path fill="#C0C0C0" stroke="none" d="M 190 567 L 263 567 Q 273 567 273 577 L 273 597 Q 273 607 263 607 L 190 607 Q 180 607 180 597 L 180 577 Q 180 567 190 567 Z" opacity="0.2"></path></g><g transform="translate(-86,-6) scale(1,1)"><path fill="#38bcff" stroke="none" d="M 183 560 L 256 560 Q 266 560 266 570 L 266 590 Q 266 600 256 600 L 183 600 Q 173 600 173 590 L 173 570 Q 173 560 183 560 Z"></path></g><g transform="translate(-86,-6) scale(1,1)"><path fill="none" stroke="#000000" d="M 183 560 L 256 560 Q 266 560 266 570 L 266 590 Q 266 600 256 600 L 183 600 Q 173 600 173 590 L 173 570 Q 173 560 183 560 Z" stroke-miterlimit="10"></path></g><g transform="translate(-86,-6) scale(1,1)"><g><path fill="none" stroke="none"></path><text fill="#000000" stroke="none" font-family="Arial" font-size="13px" font-style="normal" font-weight="bold" text-decoration="none" x="181.5" y="579.5">Time Penalty</text></g></g><g transform="translate(-86,-6) scale(1,1)"><path fill="#C0C0C0" stroke="none" d="M 203 823 L 249 823 Q 259 823 259 833 L 259 853 Q 259 863 249 863 L 203 863 Q 193 863 193 853 L 193 833 Q 193 823 203 823 Z" opacity="0.2"></path></g><g transform="translate(-86,-6) scale(1,1)"><path fill="#38bcff" stroke="none" d="M 196 816 L 242 816 Q 252 816 252 826 L 252 846 Q 252 856 242 856 L 196 856 Q 186 856 186 846 L 186 826 Q 186 816 196 816 Z"></path></g><g transform="translate(-86,-6) scale(1,1)"><path fill="none" stroke="#000000" d="M 196 816 L 242 816 Q 252 816 252 826 L 252 846 Q 252 856 242 856 L 196 856 Q 186 856 186 846 L 186 826 Q 186 816 196 816 Z" stroke-miterlimit="10"></path></g><g transform="translate(-86,-6) scale(1,1)"><g><path fill="none" stroke="none"></path><text fill="#000000" stroke="none" font-family="Arial" font-size="13px" font-style="normal" font-weight="bold" text-decoration="none" x="192.5" y="835.5">Exit Help</text></g></g><g transform="translate(-86,-6) scale(1,1)"><path fill="#C0C0C0" stroke="none" d="M 214 923.5 C 214 916.59644 219.59644 911 226.5 911 C 233.40356 911 239 916.59644 239 923.5 C 239 930.40356 233.40356 936 226.5 936 C 219.59644 936 214 930.40356 214 923.5 Z" opacity="0.2"></path></g><g transform="translate(-86,-6) scale(1,1)"><path fill="#ffffff" stroke="none" d="M 207 916.5 C 207 909.59644 212.59644 904 219.5 904 C 226.40356 904 232 909.59644 232 916.5 C 232 923.40356 226.40356 929 219.5 929 C 212.59644 929 207 923.40356 207 916.5 Z"></path></g><g transform="translate(-86,-6) scale(1,1)"><path fill="none" stroke="#000000" d="M 207 916.5 C 207 909.59644 212.59644 904 219.5 904 C 226.40356 904 232 909.59644 232 916.5 C 232 923.40356 226.40356 929 219.5 929 C 212.59644 929 207 923.40356 207 916.5 Z" stroke-miterlimit="10"></path></g><g transform="translate(-86,-6) scale(1,1)"><path fill="none" stroke="#000000" d="M 210 907 L 228 925" stroke-miterlimit="10"></path></g><g transform="translate(-86,-6) scale(1,1)"><path fill="none" stroke="#000000" d="M 228 907 L 210 925" stroke-miterlimit="10"></path></g><g transform="translate(-86,-6) scale(1,1)"><path fill="none" stroke="#000000" d="M 643 102 L 643 255" stroke-miterlimit="10"></path></g><g transform="translate(-86,-6) scale(1,1)"><path fill="none" stroke="#000000" d="M 638.790482243984 244.83732514237585 L 643 255 L 647.209517756016 244.83732514237585" stroke-miterlimit="10"></path></g><g transform="translate(-86,-6) scale(1,1)"><path fill="none" stroke="#000000" d="M 643 361 L 643 415" stroke-miterlimit="10"></path></g><g transform="translate(-86,-6) scale(1,1)"><path fill="none" stroke="#000000" d="M 638.790482243984 404.83732514237585 L 643 415 L 647.209517756016 404.83732514237585" stroke-miterlimit="10"></path></g><g transform="translate(-86,-6) scale(1,1)"><path fill="none" stroke="#000000" d="M 643 457 L 643 511" stroke-miterlimit="10"></path></g><g transform="translate(-86,-6) scale(1,1)"><path fill="none" stroke="#000000" d="M 638.790482243984 500.83732514237585 L 643 511 L 647.209517756016 500.83732514237585" stroke-miterlimit="10"></path></g><g transform="translate(-86,-6) scale(1,1)"><path fill="none" stroke="#000000" d="M 643 553 L 643 607" stroke-miterlimit="10"></path></g><g transform="translate(-86,-6) scale(1,1)"><path fill="none" stroke="#000000" d="M 638.790482243984 596.8373251423759 L 643 607 L 647.209517756016 596.8373251423759" stroke-miterlimit="10"></path></g><g transform="translate(-86,-6) scale(1,1)"><path fill="#C0C0C0" stroke="none" d="M 619 103 L 682 103 Q 685 103 685 106 L 685 105 Q 685 108 682 108 L 619 108 Q 616 108 616 105 L 616 106 Q 616 103 619 103 Z" opacity="0.2"></path></g><g transform="translate(-86,-6) scale(1,1)"><path fill="#000000" stroke="none" d="M 612 96 L 675 96 Q 678 96 678 99 L 678 99 Q 678 102 675 102 L 612 102 Q 609 102 609 99 L 609 99 Q 609 96 612 96 Z"></path></g><g transform="translate(-86,-6) scale(1,1)"><path fill="none" stroke="#000000" d="M 643 68 L 643 95" stroke-miterlimit="10"></path></g><g transform="translate(-86,-6) scale(1,1)"><path fill="none" stroke="#000000" d="M 638.790482243984 84.83732514237585 L 643 95 L 647.209517756016 84.83732514237585" stroke-miterlimit="10"></path></g><g transform="translate(-86,-6) scale(1,1)"><path fill="none" stroke="#000000" d="M 243 815 L 412 664" stroke-miterlimit="10"></path></g><g transform="translate(-86,-6) scale(1,1)"><path fill="none" stroke="#000000" d="M 407.2263778383448 673.9102235826319 L 412 664 L 401.6169531003173 667.632125697025" stroke-miterlimit="10"></path></g><g transform="translate(-86,-6) scale(1,1)"><path fill="none" stroke="#000000" d="M 301 714 L 325 714" stroke-miterlimit="10"></path></g><g transform="translate(-86,-6) scale(1,1)"><path fill="none" stroke="#000000" d="M 325 714 L 301 728" stroke-miterlimit="10"></path></g><g transform="translate(-86,-6) scale(1,1)"><path fill="none" stroke="#000000" d="M 301 728 L 325 728" stroke-miterlimit="10"></path></g><g transform="translate(-86,-6) scale(1,1)"><path fill="none" stroke="#000000" d="M 325 728 L 320 733" stroke-miterlimit="10"></path></g><g transform="translate(-86,-6) scale(1,1)"><path fill="none" stroke="#000000" d="M 325 728 L 320 723" stroke-miterlimit="10"></path></g><g transform="translate(-86,-6) scale(1,1)"><path fill="none" stroke="#000000" d="M 219 473 L 219 559" stroke-miterlimit="10"></path></g><g transform="translate(-86,-6) scale(1,1)"><path fill="none" stroke="#000000" d="M 214.790482243984 548.8373251423759 L 219 559 L 223.209517756016 548.8373251423759" stroke-miterlimit="10"></path></g><g transform="translate(-86,-6) scale(1,1)"><path fill="none" stroke="#000000" d="M 608 98 L 216 96 L 218 367" stroke-miterlimit="10"></path></g><g transform="translate(-86,-6) scale(1,1)"><path fill="none" stroke="#000000" d="M 213.71559762796895 356.86866759431246 L 218 367 L 222.1344038759218 356.8065361828884" stroke-miterlimit="10"></path></g><g transform="translate(-86,-6) scale(1,1)"><path fill="none" stroke="#000000" d="M 219 857 L 219 903" stroke-miterlimit="10"></path></g><g transform="translate(-86,-6) scale(1,1)"><path fill="none" stroke="#000000" d="M 214.790482243984 892.8373251423759 L 219 903 L 223.209517756016 892.8373251423759" stroke-miterlimit="10"></path></g><g transform="translate(-86,-6) scale(1,1)"><path fill="none" stroke="#000000" d="M 219 815 L 219 648" stroke-miterlimit="10"></path></g><g transform="translate(-86,-6) scale(1,1)"><path fill="none" stroke="#000000" d="M 223.209517756016 658.1626748576241 L 219 648 L 214.790482243984 658.1626748576241" stroke-miterlimit="10"></path></g><g transform="translate(-86,-6) scale(1,1)"><path fill="none" stroke="#000000" d="M 187 720 L 211 720" stroke-miterlimit="10"></path></g><g transform="translate(-86,-6) scale(1,1)"><path fill="none" stroke="#000000" d="M 211 720 L 187 734" stroke-miterlimit="10"></path></g><g transform="translate(-86,-6) scale(1,1)"><path fill="none" stroke="#000000" d="M 187 734 L 211 734" stroke-miterlimit="10"></path></g><g transform="translate(-86,-6) scale(1,1)"><path fill="none" stroke="#000000" d="M 211 734 L 206 739" stroke-miterlimit="10"></path></g><g transform="translate(-86,-6) scale(1,1)"><path fill="none" stroke="#000000" d="M 211 734 L 206 729" stroke-miterlimit="10"></path></g></g></svg>