<svg version="1.1" xmlns="http://www.w3.org/2000/svg" xmlns:xlink="http://www.w3.org/1999/xlink" width="623" height="372"><defs></defs><g><g transform="translate(-266,-55) scale(1,1)"><path fill="#C0C0C0" stroke="none" d="M 344 104.5 C 344 99.2532944 348.2532944 95 353.5 95 C 358.7467056 95 363 99.2532944 363 104.5 C 363 109.7467056 358.7467056 114 353.5 114 C 348.2532944 114 344 109.7467056 344 104.5 Z" opacity="0.2"></path></g><g transform="translate(-266,-55) scale(1,1)"><path fill="#000000" stroke="none" d="M 337 97.5 C 337 92.2532944 341.2532944 88 346.5 88 C 351.7467056 88 356 92.2532944 356 97.5 C 356 102.7467056 351.7467056 107 346.5 107 C 341.2532944 107 337 102.7467056 337 97.5 Z"></path></g><g transform="translate(-266,-55) scale(1,1)"><path fill="#C0C0C0" stroke="none" d="M 559 152 L 694 152 Q 704 152 704 162 L 704 182 Q 704 192 694 192 L 559 192 Q 549 192 549 182 L 549 162 Q 549 152 559 152 Z" opacity="0.2"></path></g><g transform="translate(-266,-55) scale(1,1)"><path fill="#ffa3ff" stroke="none" d="M 552 145 L 687 145 Q 697 145 697 155 L 697 175 Q 697 185 687 185 L 552 185 Q 542 185 542 175 L 542 155 Q 542 145 552 145 Z"></path></g><g transform="translate(-266,-55) scale(1,1)"><path fill="none" stroke="#000000" d="M 552 145 L 687 145 Q 697 145 697 155 L 697 175 Q 697 185 687 185 L 552 185 Q 542 185 542 175 L 542 155 Q 542 145 552 145 Z" stroke-miterlimit="10"></path></g><g transform="translate(-266,-55) scale(1,1)"><g><path fill="none" stroke="none"></path><text fill="#000000" stroke="none" font-family="Arial" font-size="13px" font-style="normal" font-weight="bold" text-decoration="none" x="572.5" y="164.5">Update Location</text></g></g><g transform="translate(-266,-55) scale(1,1)"><path fill="#C0C0C0" stroke="none" d="M 300 272 L 406 272 Q 416 272 416 282 L 416 302 Q 416 312 406 312 L 300 312 Q 290 312 290 302 L 290 282 Q 290 272 300 272 Z" opacity="0.2"></path></g><g transform="translate(-266,-55) scale(1,1)"><path fill="#38bcff" stroke="none" d="M 293 265 L 399 265 Q 409 265 409 275 L 409 295 Q 409 305 399 305 L 293 305 Q 283 305 283 295 L 283 275 Q 283 265 293 265 Z"></path></g><g transform="translate(-266,-55) scale(1,1)"><path fill="none" stroke="#000000" d="M 293 265 L 399 265 Q 409 265 409 275 L 409 295 Q 409 305 399 305 L 293 305 Q 283 305 283 295 L 283 275 Q 283 265 293 265 Z" stroke-miterlimit="10"></path></g><g transform="translate(-266,-55) scale(1,1)"><g><path fill="none" stroke="none"></path><text fill="#000000" stroke="none" font-family="Arial" font-size="13px" font-style="normal" font-weight="bold" text-decoration="none" x="293" y="284.5">Initiate Set Marker</text></g></g><g transform="translate(-266,-55) scale(1,1)"><path fill="#C0C0C0" stroke="none" d="M 304 152 L 402 152 Q 412 152 412 162 L 412 182 Q 412 192 402 192 L 304 192 Q 294 192 294 182 L 294 162 Q 294 152 304 152 Z" opacity="0.2"></path></g><g transform="translate(-266,-55) scale(1,1)"><path fill="#38bcff" stroke="none" d="M 297 145 L 395 145 Q 405 145 405 155 L 405 175 Q 405 185 395 185 L 297 185 Q 287 185 287 175 L 287 155 Q 287 145 297 145 Z"></path></g><g transform="translate(-266,-55) scale(1,1)"><path fill="none" stroke="#000000" d="M 297 145 L 395 145 Q 405 145 405 155 L 405 175 Q 405 185 395 185 L 297 185 Q 287 185 287 175 L 287 155 Q 287 145 297 145 Z" stroke-miterlimit="10"></path></g><g transform="translate(-266,-55) scale(1,1)"><g><path fill="none" stroke="none"></path><text fill="#000000" stroke="none" font-family="Arial" font-size="13px" font-style="normal" font-weight="bold" text-decoration="none" x="297" y="164.5">Move to Location</text></g></g><g transform="translate(-266,-55) scale(1,1)"><path fill="#C0C0C0" stroke="none" d="M 559 272 L 694 272 Q 704 272 704 282 L 704 302 Q 704 312 694 312 L 559 312 Q 549 312 549 302 L 549 282 Q 549 272 559 272 Z" opacity="0.2"></path></g><g transform="translate(-266,-55) scale(1,1)"><path fill="#ffa3ff" stroke="none" d="M 552 265 L 687 265 Q 697 265 697 275 L 697 295 Q 697 305 687 305 L 552 305 Q 542 305 542 295 L 542 275 Q 542 265 552 265 Z"></path></g><g transform="translate(-266,-55) scale(1,1)"><path fill="none" stroke="#000000" d="M 552 265 L 687 265 Q 697 265 697 275 L 697 295 Q 697 305 687 305 L 552 305 Q 542 305 542 295 L 542 275 Q 542 265 552 265 Z" stroke-miterlimit="10"></path></g><g transform="translate(-266,-55) scale(1,1)"><g><path fill="none" stroke="none"></path><text fill="#000000" stroke="none" font-family="Arial" font-size="13px" font-style="normal" font-weight="bold" text-decoration="none" x="553" y="284.5">Receive Marker Details</text></g></g><g transform="translate(-266,-55) scale(1,1)"><rect fill="#C0C0C0" stroke="none" x="769" y="274" width="107" height="37" opacity="0.2"></rect></g><g transform="translate(-266,-55) scale(1,1)"><rect fill="#ffadad" stroke="none" x="762" y="267" width="107" height="37"></rect></g><g transform="translate(-266,-55) scale(1,1)"><path fill="none" stroke="#000000" d="M 762 267 L 869 267 L 869 304 L 762 304 L 762 267 Z Z" stroke-miterlimit="10"></path></g><g transform="translate(-266,-55) scale(1,1)"><rect fill="#ffadad" stroke="none" x="762" y="267" width="107" height="37"></rect></g><g transform="translate(-266,-55) scale(1,1)"><path fill="none" stroke="#000000" d="M 762 267 L 869 267 L 869 304 L 762 304 L 762 267 Z Z" stroke-miterlimit="10"></path></g><g transform="translate(-266,-55) scale(1,1)"><g><path fill="none" stroke="none"></path><text fill="#000000" stroke="none" font-family="Arial" font-size="13px" font-style="normal" font-weight="normal" text-decoration="none" x="781.5" y="284.5">«datastore»</text></g></g><g transform="translate(-266,-55) scale(1,1)"><g><path fill="none" stroke="none"></path><text fill="#000000" stroke="none" font-family="Arial" font-size="13px" font-style="normal" font-weight="bold" text-decoration="none" x="771" y="299.5">Marker Storage</text></g></g><g transform="translate(-266,-55) scale(1,1)"><path fill="#C0C0C0" stroke="none" d="M 614 411.5 C 614 404.59644 619.59644 399 626.5 399 C 633.40356 399 639 404.59644 639 411.5 C 639 418.40356 633.40356 424 626.5 424 C 619.59644 424 614 418.40356 614 411.5 Z" opacity="0.2"></path></g><g transform="translate(-266,-55) scale(1,1)"><path fill="none" stroke="#000000" d="M 607 404.5 C 607 397.59644 612.59644 392 619.5 392 C 626.40356 392 632 397.59644 632 404.5 C 632 411.40356 626.40356 417 619.5 417 C 612.59644 417 607 411.40356 607 404.5 Z" stroke-miterlimit="10"></path></g><g transform="translate(-266,-55) scale(1,1)"><path fill="#000000" stroke="none" d="M 612 404.5 C 612 400.357864 615.357864 397 619.5 397 C 623.642136 397 627 400.357864 627 404.5 C 627 408.642136 623.642136 412 619.5 412 C 615.357864 412 612 408.642136 612 404.5 Z"></path></g><g transform="translate(-266,-55) scale(1,1)"><path fill="none" stroke="#000000" d="M 406 165 L 541 165" stroke-miterlimit="10"></path></g><g transform="translate(-266,-55) scale(1,1)"><path fill="none" stroke="#000000" d="M 530.8373251423759 169.209517756016 L 541 165 L 530.8373251423758 160.790482243984" stroke-miterlimit="10"></path></g><g transform="translate(-266,-55) scale(1,1)"><g><path fill="none" stroke="none"></path><text fill="#000000" stroke="none" font-family="Arial" font-size="13px" font-style="normal" font-weight="normal" text-decoration="none" x="452.5" y="156.5">Update</text></g></g><g transform="translate(-266,-55) scale(1,1)"><path fill="none" stroke="#000000" d="M 346 108 L 346 144" stroke-miterlimit="10"></path></g><g transform="translate(-266,-55) scale(1,1)"><path fill="none" stroke="#000000" d="M 341.790482243984 133.83732514237585 L 346 144 L 350.209517756016 133.83732514237585" stroke-miterlimit="10"></path></g><g transform="translate(-266,-55) scale(1,1)"><path fill="none" stroke="#000000" d="M 410 285 L 541 285" stroke-miterlimit="10"></path></g><g transform="translate(-266,-55) scale(1,1)"><path fill="none" stroke="#000000" d="M 530.8373251423759 289.209517756016 L 541 285 L 530.8373251423758 280.790482243984" stroke-miterlimit="10"></path></g><g transform="translate(-266,-55) scale(1,1)"><g><path fill="none" stroke="none"></path><text fill="#000000" stroke="none" font-family="Arial" font-size="13px" font-style="normal" font-weight="normal" text-decoration="none" x="442.5" y="276.5">Get Details</text></g></g><g transform="translate(-266,-55) scale(1,1)"><path fill="none" stroke="#000000" d="M 698 285 L 761 285" stroke-miterlimit="10"></path></g><g transform="translate(-266,-55) scale(1,1)"><path fill="none" stroke="#000000" d="M 750.8373251423759 289.209517756016 L 761 285 L 750.8373251423758 280.790482243984" stroke-miterlimit="10"></path></g><g transform="translate(-266,-55) scale(1,1)"><g><path fill="none" stroke="none"></path><text fill="#000000" stroke="none" font-family="Arial" font-size="13px" font-style="normal" font-weight="normal" text-decoration="none" x="713.5" y="276.5">Send</text></g></g><g transform="translate(-266,-55) scale(1,1)"><path fill="none" stroke="#000000" d="M 619 306 L 619 391" stroke-miterlimit="10"></path></g><g transform="translate(-266,-55) scale(1,1)"><path fill="none" stroke="#000000" d="M 614.790482243984 380.83732514237585 L 619 391 L 623.209517756016 380.83732514237585" stroke-miterlimit="10"></path></g><g transform="translate(-266,-55) scale(1,1)"><path fill="none" stroke="#000000" d="M 346 186 L 346 264" stroke-miterlimit="10"></path></g><g transform="translate(-266,-55) scale(1,1)"><path fill="none" stroke="#000000" d="M 341.790482243984 253.83732514237585 L 346 264 L 350.209517756016 253.83732514237585" stroke-miterlimit="10"></path></g><g transform="translate(-266,-55) scale(1,1)"><rect fill="#38bcff" stroke="none" x="276" y="65" width="141" height="21"></rect></g><g transform="translate(-266,-55) scale(1,1)"><path fill="none" stroke="#000000" d="M 276 65 L 417 65 L 417 86 L 276 86 L 276 65 Z Z" stroke-miterlimit="10" stroke-width="2"></path></g><g transform="translate(-266,-55) scale(1,1)"><path fill="none" stroke="#000000" d="M 276 364 L 276 65 L 417 65 L 417 364" stroke-miterlimit="10" stroke-width="2"></path></g><g transform="translate(-266,-55) scale(1,1)"><g><path fill="none" stroke="none"></path><text fill="#000000" stroke="none" font-family="Arial" font-size="13px" font-style="normal" font-weight="normal" text-decoration="none" x="285.5" y="82">Course Administrator</text></g></g><g transform="translate(-266,-55) scale(1,1)"><rect fill="#ff8282" stroke="none" x="530" y="67" width="349" height="21"></rect></g><g transform="translate(-266,-55) scale(1,1)"><path fill="none" stroke="#000000" d="M 530 67 L 879 67 L 879 88 L 530 88 L 530 67 Z Z" stroke-miterlimit="10" stroke-width="2"></path></g><g transform="translate(-266,-55) scale(1,1)"><path fill="none" stroke="#000000" d="M 530 366 L 530 67 L 879 67 L 879 366" stroke-miterlimit="10" stroke-width="2"></path></g><g transform="translate(-266,-55) scale(1,1)"><g><path fill="none" stroke="none"></path><text fill="#000000" stroke="none" font-family="Arial" font-size="13px" font-style="normal" font-weight="normal" text-decoration="none" x="539.5" y="84">System                                                            Storage</text></g></g></g></svg>