<svg version="1.1" xmlns="http://www.w3.org/2000/svg" xmlns:xlink="http://www.w3.org/1999/xlink" width="602" height="361"><defs></defs><g><g transform="translate(6,-287) scale(1,1)"><rect fill="#C0C0C0" stroke="none" x="11" y="304" width="228" height="175" opacity="0.2"></rect></g><g transform="translate(6,-287) scale(1,1)"><rect fill="#ffffff" stroke="none" x="4" y="297" width="228" height="175"></rect></g><g transform="translate(6,-287) scale(1,1)"><path fill="none" stroke="#000000" d="M 4 297 L 232 297 L 232 472 L 4 472 L 4 297 Z Z" stroke-miterlimit="10"></path></g><g transform="translate(6,-287) scale(1,1)"><path fill="none" stroke="#000000" d="M 4 322 L 232 322" stroke-miterlimit="10"></path></g><g transform="translate(6,-287) scale(1,1)"><path fill="none" stroke="#000000" d="M 4 405 L 232 405" stroke-miterlimit="10"></path></g><g transform="translate(6,-287) scale(1,1)"><g><path fill="none" stroke="none"></path><text fill="#000000" stroke="none" font-family="Arial" font-size="13px" font-style="normal" font-weight="bold" text-decoration="none" x="104.5" y="316.5">User</text></g></g><g transform="translate(6,-287) scale(1,1)"><g><path fill="none" stroke="none"></path><text fill="#000000" stroke="none" font-family="Arial" font-size="13px" font-style="normal" font-weight="normal" text-decoration="none" x="9" y="339.5">-location: Location[*]</text></g></g><g transform="translate(6,-287) scale(1,1)"><g><path fill="none" stroke="none"></path><text fill="#000000" stroke="none" font-family="Arial" font-size="13px" font-style="normal" font-weight="normal" text-decoration="none" x="9" y="354.5">«Course»-currentCourse: Course[0..1]</text></g></g><g transform="translate(6,-287) scale(1,1)"><g><path fill="none" stroke="none"></path><text fill="#000000" stroke="none" font-family="Arial" font-size="13px" font-style="normal" font-weight="normal" text-decoration="none" x="9" y="369.5">-firstName[1]</text><path fill="none" stroke="#000000" d="M 9 369.5 L 83 369.5" stroke-miterlimit="10"></path></g></g><g transform="translate(6,-287) scale(1,1)"><g><path fill="none" stroke="none"></path><text fill="#000000" stroke="none" font-family="Arial" font-size="13px" font-style="normal" font-weight="normal" text-decoration="none" x="9" y="384.5">-age: int</text></g></g><g transform="translate(6,-287) scale(1,1)"><g><path fill="none" stroke="none"></path><text fill="#000000" stroke="none" font-family="Arial" font-size="13px" font-style="normal" font-weight="normal" text-decoration="none" x="9" y="399.5">-targetMarker: Marker[0..1]</text></g></g><g transform="translate(6,-287) scale(1,1)"><g><path fill="none" stroke="none"></path><text fill="#000000" stroke="none" font-family="Arial" font-size="13px" font-style="normal" font-weight="normal" text-decoration="none" x="9" y="422.5">+getCurrentLocation()</text><path fill="none" stroke="#000000" d="M 9 422.5 L 134 422.5" stroke-miterlimit="10"></path></g></g><g transform="translate(6,-287) scale(1,1)"><g><path fill="none" stroke="none"></path><text fill="#000000" stroke="none" font-family="Arial" font-size="13px" font-style="normal" font-weight="normal" text-decoration="none" x="9" y="437.5">+getFirstName()</text></g></g><g transform="translate(6,-287) scale(1,1)"><g><path fill="none" stroke="none"></path><text fill="#000000" stroke="none" font-family="Arial" font-size="13px" font-style="normal" font-weight="normal" text-decoration="none" x="9" y="452.5">+getAge()</text></g></g><g transform="translate(6,-287) scale(1,1)"><g><path fill="none" stroke="none"></path><text fill="#000000" stroke="none" font-family="Arial" font-size="13px" font-style="normal" font-weight="normal" text-decoration="none" x="9" y="467.5">+getCurrentTarget()</text></g></g><g transform="translate(6,-287) scale(1,1)"><rect fill="#C0C0C0" stroke="none" x="144" y="588" width="355" height="57" opacity="0.2"></rect></g><g transform="translate(6,-287) scale(1,1)"><rect fill="#ffffff" stroke="none" x="137" y="581" width="355" height="57"></rect></g><g transform="translate(6,-287) scale(1,1)"><path fill="none" stroke="#000000" d="M 137 581 L 492 581 L 492 638 L 137 638 L 137 581 Z Z" stroke-miterlimit="10"></path></g><g transform="translate(6,-287) scale(1,1)"><path fill="none" stroke="#000000" d="M 137 606 L 492 606" stroke-miterlimit="10"></path></g><g transform="translate(6,-287) scale(1,1)"><path fill="none" stroke="#000000" d="M 137 616 L 492 616" stroke-miterlimit="10"></path></g><g transform="translate(6,-287) scale(1,1)"><g><path fill="none" stroke="none"></path><text fill="#000000" stroke="none" font-family="Arial" font-size="13px" font-style="normal" font-weight="bold" text-decoration="none" x="279.5" y="600.5">MonitorUser</text></g></g><g transform="translate(6,-287) scale(1,1)"><g><path fill="none" stroke="none"></path><text fill="#000000" stroke="none" font-family="Arial" font-size="13px" font-style="normal" font-weight="normal" text-decoration="none" x="142" y="633.5">+sendHelpMessage(message: string, timePenalty[0..1] = 0)</text><path fill="none" stroke="#000000" d="M 142 633.5 L 488 633.5" stroke-miterlimit="10"></path></g></g><g transform="translate(6,-287) scale(1,1)"><g><path fill="none" stroke="none"></path><text fill="#000000" stroke="none" font-family="Arial" font-size="13px" font-style="normal" font-weight="normal" text-decoration="none" x="142" y="648.5">+selectUser()</text><path fill="none" stroke="#000000" d="M 142 648.5 L 220 648.5" stroke-miterlimit="10"></path></g></g><g transform="translate(6,-287) scale(1,1)"><g><path fill="none" stroke="none"></path><text fill="#000000" stroke="none" font-family="Arial" font-size="13px" font-style="normal" font-weight="normal" text-decoration="none" x="142" y="663.5">+getUsers()</text></g></g><g transform="translate(6,-287) scale(1,1)"><g><path fill="none" stroke="none"></path><text fill="#000000" stroke="none" font-family="Arial" font-size="13px" font-style="normal" font-weight="normal" text-decoration="none" x="142" y="678.5">+getUserLocation()</text></g></g><g transform="translate(6,-287) scale(1,1)"><g><path fill="none" stroke="none"></path><text fill="#000000" stroke="none" font-family="Arial" font-size="13px" font-style="normal" font-weight="normal" text-decoration="none" x="142" y="693.5">+getUserCourse()</text></g></g><g transform="translate(6,-287) scale(1,1)"><rect fill="#C0C0C0" stroke="none" x="459" y="317.5" width="134" height="100" opacity="0.2"></rect></g><g transform="translate(6,-287) scale(1,1)"><rect fill="#ffffff" stroke="none" x="452" y="310.5" width="134" height="100"></rect></g><g transform="translate(6,-287) scale(1,1)"><path fill="none" stroke="#000000" d="M 452 310.5 L 586 310.5 L 586 410.5 L 452 410.5 L 452 310.5 Z Z" stroke-miterlimit="10"></path></g><g transform="translate(6,-287) scale(1,1)"><path fill="none" stroke="#000000" d="M 452 335.5 L 586 335.5" stroke-miterlimit="10"></path></g><g transform="translate(6,-287) scale(1,1)"><path fill="none" stroke="#000000" d="M 452 358.5 L 586 358.5" stroke-miterlimit="10"></path></g><g transform="translate(6,-287) scale(1,1)"><g><path fill="none" stroke="none"></path><text fill="#000000" stroke="none" font-family="Arial" font-size="13px" font-style="normal" font-weight="bold" text-decoration="none" x="480" y="330">CourseAdmin</text></g></g><g transform="translate(6,-287) scale(1,1)"><g><path fill="none" stroke="none"></path><text fill="#000000" stroke="none" font-family="Arial" font-size="13px" font-style="normal" font-weight="normal" text-decoration="none" x="457" y="353">-location: Location[*]</text></g></g><g transform="translate(6,-287) scale(1,1)"><g><path fill="none" stroke="none"></path><text fill="#000000" stroke="none" font-family="Arial" font-size="13px" font-style="normal" font-weight="normal" text-decoration="none" x="457" y="376">+getCurrentLocation()</text><path fill="none" stroke="#000000" d="M 457 376 L 582 376" stroke-miterlimit="10"></path></g></g><g transform="translate(6,-287) scale(1,1)"><g><path fill="none" stroke="none"></path><text fill="#000000" stroke="none" font-family="Arial" font-size="13px" font-style="normal" font-weight="normal" text-decoration="none" x="457" y="391">+createMarker()</text><path fill="none" stroke="#000000" d="M 457 391 L 549 391" stroke-miterlimit="10"></path></g></g><g transform="translate(6,-287) scale(1,1)"><g><path fill="none" stroke="none"></path><text fill="#000000" stroke="none" font-family="Arial" font-size="13px" font-style="normal" font-weight="normal" text-decoration="none" x="457" y="406">+createCourse()</text><path fill="none" stroke="#000000" d="M 457 406 L 550 406" stroke-miterlimit="10"></path></g></g></g></svg>