<svg version="1.1" xmlns="http://www.w3.org/2000/svg" xmlns:xlink="http://www.w3.org/1999/xlink" width="595" height="701"><defs></defs><g><g transform="translate(-1,-7) scale(1,1)"><rect fill="#C0C0C0" stroke="none" x="18" y="24" width="228" height="175" opacity="0.2"></rect></g><g transform="translate(-1,-7) scale(1,1)"><rect fill="#ffffff" stroke="none" x="11" y="17" width="228" height="175"></rect></g><g transform="translate(-1,-7) scale(1,1)"><path fill="none" stroke="#000000" d="M 11 17 L 239 17 L 239 192 L 11 192 L 11 17 Z Z" stroke-miterlimit="10"></path></g><g transform="translate(-1,-7) scale(1,1)"><path fill="none" stroke="#000000" d="M 11 42 L 239 42" stroke-miterlimit="10"></path></g><g transform="translate(-1,-7) scale(1,1)"><path fill="none" stroke="#000000" d="M 11 125 L 239 125" stroke-miterlimit="10"></path></g><g transform="translate(-1,-7) scale(1,1)"><g><path fill="none" stroke="none"></path><text fill="#000000" stroke="none" font-family="Arial" font-size="13px" font-style="normal" font-weight="bold" text-decoration="none" x="111.5" y="36.5">User</text></g></g><g transform="translate(-1,-7) scale(1,1)"><g><path fill="none" stroke="none"></path><text fill="#000000" stroke="none" font-family="Arial" font-size="13px" font-style="normal" font-weight="normal" text-decoration="none" x="16" y="59.5">-location: Location[*]</text></g></g><g transform="translate(-1,-7) scale(1,1)"><g><path fill="none" stroke="none"></path><text fill="#000000" stroke="none" font-family="Arial" font-size="13px" font-style="normal" font-weight="normal" text-decoration="none" x="16" y="74.5">«Course»-currentCourse: Course[0..1]</text></g></g><g transform="translate(-1,-7) scale(1,1)"><g><path fill="none" stroke="none"></path><text fill="#000000" stroke="none" font-family="Arial" font-size="13px" font-style="normal" font-weight="normal" text-decoration="none" x="16" y="89.5">-firstName[1]</text><path fill="none" stroke="#000000" d="M 16 89.5 L 90 89.5" stroke-miterlimit="10"></path></g></g><g transform="translate(-1,-7) scale(1,1)"><g><path fill="none" stroke="none"></path><text fill="#000000" stroke="none" font-family="Arial" font-size="13px" font-style="normal" font-weight="normal" text-decoration="none" x="16" y="104.5">-age: int</text></g></g><g transform="translate(-1,-7) scale(1,1)"><g><path fill="none" stroke="none"></path><text fill="#000000" stroke="none" font-family="Arial" font-size="13px" font-style="normal" font-weight="normal" text-decoration="none" x="16" y="119.5">-targetMarker: Marker[0..1]</text></g></g><g transform="translate(-1,-7) scale(1,1)"><g><path fill="none" stroke="none"></path><text fill="#000000" stroke="none" font-family="Arial" font-size="13px" font-style="normal" font-weight="normal" text-decoration="none" x="16" y="142.5">+getCurrentLocation()</text><path fill="none" stroke="#000000" d="M 16 142.5 L 141 142.5" stroke-miterlimit="10"></path></g></g><g transform="translate(-1,-7) scale(1,1)"><g><path fill="none" stroke="none"></path><text fill="#000000" stroke="none" font-family="Arial" font-size="13px" font-style="normal" font-weight="normal" text-decoration="none" x="16" y="157.5">+getFirstName()</text></g></g><g transform="translate(-1,-7) scale(1,1)"><g><path fill="none" stroke="none"></path><text fill="#000000" stroke="none" font-family="Arial" font-size="13px" font-style="normal" font-weight="normal" text-decoration="none" x="16" y="172.5">+getAge()</text></g></g><g transform="translate(-1,-7) scale(1,1)"><g><path fill="none" stroke="none"></path><text fill="#000000" stroke="none" font-family="Arial" font-size="13px" font-style="normal" font-weight="normal" text-decoration="none" x="16" y="187.5">+getCurrentTarget()</text></g></g><g transform="translate(-1,-7) scale(1,1)"><rect fill="#C0C0C0" stroke="none" x="69" y="588" width="355" height="117" opacity="0.2"></rect></g><g transform="translate(-1,-7) scale(1,1)"><rect fill="#ffffff" stroke="none" x="62" y="581" width="355" height="117"></rect></g><g transform="translate(-1,-7) scale(1,1)"><path fill="none" stroke="#000000" d="M 62 581 L 417 581 L 417 698 L 62 698 L 62 581 Z Z" stroke-miterlimit="10"></path></g><g transform="translate(-1,-7) scale(1,1)"><path fill="none" stroke="#000000" d="M 62 606 L 417 606" stroke-miterlimit="10"></path></g><g transform="translate(-1,-7) scale(1,1)"><path fill="none" stroke="#000000" d="M 62 616 L 417 616" stroke-miterlimit="10"></path></g><g transform="translate(-1,-7) scale(1,1)"><g><path fill="none" stroke="none"></path><text fill="#000000" stroke="none" font-family="Arial" font-size="13px" font-style="normal" font-weight="bold" text-decoration="none" x="204.5" y="600.5">MonitorUser</text></g></g><g transform="translate(-1,-7) scale(1,1)"><g><path fill="none" stroke="none"></path><text fill="#000000" stroke="none" font-family="Arial" font-size="13px" font-style="normal" font-weight="normal" text-decoration="none" x="67" y="633.5">+sendHelpMessage(message: string, timePenalty[0..1] = 0)</text><path fill="none" stroke="#000000" d="M 67 633.5 L 413 633.5" stroke-miterlimit="10"></path></g></g><g transform="translate(-1,-7) scale(1,1)"><g><path fill="none" stroke="none"></path><text fill="#000000" stroke="none" font-family="Arial" font-size="13px" font-style="normal" font-weight="normal" text-decoration="none" x="67" y="648.5">+selectUser()</text><path fill="none" stroke="#000000" d="M 67 648.5 L 145 648.5" stroke-miterlimit="10"></path></g></g><g transform="translate(-1,-7) scale(1,1)"><g><path fill="none" stroke="none"></path><text fill="#000000" stroke="none" font-family="Arial" font-size="13px" font-style="normal" font-weight="normal" text-decoration="none" x="67" y="663.5">+getUsers()</text></g></g><g transform="translate(-1,-7) scale(1,1)"><g><path fill="none" stroke="none"></path><text fill="#000000" stroke="none" font-family="Arial" font-size="13px" font-style="normal" font-weight="normal" text-decoration="none" x="67" y="678.5">+getUserLocation()</text></g></g><g transform="translate(-1,-7) scale(1,1)"><g><path fill="none" stroke="none"></path><text fill="#000000" stroke="none" font-family="Arial" font-size="13px" font-style="normal" font-weight="normal" text-decoration="none" x="67" y="693.5">+getUserCourse()</text></g></g><g transform="translate(-1,-7) scale(1,1)"><rect fill="#C0C0C0" stroke="none" x="459" y="342" width="134" height="100" opacity="0.2"></rect></g><g transform="translate(-1,-7) scale(1,1)"><rect fill="#ffffff" stroke="none" x="452" y="335" width="134" height="100"></rect></g><g transform="translate(-1,-7) scale(1,1)"><path fill="none" stroke="#000000" d="M 452 335 L 586 335 L 586 435 L 452 435 L 452 335 Z Z" stroke-miterlimit="10"></path></g><g transform="translate(-1,-7) scale(1,1)"><path fill="none" stroke="#000000" d="M 452 360 L 586 360" stroke-miterlimit="10"></path></g><g transform="translate(-1,-7) scale(1,1)"><path fill="none" stroke="#000000" d="M 452 383 L 586 383" stroke-miterlimit="10"></path></g><g transform="translate(-1,-7) scale(1,1)"><g><path fill="none" stroke="none"></path><text fill="#000000" stroke="none" font-family="Arial" font-size="13px" font-style="normal" font-weight="bold" text-decoration="none" x="480" y="354.5">CourseAdmin</text></g></g><g transform="translate(-1,-7) scale(1,1)"><g><path fill="none" stroke="none"></path><text fill="#000000" stroke="none" font-family="Arial" font-size="13px" font-style="normal" font-weight="normal" text-decoration="none" x="457" y="377.5">-location: Location[*]</text></g></g><g transform="translate(-1,-7) scale(1,1)"><g><path fill="none" stroke="none"></path><text fill="#000000" stroke="none" font-family="Arial" font-size="13px" font-style="normal" font-weight="normal" text-decoration="none" x="457" y="400.5">+getCurrentLocation()</text><path fill="none" stroke="#000000" d="M 457 400.5 L 582 400.5" stroke-miterlimit="10"></path></g></g><g transform="translate(-1,-7) scale(1,1)"><g><path fill="none" stroke="none"></path><text fill="#000000" stroke="none" font-family="Arial" font-size="13px" font-style="normal" font-weight="normal" text-decoration="none" x="457" y="415.5">+createMarker()</text><path fill="none" stroke="#000000" d="M 457 415.5 L 549 415.5" stroke-miterlimit="10"></path></g></g><g transform="translate(-1,-7) scale(1,1)"><g><path fill="none" stroke="none"></path><text fill="#000000" stroke="none" font-family="Arial" font-size="13px" font-style="normal" font-weight="normal" text-decoration="none" x="457" y="430.5">+createCourse()</text><path fill="none" stroke="#000000" d="M 457 430.5 L 550 430.5" stroke-miterlimit="10"></path></g></g><g transform="translate(-1,-7) scale(1,1)"><rect fill="#C0C0C0" stroke="none" x="69" y="327" width="126" height="130" opacity="0.2"></rect></g><g transform="translate(-1,-7) scale(1,1)"><rect fill="#ffffff" stroke="none" x="62" y="320" width="126" height="130"></rect></g><g transform="translate(-1,-7) scale(1,1)"><path fill="none" stroke="#000000" d="M 62 320 L 188 320 L 188 450 L 62 450 L 62 320 Z Z" stroke-miterlimit="10"></path></g><g transform="translate(-1,-7) scale(1,1)"><path fill="none" stroke="#000000" d="M 62 360 L 188 360" stroke-miterlimit="10"></path></g><g transform="translate(-1,-7) scale(1,1)"><path fill="none" stroke="#000000" d="M 62 383 L 188 383" stroke-miterlimit="10"></path></g><g transform="translate(-1,-7) scale(1,1)"><g><path fill="none" stroke="none"></path><text fill="#000000" stroke="none" font-family="Arial" font-size="13px" font-style="normal" font-weight="bold" text-decoration="none" x="97.5" y="339.5">FieldUser</text></g></g><g transform="translate(-1,-7) scale(1,1)"><g><path fill="none" stroke="none"></path><text fill="#000000" stroke="none" font-family="Arial" font-size="13px" font-style="normal" font-weight="normal" text-decoration="none" x="66.5" y="354.5">(from User Interface)</text></g></g><g transform="translate(-1,-7) scale(1,1)"><g><path fill="none" stroke="none"></path><text fill="#000000" stroke="none" font-family="Arial" font-size="13px" font-style="normal" font-weight="normal" text-decoration="none" x="67" y="377.5">+time</text></g></g><g transform="translate(-1,-7) scale(1,1)"><g><path fill="none" stroke="none"></path><text fill="#000000" stroke="none" font-family="Arial" font-size="13px" font-style="normal" font-weight="normal" text-decoration="none" x="67" y="400.5">+getDirectionHelp()</text><path fill="none" stroke="#000000" d="M 67 400.5 L 178 400.5" stroke-miterlimit="10"></path></g></g><g transform="translate(-1,-7) scale(1,1)"><g><path fill="none" stroke="none"></path><text fill="#000000" stroke="none" font-family="Arial" font-size="13px" font-style="normal" font-weight="normal" text-decoration="none" x="67" y="415.5">+getMonitorHelp()</text><path fill="none" stroke="#000000" d="M 67 415.5 L 170 415.5" stroke-miterlimit="10"></path></g></g><g transform="translate(-1,-7) scale(1,1)"><g><path fill="none" stroke="none"></path><text fill="#000000" stroke="none" font-family="Arial" font-size="13px" font-style="normal" font-weight="normal" text-decoration="none" x="67" y="430.5">+setTargetMarker()</text></g></g><g transform="translate(-1,-7) scale(1,1)"><g><path fill="none" stroke="none"></path><text fill="#000000" stroke="none" font-family="Arial" font-size="13px" font-style="normal" font-weight="normal" text-decoration="none" x="67" y="445.5">+getTime()</text></g></g><g transform="translate(-1,-7) scale(1,1)"><path fill="none" stroke="#000000" d="M 213 580 L 155 451" stroke-miterlimit="10"></path></g><g transform="translate(-1,-7) scale(1,1)"><g><path fill="none" stroke="none"></path><text fill="#000000" stroke="none" font-family="Arial" font-size="13px" font-style="normal" font-weight="normal" text-decoration="none" x="139.5" y="527.5">+message</text></g></g><g transform="translate(-1,-7) scale(1,1)"><path fill="none" stroke="#000000" d="M 125 319 L 125 193" stroke-miterlimit="10"></path></g><g transform="translate(-1,-7) scale(1,1)"><path fill="#FFFFFF" stroke="none" d="M 133.41903551203197 213.3253497152483 L 125 193 L 116.58096448796803 213.3253497152483"></path></g><g transform="translate(-1,-7) scale(1,1)"><path fill="none" stroke="#000000" d="M 133.41903551203197 213.3253497152483 L 125 193 L 116.58096448796803 213.3253497152483 L 133.41903551203197 213.3253497152483" stroke-miterlimit="10"></path></g></g></svg>