<svg version="1.1" xmlns="http://www.w3.org/2000/svg" xmlns:xlink="http://www.w3.org/1999/xlink" width="602" height="638"><defs></defs><g><g transform="translate(6,-10) scale(1,1)"><rect fill="#C0C0C0" stroke="none" x="173.5" y="27" width="122" height="160" opacity="0.2"></rect></g><g transform="translate(6,-10) scale(1,1)"><rect fill="#ffffff" stroke="none" x="166.5" y="20" width="122" height="160"></rect></g><g transform="translate(6,-10) scale(1,1)"><path fill="none" stroke="#000000" d="M 166.5 20 L 288.5 20 L 288.5 180 L 166.5 180 L 166.5 20 Z Z" stroke-miterlimit="10"></path></g><g transform="translate(6,-10) scale(1,1)"><path fill="none" stroke="#000000" d="M 166.5 45 L 288.5 45" stroke-miterlimit="10"></path></g><g transform="translate(6,-10) scale(1,1)"><path fill="none" stroke="#000000" d="M 166.5 68 L 288.5 68" stroke-miterlimit="10"></path></g><g transform="translate(6,-10) scale(1,1)"><g><path fill="none" stroke="none"></path><text fill="#000000" stroke="none" font-family="Arial" font-size="13px" font-style="italic" font-weight="bold" text-decoration="none" x="214" y="39.5">User</text></g></g><g transform="translate(6,-10) scale(1,1)"><g><path fill="none" stroke="none"></path><text fill="#000000" stroke="none" font-family="Arial" font-size="13px" font-style="normal" font-weight="normal" text-decoration="none" x="171.5" y="62.5">-ID {id, unique}</text></g></g><g transform="translate(6,-10) scale(1,1)"><g><path fill="none" stroke="none"></path><text fill="#000000" stroke="none" font-family="Arial" font-size="13px" font-style="normal" font-weight="normal" text-decoration="none" x="171.5" y="85.5">+getID()</text></g></g><g transform="translate(6,-10) scale(1,1)"><g><path fill="none" stroke="none"></path><text fill="#000000" stroke="none" font-family="Arial" font-size="13px" font-style="normal" font-weight="normal" text-decoration="none" x="171.5" y="100.5">+setID()</text></g></g><g transform="translate(6,-10) scale(1,1)"><rect fill="#C0C0C0" stroke="none" x="11" y="304" width="228" height="175" opacity="0.2"></rect></g><g transform="translate(6,-10) scale(1,1)"><rect fill="#ffffff" stroke="none" x="4" y="297" width="228" height="175"></rect></g><g transform="translate(6,-10) scale(1,1)"><path fill="none" stroke="#000000" d="M 4 297 L 232 297 L 232 472 L 4 472 L 4 297 Z Z" stroke-miterlimit="10"></path></g><g transform="translate(6,-10) scale(1,1)"><path fill="none" stroke="#000000" d="M 4 322 L 232 322" stroke-miterlimit="10"></path></g><g transform="translate(6,-10) scale(1,1)"><path fill="none" stroke="#000000" d="M 4 390 L 232 390" stroke-miterlimit="10"></path></g><g transform="translate(6,-10) scale(1,1)"><g><path fill="none" stroke="none"></path><text fill="#000000" stroke="none" font-family="Arial" font-size="13px" font-style="normal" font-weight="bold" text-decoration="none" x="90.5" y="316.5">FieldUser</text></g></g><g transform="translate(6,-10) scale(1,1)"><g><path fill="none" stroke="none"></path><text fill="#000000" stroke="none" font-family="Arial" font-size="13px" font-style="normal" font-weight="normal" text-decoration="none" x="9" y="339.5">-location: Location[*]</text></g></g><g transform="translate(6,-10) scale(1,1)"><g><path fill="none" stroke="none"></path><text fill="#000000" stroke="none" font-family="Arial" font-size="13px" font-style="normal" font-weight="normal" text-decoration="none" x="9" y="354.5">«Course»-currentCourse: Course[0..1]</text></g></g><g transform="translate(6,-10) scale(1,1)"><g><path fill="none" stroke="none"></path><text fill="#000000" stroke="none" font-family="Arial" font-size="13px" font-style="normal" font-weight="normal" text-decoration="none" x="9" y="369.5">-firstName[1]</text><path fill="none" stroke="#000000" d="M 9 369.5 L 83 369.5" stroke-miterlimit="10"></path></g></g><g transform="translate(6,-10) scale(1,1)"><g><path fill="none" stroke="none"></path><text fill="#000000" stroke="none" font-family="Arial" font-size="13px" font-style="normal" font-weight="normal" text-decoration="none" x="9" y="384.5">-age: int</text></g></g><g transform="translate(6,-10) scale(1,1)"><g><path fill="none" stroke="none"></path><text fill="#000000" stroke="none" font-family="Arial" font-size="13px" font-style="normal" font-weight="normal" text-decoration="none" x="9" y="407.5">+getCurrentLocation()</text><path fill="none" stroke="#000000" d="M 9 407.5 L 134 407.5" stroke-miterlimit="10"></path></g></g><g transform="translate(6,-10) scale(1,1)"><g><path fill="none" stroke="none"></path><text fill="#000000" stroke="none" font-family="Arial" font-size="13px" font-style="normal" font-weight="normal" text-decoration="none" x="9" y="422.5">+getDirectionHelp()</text><path fill="none" stroke="#000000" d="M 9 422.5 L 120 422.5" stroke-miterlimit="10"></path></g></g><g transform="translate(6,-10) scale(1,1)"><g><path fill="none" stroke="none"></path><text fill="#000000" stroke="none" font-family="Arial" font-size="13px" font-style="normal" font-weight="normal" text-decoration="none" x="9" y="437.5">+getMonitorHelp()</text><path fill="none" stroke="#000000" d="M 9 437.5 L 112 437.5" stroke-miterlimit="10"></path></g></g><g transform="translate(6,-10) scale(1,1)"><g><path fill="none" stroke="none"></path><text fill="#000000" stroke="none" font-family="Arial" font-size="13px" font-style="normal" font-weight="normal" text-decoration="none" x="9" y="452.5">+getFirstName()</text></g></g><g transform="translate(6,-10) scale(1,1)"><g><path fill="none" stroke="none"></path><text fill="#000000" stroke="none" font-family="Arial" font-size="13px" font-style="normal" font-weight="normal" text-decoration="none" x="9" y="467.5">+getAge()</text></g></g><g transform="translate(6,-10) scale(1,1)"><path fill="none" stroke="#000000" d="M 78 296 Q 72 282 166 172" stroke-miterlimit="10"></path></g><g transform="translate(6,-10) scale(1,1)"><path fill="#FFFFFF" stroke="none" d="M 159.19600479966053 192.92141604466002 L 166 172 L 146.39517369747512 181.98252401188338"></path></g><g transform="translate(6,-10) scale(1,1)"><path fill="none" stroke="#000000" d="M 159.19600479966053 192.92141604466002 L 166 172 L 146.39517369747512 181.98252401188338 L 159.19600479966053 192.92141604466002" stroke-miterlimit="10"></path></g><g transform="translate(6,-10) scale(1,1)"><rect fill="#C0C0C0" stroke="none" x="144" y="588" width="355" height="57" opacity="0.2"></rect></g><g transform="translate(6,-10) scale(1,1)"><rect fill="#ffffff" stroke="none" x="137" y="581" width="355" height="57"></rect></g><g transform="translate(6,-10) scale(1,1)"><path fill="none" stroke="#000000" d="M 137 581 L 492 581 L 492 638 L 137 638 L 137 581 Z Z" stroke-miterlimit="10"></path></g><g transform="translate(6,-10) scale(1,1)"><path fill="none" stroke="#000000" d="M 137 606 L 492 606" stroke-miterlimit="10"></path></g><g transform="translate(6,-10) scale(1,1)"><path fill="none" stroke="#000000" d="M 137 616 L 492 616" stroke-miterlimit="10"></path></g><g transform="translate(6,-10) scale(1,1)"><g><path fill="none" stroke="none"></path><text fill="#000000" stroke="none" font-family="Arial" font-size="13px" font-style="normal" font-weight="bold" text-decoration="none" x="279.5" y="600.5">MonitorUser</text></g></g><g transform="translate(6,-10) scale(1,1)"><g><path fill="none" stroke="none"></path><text fill="#000000" stroke="none" font-family="Arial" font-size="13px" font-style="normal" font-weight="normal" text-decoration="none" x="142" y="633.5">+sendHelpMessage(message: string, timePenalty[0..1] = 0)</text><path fill="none" stroke="#000000" d="M 142 633.5 L 488 633.5" stroke-miterlimit="10"></path></g></g><g transform="translate(6,-10) scale(1,1)"><path fill="none" stroke="#000000" d="M 322 580 Q 344 504 250 181" stroke-miterlimit="10"></path></g><g transform="translate(6,-10) scale(1,1)"><path fill="#FFFFFF" stroke="none" d="M 263.76317040831606 198.16319143724886 L 250 181 L 247.59582207426476 202.86824017842787"></path></g><g transform="translate(6,-10) scale(1,1)"><path fill="none" stroke="#000000" d="M 263.76317040831606 198.16319143724886 L 250 181 L 247.59582207426476 202.86824017842787 L 263.76317040831606 198.16319143724886" stroke-miterlimit="10"></path></g><g transform="translate(6,-10) scale(1,1)"><rect fill="#C0C0C0" stroke="none" x="459" y="317.5" width="134" height="100" opacity="0.2"></rect></g><g transform="translate(6,-10) scale(1,1)"><rect fill="#ffffff" stroke="none" x="452" y="310.5" width="134" height="100"></rect></g><g transform="translate(6,-10) scale(1,1)"><path fill="none" stroke="#000000" d="M 452 310.5 L 586 310.5 L 586 410.5 L 452 410.5 L 452 310.5 Z Z" stroke-miterlimit="10"></path></g><g transform="translate(6,-10) scale(1,1)"><path fill="none" stroke="#000000" d="M 452 335.5 L 586 335.5" stroke-miterlimit="10"></path></g><g transform="translate(6,-10) scale(1,1)"><path fill="none" stroke="#000000" d="M 452 358.5 L 586 358.5" stroke-miterlimit="10"></path></g><g transform="translate(6,-10) scale(1,1)"><g><path fill="none" stroke="none"></path><text fill="#000000" stroke="none" font-family="Arial" font-size="13px" font-style="normal" font-weight="bold" text-decoration="none" x="480" y="330">CourseAdmin</text></g></g><g transform="translate(6,-10) scale(1,1)"><g><path fill="none" stroke="none"></path><text fill="#000000" stroke="none" font-family="Arial" font-size="13px" font-style="normal" font-weight="normal" text-decoration="none" x="457" y="353">-location: Location[*]</text></g></g><g transform="translate(6,-10) scale(1,1)"><g><path fill="none" stroke="none"></path><text fill="#000000" stroke="none" font-family="Arial" font-size="13px" font-style="normal" font-weight="normal" text-decoration="none" x="457" y="376">+getCurrentLocation()</text><path fill="none" stroke="#000000" d="M 457 376 L 582 376" stroke-miterlimit="10"></path></g></g><g transform="translate(6,-10) scale(1,1)"><g><path fill="none" stroke="none"></path><text fill="#000000" stroke="none" font-family="Arial" font-size="13px" font-style="normal" font-weight="normal" text-decoration="none" x="457" y="391">+createMarker()</text><path fill="none" stroke="#000000" d="M 457 391 L 549 391" stroke-miterlimit="10"></path></g></g><g transform="translate(6,-10) scale(1,1)"><g><path fill="none" stroke="none"></path><text fill="#000000" stroke="none" font-family="Arial" font-size="13px" font-style="normal" font-weight="normal" text-decoration="none" x="457" y="406">+createCourse()</text><path fill="none" stroke="#000000" d="M 457 406 L 550 406" stroke-miterlimit="10"></path></g></g><g transform="translate(6,-10) scale(1,1)"><path fill="none" stroke="#000000" d="M 514 310 Q 511 274 290 138" stroke-miterlimit="10"></path></g><g transform="translate(6,-10) scale(1,1)"><path fill="#FFFFFF" stroke="none" d="M 311.72264796335213 141.48232184903603 L 290 138 L 302.897858286487 155.82260507394187"></path></g><g transform="translate(6,-10) scale(1,1)"><path fill="none" stroke="#000000" d="M 311.72264796335213 141.48232184903603 L 290 138 L 302.897858286487 155.82260507394187 L 311.72264796335213 141.48232184903603" stroke-miterlimit="10"></path></g></g></svg>