<svg version="1.1" xmlns="http://www.w3.org/2000/svg" xmlns:xlink="http://www.w3.org/1999/xlink" width="521" height="648"><defs></defs><g><g transform="translate(-118,-62) scale(1,1)"><rect fill="#C0C0C0" stroke="none" x="135" y="79" width="121.19999999999999" height="15" opacity="0.2"></rect></g><g transform="translate(-118,-62) scale(1,1)"><rect fill="#C0C0C0" stroke="none" x="135" y="93" width="303" height="297" opacity="0.2"></rect></g><g transform="translate(-118,-62) scale(1,1)"><rect fill="#d1ffa3" stroke="none" x="128" y="87" width="303" height="296"></rect></g><g transform="translate(-118,-62) scale(1,1)"><path fill="none" stroke="#000000" d="M 128 87 L 431 87 L 431 383 L 128 383 L 128 87 Z Z" stroke-miterlimit="10"></path></g><g transform="translate(-118,-62) scale(1,1)"><rect fill="#d1ffa3" stroke="none" x="128" y="72" width="121.19999999999999" height="15"></rect></g><g transform="translate(-118,-62) scale(1,1)"><path fill="none" stroke="#000000" d="M 128 72 L 249.2 72 L 249.2 87 L 128 87 L 128 72 Z Z" stroke-miterlimit="10"></path></g><g transform="translate(-118,-62) scale(1,1)"><rect fill="#d1ffa3" stroke="none" x="128" y="86" width="303" height="297"></rect></g><g transform="translate(-118,-62) scale(1,1)"><path fill="none" stroke="#000000" d="M 128 86 L 431 86 L 431 383 L 128 383 L 128 86 Z Z" stroke-miterlimit="10"></path></g><g transform="translate(-118,-62) scale(1,1)"><g><path fill="none" stroke="none"></path><text fill="#000000" stroke="none" font-family="Arial" font-size="13px" font-style="normal" font-weight="bold" text-decoration="none" x="267" y="106.5">Map</text></g></g><g transform="translate(-118,-62) scale(1,1)"><rect fill="#C0C0C0" stroke="none" x="355" y="287" width="53" height="44" opacity="0.2"></rect></g><g transform="translate(-118,-62) scale(1,1)"><rect fill="#ffffff" stroke="none" x="348" y="280" width="53" height="44"></rect></g><g transform="translate(-118,-62) scale(1,1)"><path fill="none" stroke="#000000" d="M 348 280 L 401 280 L 401 324 L 348 324 L 348 280 Z Z" stroke-miterlimit="10"></path></g><g transform="translate(-118,-62) scale(1,1)"><path fill="none" stroke="#000000" d="M 348 305 L 401 305" stroke-miterlimit="10"></path></g><g transform="translate(-118,-62) scale(1,1)"><path fill="none" stroke="#000000" d="M 348 315 L 401 315" stroke-miterlimit="10"></path></g><g transform="translate(-118,-62) scale(1,1)"><g><path fill="none" stroke="none"></path><text fill="#000000" stroke="none" font-family="Arial" font-size="13px" font-style="normal" font-weight="bold" text-decoration="none" x="354" y="299.5">Course</text></g></g><g transform="translate(-118,-62) scale(1,1)"><rect fill="#C0C0C0" stroke="none" x="187" y="121" width="53" height="44" opacity="0.2"></rect></g><g transform="translate(-118,-62) scale(1,1)"><rect fill="#ffffff" stroke="none" x="180" y="114" width="53" height="44"></rect></g><g transform="translate(-118,-62) scale(1,1)"><path fill="none" stroke="#000000" d="M 180 114 L 233 114 L 233 158 L 180 158 L 180 114 Z Z" stroke-miterlimit="10"></path></g><g transform="translate(-118,-62) scale(1,1)"><path fill="none" stroke="#000000" d="M 180 139 L 233 139" stroke-miterlimit="10"></path></g><g transform="translate(-118,-62) scale(1,1)"><path fill="none" stroke="#000000" d="M 180 149 L 233 149" stroke-miterlimit="10"></path></g><g transform="translate(-118,-62) scale(1,1)"><g><path fill="none" stroke="none"></path><text fill="#000000" stroke="none" font-family="Arial" font-size="13px" font-style="normal" font-weight="bold" text-decoration="none" x="186.5" y="133.5">Marker</text></g></g><g transform="translate(-118,-62) scale(1,1)"><rect fill="#C0C0C0" stroke="none" x="565" y="505" width="49" height="44" opacity="0.2"></rect></g><g transform="translate(-118,-62) scale(1,1)"><rect fill="#38ff38" stroke="none" x="558" y="498" width="49" height="44"></rect></g><g transform="translate(-118,-62) scale(1,1)"><path fill="none" stroke="#000000" d="M 558 498 L 607 498 L 607 542 L 558 542 L 558 498 Z Z" stroke-miterlimit="10"></path></g><g transform="translate(-118,-62) scale(1,1)"><path fill="none" stroke="#000000" d="M 558 523 L 607 523" stroke-miterlimit="10"></path></g><g transform="translate(-118,-62) scale(1,1)"><path fill="none" stroke="#000000" d="M 558 533 L 607 533" stroke-miterlimit="10"></path></g><g transform="translate(-118,-62) scale(1,1)"><g><path fill="none" stroke="none"></path><text fill="#000000" stroke="none" font-family="Arial" font-size="13px" font-style="italic" font-weight="bold" text-decoration="none" x="569" y="517.5">User</text></g></g><g transform="translate(-118,-62) scale(1,1)"><rect fill="#C0C0C0" stroke="none" x="179" y="505" width="69" height="44" opacity="0.2"></rect></g><g transform="translate(-118,-62) scale(1,1)"><rect fill="#49ffe0" stroke="none" x="172" y="498" width="69" height="44"></rect></g><g transform="translate(-118,-62) scale(1,1)"><path fill="none" stroke="#000000" d="M 172 498 L 241 498 L 241 542 L 172 542 L 172 498 Z Z" stroke-miterlimit="10"></path></g><g transform="translate(-118,-62) scale(1,1)"><path fill="none" stroke="#000000" d="M 172 523 L 241 523" stroke-miterlimit="10"></path></g><g transform="translate(-118,-62) scale(1,1)"><path fill="none" stroke="#000000" d="M 172 533 L 241 533" stroke-miterlimit="10"></path></g><g transform="translate(-118,-62) scale(1,1)"><g><path fill="none" stroke="none"></path><text fill="#000000" stroke="none" font-family="Arial" font-size="13px" font-style="normal" font-weight="bold" text-decoration="none" x="179" y="517.5">FieldUser</text></g></g><g transform="translate(-118,-62) scale(1,1)"><rect fill="#C0C0C0" stroke="none" x="547" y="663" width="85" height="44" opacity="0.2"></rect></g><g transform="translate(-118,-62) scale(1,1)"><rect fill="#ff38ff" stroke="none" x="540" y="656" width="85" height="44"></rect></g><g transform="translate(-118,-62) scale(1,1)"><path fill="none" stroke="#000000" d="M 540 656 L 625 656 L 625 700 L 540 700 L 540 656 Z Z" stroke-miterlimit="10"></path></g><g transform="translate(-118,-62) scale(1,1)"><path fill="none" stroke="#000000" d="M 540 681 L 625 681" stroke-miterlimit="10"></path></g><g transform="translate(-118,-62) scale(1,1)"><path fill="none" stroke="#000000" d="M 540 691 L 625 691" stroke-miterlimit="10"></path></g><g transform="translate(-118,-62) scale(1,1)"><g><path fill="none" stroke="none"></path><text fill="#000000" stroke="none" font-family="Arial" font-size="13px" font-style="normal" font-weight="bold" text-decoration="none" x="547.5" y="675.5">MonitorUser</text></g></g><g transform="translate(-118,-62) scale(1,1)"><rect fill="#C0C0C0" stroke="none" x="542" y="120" width="94" height="44" opacity="0.2"></rect></g><g transform="translate(-118,-62) scale(1,1)"><rect fill="#38bcff" stroke="none" x="535" y="113" width="94" height="44"></rect></g><g transform="translate(-118,-62) scale(1,1)"><path fill="none" stroke="#000000" d="M 535 113 L 629 113 L 629 157 L 535 157 L 535 113 Z Z" stroke-miterlimit="10"></path></g><g transform="translate(-118,-62) scale(1,1)"><path fill="none" stroke="#000000" d="M 535 138 L 629 138" stroke-miterlimit="10"></path></g><g transform="translate(-118,-62) scale(1,1)"><path fill="none" stroke="#000000" d="M 535 148 L 629 148" stroke-miterlimit="10"></path></g><g transform="translate(-118,-62) scale(1,1)"><g><path fill="none" stroke="none"></path><text fill="#000000" stroke="none" font-family="Arial" font-size="13px" font-style="normal" font-weight="bold" text-decoration="none" x="543" y="132.5">CourseAdmin</text></g></g><g transform="translate(-118,-62) scale(1,1)"><path fill="none" stroke="#000000" d="M 242 520 L 557 520" stroke-miterlimit="10"></path></g><g transform="translate(-118,-62) scale(1,1)"><path fill="#FFFFFF" stroke="none" d="M 536.6746502847517 528.419035512032 L 557 520 L 536.6746502847517 511.580964487968"></path></g><g transform="translate(-118,-62) scale(1,1)"><path fill="none" stroke="#000000" d="M 536.6746502847517 528.419035512032 L 557 520 L 536.6746502847517 511.580964487968 L 536.6746502847517 528.419035512032" stroke-miterlimit="10"></path></g><g transform="translate(-118,-62) scale(1,1)"><path fill="none" stroke="#000000" d="M 582 655 L 582 543" stroke-miterlimit="10"></path></g><g transform="translate(-118,-62) scale(1,1)"><path fill="#FFFFFF" stroke="none" d="M 590.419035512032 563.3253497152483 L 582 543 L 573.580964487968 563.3253497152483"></path></g><g transform="translate(-118,-62) scale(1,1)"><path fill="none" stroke="#000000" d="M 590.419035512032 563.3253497152483 L 582 543 L 573.580964487968 563.3253497152483 L 590.419035512032 563.3253497152483" stroke-miterlimit="10"></path></g><g transform="translate(-118,-62) scale(1,1)"><path fill="none" stroke="#000000" d="M 582 158 L 582 497" stroke-miterlimit="10"></path></g><g transform="translate(-118,-62) scale(1,1)"><path fill="#FFFFFF" stroke="none" d="M 573.580964487968 476.6746502847517 L 582 497 L 590.419035512032 476.6746502847517"></path></g><g transform="translate(-118,-62) scale(1,1)"><path fill="none" stroke="#000000" d="M 573.580964487968 476.6746502847517 L 582 497 L 590.419035512032 476.6746502847517 L 573.580964487968 476.6746502847517" stroke-miterlimit="10"></path></g><g transform="translate(-118,-62) scale(1,1)"><path fill="none" stroke="#000000" d="M 553 158 L 402 280" stroke-miterlimit="10"></path></g><g transform="translate(-118,-62) scale(1,1)"><path fill="none" stroke="#000000" d="M 407.2594780457993 270.33884630669013 L 402 280 L 412.5504798823113 276.88754530106155" stroke-miterlimit="10"></path></g><g transform="translate(-118,-62) scale(1,1)"><g><path fill="none" stroke="none"></path><text fill="#000000" stroke="none" font-family="Arial" font-size="13px" font-style="normal" font-weight="normal" text-decoration="none" x="452.5" y="236.5">+setCourse</text></g></g><g transform="translate(-118,-62) scale(1,1)"><g><path fill="none" stroke="none"></path><text fill="#000000" stroke="none" font-family="Arial" font-size="13px" font-style="normal" font-weight="normal" text-decoration="none" x="417.5" y="290.5">{unique}</text></g></g><g transform="translate(-118,-62) scale(1,1)"><path fill="none" stroke="#000000" d="M 534 135 L 234 136" stroke-miterlimit="10"></path></g><g transform="translate(-118,-62) scale(1,1)"><path fill="none" stroke="#000000" d="M 244.14858675088988 131.75663023533625 L 234 136 L 244.17665004668987 140.1756189753385" stroke-miterlimit="10"></path></g><g transform="translate(-118,-62) scale(1,1)"><g><path fill="none" stroke="none"></path><text fill="#000000" stroke="none" font-family="Arial" font-size="13px" font-style="normal" font-weight="normal" text-decoration="none" x="348.5" y="156.5">+setMarker</text></g></g><g transform="translate(-118,-62) scale(1,1)"><g><path fill="none" stroke="none"></path><text fill="#000000" stroke="none" font-family="Arial" font-size="13px" font-style="normal" font-weight="normal" text-decoration="none" x="238.5" y="170.5">{unique}</text></g></g><g transform="translate(-118,-62) scale(1,1)"><path fill="none" stroke="#000000" d="M 229 159 L 351 279" stroke-miterlimit="10"></path></g><g transform="translate(-118,-62) scale(1,1)"><g><path fill="none" stroke="none"></path><text fill="#000000" stroke="none" font-family="Arial" font-size="13px" font-style="normal" font-weight="normal" text-decoration="none" x="285.5" y="214.5">+has</text></g></g><g transform="translate(-118,-62) scale(1,1)"><g><path fill="none" stroke="none"></path><text fill="#000000" stroke="none" font-family="Arial" font-size="13px" font-style="normal" font-weight="normal" text-decoration="none" x="224.5" y="189.5">1..*</text></g></g><g transform="translate(-118,-62) scale(1,1)"><g><path fill="none" stroke="none"></path><text fill="#000000" stroke="none" font-family="Arial" font-size="13px" font-style="normal" font-weight="normal" text-decoration="none" x="315.5" y="278.5">0..*</text></g></g><g transform="translate(-118,-62) scale(1,1)"><path fill="none" stroke="#000000" d="M 224 497 L 356 325" stroke-miterlimit="10"></path></g><g transform="translate(-118,-62) scale(1,1)"><g><path fill="none" stroke="none"></path><text fill="#000000" stroke="none" font-family="Arial" font-size="13px" font-style="normal" font-weight="normal" text-decoration="none" x="249.5" y="407.5">+available</text></g></g><g transform="translate(-118,-62) scale(1,1)"><g><path fill="none" stroke="none"></path><text fill="#000000" stroke="none" font-family="Arial" font-size="13px" font-style="normal" font-weight="normal" text-decoration="none" x="236.5" y="493.5">0..*</text></g></g><g transform="translate(-118,-62) scale(1,1)"><g><path fill="none" stroke="none"></path><text fill="#000000" stroke="none" font-family="Arial" font-size="13px" font-style="normal" font-weight="normal" text-decoration="none" x="341.5" y="355.5">0..*</text></g></g><g transform="translate(-118,-62) scale(1,1)"><path fill="none" stroke="#000000" d="M 206 497 L 206 159" stroke-miterlimit="10"></path></g><g transform="translate(-118,-62) scale(1,1)"><path fill="none" stroke="#000000" d="M 210.209517756016 169.16267485762415 L 206 159 L 201.790482243984 169.16267485762415" stroke-miterlimit="10"></path></g><g transform="translate(-118,-62) scale(1,1)"><g><path fill="none" stroke="none"></path><text fill="#000000" stroke="none" font-family="Arial" font-size="13px" font-style="normal" font-weight="normal" text-decoration="none" x="170.5" y="333.5">+target</text></g></g><g transform="translate(-118,-62) scale(1,1)"><g><path fill="none" stroke="none"></path><text fill="#000000" stroke="none" font-family="Arial" font-size="13px" font-style="normal" font-weight="normal" text-decoration="none" x="146.5" y="193.5">{readOnly}</text></g></g><g transform="translate(-118,-62) scale(1,1)"><g><path fill="none" stroke="none"></path><text fill="#000000" stroke="none" font-family="Arial" font-size="13px" font-style="normal" font-weight="normal" text-decoration="none" x="207.5" y="186.5">1..*</text></g></g><g transform="translate(-118,-62) scale(1,1)"><path fill="none" stroke="#000000" d="M 242 535 L 539 660" stroke-miterlimit="10"></path></g><g transform="translate(-118,-62) scale(1,1)"><g><path fill="none" stroke="none"></path><text fill="#000000" stroke="none" font-family="Arial" font-size="13px" font-style="normal" font-weight="normal" text-decoration="none" x="364.5" y="589.5">+message</text></g></g></g></svg>