<svg version="1.1" xmlns="http://www.w3.org/2000/svg" xmlns:xlink="http://www.w3.org/1999/xlink" width="667" height="643"><defs></defs><g><g transform="translate(-110,-30) scale(1,1)"><path fill="#C0C0C0" stroke="none" d="M 225 96.5 C 225 91.2532944 229.2532944 87 234.5 87 C 239.7467056 87 244 91.2532944 244 96.5 C 244 101.7467056 239.7467056 106 234.5 106 C 229.2532944 106 225 101.7467056 225 96.5 Z" opacity="0.2"></path></g><g transform="translate(-110,-30) scale(1,1)"><path fill="#000000" stroke="none" d="M 218 89.5 C 218 84.2532944 222.2532944 80 227.5 80 C 232.7467056 80 237 84.2532944 237 89.5 C 237 94.7467056 232.7467056 99 227.5 99 C 222.2532944 99 218 94.7467056 218 89.5 Z"></path></g><g transform="translate(-110,-30) scale(1,1)"><path fill="#C0C0C0" stroke="none" d="M 192 194 L 276 194 Q 286 194 286 204 L 286 224 Q 286 234 276 234 L 192 234 Q 182 234 182 224 L 182 204 Q 182 194 192 194 Z" opacity="0.2"></path></g><g transform="translate(-110,-30) scale(1,1)"><path fill="#00ff00" stroke="none" d="M 185 187 L 269 187 Q 279 187 279 197 L 279 217 Q 279 227 269 227 L 185 227 Q 175 227 175 217 L 175 197 Q 175 187 185 187 Z"></path></g><g transform="translate(-110,-30) scale(1,1)"><path fill="none" stroke="#000000" d="M 185 187 L 269 187 Q 279 187 279 197 L 279 217 Q 279 227 269 227 L 185 227 Q 175 227 175 217 L 175 197 Q 175 187 185 187 Z" stroke-miterlimit="10"></path></g><g transform="translate(-110,-30) scale(1,1)"><g><path fill="none" stroke="none"></path><text fill="#000000" stroke="none" font-family="Arial" font-size="13px" font-style="normal" font-weight="bold" text-decoration="none" x="183" y="206.5">Exit or Log Out</text></g></g><g transform="translate(-110,-30) scale(1,1)"><path fill="#C0C0C0" stroke="none" d="M 470 214.5 L 481.5 205 L 492 214.5 L 481.5 223 L 470 214.5" opacity="0.2"></path></g><g transform="translate(-110,-30) scale(1,1)"><path fill="#6dff6d" stroke="none" d="M 463 207 L 474 198 L 485 207 L 474 216 L 463 207"></path></g><g transform="translate(-110,-30) scale(1,1)"><path fill="none" stroke="#000000" d="M 463 207 L 474 198 L 485 207 L 474 216 L 463 207 L 463 207" stroke-miterlimit="10"></path></g><g transform="translate(-110,-30) scale(1,1)"><path fill="#C0C0C0" stroke="none" d="M 437 293 L 525 293 Q 535 293 535 303 L 535 323 Q 535 333 525 333 L 437 333 Q 427 333 427 323 L 427 303 Q 427 293 437 293 Z" opacity="0.2"></path></g><g transform="translate(-110,-30) scale(1,1)"><path fill="#ffadad" stroke="none" d="M 430 286 L 518 286 Q 528 286 528 296 L 528 316 Q 528 326 518 326 L 430 326 Q 420 326 420 316 L 420 296 Q 420 286 430 286 Z"></path></g><g transform="translate(-110,-30) scale(1,1)"><path fill="none" stroke="#000000" d="M 430 286 L 518 286 Q 528 286 528 296 L 528 316 Q 528 326 518 326 L 430 326 Q 420 326 420 316 L 420 296 Q 420 286 430 286 Z" stroke-miterlimit="10"></path></g><g transform="translate(-110,-30) scale(1,1)"><g><path fill="none" stroke="none"></path><text fill="#000000" stroke="none" font-family="Arial" font-size="13px" font-style="normal" font-weight="bold" text-decoration="none" x="428.5" y="305.5">Deactivate User</text></g></g><g transform="translate(-110,-30) scale(1,1)"><path fill="#C0C0C0" stroke="none" d="M 452 437 L 511 437 Q 521 437 521 447 L 521 467 Q 521 477 511 477 L 452 477 Q 442 477 442 467 L 442 447 Q 442 437 452 437 Z" opacity="0.2"></path></g><g transform="translate(-110,-30) scale(1,1)"><path fill="#ffadad" stroke="none" d="M 445 430 L 504 430 Q 514 430 514 440 L 514 460 Q 514 470 504 470 L 445 470 Q 435 470 435 460 L 435 440 Q 435 430 445 430 Z"></path></g><g transform="translate(-110,-30) scale(1,1)"><path fill="none" stroke="#000000" d="M 445 430 L 504 430 Q 514 430 514 440 L 514 460 Q 514 470 504 470 L 445 470 Q 435 470 435 460 L 435 440 Q 435 430 445 430 Z" stroke-miterlimit="10"></path></g><g transform="translate(-110,-30) scale(1,1)"><g><path fill="none" stroke="none"></path><text fill="#000000" stroke="none" font-family="Arial" font-size="13px" font-style="normal" font-weight="bold" text-decoration="none" x="443" y="449.5">Stop Timer</text></g></g><g transform="translate(-110,-30) scale(1,1)"><path fill="#C0C0C0" stroke="none" d="M 437 520 L 526 520 Q 536 520 536 530 L 536 550 Q 536 560 526 560 L 437 560 Q 427 560 427 550 L 427 530 Q 427 520 437 520 Z" opacity="0.2"></path></g><g transform="translate(-110,-30) scale(1,1)"><path fill="#ffadad" stroke="none" d="M 430 513 L 519 513 Q 529 513 529 523 L 529 543 Q 529 553 519 553 L 430 553 Q 420 553 420 543 L 420 523 Q 420 513 430 513 Z"></path></g><g transform="translate(-110,-30) scale(1,1)"><path fill="none" stroke="#000000" d="M 430 513 L 519 513 Q 529 513 529 523 L 529 543 Q 529 553 519 553 L 430 553 Q 420 553 420 543 L 420 523 Q 420 513 430 513 Z" stroke-miterlimit="10"></path></g><g transform="translate(-110,-30) scale(1,1)"><g><path fill="none" stroke="none"></path><text fill="#000000" stroke="none" font-family="Arial" font-size="13px" font-style="normal" font-weight="bold" text-decoration="none" x="429" y="532.5">Remove Course</text></g></g><g transform="translate(-110,-30) scale(1,1)"><path fill="#C0C0C0" stroke="none" d="M 470 385.5 L 481.5 376 L 492 385.5 L 481.5 394 L 470 385.5" opacity="0.2"></path></g><g transform="translate(-110,-30) scale(1,1)"><path fill="#6dffb6" stroke="none" d="M 463 378 L 474 369 L 485 378 L 474 387 L 463 378"></path></g><g transform="translate(-110,-30) scale(1,1)"><path fill="none" stroke="#000000" d="M 463 378 L 474 369 L 485 378 L 474 387 L 463 378 L 463 378" stroke-miterlimit="10"></path></g><g transform="translate(-110,-30) scale(1,1)"><path fill="#C0C0C0" stroke="none" d="M 629 194 L 731 194 Q 741 194 741 204 L 741 224 Q 741 234 731 234 L 629 234 Q 619 234 619 224 L 619 204 Q 619 194 629 194 Z" opacity="0.2"></path></g><g transform="translate(-110,-30) scale(1,1)"><path fill="#ffadad" stroke="none" d="M 622 187 L 724 187 Q 734 187 734 197 L 734 217 Q 734 227 724 227 L 622 227 Q 612 227 612 217 L 612 197 Q 612 187 622 187 Z"></path></g><g transform="translate(-110,-30) scale(1,1)"><path fill="none" stroke="#000000" d="M 622 187 L 724 187 Q 734 187 734 197 L 734 217 Q 734 227 724 227 L 622 227 Q 612 227 612 217 L 612 197 Q 612 187 622 187 Z" stroke-miterlimit="10"></path></g><g transform="translate(-110,-30) scale(1,1)"><g><path fill="none" stroke="none"></path><text fill="#000000" stroke="none" font-family="Arial" font-size="13px" font-style="normal" font-weight="bold" text-decoration="none" x="621" y="206.5">Suspend Services</text></g></g><g transform="translate(-110,-30) scale(1,1)"><path fill="#C0C0C0" stroke="none" d="M 414 622 L 549 622 Q 559 622 559 632 L 559 652 Q 559 662 549 662 L 414 662 Q 404 662 404 652 L 404 632 Q 404 622 414 622 Z" opacity="0.2"></path></g><g transform="translate(-110,-30) scale(1,1)"><path fill="#ffadad" stroke="none" d="M 407 615 L 542 615 Q 552 615 552 625 L 552 645 Q 552 655 542 655 L 407 655 Q 397 655 397 645 L 397 625 Q 397 615 407 615 Z"></path></g><g transform="translate(-110,-30) scale(1,1)"><path fill="none" stroke="#000000" d="M 407 615 L 542 615 Q 552 615 552 625 L 552 645 Q 552 655 542 655 L 407 655 Q 397 655 397 645 L 397 625 Q 397 615 407 615 Z" stroke-miterlimit="10"></path></g><g transform="translate(-110,-30) scale(1,1)"><g><path fill="none" stroke="none"></path><text fill="#000000" stroke="none" font-family="Arial" font-size="13px" font-style="normal" font-weight="bold" text-decoration="none" x="408.5" y="634.5">Stop Geofence Service</text></g></g><g transform="translate(-110,-30) scale(1,1)"><path fill="none" stroke="#000000" d="M 227 100 L 227 186" stroke-miterlimit="10"></path></g><g transform="translate(-110,-30) scale(1,1)"><path fill="none" stroke="#000000" d="M 222.790482243984 175.83732514237585 L 227 186 L 231.209517756016 175.83732514237585" stroke-miterlimit="10"></path></g><g transform="translate(-110,-30) scale(1,1)"><path fill="none" stroke="#000000" d="M 280 207 L 462 207" stroke-miterlimit="10"></path></g><g transform="translate(-110,-30) scale(1,1)"><path fill="none" stroke="#000000" d="M 451.83732514237585 211.209517756016 L 462 207 L 451.83732514237585 202.790482243984" stroke-miterlimit="10"></path></g><g transform="translate(-110,-30) scale(1,1)"><path fill="none" stroke="#000000" d="M 486 207 L 611 207" stroke-miterlimit="10"></path></g><g transform="translate(-110,-30) scale(1,1)"><path fill="none" stroke="#000000" d="M 600.8373251423759 211.209517756016 L 611 207 L 600.8373251423758 202.790482243984" stroke-miterlimit="10"></path></g><g transform="translate(-110,-30) scale(1,1)"><g><path fill="none" stroke="none"></path><text fill="#000000" stroke="none" font-family="Arial" font-size="13px" font-style="normal" font-weight="normal" text-decoration="none" x="539.5" y="198.5">No</text></g></g><g transform="translate(-110,-30) scale(1,1)"><path fill="none" stroke="#000000" d="M 474 217 L 474 285" stroke-miterlimit="10"></path></g><g transform="translate(-110,-30) scale(1,1)"><path fill="none" stroke="#000000" d="M 469.790482243984 274.83732514237585 L 474 285 L 478.209517756016 274.83732514237585" stroke-miterlimit="10"></path></g><g transform="translate(-110,-30) scale(1,1)"><g><path fill="none" stroke="none"></path><text fill="#000000" stroke="none" font-family="Arial" font-size="13px" font-style="normal" font-weight="normal" text-decoration="none" x="476.5" y="256.5">Yes</text></g></g><g transform="translate(-110,-30) scale(1,1)"><path fill="none" stroke="#000000" d="M 474 327 L 474 368" stroke-miterlimit="10"></path></g><g transform="translate(-110,-30) scale(1,1)"><path fill="none" stroke="#000000" d="M 469.790482243984 357.83732514237585 L 474 368 L 478.209517756016 357.83732514237585" stroke-miterlimit="10"></path></g><g transform="translate(-110,-30) scale(1,1)"><path fill="none" stroke="#000000" d="M 474 388 L 474 429" stroke-miterlimit="10"></path></g><g transform="translate(-110,-30) scale(1,1)"><path fill="none" stroke="#000000" d="M 469.790482243984 418.83732514237585 L 474 429 L 478.209517756016 418.83732514237585" stroke-miterlimit="10"></path></g><g transform="translate(-110,-30) scale(1,1)"><g><path fill="none" stroke="none"></path><text fill="#000000" stroke="none" font-family="Arial" font-size="13px" font-style="normal" font-weight="normal" text-decoration="none" x="476.5" y="413.5">Yes</text></g></g><g transform="translate(-110,-30) scale(1,1)"><path fill="none" stroke="#000000" d="M 474 471 L 474 512" stroke-miterlimit="10"></path></g><g transform="translate(-110,-30) scale(1,1)"><path fill="none" stroke="#000000" d="M 469.790482243984 501.83732514237585 L 474 512 L 478.209517756016 501.83732514237585" stroke-miterlimit="10"></path></g><g transform="translate(-110,-30) scale(1,1)"><path fill="none" stroke="#000000" d="M 474 554 L 474 614" stroke-miterlimit="10"></path></g><g transform="translate(-110,-30) scale(1,1)"><path fill="none" stroke="#000000" d="M 469.790482243984 603.8373251423759 L 474 614 L 478.209517756016 603.8373251423759" stroke-miterlimit="10"></path></g><g transform="translate(-110,-30) scale(1,1)"><path fill="#C0C0C0" stroke="none" d="M 669 384.5 L 680.5 375 L 691 384.5 L 680.5 393 L 669 384.5" opacity="0.2"></path></g><g transform="translate(-110,-30) scale(1,1)"><path fill="#6dff6d" stroke="none" d="M 662 377 L 673 368 L 684 377 L 673 386 L 662 377"></path></g><g transform="translate(-110,-30) scale(1,1)"><path fill="none" stroke="#000000" d="M 662 377 L 673 368 L 684 377 L 673 386 L 662 377 L 662 377" stroke-miterlimit="10"></path></g><g transform="translate(-110,-30) scale(1,1)"><path fill="none" stroke="#000000" d="M 486 378 L 661 377" stroke-miterlimit="10"></path></g><g transform="translate(-110,-30) scale(1,1)"><path fill="none" stroke="#000000" d="M 650.8615450539969 381.26752051053836 L 661 377 L 650.8134370650725 372.84862244878127" stroke-miterlimit="10"></path></g><g transform="translate(-110,-30) scale(1,1)"><g><path fill="none" stroke="none"></path><text fill="#000000" stroke="none" font-family="Arial" font-size="13px" font-style="normal" font-weight="normal" text-decoration="none" x="564.5" y="368.5">No</text></g></g><g transform="translate(-110,-30) scale(1,1)"><path fill="none" stroke="#000000" d="M 673 228 L 673 367" stroke-miterlimit="10"></path></g><g transform="translate(-110,-30) scale(1,1)"><path fill="none" stroke="#000000" d="M 668.790482243984 356.83732514237585 L 673 367 L 677.209517756016 356.83732514237585" stroke-miterlimit="10"></path></g><g transform="translate(-110,-30) scale(1,1)"><path fill="#C0C0C0" stroke="none" d="M 668 642.5 C 668 635.59644 673.59644 630 680.5 630 C 687.40356 630 693 635.59644 693 642.5 C 693 649.40356 687.40356 655 680.5 655 C 673.59644 655 668 649.40356 668 642.5 Z" opacity="0.2"></path></g><g transform="translate(-110,-30) scale(1,1)"><path fill="none" stroke="#000000" d="M 661 635.5 C 661 628.59644 666.59644 623 673.5 623 C 680.40356 623 686 628.59644 686 635.5 C 686 642.40356 680.40356 648 673.5 648 C 666.59644 648 661 642.40356 661 635.5 Z" stroke-miterlimit="10"></path></g><g transform="translate(-110,-30) scale(1,1)"><path fill="#000000" stroke="none" d="M 666 635.5 C 666 631.357864 669.357864 628 673.5 628 C 677.642136 628 681 631.357864 681 635.5 C 681 639.642136 677.642136 643 673.5 643 C 669.357864 643 666 639.642136 666 635.5 Z"></path></g><g transform="translate(-110,-30) scale(1,1)"><path fill="none" stroke="#000000" d="M 553 635 L 660 635" stroke-miterlimit="10"></path></g><g transform="translate(-110,-30) scale(1,1)"><path fill="none" stroke="#000000" d="M 649.8373251423759 639.209517756016 L 660 635 L 649.8373251423758 630.790482243984" stroke-miterlimit="10"></path></g><g transform="translate(-110,-30) scale(1,1)"><path fill="none" stroke="#000000" d="M 673 387 L 673 622" stroke-miterlimit="10"></path></g><g transform="translate(-110,-30) scale(1,1)"><path fill="none" stroke="#000000" d="M 668.790482243984 611.8373251423759 L 673 622 L 677.209517756016 611.8373251423759" stroke-miterlimit="10"></path></g><g transform="translate(-110,-30) scale(1,1)"><path fill="#ffeaad" stroke="none" d="M 408 136 L 466 136 L 476 146 L 476 174 L 408 174 L 408 136"></path></g><g transform="translate(-110,-30) scale(1,1)"><path fill="none" stroke="#000000" d="M 408 136 L 466 136 L 476 146 L 476 174 L 408 174 L 408 136 L 408 136" stroke-miterlimit="10"></path></g><g transform="translate(-110,-30) scale(1,1)"><path fill="none" stroke="#000000" d="M 466 136 L 466 146 L 476 146 L 466 136" stroke-miterlimit="10"></path></g><g transform="translate(-110,-30) scale(1,1)"><g><path fill="none" stroke="none"></path><text fill="#000000" stroke="none" font-family="Arial" font-size="13px" font-style="normal" font-weight="normal" text-decoration="none" x="413" y="154">Is Field</text><text fill="#000000" stroke="none" font-family="Arial" font-size="13px" font-style="normal" font-weight="normal" text-decoration="none" x="413" y="167">User</text></g></g><g transform="translate(-110,-30) scale(1,1)"><path fill="none" stroke="#000000" d="M 455 176 L 468 197" stroke-miterlimit="10" stroke-dasharray="3"></path></g><g transform="translate(-110,-30) scale(1,1)"><path fill="#ffeaad" stroke="none" d="M 368 376 L 439 376 L 449 386 L 449 425 L 368 425 L 368 376"></path></g><g transform="translate(-110,-30) scale(1,1)"><path fill="none" stroke="#000000" d="M 368 376 L 439 376 L 449 386 L 449 425 L 368 425 L 368 376 L 368 376" stroke-miterlimit="10"></path></g><g transform="translate(-110,-30) scale(1,1)"><path fill="none" stroke="#000000" d="M 439 376 L 439 386 L 449 386 L 439 376" stroke-miterlimit="10"></path></g><g transform="translate(-110,-30) scale(1,1)"><g><path fill="none" stroke="none"></path><text fill="#000000" stroke="none" font-family="Arial" font-size="13px" font-style="normal" font-weight="normal" text-decoration="none" x="373" y="394">Is</text><text fill="#000000" stroke="none" font-family="Arial" font-size="13px" font-style="normal" font-weight="normal" text-decoration="none" x="373" y="407">Attempting</text><text fill="#000000" stroke="none" font-family="Arial" font-size="13px" font-style="normal" font-weight="normal" text-decoration="none" x="373" y="420">Course</text></g></g><g transform="translate(-110,-30) scale(1,1)"><path fill="none" stroke="#000000" d="M 451 386 L 462 382" stroke-miterlimit="10" stroke-dasharray="3"></path></g><g transform="translate(-110,-30) scale(1,1)"><rect fill="#00ff00" stroke="none" x="120" y="40" width="207" height="21"></rect></g><g transform="translate(-110,-30) scale(1,1)"><path fill="none" stroke="#000000" d="M 120 40 L 327 40 L 327 61 L 120 61 L 120 40 Z Z" stroke-miterlimit="10" stroke-width="2"></path></g><g transform="translate(-110,-30) scale(1,1)"><path fill="none" stroke="#000000" d="M 120 663 L 120 40 L 327 40 L 327 663" stroke-miterlimit="10" stroke-width="2"></path></g><g transform="translate(-110,-30) scale(1,1)"><g><path fill="none" stroke="none"></path><text fill="#000000" stroke="none" font-family="Arial" font-size="13px" font-style="normal" font-weight="normal" text-decoration="none" x="197" y="57">All Users</text></g></g><g transform="translate(-110,-30) scale(1,1)"><rect fill="#ffadad" stroke="none" x="352" y="40" width="415" height="21"></rect></g><g transform="translate(-110,-30) scale(1,1)"><path fill="none" stroke="#000000" d="M 352 40 L 767 40 L 767 61 L 352 61 L 352 40 Z Z" stroke-miterlimit="10" stroke-width="2"></path></g><g transform="translate(-110,-30) scale(1,1)"><path fill="none" stroke="#000000" d="M 352 663 L 352 40 L 767 40 L 767 663" stroke-miterlimit="10" stroke-width="2"></path></g><g transform="translate(-110,-30) scale(1,1)"><g><path fill="none" stroke="none"></path><text fill="#000000" stroke="none" font-family="Arial" font-size="13px" font-style="normal" font-weight="normal" text-decoration="none" x="537" y="57">System</text></g></g></g></svg>