<svg version="1.1" xmlns="http://www.w3.org/2000/svg" xmlns:xlink="http://www.w3.org/1999/xlink" width="724" height="469"><defs></defs><g><g transform="translate(-206,-38) scale(1,1)"><rect fill="#ffadad" stroke="none" x="560" y="48" width="199" height="21"></rect></g><g transform="translate(-206,-38) scale(1,1)"><path fill="none" stroke="#000000" d="M 560 48 L 759 48 L 759 69 L 560 69 L 560 48 Z Z" stroke-miterlimit="10" stroke-width="2"></path></g><g transform="translate(-206,-38) scale(1,1)"><path fill="none" stroke="#000000" d="M 560 487 L 560 48 L 759 48 L 759 487" stroke-miterlimit="10" stroke-width="2"></path></g><g transform="translate(-206,-38) scale(1,1)"><g><path fill="none" stroke="none"></path><text fill="#000000" stroke="none" font-family="Arial" font-size="13px" font-style="normal" font-weight="normal" text-decoration="none" x="637" y="65">System</text></g></g><g transform="translate(-206,-38) scale(1,1)"><rect fill="#38bcff" stroke="none" x="216" y="48" width="223" height="21"></rect></g><g transform="translate(-206,-38) scale(1,1)"><path fill="none" stroke="#000000" d="M 216 48 L 439 48 L 439 69 L 216 69 L 216 48 Z Z" stroke-miterlimit="10" stroke-width="2"></path></g><g transform="translate(-206,-38) scale(1,1)"><path fill="none" stroke="#000000" d="M 216 487 L 216 48 L 439 48 L 439 487" stroke-miterlimit="10" stroke-width="2"></path></g><g transform="translate(-206,-38) scale(1,1)"><g><path fill="none" stroke="none"></path><text fill="#000000" stroke="none" font-family="Arial" font-size="13px" font-style="normal" font-weight="normal" text-decoration="none" x="266.5" y="65">Course Adminsitrator</text></g></g><g transform="translate(-206,-38) scale(1,1)"><path fill="#C0C0C0" stroke="none" d="M 318 96.5 C 318 91.2532944 322.2532944 87 327.5 87 C 332.7467056 87 337 91.2532944 337 96.5 C 337 101.7467056 332.7467056 106 327.5 106 C 322.2532944 106 318 101.7467056 318 96.5 Z" opacity="0.2"></path></g><g transform="translate(-206,-38) scale(1,1)"><path fill="#000000" stroke="none" d="M 311 89.5 C 311 84.2532944 315.2532944 80 320.5 80 C 325.7467056 80 330 84.2532944 330 89.5 C 330 94.7467056 325.7467056 99 320.5 99 C 315.2532944 99 311 94.7467056 311 89.5 Z"></path></g><g transform="translate(-206,-38) scale(1,1)"><path fill="#C0C0C0" stroke="none" d="M 259 137 L 396 137 Q 406 137 406 147 L 406 167 Q 406 177 396 177 L 259 177 Q 249 177 249 167 L 249 147 Q 249 137 259 137 Z" opacity="0.2"></path></g><g transform="translate(-206,-38) scale(1,1)"><path fill="#38bcff" stroke="none" d="M 252 130 L 389 130 Q 399 130 399 140 L 399 160 Q 399 170 389 170 L 252 170 Q 242 170 242 160 L 242 140 Q 242 130 252 130 Z"></path></g><g transform="translate(-206,-38) scale(1,1)"><path fill="none" stroke="#000000" d="M 252 130 L 389 130 Q 399 130 399 140 L 399 160 Q 399 170 389 170 L 252 170 Q 242 170 242 160 L 242 140 Q 242 130 252 130 Z" stroke-miterlimit="10"></path></g><g transform="translate(-206,-38) scale(1,1)"><g><path fill="none" stroke="none"></path><text fill="#000000" stroke="none" font-family="Arial" font-size="13px" font-style="normal" font-weight="bold" text-decoration="none" x="253.5" y="149.5">Initialise Create Course</text></g></g><g transform="translate(-206,-38) scale(1,1)"><path fill="#C0C0C0" stroke="none" d="M 593 137 L 743 137 Q 753 137 753 147 L 753 167 Q 753 177 743 177 L 593 177 Q 583 177 583 167 L 583 147 Q 583 137 593 137 Z" opacity="0.2"></path></g><g transform="translate(-206,-38) scale(1,1)"><path fill="#ffadad" stroke="none" d="M 586 130 L 736 130 Q 746 130 746 140 L 746 160 Q 746 170 736 170 L 586 170 Q 576 170 576 160 L 576 140 Q 576 130 586 130 Z"></path></g><g transform="translate(-206,-38) scale(1,1)"><path fill="none" stroke="#000000" d="M 586 130 L 736 130 Q 746 130 746 140 L 746 160 Q 746 170 736 170 L 586 170 Q 576 170 576 160 L 576 140 Q 576 130 586 130 Z" stroke-miterlimit="10"></path></g><g transform="translate(-206,-38) scale(1,1)"><g><path fill="none" stroke="none"></path><text fill="#000000" stroke="none" font-family="Arial" font-size="13px" font-style="normal" font-weight="bold" text-decoration="none" x="587" y="149.5">Get Initital Course Details</text></g></g><g transform="translate(-206,-38) scale(1,1)"><path fill="#C0C0C0" stroke="none" d="M 259 231 L 742 231 Q 752 231 752 241 L 752 372 Q 752 382 742 382 L 259 382 Q 249 382 249 372 L 249 241 Q 249 231 259 231 Z" opacity="0.2"></path></g><g transform="translate(-206,-38) scale(1,1)"><path fill="#ffd8ff" stroke="none" d="M 252 224 L 735 224 Q 745 224 745 234 L 745 365 Q 745 375 735 375 L 252 375 Q 242 375 242 365 L 242 234 Q 242 224 252 224 Z"></path></g><g transform="translate(-206,-38) scale(1,1)"><path fill="none" stroke="#000000" d="M 252 224 L 735 224 Q 745 224 745 234 L 745 365 Q 745 375 735 375 L 252 375 Q 242 375 242 365 L 242 234 Q 242 224 252 224 Z" stroke-miterlimit="10" stroke-dasharray="3"></path></g><g transform="translate(-206,-38) scale(1,1)"><g><path fill="none" stroke="none"></path><text fill="#000000" stroke="none" font-family="Arial" font-size="13px" font-style="normal" font-weight="normal" text-decoration="none" x="247" y="241.5">«iterative»</text></g></g><g transform="translate(-206,-38) scale(1,1)"><g><path fill="none" stroke="none"></path><text fill="#000000" stroke="none" font-family="Arial" font-size="13px" font-style="normal" font-weight="bold" text-decoration="none" x="445" y="256.5">Select Locations</text></g></g><g transform="translate(-206,-38) scale(1,1)"><rect fill="#C0C0C0" stroke="none" x="815" y="288" width="112" height="37" opacity="0.2"></rect></g><g transform="translate(-206,-38) scale(1,1)"><rect fill="#ffca2b" stroke="none" x="808" y="281" width="112" height="37"></rect></g><g transform="translate(-206,-38) scale(1,1)"><path fill="none" stroke="#000000" d="M 808 281 L 920 281 L 920 318 L 808 318 L 808 281 Z Z" stroke-miterlimit="10"></path></g><g transform="translate(-206,-38) scale(1,1)"><rect fill="#ffca2b" stroke="none" x="808" y="281" width="112" height="37"></rect></g><g transform="translate(-206,-38) scale(1,1)"><path fill="none" stroke="#000000" d="M 808 281 L 920 281 L 920 318 L 808 318 L 808 281 Z Z" stroke-miterlimit="10"></path></g><g transform="translate(-206,-38) scale(1,1)"><g><path fill="none" stroke="none"></path><text fill="#000000" stroke="none" font-family="Arial" font-size="13px" font-style="normal" font-weight="normal" text-decoration="none" x="830" y="298.5">«datastore»</text></g></g><g transform="translate(-206,-38) scale(1,1)"><g><path fill="none" stroke="none"></path><text fill="#000000" stroke="none" font-family="Arial" font-size="13px" font-style="normal" font-weight="bold" text-decoration="none" x="819" y="313.5">Course Storage</text></g></g><g transform="translate(-206,-38) scale(1,1)"><path fill="none" stroke="#000000" d="M 320 100 L 320 129" stroke-miterlimit="10"></path></g><g transform="translate(-206,-38) scale(1,1)"><path fill="none" stroke="#000000" d="M 315.790482243984 118.83732514237585 L 320 129 L 324.209517756016 118.83732514237585" stroke-miterlimit="10"></path></g><g transform="translate(-206,-38) scale(1,1)"><path fill="none" stroke="#000000" d="M 400 150 L 575 150" stroke-miterlimit="10"></path></g><g transform="translate(-206,-38) scale(1,1)"><path fill="none" stroke="#000000" d="M 564.8373251423759 154.209517756016 L 575 150 L 564.8373251423758 145.790482243984" stroke-miterlimit="10"></path></g><g transform="translate(-206,-38) scale(1,1)"><path fill="none" stroke="#000000" d="M 637 171 L 579 223" stroke-miterlimit="10"></path></g><g transform="translate(-206,-38) scale(1,1)"><path fill="none" stroke="#000000" d="M 583.7567745374653 213.08167877109628 L 579 223 L 589.3768597309615 219.35023533307287" stroke-miterlimit="10"></path></g><g transform="translate(-206,-38) scale(1,1)"><path fill="none" stroke="#000000" d="M 615 299 L 402 299" stroke-miterlimit="10"></path></g><g transform="translate(-206,-38) scale(1,1)"><path fill="none" stroke="#000000" d="M 412.16267485762415 294.790482243984 L 402 299 L 412.16267485762415 303.209517756016" stroke-miterlimit="10"></path></g><g transform="translate(-206,-38) scale(1,1)"><path fill="none" stroke="#000000" d="M 746 299 L 807 299" stroke-miterlimit="10"></path></g><g transform="translate(-206,-38) scale(1,1)"><path fill="none" stroke="#000000" d="M 796.8373251423759 303.209517756016 L 807 299 L 796.8373251423758 294.790482243984" stroke-miterlimit="10"></path></g><g transform="translate(-206,-38) scale(1,1)"><path fill="#C0C0C0" stroke="none" d="M 486 491.5 C 486 484.59644 491.59644 479 498.5 479 C 505.40356 479 511 484.59644 511 491.5 C 511 498.40356 505.40356 504 498.5 504 C 491.59644 504 486 498.40356 486 491.5 Z" opacity="0.2"></path></g><g transform="translate(-206,-38) scale(1,1)"><path fill="none" stroke="#000000" d="M 479 484.5 C 479 477.59644 484.59644 472 491.5 472 C 498.40356 472 504 477.59644 504 484.5 C 504 491.40356 498.40356 497 491.5 497 C 484.59644 497 479 491.40356 479 484.5 Z" stroke-miterlimit="10"></path></g><g transform="translate(-206,-38) scale(1,1)"><path fill="#000000" stroke="none" d="M 484 484.5 C 484 480.357864 487.357864 477 491.5 477 C 495.642136 477 499 480.357864 499 484.5 C 499 488.642136 495.642136 492 491.5 492 C 487.357864 492 484 488.642136 484 484.5 Z"></path></g><g transform="translate(-206,-38) scale(1,1)"><path fill="none" stroke="#000000" d="M 492 376 L 491 471" stroke-miterlimit="10"></path></g><g transform="translate(-206,-38) scale(1,1)"><path fill="none" stroke="#000000" d="M 486.8976850375729 460.793579866131 L 491 471 L 495.31625415980244 460.8821963832071" stroke-miterlimit="10"></path></g><g transform="translate(-206,-38) scale(1,1)"><path fill="#C0C0C0" stroke="none" d="M 297 286 L 398 286 Q 408 286 408 296 L 408 316 Q 408 326 398 326 L 297 326 Q 287 326 287 316 L 287 296 Q 287 286 297 286 Z" opacity="0.2"></path></g><g transform="translate(-206,-38) scale(1,1)"><path fill="#38bcff" stroke="none" d="M 290 279 L 391 279 Q 401 279 401 289 L 401 309 Q 401 319 391 319 L 290 319 Q 280 319 280 309 L 280 289 Q 280 279 290 279 Z"></path></g><g transform="translate(-206,-38) scale(1,1)"><path fill="none" stroke="#000000" d="M 290 279 L 391 279 Q 401 279 401 289 L 401 309 Q 401 319 391 319 L 290 319 Q 280 319 280 309 L 280 289 Q 280 279 290 279 Z" stroke-miterlimit="10"></path></g><g transform="translate(-206,-38) scale(1,1)"><g><path fill="none" stroke="none"></path><text fill="#000000" stroke="none" font-family="Arial" font-size="13px" font-style="normal" font-weight="bold" text-decoration="none" x="288.5" y="298.5">Choose Locations</text></g></g><g transform="translate(-206,-38) scale(1,1)"><path fill="#C0C0C0" stroke="none" d="M 633 286 L 709 286 Q 719 286 719 296 L 719 316 Q 719 326 709 326 L 633 326 Q 623 326 623 316 L 623 296 Q 623 286 633 286 Z" opacity="0.2"></path></g><g transform="translate(-206,-38) scale(1,1)"><path fill="#ffadad" stroke="none" d="M 626 279 L 702 279 Q 712 279 712 289 L 712 309 Q 712 319 702 319 L 626 319 Q 616 319 616 309 L 616 289 Q 616 279 626 279 Z"></path></g><g transform="translate(-206,-38) scale(1,1)"><path fill="none" stroke="#000000" d="M 626 279 L 702 279 Q 712 279 712 289 L 712 309 Q 712 319 702 319 L 626 319 Q 616 319 616 309 L 616 289 Q 616 279 626 279 Z" stroke-miterlimit="10"></path></g><g transform="translate(-206,-38) scale(1,1)"><g><path fill="none" stroke="none"></path><text fill="#000000" stroke="none" font-family="Arial" font-size="13px" font-style="normal" font-weight="bold" text-decoration="none" x="623.5" y="298.5">List Locations</text></g></g></g></svg>