<svg version="1.1" xmlns="http://www.w3.org/2000/svg" xmlns:xlink="http://www.w3.org/1999/xlink" width="883" height="739"><defs></defs><g><g transform="translate(-94,-14) scale(1,1)"><rect fill="#ff00ff" stroke="none" x="696" y="24" width="271" height="21"></rect></g><g transform="translate(-94,-14) scale(1,1)"><path fill="none" stroke="#000000" d="M 696 24 L 967 24 L 967 45 L 696 45 L 696 24 Z Z" stroke-miterlimit="10" stroke-width="2"></path></g><g transform="translate(-94,-14) scale(1,1)"><path fill="none" stroke="#000000" d="M 696 647 L 696 24 L 967 24 L 967 647" stroke-miterlimit="10" stroke-width="2"></path></g><g transform="translate(-94,-14) scale(1,1)"><g><path fill="none" stroke="none"></path><text fill="#000000" stroke="none" font-family="Arial" font-size="13px" font-style="normal" font-weight="normal" text-decoration="none" x="794.5" y="41">Monitor User</text></g></g><g transform="translate(-94,-14) scale(1,1)"><rect fill="#ffadad" stroke="none" x="384" y="24" width="191" height="21"></rect></g><g transform="translate(-94,-14) scale(1,1)"><path fill="none" stroke="#000000" d="M 384 24 L 575 24 L 575 45 L 384 45 L 384 24 Z Z" stroke-miterlimit="10" stroke-width="2"></path></g><g transform="translate(-94,-14) scale(1,1)"><path fill="none" stroke="#000000" d="M 384 743 L 384 24 L 575 24 L 575 743" stroke-miterlimit="10" stroke-width="2"></path></g><g transform="translate(-94,-14) scale(1,1)"><g><path fill="none" stroke="none"></path><text fill="#000000" stroke="none" font-family="Arial" font-size="13px" font-style="normal" font-weight="normal" text-decoration="none" x="457" y="41">System</text></g></g><g transform="translate(-94,-14) scale(1,1)"><rect fill="#38bcff" stroke="none" x="104" y="24" width="223" height="21"></rect></g><g transform="translate(-94,-14) scale(1,1)"><path fill="none" stroke="#000000" d="M 104 24 L 327 24 L 327 45 L 104 45 L 104 24 Z Z" stroke-miterlimit="10" stroke-width="2"></path></g><g transform="translate(-94,-14) scale(1,1)"><path fill="none" stroke="#000000" d="M 104 679 L 104 24 L 327 24 L 327 679" stroke-miterlimit="10" stroke-width="2"></path></g><g transform="translate(-94,-14) scale(1,1)"><g><path fill="none" stroke="none"></path><text fill="#000000" stroke="none" font-family="Arial" font-size="13px" font-style="normal" font-weight="normal" text-decoration="none" x="186" y="41">Field User</text></g></g><g transform="translate(-94,-14) scale(1,1)"><path fill="#C0C0C0" stroke="none" d="M 209 72.5 C 209 67.2532944 213.2532944 63 218.5 63 C 223.7467056 63 228 67.2532944 228 72.5 C 228 77.7467056 223.7467056 82 218.5 82 C 213.2532944 82 209 77.7467056 209 72.5 Z" opacity="0.2"></path></g><g transform="translate(-94,-14) scale(1,1)"><path fill="#000000" stroke="none" d="M 202 65.5 C 202 60.2532944 206.2532944 56 211.5 56 C 216.7467056 56 221 60.2532944 221 65.5 C 221 70.7467056 216.7467056 75 211.5 75 C 206.2532944 75 202 70.7467056 202 65.5 Z"></path></g><g transform="translate(-94,-14) scale(1,1)"><path fill="#C0C0C0" stroke="none" d="M 161 143 L 276 143 Q 286 143 286 153 L 286 173 Q 286 183 276 183 L 161 183 Q 151 183 151 173 L 151 153 Q 151 143 161 143 Z" opacity="0.2"></path></g><g transform="translate(-94,-14) scale(1,1)"><path fill="#38bcff" stroke="none" d="M 154 136 L 269 136 Q 279 136 279 146 L 279 166 Q 279 176 269 176 L 154 176 Q 144 176 144 166 L 144 146 Q 144 136 154 136 Z"></path></g><g transform="translate(-94,-14) scale(1,1)"><path fill="none" stroke="#000000" d="M 154 136 L 269 136 Q 279 136 279 146 L 279 166 Q 279 176 269 176 L 154 176 Q 144 176 144 166 L 144 146 Q 144 136 154 136 Z" stroke-miterlimit="10"></path></g><g transform="translate(-94,-14) scale(1,1)"><g><path fill="none" stroke="none"></path><text fill="#000000" stroke="none" font-family="Arial" font-size="13px" font-style="normal" font-weight="bold" text-decoration="none" x="153.5" y="155.5">Write help message</text></g></g><g transform="translate(-94,-14) scale(1,1)"><path fill="#C0C0C0" stroke="none" d="M 177 242 L 259 242 Q 269 242 269 252 L 269 272 Q 269 282 259 282 L 177 282 Q 167 282 167 272 L 167 252 Q 167 242 177 242 Z" opacity="0.2"></path></g><g transform="translate(-94,-14) scale(1,1)"><path fill="#38bcff" stroke="none" d="M 170 235 L 252 235 Q 262 235 262 245 L 262 265 Q 262 275 252 275 L 170 275 Q 160 275 160 265 L 160 245 Q 160 235 170 235 Z"></path></g><g transform="translate(-94,-14) scale(1,1)"><path fill="none" stroke="#000000" d="M 170 235 L 252 235 Q 262 235 262 245 L 262 265 Q 262 275 252 275 L 170 275 Q 160 275 160 265 L 160 245 Q 160 235 170 235 Z" stroke-miterlimit="10"></path></g><g transform="translate(-94,-14) scale(1,1)"><g><path fill="none" stroke="none"></path><text fill="#000000" stroke="none" font-family="Arial" font-size="13px" font-style="normal" font-weight="bold" text-decoration="none" x="167.5" y="254.5">Send message</text></g></g><g transform="translate(-94,-14) scale(1,1)"><path fill="#C0C0C0" stroke="none" d="M 448 242 L 525 242 Q 535 242 535 252 L 535 272 Q 535 282 525 282 L 448 282 Q 438 282 438 272 L 438 252 Q 438 242 448 242 Z" opacity="0.2"></path></g><g transform="translate(-94,-14) scale(1,1)"><path fill="#ffadad" stroke="none" d="M 441 235 L 518 235 Q 528 235 528 245 L 528 265 Q 528 275 518 275 L 441 275 Q 431 275 431 265 L 431 245 Q 431 235 441 235 Z"></path></g><g transform="translate(-94,-14) scale(1,1)"><path fill="none" stroke="#000000" d="M 441 235 L 518 235 Q 528 235 528 245 L 528 265 Q 528 275 518 275 L 441 275 Q 431 275 431 265 L 431 245 Q 431 235 441 235 Z" stroke-miterlimit="10"></path></g><g transform="translate(-94,-14) scale(1,1)"><g><path fill="none" stroke="none"></path><text fill="#000000" stroke="none" font-family="Arial" font-size="13px" font-style="normal" font-weight="bold" text-decoration="none" x="439.5" y="254.5">Notify Monitor</text></g></g><g transform="translate(-94,-14) scale(1,1)"><path fill="#C0C0C0" stroke="none" d="M 788 359 L 889 359 Q 899 359 899 369 L 899 389 Q 899 399 889 399 L 788 399 Q 778 399 778 389 L 778 369 Q 778 359 788 359 Z" opacity="0.2"></path></g><g transform="translate(-94,-14) scale(1,1)"><path fill="#ff6dff" stroke="none" d="M 781 352 L 882 352 Q 892 352 892 362 L 892 382 Q 892 392 882 392 L 781 392 Q 771 392 771 382 L 771 362 Q 771 352 781 352 Z"></path></g><g transform="translate(-94,-14) scale(1,1)"><path fill="none" stroke="#000000" d="M 781 352 L 882 352 Q 892 352 892 362 L 892 382 Q 892 392 882 392 L 781 392 Q 771 392 771 382 L 771 362 Q 771 352 781 352 Z" stroke-miterlimit="10"></path></g><g transform="translate(-94,-14) scale(1,1)"><g><path fill="none" stroke="none"></path><text fill="#000000" stroke="none" font-family="Arial" font-size="13px" font-style="normal" font-weight="bold" text-decoration="none" x="780" y="371.5">Retrieve Message</text></g></g><g transform="translate(-94,-14) scale(1,1)"><path fill="none" stroke="#000000" d="M 211 76 L 211 135" stroke-miterlimit="10"></path></g><g transform="translate(-94,-14) scale(1,1)"><path fill="none" stroke="#000000" d="M 206.790482243984 124.83732514237585 L 211 135 L 215.209517756016 124.83732514237585" stroke-miterlimit="10"></path></g><g transform="translate(-94,-14) scale(1,1)"><path fill="none" stroke="#000000" d="M 211 177 L 211 234" stroke-miterlimit="10"></path></g><g transform="translate(-94,-14) scale(1,1)"><path fill="none" stroke="#000000" d="M 206.790482243984 223.83732514237585 L 211 234 L 215.209517756016 223.83732514237585" stroke-miterlimit="10"></path></g><g transform="translate(-94,-14) scale(1,1)"><path fill="none" stroke="#000000" d="M 263 255 L 430 255" stroke-miterlimit="10"></path></g><g transform="translate(-94,-14) scale(1,1)"><path fill="none" stroke="#000000" d="M 419.83732514237585 259.209517756016 L 430 255 L 419.83732514237585 250.790482243984" stroke-miterlimit="10"></path></g><g transform="translate(-94,-14) scale(1,1)"><path fill="#C0C0C0" stroke="none" d="M 743 244 L 934 244 Q 944 244 944 254 L 944 274 Q 944 284 934 284 L 743 284 Q 733 284 733 274 L 733 254 Q 733 244 743 244 Z" opacity="0.2"></path></g><g transform="translate(-94,-14) scale(1,1)"><path fill="#ff38ff" stroke="none" d="M 736 237 L 927 237 Q 937 237 937 247 L 937 267 Q 937 277 927 277 L 736 277 Q 726 277 726 267 L 726 247 Q 726 237 736 237 Z"></path></g><g transform="translate(-94,-14) scale(1,1)"><path fill="none" stroke="#000000" d="M 736 237 L 927 237 Q 937 237 937 247 L 937 267 Q 937 277 927 277 L 736 277 Q 726 277 726 267 L 726 247 Q 726 237 736 237 Z" stroke-miterlimit="10"></path></g><g transform="translate(-94,-14) scale(1,1)"><path fill="none" stroke="#000000" d="M 911 264 C 911 262.3431456 912.3431456 261 914 261 C 915.6568544 261 917 262.3431456 917 264 C 917 265.6568544 915.6568544 267 914 267 C 912.3431456 267 911 265.6568544 911 264 Z" stroke-miterlimit="10"></path></g><g transform="translate(-94,-14) scale(1,1)"><path fill="none" stroke="#000000" d="M 917 264 L 923 264" stroke-miterlimit="10"></path></g><g transform="translate(-94,-14) scale(1,1)"><path fill="none" stroke="#000000" d="M 923 264 C 923 262.3431456 924.3431456 261 926 261 C 927.6568544 261 929 262.3431456 929 264 C 929 265.6568544 927.6568544 267 926 267 C 924.3431456 267 923 265.6568544 923 264 Z" stroke-miterlimit="10"></path></g><g transform="translate(-94,-14) scale(1,1)"><g><path fill="none" stroke="none"></path><text fill="#000000" stroke="none" font-family="Arial" font-size="13px" font-style="normal" font-weight="bold" text-decoration="none" x="738" y="256.5">Select:Select Field User Activity</text></g></g><g transform="translate(-94,-14) scale(1,1)"><path fill="none" stroke="#000000" d="M 529 255 L 725 256" stroke-miterlimit="10"></path></g><g transform="translate(-94,-14) scale(1,1)"><path fill="none" stroke="#000000" d="M 714.815980559296 260.15761326139926 L 725 256 L 714.8589342630561 251.7386873244291" stroke-miterlimit="10"></path></g><g transform="translate(-94,-14) scale(1,1)"><path fill="none" stroke="#000000" d="M 831 278 L 831 351" stroke-miterlimit="10"></path></g><g transform="translate(-94,-14) scale(1,1)"><path fill="none" stroke="#000000" d="M 826.790482243984 340.83732514237585 L 831 351 L 835.209517756016 340.83732514237585" stroke-miterlimit="10"></path></g><g transform="translate(-94,-14) scale(1,1)"><path fill="#C0C0C0" stroke="none" d="M 738 483 L 938 483 Q 948 483 948 493 L 948 513 Q 948 523 938 523 L 738 523 Q 728 523 728 513 L 728 493 Q 728 483 738 483 Z" opacity="0.2"></path></g><g transform="translate(-94,-14) scale(1,1)"><path fill="#ff38ff" stroke="none" d="M 731 476 L 931 476 Q 941 476 941 486 L 941 506 Q 941 516 931 516 L 731 516 Q 721 516 721 506 L 721 486 Q 721 476 731 476 Z"></path></g><g transform="translate(-94,-14) scale(1,1)"><path fill="none" stroke="#000000" d="M 731 476 L 931 476 Q 941 476 941 486 L 941 506 Q 941 516 931 516 L 731 516 Q 721 516 721 506 L 721 486 Q 721 476 731 476 Z" stroke-miterlimit="10"></path></g><g transform="translate(-94,-14) scale(1,1)"><path fill="none" stroke="#000000" d="M 915 503 C 915 501.3431456 916.3431456 500 918 500 C 919.6568544 500 921 501.3431456 921 503 C 921 504.6568544 919.6568544 506 918 506 C 916.3431456 506 915 504.6568544 915 503 Z" stroke-miterlimit="10"></path></g><g transform="translate(-94,-14) scale(1,1)"><path fill="none" stroke="#000000" d="M 921 503 L 927 503" stroke-miterlimit="10"></path></g><g transform="translate(-94,-14) scale(1,1)"><path fill="none" stroke="#000000" d="M 927 503 C 927 501.3431456 928.3431456 500 930 500 C 931.6568544 500 933 501.3431456 933 503 C 933 504.6568544 931.6568544 506 930 506 C 928.3431456 506 927 504.6568544 927 503 Z" stroke-miterlimit="10"></path></g><g transform="translate(-94,-14) scale(1,1)"><g><path fill="none" stroke="none"></path><text fill="#000000" stroke="none" font-family="Arial" font-size="13px" font-style="normal" font-weight="bold" text-decoration="none" x="732" y="495.5">Send:Send User Message Activity</text></g></g><g transform="translate(-94,-14) scale(1,1)"><path fill="none" stroke="#000000" d="M 831 393 L 831 475" stroke-miterlimit="10"></path></g><g transform="translate(-94,-14) scale(1,1)"><path fill="none" stroke="#000000" d="M 826.790482243984 464.83732514237585 L 831 475 L 835.209517756016 464.83732514237585" stroke-miterlimit="10"></path></g></g></svg>