<svg version="1.1" xmlns="http://www.w3.org/2000/svg" xmlns:xlink="http://www.w3.org/1999/xlink" width="709" height="698"><defs></defs><g><g transform="translate(-61,-5) scale(1,1)"><rect fill="#C0C0C0" stroke="none" x="131" y="22" width="122" height="160" opacity="0.2"></rect></g><g transform="translate(-61,-5) scale(1,1)"><rect fill="#ffffff" stroke="none" x="124" y="15" width="122" height="160"></rect></g><g transform="translate(-61,-5) scale(1,1)"><path fill="none" stroke="#000000" d="M 124 15 L 246 15 L 246 175 L 124 175 L 124 15 Z Z" stroke-miterlimit="10"></path></g><g transform="translate(-61,-5) scale(1,1)"><path fill="none" stroke="#000000" d="M 124 40 L 246 40" stroke-miterlimit="10"></path></g><g transform="translate(-61,-5) scale(1,1)"><path fill="none" stroke="#000000" d="M 124 63 L 246 63" stroke-miterlimit="10"></path></g><g transform="translate(-61,-5) scale(1,1)"><g><path fill="none" stroke="none"></path><text fill="#000000" stroke="none" font-family="Arial" font-size="13px" font-style="italic" font-weight="bold" text-decoration="none" x="171.5" y="34.5">User</text></g></g><g transform="translate(-61,-5) scale(1,1)"><g><path fill="none" stroke="none"></path><text fill="#000000" stroke="none" font-family="Arial" font-size="13px" font-style="normal" font-weight="normal" text-decoration="none" x="129" y="57.5">-ID {id, unique}</text></g></g><g transform="translate(-61,-5) scale(1,1)"><g><path fill="none" stroke="none"></path><text fill="#000000" stroke="none" font-family="Arial" font-size="13px" font-style="normal" font-weight="normal" text-decoration="none" x="129" y="80.5">+getID()</text></g></g><g transform="translate(-61,-5) scale(1,1)"><g><path fill="none" stroke="none"></path><text fill="#000000" stroke="none" font-family="Arial" font-size="13px" font-style="normal" font-weight="normal" text-decoration="none" x="129" y="95.5">+setID()</text></g></g><g transform="translate(-61,-5) scale(1,1)"><rect fill="#C0C0C0" stroke="none" x="78" y="305" width="228" height="175" opacity="0.2"></rect></g><g transform="translate(-61,-5) scale(1,1)"><rect fill="#ffffff" stroke="none" x="71" y="298" width="228" height="175"></rect></g><g transform="translate(-61,-5) scale(1,1)"><path fill="none" stroke="#000000" d="M 71 298 L 299 298 L 299 473 L 71 473 L 71 298 Z Z" stroke-miterlimit="10"></path></g><g transform="translate(-61,-5) scale(1,1)"><path fill="none" stroke="#000000" d="M 71 323 L 299 323" stroke-miterlimit="10"></path></g><g transform="translate(-61,-5) scale(1,1)"><path fill="none" stroke="#000000" d="M 71 391 L 299 391" stroke-miterlimit="10"></path></g><g transform="translate(-61,-5) scale(1,1)"><g><path fill="none" stroke="none"></path><text fill="#000000" stroke="none" font-family="Arial" font-size="13px" font-style="normal" font-weight="bold" text-decoration="none" x="157.5" y="317.5">FieldUser</text></g></g><g transform="translate(-61,-5) scale(1,1)"><g><path fill="none" stroke="none"></path><text fill="#000000" stroke="none" font-family="Arial" font-size="13px" font-style="normal" font-weight="normal" text-decoration="none" x="76" y="340.5">-location: Location[*]</text></g></g><g transform="translate(-61,-5) scale(1,1)"><g><path fill="none" stroke="none"></path><text fill="#000000" stroke="none" font-family="Arial" font-size="13px" font-style="normal" font-weight="normal" text-decoration="none" x="76" y="355.5">«Course»-currentCourse: Course[0..1]</text></g></g><g transform="translate(-61,-5) scale(1,1)"><g><path fill="none" stroke="none"></path><text fill="#000000" stroke="none" font-family="Arial" font-size="13px" font-style="normal" font-weight="normal" text-decoration="none" x="76" y="370.5">-firstName[1]</text><path fill="none" stroke="#000000" d="M 76 370.5 L 150 370.5" stroke-miterlimit="10"></path></g></g><g transform="translate(-61,-5) scale(1,1)"><g><path fill="none" stroke="none"></path><text fill="#000000" stroke="none" font-family="Arial" font-size="13px" font-style="normal" font-weight="normal" text-decoration="none" x="76" y="385.5">-age: int</text></g></g><g transform="translate(-61,-5) scale(1,1)"><g><path fill="none" stroke="none"></path><text fill="#000000" stroke="none" font-family="Arial" font-size="13px" font-style="normal" font-weight="normal" text-decoration="none" x="76" y="408.5">+getCurrentLocation()</text><path fill="none" stroke="#000000" d="M 76 408.5 L 201 408.5" stroke-miterlimit="10"></path></g></g><g transform="translate(-61,-5) scale(1,1)"><g><path fill="none" stroke="none"></path><text fill="#000000" stroke="none" font-family="Arial" font-size="13px" font-style="normal" font-weight="normal" text-decoration="none" x="76" y="423.5">+getDirectionHelp()</text><path fill="none" stroke="#000000" d="M 76 423.5 L 187 423.5" stroke-miterlimit="10"></path></g></g><g transform="translate(-61,-5) scale(1,1)"><g><path fill="none" stroke="none"></path><text fill="#000000" stroke="none" font-family="Arial" font-size="13px" font-style="normal" font-weight="normal" text-decoration="none" x="76" y="438.5">+getMonitorHelp()</text><path fill="none" stroke="#000000" d="M 76 438.5 L 179 438.5" stroke-miterlimit="10"></path></g></g><g transform="translate(-61,-5) scale(1,1)"><g><path fill="none" stroke="none"></path><text fill="#000000" stroke="none" font-family="Arial" font-size="13px" font-style="normal" font-weight="normal" text-decoration="none" x="76" y="453.5">+getFirstName()</text></g></g><g transform="translate(-61,-5) scale(1,1)"><g><path fill="none" stroke="none"></path><text fill="#000000" stroke="none" font-family="Arial" font-size="13px" font-style="normal" font-weight="normal" text-decoration="none" x="76" y="468.5">+getAge()</text></g></g><g transform="translate(-61,-5) scale(1,1)"><path fill="none" stroke="#000000" d="M 185 297 L 185 176" stroke-miterlimit="10"></path></g><g transform="translate(-61,-5) scale(1,1)"><path fill="#FFFFFF" stroke="none" d="M 193.41903551203197 196.3253497152483 L 185 176 L 176.58096448796803 196.3253497152483"></path></g><g transform="translate(-61,-5) scale(1,1)"><path fill="none" stroke="#000000" d="M 193.41903551203197 196.3253497152483 L 185 176 L 176.58096448796803 196.3253497152483 L 193.41903551203197 196.3253497152483" stroke-miterlimit="10"></path></g><g transform="translate(-61,-5) scale(1,1)"><rect fill="#C0C0C0" stroke="none" x="412" y="74" width="355" height="57" opacity="0.2"></rect></g><g transform="translate(-61,-5) scale(1,1)"><rect fill="#ffffff" stroke="none" x="405" y="67" width="355" height="57"></rect></g><g transform="translate(-61,-5) scale(1,1)"><path fill="none" stroke="#000000" d="M 405 67 L 760 67 L 760 124 L 405 124 L 405 67 Z Z" stroke-miterlimit="10"></path></g><g transform="translate(-61,-5) scale(1,1)"><path fill="none" stroke="#000000" d="M 405 92 L 760 92" stroke-miterlimit="10"></path></g><g transform="translate(-61,-5) scale(1,1)"><path fill="none" stroke="#000000" d="M 405 102 L 760 102" stroke-miterlimit="10"></path></g><g transform="translate(-61,-5) scale(1,1)"><g><path fill="none" stroke="none"></path><text fill="#000000" stroke="none" font-family="Arial" font-size="13px" font-style="normal" font-weight="bold" text-decoration="none" x="547.5" y="86.5">MonitorUser</text></g></g><g transform="translate(-61,-5) scale(1,1)"><g><path fill="none" stroke="none"></path><text fill="#000000" stroke="none" font-family="Arial" font-size="13px" font-style="normal" font-weight="normal" text-decoration="none" x="410" y="119.5">+sendHelpMessage(message: string, timePenalty[0..1] = 0)</text><path fill="none" stroke="#000000" d="M 410 119.5 L 756 119.5" stroke-miterlimit="10"></path></g></g><g transform="translate(-61,-5) scale(1,1)"><path fill="none" stroke="#000000" d="M 404 95 L 247 95" stroke-miterlimit="10"></path></g><g transform="translate(-61,-5) scale(1,1)"><path fill="#FFFFFF" stroke="none" d="M 267.3253497152483 86.58096448796803 L 247 95 L 267.3253497152483 103.41903551203197"></path></g><g transform="translate(-61,-5) scale(1,1)"><path fill="none" stroke="#000000" d="M 267.3253497152483 86.58096448796803 L 247 95 L 267.3253497152483 103.41903551203197 L 267.3253497152483 86.58096448796803" stroke-miterlimit="10"></path></g><g transform="translate(-61,-5) scale(1,1)"><rect fill="#C0C0C0" stroke="none" x="412" y="327" width="134" height="100" opacity="0.2"></rect></g><g transform="translate(-61,-5) scale(1,1)"><rect fill="#ffffff" stroke="none" x="405" y="320" width="134" height="100"></rect></g><g transform="translate(-61,-5) scale(1,1)"><path fill="none" stroke="#000000" d="M 405 320 L 539 320 L 539 420 L 405 420 L 405 320 Z Z" stroke-miterlimit="10"></path></g><g transform="translate(-61,-5) scale(1,1)"><path fill="none" stroke="#000000" d="M 405 345 L 539 345" stroke-miterlimit="10"></path></g><g transform="translate(-61,-5) scale(1,1)"><path fill="none" stroke="#000000" d="M 405 368 L 539 368" stroke-miterlimit="10"></path></g><g transform="translate(-61,-5) scale(1,1)"><g><path fill="none" stroke="none"></path><text fill="#000000" stroke="none" font-family="Arial" font-size="13px" font-style="normal" font-weight="bold" text-decoration="none" x="433" y="339.5">CourseAdmin</text></g></g><g transform="translate(-61,-5) scale(1,1)"><g><path fill="none" stroke="none"></path><text fill="#000000" stroke="none" font-family="Arial" font-size="13px" font-style="normal" font-weight="normal" text-decoration="none" x="410" y="362.5">-location: Location[*]</text></g></g><g transform="translate(-61,-5) scale(1,1)"><g><path fill="none" stroke="none"></path><text fill="#000000" stroke="none" font-family="Arial" font-size="13px" font-style="normal" font-weight="normal" text-decoration="none" x="410" y="385.5">+getCurrentLocation()</text><path fill="none" stroke="#000000" d="M 410 385.5 L 535 385.5" stroke-miterlimit="10"></path></g></g><g transform="translate(-61,-5) scale(1,1)"><g><path fill="none" stroke="none"></path><text fill="#000000" stroke="none" font-family="Arial" font-size="13px" font-style="normal" font-weight="normal" text-decoration="none" x="410" y="400.5">+createMarker()</text><path fill="none" stroke="#000000" d="M 410 400.5 L 502 400.5" stroke-miterlimit="10"></path></g></g><g transform="translate(-61,-5) scale(1,1)"><g><path fill="none" stroke="none"></path><text fill="#000000" stroke="none" font-family="Arial" font-size="13px" font-style="normal" font-weight="normal" text-decoration="none" x="410" y="415.5">+createCourse()</text><path fill="none" stroke="#000000" d="M 410 415.5 L 503 415.5" stroke-miterlimit="10"></path></g></g><g transform="translate(-61,-5) scale(1,1)"><path fill="none" stroke="#000000" d="M 419 319 L 247 154" stroke-miterlimit="10"></path></g><g transform="translate(-61,-5) scale(1,1)"><path fill="#FFFFFF" stroke="none" d="M 267.4958047840397 161.995122654127 L 247 154 L 255.83931710351877 174.14612799382155"></path></g><g transform="translate(-61,-5) scale(1,1)"><path fill="none" stroke="#000000" d="M 267.4958047840397 161.995122654127 L 247 154 L 255.83931710351877 174.14612799382155 L 267.4958047840397 161.995122654127" stroke-miterlimit="10"></path></g><g transform="translate(-61,-5) scale(1,1)"><rect fill="#C0C0C0" stroke="none" x="117" y="600" width="151" height="100" opacity="0.2"></rect></g><g transform="translate(-61,-5) scale(1,1)"><rect fill="#ffffff" stroke="none" x="110" y="593" width="151" height="100"></rect></g><g transform="translate(-61,-5) scale(1,1)"><path fill="none" stroke="#000000" d="M 110 593 L 261 593 L 261 693 L 110 693 L 110 593 Z Z" stroke-miterlimit="10"></path></g><g transform="translate(-61,-5) scale(1,1)"><path fill="none" stroke="#000000" d="M 110 618 L 261 618" stroke-miterlimit="10"></path></g><g transform="translate(-61,-5) scale(1,1)"><path fill="none" stroke="#000000" d="M 110 656 L 261 656" stroke-miterlimit="10"></path></g><g transform="translate(-61,-5) scale(1,1)"><g><path fill="none" stroke="none"></path><text fill="#000000" stroke="none" font-family="Arial" font-size="13px" font-style="normal" font-weight="bold" text-decoration="none" x="161" y="612.5">Location</text></g></g><g transform="translate(-61,-5) scale(1,1)"><g><path fill="none" stroke="none"></path><text fill="#000000" stroke="none" font-family="Arial" font-size="13px" font-style="normal" font-weight="normal" text-decoration="none" x="115" y="635.5">-longitude: double[1]</text></g></g><g transform="translate(-61,-5) scale(1,1)"><g><path fill="none" stroke="none"></path><text fill="#000000" stroke="none" font-family="Arial" font-size="13px" font-style="normal" font-weight="normal" text-decoration="none" x="115" y="650.5">-latitude: double[1]</text></g></g><g transform="translate(-61,-5) scale(1,1)"><g><path fill="none" stroke="none"></path><text fill="#000000" stroke="none" font-family="Arial" font-size="13px" font-style="normal" font-weight="normal" text-decoration="none" x="115" y="673.5">+getLongitude()</text></g></g><g transform="translate(-61,-5) scale(1,1)"><g><path fill="none" stroke="none"></path><text fill="#000000" stroke="none" font-family="Arial" font-size="13px" font-style="normal" font-weight="normal" text-decoration="none" x="115" y="688.5">+getLatitude()</text></g></g><g transform="translate(-61,-5) scale(1,1)"><rect fill="#C0C0C0" stroke="none" x="615" y="455" width="152" height="130" opacity="0.2"></rect></g><g transform="translate(-61,-5) scale(1,1)"><rect fill="#ffffff" stroke="none" x="608" y="448" width="152" height="130"></rect></g><g transform="translate(-61,-5) scale(1,1)"><path fill="none" stroke="#000000" d="M 608 448 L 760 448 L 760 578 L 608 578 L 608 448 Z Z" stroke-miterlimit="10"></path></g><g transform="translate(-61,-5) scale(1,1)"><path fill="none" stroke="#000000" d="M 608 473 L 760 473" stroke-miterlimit="10"></path></g><g transform="translate(-61,-5) scale(1,1)"><path fill="none" stroke="#000000" d="M 608 526 L 760 526" stroke-miterlimit="10"></path></g><g transform="translate(-61,-5) scale(1,1)"><g><path fill="none" stroke="none"></path><text fill="#000000" stroke="none" font-family="Arial" font-size="13px" font-style="normal" font-weight="bold" text-decoration="none" x="663.5" y="467.5">Course</text></g></g><g transform="translate(-61,-5) scale(1,1)"><g><path fill="none" stroke="none"></path><text fill="#000000" stroke="none" font-family="Arial" font-size="13px" font-style="normal" font-weight="normal" text-decoration="none" x="613" y="490.5">-ID {id, ordered, unique}</text></g></g><g transform="translate(-61,-5) scale(1,1)"><g><path fill="none" stroke="none"></path><text fill="#000000" stroke="none" font-family="Arial" font-size="13px" font-style="normal" font-weight="normal" text-decoration="none" x="613" y="505.5">-ageFor: int</text></g></g><g transform="translate(-61,-5) scale(1,1)"><g><path fill="none" stroke="none"></path><text fill="#000000" stroke="none" font-family="Arial" font-size="13px" font-style="normal" font-weight="normal" text-decoration="none" x="613" y="520.5">«Marker»-markerList</text></g></g><g transform="translate(-61,-5) scale(1,1)"><g><path fill="none" stroke="none"></path><text fill="#000000" stroke="none" font-family="Arial" font-size="13px" font-style="normal" font-weight="normal" text-decoration="none" x="613" y="543.5">+setAgeFor(age: int)</text></g></g><g transform="translate(-61,-5) scale(1,1)"><g><path fill="none" stroke="none"></path><text fill="#000000" stroke="none" font-family="Arial" font-size="13px" font-style="normal" font-weight="normal" text-decoration="none" x="613" y="558.5">+getAgeFor()</text></g></g><g transform="translate(-61,-5) scale(1,1)"><g><path fill="none" stroke="none"></path><text fill="#000000" stroke="none" font-family="Arial" font-size="13px" font-style="normal" font-weight="normal" text-decoration="none" x="613" y="573.5">+getID()</text></g></g><g transform="translate(-61,-5) scale(1,1)"><rect fill="#C0C0C0" stroke="none" x="412" y="613" width="130" height="72" opacity="0.2"></rect></g><g transform="translate(-61,-5) scale(1,1)"><rect fill="#ffffff" stroke="none" x="405" y="606" width="130" height="72"></rect></g><g transform="translate(-61,-5) scale(1,1)"><path fill="none" stroke="#000000" d="M 405 606 L 535 606 L 535 678 L 405 678 L 405 606 Z Z" stroke-miterlimit="10"></path></g><g transform="translate(-61,-5) scale(1,1)"><path fill="none" stroke="#000000" d="M 405 631 L 535 631" stroke-miterlimit="10"></path></g><g transform="translate(-61,-5) scale(1,1)"><path fill="none" stroke="#000000" d="M 405 669 L 535 669" stroke-miterlimit="10"></path></g><g transform="translate(-61,-5) scale(1,1)"><g><path fill="none" stroke="none"></path><text fill="#000000" stroke="none" font-family="Arial" font-size="13px" font-style="normal" font-weight="bold" text-decoration="none" x="450" y="625.5">Marker</text></g></g><g transform="translate(-61,-5) scale(1,1)"><g><path fill="none" stroke="none"></path><text fill="#000000" stroke="none" font-family="Arial" font-size="13px" font-style="normal" font-weight="normal" text-decoration="none" x="410" y="648.5">-location: Location[1]</text></g></g><g transform="translate(-61,-5) scale(1,1)"><g><path fill="none" stroke="none"></path><text fill="#000000" stroke="none" font-family="Arial" font-size="13px" font-style="normal" font-weight="normal" text-decoration="none" x="410" y="663.5">-image: url[1]</text></g></g><g transform="translate(-61,-5) scale(1,1)"><path fill="none" stroke="#000000" d="M 185 474 L 185 592" stroke-miterlimit="10"></path></g><g transform="translate(-61,-5) scale(1,1)"><path fill="none" stroke="#000000" d="M 418 421 L 239 592" stroke-miterlimit="10"></path></g><g transform="translate(-61,-5) scale(1,1)"><path fill="none" stroke="#000000" d="M 404 642 L 262 643" stroke-miterlimit="10"></path></g><g transform="translate(-61,-5) scale(1,1)"><path fill="none" stroke="#000000" d="M 540 416 L 607 461" stroke-miterlimit="10"></path></g><g transform="translate(-61,-5) scale(1,1)"><path fill="none" stroke="#000000" d="M 472 421 L 470 605" stroke-miterlimit="10"></path></g><g transform="translate(-61,-5) scale(1,1)"><path fill="none" stroke="#000000" d="M 531 605 L 607 559" stroke-miterlimit="10"></path></g><g transform="translate(-61,-5) scale(1,1)"><g><path fill="none" stroke="none"></path><text fill="#000000" stroke="none" font-family="Arial" font-size="13px" font-style="normal" font-weight="normal" text-decoration="none" x="544.5" y="610.5">1..*</text></g></g><g transform="translate(-61,-5) scale(1,1)"><g><path fill="none" stroke="none"></path><text fill="#000000" stroke="none" font-family="Arial" font-size="13px" font-style="normal" font-weight="normal" text-decoration="none" x="583.5" y="586.5">0..*</text></g></g></g></svg>