<svg version="1.1" xmlns="http://www.w3.org/2000/svg" xmlns:xlink="http://www.w3.org/1999/xlink" width="852" height="731"><defs></defs><g><g transform="translate(-61,-6) scale(1,1)"><path fill="#C0C0C0" stroke="none" d="M 375 33 L 899 33 L 899 445 L 375 445" opacity="0.2"></path></g><g transform="translate(-61,-6) scale(1,1)"><path fill="#C0C0C0" stroke="none" d="M 375 33 L 385 23 L 909 23 L 899 33" opacity="0.2"></path></g><g transform="translate(-61,-6) scale(1,1)"><path fill="#C0C0C0" stroke="none" d="M 909 23 L 899 33 L 899 445 L 909 435" opacity="0.2"></path></g><g transform="translate(-61,-6) scale(1,1)"><path fill="#adc8ff" stroke="none" d="M 368 26 L 892 26 L 892 438 L 368 438"></path></g><g transform="translate(-61,-6) scale(1,1)"><path fill="#adc8ff" stroke="none" d="M 368 26 L 378 16 L 902 16 L 892 26"></path></g><g transform="translate(-61,-6) scale(1,1)"><path fill="#adc8ff" stroke="none" d="M 902 16 L 892 26 L 892 438 L 902 428"></path></g><g transform="translate(-61,-6) scale(1,1)"><path fill="none" stroke="#000000" d="M 368 26 L 892 26 L 892 438 L 368 438 L 368 26" stroke-miterlimit="10"></path></g><g transform="translate(-61,-6) scale(1,1)"><path fill="none" stroke="#000000" d="M 368 26 L 378 16 L 902 16 L 892 26 L 368 26" stroke-miterlimit="10"></path></g><g transform="translate(-61,-6) scale(1,1)"><path fill="none" stroke="#000000" d="M 902 16 L 892 26 L 892 438 L 902 428 L 902 16" stroke-miterlimit="10"></path></g><g transform="translate(-61,-6) scale(1,1)"><g><path fill="none" stroke="none"></path><text fill="#000000" stroke="none" font-family="Arial" font-size="13px" font-style="normal" font-weight="bold" text-decoration="none" x="590.5" y="45.5">User Interface</text><path fill="none" stroke="#000000" d="M 674.5 45.5 L 586.5 45.5" stroke-miterlimit="10"></path></g></g><g transform="translate(-61,-6) scale(1,1)"><rect fill="#C0C0C0" stroke="none" x="78" y="169" width="228" height="205" opacity="0.2"></rect></g><g transform="translate(-61,-6) scale(1,1)"><rect fill="#ffffff" stroke="none" x="71" y="162" width="228" height="205"></rect></g><g transform="translate(-61,-6) scale(1,1)"><path fill="none" stroke="#000000" d="M 71 162 L 299 162 L 299 367 L 71 367 L 71 162 Z Z" stroke-miterlimit="10"></path></g><g transform="translate(-61,-6) scale(1,1)"><path fill="none" stroke="#000000" d="M 71 187 L 299 187" stroke-miterlimit="10"></path></g><g transform="translate(-61,-6) scale(1,1)"><path fill="none" stroke="#000000" d="M 71 270 L 299 270" stroke-miterlimit="10"></path></g><g transform="translate(-61,-6) scale(1,1)"><g><path fill="none" stroke="none"></path><text fill="#000000" stroke="none" font-family="Arial" font-size="13px" font-style="normal" font-weight="bold" text-decoration="none" x="171.5" y="181.5">User</text></g></g><g transform="translate(-61,-6) scale(1,1)"><g><path fill="none" stroke="none"></path><text fill="#000000" stroke="none" font-family="Arial" font-size="13px" font-style="normal" font-weight="normal" text-decoration="none" x="76" y="204.5">-location: Location[*]</text></g></g><g transform="translate(-61,-6) scale(1,1)"><g><path fill="none" stroke="none"></path><text fill="#000000" stroke="none" font-family="Arial" font-size="13px" font-style="normal" font-weight="normal" text-decoration="none" x="76" y="219.5">«Course»-currentCourse: Course[0..1]</text></g></g><g transform="translate(-61,-6) scale(1,1)"><g><path fill="none" stroke="none"></path><text fill="#000000" stroke="none" font-family="Arial" font-size="13px" font-style="normal" font-weight="normal" text-decoration="none" x="76" y="234.5">-firstName[1]</text><path fill="none" stroke="#000000" d="M 76 234.5 L 150 234.5" stroke-miterlimit="10"></path></g></g><g transform="translate(-61,-6) scale(1,1)"><g><path fill="none" stroke="none"></path><text fill="#000000" stroke="none" font-family="Arial" font-size="13px" font-style="normal" font-weight="normal" text-decoration="none" x="76" y="249.5">-age: int</text></g></g><g transform="translate(-61,-6) scale(1,1)"><g><path fill="none" stroke="none"></path><text fill="#000000" stroke="none" font-family="Arial" font-size="13px" font-style="normal" font-weight="normal" text-decoration="none" x="76" y="264.5">-targetMarker: Marker[0..1]</text></g></g><g transform="translate(-61,-6) scale(1,1)"><g><path fill="none" stroke="none"></path><text fill="#000000" stroke="none" font-family="Arial" font-size="13px" font-style="normal" font-weight="normal" text-decoration="none" x="76" y="287.5">+getCurrentLocation()</text><path fill="none" stroke="#000000" d="M 76 287.5 L 201 287.5" stroke-miterlimit="10"></path></g></g><g transform="translate(-61,-6) scale(1,1)"><g><path fill="none" stroke="none"></path><text fill="#000000" stroke="none" font-family="Arial" font-size="13px" font-style="normal" font-weight="normal" text-decoration="none" x="76" y="302.5">+getFirstName()</text></g></g><g transform="translate(-61,-6) scale(1,1)"><g><path fill="none" stroke="none"></path><text fill="#000000" stroke="none" font-family="Arial" font-size="13px" font-style="normal" font-weight="normal" text-decoration="none" x="76" y="317.5">+getAge()</text></g></g><g transform="translate(-61,-6) scale(1,1)"><g><path fill="none" stroke="none"></path><text fill="#000000" stroke="none" font-family="Arial" font-size="13px" font-style="normal" font-weight="normal" text-decoration="none" x="76" y="332.5">+getCurrentTarget()</text></g></g><g transform="translate(-61,-6) scale(1,1)"><rect fill="#C0C0C0" stroke="none" x="407" y="58" width="355" height="117" opacity="0.2"></rect></g><g transform="translate(-61,-6) scale(1,1)"><rect fill="#ffffff" stroke="none" x="400" y="51" width="355" height="117"></rect></g><g transform="translate(-61,-6) scale(1,1)"><path fill="none" stroke="#000000" d="M 400 51 L 755 51 L 755 168 L 400 168 L 400 51 Z Z" stroke-miterlimit="10"></path></g><g transform="translate(-61,-6) scale(1,1)"><path fill="none" stroke="#000000" d="M 400 76 L 755 76" stroke-miterlimit="10"></path></g><g transform="translate(-61,-6) scale(1,1)"><path fill="none" stroke="#000000" d="M 400 86 L 755 86" stroke-miterlimit="10"></path></g><g transform="translate(-61,-6) scale(1,1)"><g><path fill="none" stroke="none"></path><text fill="#000000" stroke="none" font-family="Arial" font-size="13px" font-style="normal" font-weight="bold" text-decoration="none" x="542.5" y="70.5">MonitorUser</text></g></g><g transform="translate(-61,-6) scale(1,1)"><g><path fill="none" stroke="none"></path><text fill="#000000" stroke="none" font-family="Arial" font-size="13px" font-style="normal" font-weight="normal" text-decoration="none" x="405" y="103.5">+sendHelpMessage(message: string, timePenalty[0..1] = 0)</text><path fill="none" stroke="#000000" d="M 405 103.5 L 751 103.5" stroke-miterlimit="10"></path></g></g><g transform="translate(-61,-6) scale(1,1)"><g><path fill="none" stroke="none"></path><text fill="#000000" stroke="none" font-family="Arial" font-size="13px" font-style="normal" font-weight="normal" text-decoration="none" x="405" y="118.5">+selectUser()</text><path fill="none" stroke="#000000" d="M 405 118.5 L 483 118.5" stroke-miterlimit="10"></path></g></g><g transform="translate(-61,-6) scale(1,1)"><g><path fill="none" stroke="none"></path><text fill="#000000" stroke="none" font-family="Arial" font-size="13px" font-style="normal" font-weight="normal" text-decoration="none" x="405" y="133.5">+getUsers()</text></g></g><g transform="translate(-61,-6) scale(1,1)"><g><path fill="none" stroke="none"></path><text fill="#000000" stroke="none" font-family="Arial" font-size="13px" font-style="normal" font-weight="normal" text-decoration="none" x="405" y="148.5">+getUserLocation()</text></g></g><g transform="translate(-61,-6) scale(1,1)"><g><path fill="none" stroke="none"></path><text fill="#000000" stroke="none" font-family="Arial" font-size="13px" font-style="normal" font-weight="normal" text-decoration="none" x="405" y="163.5">+getUserCourse()</text></g></g><g transform="translate(-61,-6) scale(1,1)"><rect fill="#C0C0C0" stroke="none" x="407" y="327" width="134" height="100" opacity="0.2"></rect></g><g transform="translate(-61,-6) scale(1,1)"><rect fill="#ffffff" stroke="none" x="400" y="320" width="134" height="100"></rect></g><g transform="translate(-61,-6) scale(1,1)"><path fill="none" stroke="#000000" d="M 400 320 L 534 320 L 534 420 L 400 420 L 400 320 Z Z" stroke-miterlimit="10"></path></g><g transform="translate(-61,-6) scale(1,1)"><path fill="none" stroke="#000000" d="M 400 345 L 534 345" stroke-miterlimit="10"></path></g><g transform="translate(-61,-6) scale(1,1)"><path fill="none" stroke="#000000" d="M 400 368 L 534 368" stroke-miterlimit="10"></path></g><g transform="translate(-61,-6) scale(1,1)"><g><path fill="none" stroke="none"></path><text fill="#000000" stroke="none" font-family="Arial" font-size="13px" font-style="normal" font-weight="bold" text-decoration="none" x="428" y="339.5">CourseAdmin</text></g></g><g transform="translate(-61,-6) scale(1,1)"><g><path fill="none" stroke="none"></path><text fill="#000000" stroke="none" font-family="Arial" font-size="13px" font-style="normal" font-weight="normal" text-decoration="none" x="405" y="362.5">-location: Location[*]</text></g></g><g transform="translate(-61,-6) scale(1,1)"><g><path fill="none" stroke="none"></path><text fill="#000000" stroke="none" font-family="Arial" font-size="13px" font-style="normal" font-weight="normal" text-decoration="none" x="405" y="385.5">+getCurrentLocation()</text><path fill="none" stroke="#000000" d="M 405 385.5 L 530 385.5" stroke-miterlimit="10"></path></g></g><g transform="translate(-61,-6) scale(1,1)"><g><path fill="none" stroke="none"></path><text fill="#000000" stroke="none" font-family="Arial" font-size="13px" font-style="normal" font-weight="normal" text-decoration="none" x="405" y="400.5">+createMarker()</text><path fill="none" stroke="#000000" d="M 405 400.5 L 497 400.5" stroke-miterlimit="10"></path></g></g><g transform="translate(-61,-6) scale(1,1)"><g><path fill="none" stroke="none"></path><text fill="#000000" stroke="none" font-family="Arial" font-size="13px" font-style="normal" font-weight="normal" text-decoration="none" x="405" y="415.5">+createCourse()</text><path fill="none" stroke="#000000" d="M 405 415.5 L 498 415.5" stroke-miterlimit="10"></path></g></g><g transform="translate(-61,-6) scale(1,1)"><rect fill="#C0C0C0" stroke="none" x="117" y="619" width="151" height="100" opacity="0.2"></rect></g><g transform="translate(-61,-6) scale(1,1)"><rect fill="#ffffff" stroke="none" x="110" y="612" width="151" height="100"></rect></g><g transform="translate(-61,-6) scale(1,1)"><path fill="none" stroke="#000000" d="M 110 612 L 261 612 L 261 712 L 110 712 L 110 612 Z Z" stroke-miterlimit="10"></path></g><g transform="translate(-61,-6) scale(1,1)"><path fill="none" stroke="#000000" d="M 110 637 L 261 637" stroke-miterlimit="10"></path></g><g transform="translate(-61,-6) scale(1,1)"><path fill="none" stroke="#000000" d="M 110 675 L 261 675" stroke-miterlimit="10"></path></g><g transform="translate(-61,-6) scale(1,1)"><g><path fill="none" stroke="none"></path><text fill="#000000" stroke="none" font-family="Arial" font-size="13px" font-style="normal" font-weight="bold" text-decoration="none" x="161" y="631.5">Location</text></g></g><g transform="translate(-61,-6) scale(1,1)"><g><path fill="none" stroke="none"></path><text fill="#000000" stroke="none" font-family="Arial" font-size="13px" font-style="normal" font-weight="normal" text-decoration="none" x="115" y="654.5">-longitude: double[1]</text></g></g><g transform="translate(-61,-6) scale(1,1)"><g><path fill="none" stroke="none"></path><text fill="#000000" stroke="none" font-family="Arial" font-size="13px" font-style="normal" font-weight="normal" text-decoration="none" x="115" y="669.5">-latitude: double[1]</text></g></g><g transform="translate(-61,-6) scale(1,1)"><g><path fill="none" stroke="none"></path><text fill="#000000" stroke="none" font-family="Arial" font-size="13px" font-style="normal" font-weight="normal" text-decoration="none" x="115" y="692.5">+getLongitude()</text></g></g><g transform="translate(-61,-6) scale(1,1)"><g><path fill="none" stroke="none"></path><text fill="#000000" stroke="none" font-family="Arial" font-size="13px" font-style="normal" font-weight="normal" text-decoration="none" x="115" y="707.5">+getLatitude()</text></g></g><g transform="translate(-61,-6) scale(1,1)"><rect fill="#C0C0C0" stroke="none" x="679" y="603" width="152" height="130" opacity="0.2"></rect></g><g transform="translate(-61,-6) scale(1,1)"><rect fill="#ffffff" stroke="none" x="672" y="596" width="152" height="130"></rect></g><g transform="translate(-61,-6) scale(1,1)"><path fill="none" stroke="#000000" d="M 672 596 L 824 596 L 824 726 L 672 726 L 672 596 Z Z" stroke-miterlimit="10"></path></g><g transform="translate(-61,-6) scale(1,1)"><path fill="none" stroke="#000000" d="M 672 621 L 824 621" stroke-miterlimit="10"></path></g><g transform="translate(-61,-6) scale(1,1)"><path fill="none" stroke="#000000" d="M 672 674 L 824 674" stroke-miterlimit="10"></path></g><g transform="translate(-61,-6) scale(1,1)"><g><path fill="none" stroke="none"></path><text fill="#000000" stroke="none" font-family="Arial" font-size="13px" font-style="normal" font-weight="bold" text-decoration="none" x="727.5" y="615.5">Course</text></g></g><g transform="translate(-61,-6) scale(1,1)"><g><path fill="none" stroke="none"></path><text fill="#000000" stroke="none" font-family="Arial" font-size="13px" font-style="normal" font-weight="normal" text-decoration="none" x="677" y="638.5">-ID {id, ordered, unique}</text></g></g><g transform="translate(-61,-6) scale(1,1)"><g><path fill="none" stroke="none"></path><text fill="#000000" stroke="none" font-family="Arial" font-size="13px" font-style="normal" font-weight="normal" text-decoration="none" x="677" y="653.5">-ageFor: int</text></g></g><g transform="translate(-61,-6) scale(1,1)"><g><path fill="none" stroke="none"></path><text fill="#000000" stroke="none" font-family="Arial" font-size="13px" font-style="normal" font-weight="normal" text-decoration="none" x="677" y="668.5">«Marker»-markerList</text></g></g><g transform="translate(-61,-6) scale(1,1)"><g><path fill="none" stroke="none"></path><text fill="#000000" stroke="none" font-family="Arial" font-size="13px" font-style="normal" font-weight="normal" text-decoration="none" x="677" y="691.5">+setAgeFor(age: int)</text></g></g><g transform="translate(-61,-6) scale(1,1)"><g><path fill="none" stroke="none"></path><text fill="#000000" stroke="none" font-family="Arial" font-size="13px" font-style="normal" font-weight="normal" text-decoration="none" x="677" y="706.5">+getAgeFor()</text></g></g><g transform="translate(-61,-6) scale(1,1)"><g><path fill="none" stroke="none"></path><text fill="#000000" stroke="none" font-family="Arial" font-size="13px" font-style="normal" font-weight="normal" text-decoration="none" x="677" y="721.5">+getID()</text></g></g><g transform="translate(-61,-6) scale(1,1)"><rect fill="#C0C0C0" stroke="none" x="407" y="604" width="130" height="130" opacity="0.2"></rect></g><g transform="translate(-61,-6) scale(1,1)"><rect fill="#ffffff" stroke="none" x="400" y="597" width="130" height="130"></rect></g><g transform="translate(-61,-6) scale(1,1)"><path fill="none" stroke="#000000" d="M 400 597 L 530 597 L 530 727 L 400 727 L 400 597 Z Z" stroke-miterlimit="10"></path></g><g transform="translate(-61,-6) scale(1,1)"><path fill="none" stroke="#000000" d="M 400 622 L 530 622" stroke-miterlimit="10"></path></g><g transform="translate(-61,-6) scale(1,1)"><path fill="none" stroke="#000000" d="M 400 660 L 530 660" stroke-miterlimit="10"></path></g><g transform="translate(-61,-6) scale(1,1)"><g><path fill="none" stroke="none"></path><text fill="#000000" stroke="none" font-family="Arial" font-size="13px" font-style="normal" font-weight="bold" text-decoration="none" x="445" y="616.5">Marker</text></g></g><g transform="translate(-61,-6) scale(1,1)"><g><path fill="none" stroke="none"></path><text fill="#000000" stroke="none" font-family="Arial" font-size="13px" font-style="normal" font-weight="normal" text-decoration="none" x="405" y="639.5">-location: Location[1]</text></g></g><g transform="translate(-61,-6) scale(1,1)"><g><path fill="none" stroke="none"></path><text fill="#000000" stroke="none" font-family="Arial" font-size="13px" font-style="normal" font-weight="normal" text-decoration="none" x="405" y="654.5">-image: url[1]</text></g></g><g transform="translate(-61,-6) scale(1,1)"><g><path fill="none" stroke="none"></path><text fill="#000000" stroke="none" font-family="Arial" font-size="13px" font-style="normal" font-weight="normal" text-decoration="none" x="405" y="677.5">+getLocation()</text></g></g><g transform="translate(-61,-6) scale(1,1)"><g><path fill="none" stroke="none"></path><text fill="#000000" stroke="none" font-family="Arial" font-size="13px" font-style="normal" font-weight="normal" text-decoration="none" x="405" y="692.5">+setLocation()</text></g></g><g transform="translate(-61,-6) scale(1,1)"><g><path fill="none" stroke="none"></path><text fill="#000000" stroke="none" font-family="Arial" font-size="13px" font-style="normal" font-weight="normal" text-decoration="none" x="405" y="707.5">+getImage()</text></g></g><g transform="translate(-61,-6) scale(1,1)"><g><path fill="none" stroke="none"></path><text fill="#000000" stroke="none" font-family="Arial" font-size="13px" font-style="normal" font-weight="normal" text-decoration="none" x="405" y="722.5">+setImage()</text></g></g><g transform="translate(-61,-6) scale(1,1)"><path fill="none" stroke="#000000" d="M 185 368 L 185 611" stroke-miterlimit="10"></path></g><g transform="translate(-61,-6) scale(1,1)"><path fill="none" stroke="#000000" d="M 418 421 L 234 611" stroke-miterlimit="10"></path></g><g transform="translate(-61,-6) scale(1,1)"><path fill="none" stroke="#000000" d="M 399 662 L 262 662" stroke-miterlimit="10"></path></g><g transform="translate(-61,-6) scale(1,1)"><path fill="none" stroke="#000000" d="M 516 421 L 684 595" stroke-miterlimit="10"></path></g><g transform="translate(-61,-6) scale(1,1)"><path fill="none" stroke="#000000" d="M 467 421 L 465 596" stroke-miterlimit="10"></path></g><g transform="translate(-61,-6) scale(1,1)"><path fill="none" stroke="#000000" d="M 531 662 L 671 661" stroke-miterlimit="10"></path></g><g transform="translate(-61,-6) scale(1,1)"><g><path fill="none" stroke="none"></path><text fill="#000000" stroke="none" font-family="Arial" font-size="13px" font-style="normal" font-weight="normal" text-decoration="none" x="541.5" y="680.5">1..*</text></g></g><g transform="translate(-61,-6) scale(1,1)"><g><path fill="none" stroke="none"></path><text fill="#000000" stroke="none" font-family="Arial" font-size="13px" font-style="normal" font-weight="normal" text-decoration="none" x="638.5" y="679.5">0..*</text></g></g><g transform="translate(-61,-6) scale(1,1)"><rect fill="#C0C0C0" stroke="none" x="407" y="228" width="120" height="87" opacity="0.2"></rect></g><g transform="translate(-61,-6) scale(1,1)"><rect fill="#ffffff" stroke="none" x="400" y="221" width="120" height="87"></rect></g><g transform="translate(-61,-6) scale(1,1)"><path fill="none" stroke="#000000" d="M 400 221 L 520 221 L 520 308 L 400 308 L 400 221 Z Z" stroke-miterlimit="10"></path></g><g transform="translate(-61,-6) scale(1,1)"><path fill="none" stroke="#000000" d="M 400 246 L 520 246" stroke-miterlimit="10"></path></g><g transform="translate(-61,-6) scale(1,1)"><path fill="none" stroke="#000000" d="M 400 256 L 520 256" stroke-miterlimit="10"></path></g><g transform="translate(-61,-6) scale(1,1)"><g><path fill="none" stroke="none"></path><text fill="#000000" stroke="none" font-family="Arial" font-size="13px" font-style="normal" font-weight="bold" text-decoration="none" x="432.5" y="240.5">FieldUser</text></g></g><g transform="translate(-61,-6) scale(1,1)"><g><path fill="none" stroke="none"></path><text fill="#000000" stroke="none" font-family="Arial" font-size="13px" font-style="normal" font-weight="normal" text-decoration="none" x="405" y="273.5">+getDirectionHelp()</text><path fill="none" stroke="#000000" d="M 405 273.5 L 516 273.5" stroke-miterlimit="10"></path></g></g><g transform="translate(-61,-6) scale(1,1)"><g><path fill="none" stroke="none"></path><text fill="#000000" stroke="none" font-family="Arial" font-size="13px" font-style="normal" font-weight="normal" text-decoration="none" x="405" y="288.5">+getMonitorHelp()</text><path fill="none" stroke="#000000" d="M 405 288.5 L 508 288.5" stroke-miterlimit="10"></path></g></g><g transform="translate(-61,-6) scale(1,1)"><g><path fill="none" stroke="none"></path><text fill="#000000" stroke="none" font-family="Arial" font-size="13px" font-style="normal" font-weight="normal" text-decoration="none" x="405" y="303.5">+setTargetMarker()</text></g></g><g transform="translate(-61,-6) scale(1,1)"><path fill="none" stroke="#000000" d="M 399 264 L 300 264" stroke-miterlimit="10"></path></g><g transform="translate(-61,-6) scale(1,1)"><path fill="#FFFFFF" stroke="none" d="M 320.3253497152483 255.58096448796803 L 300 264 L 320.3253497152483 272.419035512032"></path></g><g transform="translate(-61,-6) scale(1,1)"><path fill="none" stroke="#000000" d="M 320.3253497152483 255.58096448796803 L 300 264 L 320.3253497152483 272.419035512032 L 320.3253497152483 255.58096448796803" stroke-miterlimit="10"></path></g><g transform="translate(-61,-6) scale(1,1)"><path fill="none" stroke="#000000" d="M 532 169 L 493 220" stroke-miterlimit="10"></path></g><g transform="translate(-61,-6) scale(1,1)"><g><path fill="none" stroke="none"></path><text fill="#000000" stroke="none" font-family="Arial" font-size="13px" font-style="normal" font-weight="normal" text-decoration="none" x="493.5" y="208.5">+message</text></g></g></g></svg>