<svg version="1.1" xmlns="http://www.w3.org/2000/svg" xmlns:xlink="http://www.w3.org/1999/xlink" width="931" height="747"><defs></defs><g><g transform="translate(-14,-6) scale(1,1)"><rect fill="#49ffe0" stroke="none" x="720" y="16" width="215" height="21"></rect></g><g transform="translate(-14,-6) scale(1,1)"><path fill="none" stroke="#000000" d="M 720 16 L 935 16 L 935 37 L 720 37 L 720 16 Z Z" stroke-miterlimit="10" stroke-width="2"></path></g><g transform="translate(-14,-6) scale(1,1)"><path fill="none" stroke="#000000" d="M 720 743 L 720 16 L 935 16 L 935 743" stroke-miterlimit="10" stroke-width="2"></path></g><g transform="translate(-14,-6) scale(1,1)"><g><path fill="none" stroke="none"></path><text fill="#000000" stroke="none" font-family="Arial" font-size="13px" font-style="normal" font-weight="normal" text-decoration="none" x="798" y="33">Field User</text></g></g><g transform="translate(-14,-6) scale(1,1)"><rect fill="#ff38ff" stroke="none" x="24" y="16" width="367" height="21"></rect></g><g transform="translate(-14,-6) scale(1,1)"><path fill="none" stroke="#000000" d="M 24 16 L 391 16 L 391 37 L 24 37 L 24 16 Z Z" stroke-miterlimit="10" stroke-width="2"></path></g><g transform="translate(-14,-6) scale(1,1)"><path fill="none" stroke="#000000" d="M 24 687 L 24 16 L 391 16 L 391 687" stroke-miterlimit="10" stroke-width="2"></path></g><g transform="translate(-14,-6) scale(1,1)"><g><path fill="none" stroke="none"></path><text fill="#000000" stroke="none" font-family="Arial" font-size="13px" font-style="normal" font-weight="normal" text-decoration="none" x="170.5" y="33">Monitor User</text></g></g><g transform="translate(-14,-6) scale(1,1)"><path fill="#C0C0C0" stroke="none" d="M 205 72.5 C 205 67.2532944 209.2532944 63 214.5 63 C 219.7467056 63 224 67.2532944 224 72.5 C 224 77.7467056 219.7467056 82 214.5 82 C 209.2532944 82 205 77.7467056 205 72.5 Z" opacity="0.2"></path></g><g transform="translate(-14,-6) scale(1,1)"><path fill="#000000" stroke="none" d="M 198 65.5 C 198 60.2532944 202.2532944 56 207.5 56 C 212.7467056 56 217 60.2532944 217 65.5 C 217 70.7467056 212.7467056 75 207.5 75 C 202.2532944 75 198 70.7467056 198 65.5 Z"></path></g><g transform="translate(-14,-6) scale(1,1)"><path fill="#C0C0C0" stroke="none" d="M 173 143 L 256 143 Q 266 143 266 153 L 266 173 Q 266 183 256 183 L 173 183 Q 163 183 163 173 L 163 153 Q 163 143 173 143 Z" opacity="0.2"></path></g><g transform="translate(-14,-6) scale(1,1)"><path fill="#ff38ff" stroke="none" d="M 166 136 L 249 136 Q 259 136 259 146 L 259 166 Q 259 176 249 176 L 166 176 Q 156 176 156 166 L 156 146 Q 156 136 166 136 Z"></path></g><g transform="translate(-14,-6) scale(1,1)"><path fill="none" stroke="#000000" d="M 166 136 L 249 136 Q 259 136 259 146 L 259 166 Q 259 176 249 176 L 166 176 Q 156 176 156 166 L 156 146 Q 156 136 166 136 Z" stroke-miterlimit="10"></path></g><g transform="translate(-14,-6) scale(1,1)"><g><path fill="none" stroke="none"></path><text fill="#000000" stroke="none" font-family="Arial" font-size="13px" font-style="normal" font-weight="bold" text-decoration="none" x="163.5" y="155.5">Write message</text></g></g><g transform="translate(-14,-6) scale(1,1)"><path fill="#C0C0C0" stroke="none" d="M 183 231 L 246 231 Q 249 231 249 234 L 249 233 Q 249 236 246 236 L 183 236 Q 180 236 180 233 L 180 234 Q 180 231 183 231 Z" opacity="0.2"></path></g><g transform="translate(-14,-6) scale(1,1)"><path fill="#000000" stroke="none" d="M 176 224 L 239 224 Q 242 224 242 227 L 242 227 Q 242 230 239 230 L 176 230 Q 173 230 173 227 L 173 227 Q 173 224 176 224 Z"></path></g><g transform="translate(-14,-6) scale(1,1)"><path fill="#C0C0C0" stroke="none" d="M 89 303 L 191 303 Q 201 303 201 313 L 201 333 Q 201 343 191 343 L 89 343 Q 79 343 79 333 L 79 313 Q 79 303 89 303 Z" opacity="0.2"></path></g><g transform="translate(-14,-6) scale(1,1)"><path fill="#ff38ff" stroke="none" d="M 82 296 L 184 296 Q 194 296 194 306 L 194 326 Q 194 336 184 336 L 82 336 Q 72 336 72 326 L 72 306 Q 72 296 82 296 Z"></path></g><g transform="translate(-14,-6) scale(1,1)"><path fill="none" stroke="#000000" d="M 82 296 L 184 296 Q 194 296 194 306 L 194 326 Q 194 336 184 336 L 82 336 Q 72 336 72 326 L 72 306 Q 72 296 82 296 Z" stroke-miterlimit="10"></path></g><g transform="translate(-14,-6) scale(1,1)"><g><path fill="none" stroke="none"></path><text fill="#000000" stroke="none" font-family="Arial" font-size="13px" font-style="normal" font-weight="bold" text-decoration="none" x="81.5" y="315.5">Add Time Penalty</text></g></g><g transform="translate(-14,-6) scale(1,1)"><path fill="#C0C0C0" stroke="none" d="M 183 399 L 246 399 Q 249 399 249 402 L 249 401 Q 249 404 246 404 L 183 404 Q 180 404 180 401 L 180 402 Q 180 399 183 399 Z" opacity="0.2"></path></g><g transform="translate(-14,-6) scale(1,1)"><path fill="#000000" stroke="none" d="M 176 392 L 239 392 Q 242 392 242 395 L 242 395 Q 242 398 239 398 L 176 398 Q 173 398 173 395 L 173 395 Q 173 392 176 392 Z"></path></g><g transform="translate(-14,-6) scale(1,1)"><path fill="#C0C0C0" stroke="none" d="M 177 471 L 251 471 Q 261 471 261 481 L 261 501 Q 261 511 251 511 L 177 511 Q 167 511 167 501 L 167 481 Q 167 471 177 471 Z" opacity="0.2"></path></g><g transform="translate(-14,-6) scale(1,1)"><path fill="#ff38ff" stroke="none" d="M 170 464 L 244 464 Q 254 464 254 474 L 254 494 Q 254 504 244 504 L 170 504 Q 160 504 160 494 L 160 474 Q 160 464 170 464 Z"></path></g><g transform="translate(-14,-6) scale(1,1)"><path fill="none" stroke="#000000" d="M 170 464 L 244 464 Q 254 464 254 474 L 254 494 Q 254 504 244 504 L 170 504 Q 160 504 160 494 L 160 474 Q 160 464 170 464 Z" stroke-miterlimit="10"></path></g><g transform="translate(-14,-6) scale(1,1)"><g><path fill="none" stroke="none"></path><text fill="#000000" stroke="none" font-family="Arial" font-size="13px" font-style="normal" font-weight="bold" text-decoration="none" x="169" y="483.5">Inititate Send</text></g></g><g transform="translate(-14,-6) scale(1,1)"><path fill="none" stroke="#000000" d="M 207 76 L 207 135" stroke-miterlimit="10"></path></g><g transform="translate(-14,-6) scale(1,1)"><path fill="none" stroke="#000000" d="M 202.790482243984 124.83732514237585 L 207 135 L 211.209517756016 124.83732514237585" stroke-miterlimit="10"></path></g><g transform="translate(-14,-6) scale(1,1)"><path fill="none" stroke="#000000" d="M 207 177 L 207 223" stroke-miterlimit="10"></path></g><g transform="translate(-14,-6) scale(1,1)"><path fill="none" stroke="#000000" d="M 202.790482243984 212.83732514237585 L 207 223 L 211.209517756016 212.83732514237585" stroke-miterlimit="10"></path></g><g transform="translate(-14,-6) scale(1,1)"><path fill="none" stroke="#000000" d="M 207 230 L 207 391" stroke-miterlimit="10"></path></g><g transform="translate(-14,-6) scale(1,1)"><path fill="none" stroke="#000000" d="M 202.790482243984 380.83732514237585 L 207 391 L 211.209517756016 380.83732514237585" stroke-miterlimit="10"></path></g><g transform="translate(-14,-6) scale(1,1)"><path fill="none" stroke="#000000" d="M 204 230 L 150 295" stroke-miterlimit="10"></path></g><g transform="translate(-14,-6) scale(1,1)"><path fill="none" stroke="#000000" d="M 153.2562288500635 284.49300358446743 L 150 295 L 159.732069916301 289.8729330856494" stroke-miterlimit="10"></path></g><g transform="translate(-14,-6) scale(1,1)"><path fill="none" stroke="#000000" d="M 153 337 L 204 391" stroke-miterlimit="10"></path></g><g transform="translate(-14,-6) scale(1,1)"><path fill="none" stroke="#000000" d="M 193.96169351038094 386.5019556671291 L 204 391 L 200.08244305941218 380.7212477597107" stroke-miterlimit="10"></path></g><g transform="translate(-14,-6) scale(1,1)"><path fill="none" stroke="#000000" d="M 207 398 L 207 463" stroke-miterlimit="10"></path></g><g transform="translate(-14,-6) scale(1,1)"><path fill="none" stroke="#000000" d="M 202.790482243984 452.83732514237585 L 207 463 L 211.209517756016 452.83732514237585" stroke-miterlimit="10"></path></g><g transform="translate(-14,-6) scale(1,1)"><path fill="#C0C0C0" stroke="none" d="M 457 471 L 550 471 Q 560 471 560 481 L 560 501 Q 560 511 550 511 L 457 511 Q 447 511 447 501 L 447 481 Q 447 471 457 471 Z" opacity="0.2"></path></g><g transform="translate(-14,-6) scale(1,1)"><path fill="#ffc1ad" stroke="none" d="M 450 464 L 543 464 Q 553 464 553 474 L 553 494 Q 553 504 543 504 L 450 504 Q 440 504 440 494 L 440 474 Q 440 464 450 464 Z"></path></g><g transform="translate(-14,-6) scale(1,1)"><path fill="none" stroke="#000000" d="M 450 464 L 543 464 Q 553 464 553 474 L 553 494 Q 553 504 543 504 L 450 504 Q 440 504 440 494 L 440 474 Q 440 464 450 464 Z" stroke-miterlimit="10"></path></g><g transform="translate(-14,-6) scale(1,1)"><g><path fill="none" stroke="none"></path><text fill="#000000" stroke="none" font-family="Arial" font-size="13px" font-style="normal" font-weight="bold" text-decoration="none" x="448.5" y="483.5">Notify Field User</text></g></g><g transform="translate(-14,-6) scale(1,1)"><path fill="#C0C0C0" stroke="none" d="M 789 471 L 880 471 Q 890 471 890 481 L 890 501 Q 890 511 880 511 L 789 511 Q 779 511 779 501 L 779 481 Q 779 471 789 471 Z" opacity="0.2"></path></g><g transform="translate(-14,-6) scale(1,1)"><path fill="#49ffe0" stroke="none" d="M 782 464 L 873 464 Q 883 464 883 474 L 883 494 Q 883 504 873 504 L 782 504 Q 772 504 772 494 L 772 474 Q 772 464 782 464 Z"></path></g><g transform="translate(-14,-6) scale(1,1)"><path fill="none" stroke="#000000" d="M 782 464 L 873 464 Q 883 464 883 474 L 883 494 Q 883 504 873 504 L 782 504 Q 772 504 772 494 L 772 474 Q 772 464 782 464 Z" stroke-miterlimit="10"></path></g><g transform="translate(-14,-6) scale(1,1)"><g><path fill="none" stroke="none"></path><text fill="#000000" stroke="none" font-family="Arial" font-size="13px" font-style="normal" font-weight="bold" text-decoration="none" x="778.5" y="483.5">Accept Message</text></g></g><g transform="translate(-14,-6) scale(1,1)"><path fill="#C0C0C0" stroke="none" d="M 823 560.5 L 834.5 551 L 845 560.5 L 834.5 569 L 823 560.5" opacity="0.2"></path></g><g transform="translate(-14,-6) scale(1,1)"><path fill="#6dff6d" stroke="none" d="M 816 553 L 827 544 L 838 553 L 827 562 L 816 553"></path></g><g transform="translate(-14,-6) scale(1,1)"><path fill="none" stroke="#000000" d="M 816 553 L 827 544 L 838 553 L 827 562 L 816 553 L 816 553" stroke-miterlimit="10"></path></g><g transform="translate(-14,-6) scale(1,1)"><path fill="#C0C0C0" stroke="none" d="M 783 627 L 885 627 Q 895 627 895 637 L 895 657 Q 895 667 885 667 L 783 667 Q 773 667 773 657 L 773 637 Q 773 627 783 627 Z" opacity="0.2"></path></g><g transform="translate(-14,-6) scale(1,1)"><path fill="#49ffe0" stroke="none" d="M 776 620 L 878 620 Q 888 620 888 630 L 888 650 Q 888 660 878 660 L 776 660 Q 766 660 766 650 L 766 630 Q 766 620 776 620 Z"></path></g><g transform="translate(-14,-6) scale(1,1)"><path fill="none" stroke="#000000" d="M 776 620 L 878 620 Q 888 620 888 630 L 888 650 Q 888 660 878 660 L 776 660 Q 766 660 766 650 L 766 630 Q 766 620 776 620 Z" stroke-miterlimit="10"></path></g><g transform="translate(-14,-6) scale(1,1)"><g><path fill="none" stroke="none"></path><text fill="#000000" stroke="none" font-family="Arial" font-size="13px" font-style="normal" font-weight="bold" text-decoration="none" x="792.5" y="639.5">Adjust Time</text></g></g><g transform="translate(-14,-6) scale(1,1)"><path fill="#C0C0C0" stroke="none" d="M 503 647.5 C 503 640.59644 508.59644 635 515.5 635 C 522.40356 635 528 640.59644 528 647.5 C 528 654.40356 522.40356 660 515.5 660 C 508.59644 660 503 654.40356 503 647.5 Z" opacity="0.2"></path></g><g transform="translate(-14,-6) scale(1,1)"><path fill="none" stroke="#000000" d="M 496 640.5 C 496 633.59644 501.59644 628 508.5 628 C 515.40356 628 521 633.59644 521 640.5 C 521 647.40356 515.40356 653 508.5 653 C 501.59644 653 496 647.40356 496 640.5 Z" stroke-miterlimit="10"></path></g><g transform="translate(-14,-6) scale(1,1)"><path fill="#000000" stroke="none" d="M 501 640.5 C 501 636.357864 504.357864 633 508.5 633 C 512.642136 633 516 636.357864 516 640.5 C 516 644.642136 512.642136 648 508.5 648 C 504.357864 648 501 644.642136 501 640.5 Z"></path></g><g transform="translate(-14,-6) scale(1,1)"><path fill="none" stroke="#000000" d="M 255 484 L 439 484" stroke-miterlimit="10"></path></g><g transform="translate(-14,-6) scale(1,1)"><path fill="none" stroke="#000000" d="M 428.83732514237585 488.209517756016 L 439 484 L 428.83732514237585 479.790482243984" stroke-miterlimit="10"></path></g><g transform="translate(-14,-6) scale(1,1)"><path fill="none" stroke="#000000" d="M 554 484 L 771 484" stroke-miterlimit="10"></path></g><g transform="translate(-14,-6) scale(1,1)"><path fill="none" stroke="#000000" d="M 760.8373251423759 488.209517756016 L 771 484 L 760.8373251423758 479.790482243984" stroke-miterlimit="10"></path></g><g transform="translate(-14,-6) scale(1,1)"><path fill="none" stroke="#000000" d="M 827 505 L 827 543" stroke-miterlimit="10"></path></g><g transform="translate(-14,-6) scale(1,1)"><path fill="none" stroke="#000000" d="M 822.790482243984 532.8373251423759 L 827 543 L 831.209517756016 532.8373251423759" stroke-miterlimit="10"></path></g><g transform="translate(-14,-6) scale(1,1)"><path fill="none" stroke="#000000" d="M 827 563 L 827 619" stroke-miterlimit="10"></path></g><g transform="translate(-14,-6) scale(1,1)"><path fill="none" stroke="#000000" d="M 822.790482243984 608.8373251423759 L 827 619 L 831.209517756016 608.8373251423759" stroke-miterlimit="10"></path></g><g transform="translate(-14,-6) scale(1,1)"><g><path fill="none" stroke="none"></path><text fill="#000000" stroke="none" font-family="Arial" font-size="13px" font-style="normal" font-weight="normal" text-decoration="none" x="830" y="596.5">true</text></g></g><g transform="translate(-14,-6) scale(1,1)"><path fill="none" stroke="#000000" d="M 815 556 L 522 636" stroke-miterlimit="10"></path></g><g transform="translate(-14,-6) scale(1,1)"><path fill="none" stroke="#000000" d="M 530.6950383817586 629.262321799036 L 522 636 L 532.9125785477731 637.3840626570644" stroke-miterlimit="10"></path></g><g transform="translate(-14,-6) scale(1,1)"><g><path fill="none" stroke="none"></path><text fill="#000000" stroke="none" font-family="Arial" font-size="13px" font-style="normal" font-weight="normal" text-decoration="none" x="657" y="616.5">false</text></g></g><g transform="translate(-14,-6) scale(1,1)"><path fill="none" stroke="#000000" d="M 765 640 L 522 640" stroke-miterlimit="10"></path></g><g transform="translate(-14,-6) scale(1,1)"><path fill="none" stroke="#000000" d="M 532.1626748576241 635.790482243984 L 522 640 L 532.1626748576241 644.209517756016" stroke-miterlimit="10"></path></g><g transform="translate(-14,-6) scale(1,1)"><path fill="#fff5d8" stroke="none" d="M 616 488 L 677 488 L 687 498 L 687 563 L 616 563 L 616 488"></path></g><g transform="translate(-14,-6) scale(1,1)"><path fill="none" stroke="#000000" d="M 616 488 L 677 488 L 687 498 L 687 563 L 616 563 L 616 488 L 616 488" stroke-miterlimit="10"></path></g><g transform="translate(-14,-6) scale(1,1)"><path fill="none" stroke="#000000" d="M 677 488 L 677 498 L 687 498 L 677 488" stroke-miterlimit="10"></path></g><g transform="translate(-14,-6) scale(1,1)"><g><path fill="none" stroke="none"></path><text fill="#000000" stroke="none" font-family="Arial" font-size="13px" font-style="normal" font-weight="normal" text-decoration="none" x="621" y="506">Does</text><text fill="#000000" stroke="none" font-family="Arial" font-size="13px" font-style="normal" font-weight="normal" text-decoration="none" x="621" y="519">message</text><text fill="#000000" stroke="none" font-family="Arial" font-size="13px" font-style="normal" font-weight="normal" text-decoration="none" x="621" y="532">contain</text><text fill="#000000" stroke="none" font-family="Arial" font-size="13px" font-style="normal" font-weight="normal" text-decoration="none" x="621" y="545">time</text><text fill="#000000" stroke="none" font-family="Arial" font-size="13px" font-style="normal" font-weight="normal" text-decoration="none" x="621" y="558">penalty?</text></g></g><g transform="translate(-14,-6) scale(1,1)"><path fill="none" stroke="#000000" d="M 689 532 L 815 551" stroke-miterlimit="10" stroke-dasharray="3"></path></g><g transform="translate(-14,-6) scale(1,1)"><path fill="#fff5d8" stroke="none" d="M 472 360 L 530 360 L 540 370 L 540 398 L 472 398 L 472 360"></path></g><g transform="translate(-14,-6) scale(1,1)"><path fill="none" stroke="#000000" d="M 472 360 L 530 360 L 540 370 L 540 398 L 472 398 L 472 360 L 472 360" stroke-miterlimit="10"></path></g><g transform="translate(-14,-6) scale(1,1)"><path fill="none" stroke="#000000" d="M 530 360 L 530 370 L 540 370 L 530 360" stroke-miterlimit="10"></path></g><g transform="translate(-14,-6) scale(1,1)"><g><path fill="none" stroke="none"></path><text fill="#000000" stroke="none" font-family="Arial" font-size="13px" font-style="normal" font-weight="normal" text-decoration="none" x="477" y="378">System</text></g></g><g transform="translate(-14,-6) scale(1,1)"><path fill="none" stroke="#000000" d="M 504 400 L 498 463" stroke-miterlimit="10" stroke-dasharray="3"></path></g></g></svg>